G04 DipTrace 2.3.1.0*
%INOptoSwitch.GTS*%
%MOMM*%
%ADD16R,1.0X0.8*%
%ADD17C,1.6*%
%ADD18R,1.5X1.3*%
%ADD19O,2.0X1.6*%
%ADD22C,2.5*%
%FSLAX53Y53*%
G04*
G71*
G90*
G75*
G01*
%LNTopMask*%
%LPD*%
D16*
X29766Y13653D3*
Y11853D3*
X26233Y13653D3*
Y11853D3*
D17*
X29289Y7938D3*
X26749D3*
X29289Y17438D3*
X26749D3*
D18*
X32465Y9843D3*
Y11743D3*
Y13336D3*
Y15236D3*
D19*
X35640Y10001D3*
Y12541D3*
Y15081D3*
D22*
X33735Y18542D3*
Y6542D3*
X22304Y12542D3*
D16*
X12462Y13653D3*
Y11853D3*
X8929Y13653D3*
Y11853D3*
D17*
X11986Y7938D3*
X9446D3*
X11986Y17438D3*
X9446D3*
D18*
X15161Y9843D3*
Y11743D3*
Y13336D3*
Y15236D3*
D19*
X18336Y10001D3*
Y12541D3*
Y15081D3*
D22*
X16431Y18542D3*
X16432Y6542D3*
X5000Y12542D3*
D16*
X12462Y30639D3*
Y28839D3*
X8929Y30639D3*
Y28839D3*
D17*
X11986Y24924D3*
X9446D3*
X11986Y34424D3*
X9446D3*
D18*
X15161Y26829D3*
Y28729D3*
Y30322D3*
Y32222D3*
D19*
X18336Y26988D3*
Y29528D3*
Y32068D3*
D22*
X16431Y35528D3*
X16432Y23528D3*
X5000Y29528D3*
D16*
X29766Y30639D3*
Y28839D3*
X26233Y30639D3*
Y28839D3*
D17*
X29289Y24924D3*
X26749D3*
X29289Y34424D3*
X26749D3*
D18*
X32465Y26829D3*
Y28729D3*
Y30322D3*
Y32222D3*
D19*
X35640Y26988D3*
Y29528D3*
Y32068D3*
D22*
X33735Y35528D3*
Y23528D3*
X22304Y29528D3*
M02*
