M48
METRIC,0000.00
T01C0.406
T02C0.8
T03C2.5
%
T01
X+002834Y+001191
X+002834Y+002889
X+001103Y+002889
X+001103Y+001191
T02
X+002929Y+000794
X+002675Y+000794
X+001834Y+001000
X+001834Y+001254
X+001834Y+001508
X+001199Y+001744
X+000945Y+001744
X+000945Y+002492
X+001199Y+002492
X+001834Y+002699
X+001834Y+002953
X+001834Y+003207
X+001199Y+003442
X+000945Y+003442
X+002675Y+003442
X+002929Y+003442
X+003564Y+003207
X+003564Y+002953
X+003564Y+002699
X+002929Y+002492
X+002675Y+002492
X+002675Y+001744
X+002929Y+001744
X+003564Y+001508
X+003564Y+001254
X+003564Y+001000
X+001199Y+000794
X+000945Y+000794
T03
X+003374Y+001854
X+003374Y+002353
X+003374Y+003553
X+002230Y+002953
X+001643Y+002353
X+001643Y+001854
X+002230Y+001254
X+001643Y+000654
X+000500Y+001254
X+000500Y+002953
X+001643Y+003553
X+003374Y+000654
T00
M30
