G04 DipTrace 2.3.1.0*
%INOptoSwitch.GTO*%
%MOMM*%
%ADD10C,0.25*%
%ADD14C,0.1*%
%ADD15C,0.2*%
%FSLAX53Y53*%
G04*
G71*
G90*
G75*
G01*
%LNTopSilk*%
%LPD*%
X28943Y14453D2*
D10*
Y11053D1*
X27643D1*
X27143Y11553D1*
Y14453D1*
X28943D1*
X31194Y6350D2*
X25797D1*
X24844Y7303D1*
Y19050D1*
X31194D1*
Y6350D1*
X11639Y14453D2*
Y11053D1*
X10339D1*
X9839Y11553D1*
Y14453D1*
X11639D1*
X13891Y6350D2*
X8493D1*
X7541Y7303D1*
Y19050D1*
X13891D1*
Y6350D1*
X11639Y31439D2*
Y28039D1*
X10339D1*
X9839Y28539D1*
Y31439D1*
X11639D1*
X13891Y23336D2*
X8493D1*
X7541Y24289D1*
Y36036D1*
X13891D1*
Y23336D1*
X28943Y31439D2*
Y28039D1*
X27643D1*
X27143Y28539D1*
Y31439D1*
X28943D1*
X31194Y23336D2*
X25797D1*
X24844Y24289D1*
Y36036D1*
X31194D1*
Y23336D1*
X19763Y20956D2*
D14*
X37069D1*
Y3968D1*
X19763D1*
Y20956D1*
X2460D2*
X19765D1*
X19766Y3968D1*
X2460D1*
Y20956D1*
Y37943D2*
X19765D1*
X19766Y20955D1*
X2460D1*
Y37943D1*
X19763D2*
X37069D1*
Y20955D1*
X19763D1*
Y37943D1*
X2460Y37941D2*
D15*
X37067D1*
Y3968D1*
X2460D1*
Y37941D1*
M02*
