G04 DipTrace 2.3.1.0*
%INOptoSwitch.GBO*%
%MOMM*%
%ADD25C,0.196*%
%FSLAX53Y53*%
G04*
G71*
G90*
G75*
G01*
%LNBotSilk*%
%LPD*%
X34551Y10011D2*
D25*
X33457D1*
X34003Y9465D2*
Y10558D1*
X34643Y12369D2*
X34582Y12247D1*
X34460Y12126D1*
X34339Y12065D1*
X34157Y12004D1*
X33852D1*
X33671Y12065D1*
X33549Y12126D1*
X33428Y12247D1*
X33366Y12369D1*
Y12612D1*
X33428Y12733D1*
X33549Y12855D1*
X33671Y12915D1*
X33852Y12976D1*
X34157D1*
X34339Y12915D1*
X34460Y12855D1*
X34582Y12733D1*
X34643Y12612D1*
Y12369D1*
X34339Y15516D2*
X34460Y15456D1*
X34582Y15334D1*
X34643Y15213D1*
Y14970D1*
X34582Y14848D1*
X34460Y14727D1*
X34339Y14665D1*
X34157Y14605D1*
X33852D1*
X33671Y14665D1*
X33549Y14727D1*
X33428Y14848D1*
X33366Y14970D1*
Y15213D1*
X33428Y15334D1*
X33549Y15456D1*
X33671Y15516D1*
X33852D1*
Y15213D1*
X17247Y10011D2*
X16153D1*
X16699Y9465D2*
Y10558D1*
X17339Y12369D2*
X17278Y12247D1*
X17156Y12126D1*
X17036Y12065D1*
X16853Y12004D1*
X16548D1*
X16367Y12065D1*
X16245Y12126D1*
X16124Y12247D1*
X16063Y12369D1*
Y12612D1*
X16124Y12733D1*
X16245Y12855D1*
X16367Y12915D1*
X16548Y12976D1*
X16853D1*
X17036Y12915D1*
X17156Y12855D1*
X17278Y12733D1*
X17339Y12612D1*
Y12369D1*
X17036Y15516D2*
X17156Y15456D1*
X17278Y15334D1*
X17339Y15213D1*
Y14970D1*
X17278Y14848D1*
X17156Y14727D1*
X17036Y14665D1*
X16853Y14605D1*
X16548D1*
X16367Y14665D1*
X16245Y14727D1*
X16124Y14848D1*
X16063Y14970D1*
Y15213D1*
X16124Y15334D1*
X16245Y15456D1*
X16367Y15516D1*
X16548D1*
Y15213D1*
X17247Y26997D2*
X16153D1*
X16699Y26451D2*
Y27545D1*
X17339Y29356D2*
X17278Y29233D1*
X17156Y29113D1*
X17036Y29051D1*
X16853Y28991D1*
X16548D1*
X16367Y29051D1*
X16245Y29113D1*
X16124Y29233D1*
X16063Y29356D1*
Y29598D1*
X16124Y29719D1*
X16245Y29841D1*
X16367Y29902D1*
X16548Y29962D1*
X16853D1*
X17036Y29902D1*
X17156Y29841D1*
X17278Y29719D1*
X17339Y29598D1*
Y29356D1*
X17036Y32502D2*
X17156Y32442D1*
X17278Y32320D1*
X17339Y32199D1*
Y31956D1*
X17278Y31834D1*
X17156Y31714D1*
X17036Y31652D1*
X16853Y31591D1*
X16548D1*
X16367Y31652D1*
X16245Y31714D1*
X16124Y31834D1*
X16063Y31956D1*
Y32199D1*
X16124Y32320D1*
X16245Y32442D1*
X16367Y32502D1*
X16548D1*
Y32199D1*
X34551Y26997D2*
X33457D1*
X34003Y26451D2*
Y27545D1*
X34643Y29356D2*
X34582Y29233D1*
X34460Y29113D1*
X34339Y29051D1*
X34157Y28991D1*
X33852D1*
X33671Y29051D1*
X33549Y29113D1*
X33428Y29233D1*
X33366Y29356D1*
Y29598D1*
X33428Y29719D1*
X33549Y29841D1*
X33671Y29902D1*
X33852Y29962D1*
X34157D1*
X34339Y29902D1*
X34460Y29841D1*
X34582Y29719D1*
X34643Y29598D1*
Y29356D1*
X34339Y32502D2*
X34460Y32442D1*
X34582Y32320D1*
X34643Y32199D1*
Y31956D1*
X34582Y31834D1*
X34460Y31714D1*
X34339Y31652D1*
X34157Y31591D1*
X33852D1*
X33671Y31652D1*
X33549Y31714D1*
X33428Y31834D1*
X33366Y31956D1*
Y32199D1*
X33428Y32320D1*
X33549Y32442D1*
X33671Y32502D1*
X33852D1*
Y32199D1*
M02*
