G04 DipTrace 2.3.1.0*
%INOptoSwitch.GTL*%
%MOMM*%
%ADD13C,0.6*%
%ADD16R,1.0X0.8*%
%ADD17C,1.6*%
%ADD18R,1.5X1.3*%
%ADD19O,2.0X1.6*%
%ADD20C,0.914*%
%FSLAX53Y53*%
G04*
G71*
G90*
G75*
G01*
%LNTop*%
%LPD*%
X32465Y9843D2*
D13*
X26748D1*
X26233Y10358D1*
Y11853D1*
X26749Y7938D2*
Y9843D1*
X28336Y11906D2*
X29713D1*
X29766Y11853D1*
X28336Y11906D2*
Y13017D1*
X27701Y13652D1*
X26234D1*
X26233Y13653D1*
X32465Y11743D2*
Y13336D1*
X35640Y10001D2*
X35005D1*
X33264Y11743D1*
X32465D1*
X35640Y12541D2*
X34527D1*
X34051Y13017D1*
Y14287D1*
X32939Y15400D1*
X32629D1*
X32465Y15236D1*
X29766D1*
Y13653D1*
Y15236D2*
Y16961D1*
X29289Y17438D1*
X15161Y9843D2*
X9444D1*
X8929Y10358D1*
Y11853D1*
X9446Y7938D2*
X9444Y9843D1*
X11032Y11906D2*
X12515D1*
X12462Y11853D1*
X11032Y11906D2*
Y13017D1*
X10397Y13652D1*
X8930D1*
X8929Y13653D1*
X15161Y11743D2*
Y13336D1*
X18336Y10001D2*
X17701D1*
X15960Y11743D1*
X15161D1*
X18336Y12541D2*
X17223D1*
X16747Y13017D1*
Y14287D1*
X15635Y15400D1*
X15325D1*
X15161Y15236D1*
X12462D1*
Y13653D1*
Y15236D2*
Y16961D1*
X11986Y17438D1*
X15161Y26829D2*
X9444D1*
X8929Y27344D1*
Y28839D1*
X9446Y24924D2*
Y26829D1*
X11032Y28892D2*
X12409D1*
X12462Y28839D1*
X11032Y28892D2*
Y30003D1*
X10397Y30638D1*
X8930D1*
X8929Y30639D1*
X15161Y28729D2*
Y30322D1*
X18336Y26988D2*
X17701D1*
X15960Y28729D1*
X15161D1*
X18336Y29528D2*
X17223D1*
X16747Y30003D1*
Y31273D1*
X15635Y32386D1*
X15325D1*
X15161Y32222D1*
X12462D1*
Y30639D1*
Y32222D2*
Y33947D1*
X11986Y34424D1*
X32465Y26829D2*
X26748D1*
X26233Y27344D1*
Y28839D1*
X26749Y24924D2*
Y26829D1*
X28336Y28892D2*
X29713D1*
X29766Y28839D1*
X28336Y28892D2*
Y30003D1*
X27701Y30638D1*
X26234D1*
X26233Y30639D1*
X32465Y28729D2*
Y30322D1*
X35640Y26988D2*
X35005D1*
X33264Y28729D1*
X32465D1*
X35640Y29528D2*
X34527D1*
X34051Y30003D1*
Y31273D1*
X32939Y32386D1*
X32629D1*
X32465Y32222D1*
X29766D1*
Y30639D1*
Y32222D2*
Y33947D1*
X29289Y34424D1*
D20*
X28336Y11906D3*
D3*
X11032D3*
D3*
Y28892D3*
D3*
X28336D3*
D3*
D16*
X29766Y13653D3*
Y11853D3*
X26233Y13653D3*
Y11853D3*
D17*
X29289Y7938D3*
X26749D3*
X29289Y17438D3*
X26749D3*
D18*
X32465Y9843D3*
Y11743D3*
Y13336D3*
Y15236D3*
D19*
X35640Y10001D3*
Y12541D3*
Y15081D3*
D16*
X12462Y13653D3*
Y11853D3*
X8929Y13653D3*
Y11853D3*
D17*
X11986Y7938D3*
X9446D3*
X11986Y17438D3*
X9446D3*
D18*
X15161Y9843D3*
Y11743D3*
Y13336D3*
Y15236D3*
D19*
X18336Y10001D3*
Y12541D3*
Y15081D3*
D16*
X12462Y30639D3*
Y28839D3*
X8929Y30639D3*
Y28839D3*
D17*
X11986Y24924D3*
X9446D3*
X11986Y34424D3*
X9446D3*
D18*
X15161Y26829D3*
Y28729D3*
Y30322D3*
Y32222D3*
D19*
X18336Y26988D3*
Y29528D3*
Y32068D3*
D16*
X29766Y30639D3*
Y28839D3*
X26233Y30639D3*
Y28839D3*
D17*
X29289Y24924D3*
X26749D3*
X29289Y34424D3*
X26749D3*
D18*
X32465Y26829D3*
Y28729D3*
Y30322D3*
Y32222D3*
D19*
X35640Y26988D3*
Y29528D3*
Y32068D3*
M02*
