G04 DipTrace Beta 2.3.5.2*
%INBottom.gbr*%
%MOMM*%
%ADD13C,0.6*%
%ADD14C,1.0*%
%ADD15C,1.4*%
%ADD16C,0.4*%
%ADD17C,2.0*%
%ADD18C,1.6*%
%ADD19C,0.8*%
%ADD20C,0.33*%
%ADD26R,1.1X1.0*%
%ADD27R,1.6X2.7*%
%ADD33C,1.3*%
%ADD38R,1.5X1.5*%
%ADD39C,1.5*%
%ADD44C,1.2*%
%ADD45C,1.524*%
%ADD46R,1.524X1.524*%
%ADD56C,2.5*%
%ADD57C,3.0*%
%ADD60R,1.6X1.6*%
%ADD61C,0.914*%
%FSLAX53Y53*%
G04*
G71*
G90*
G75*
G01*
%LNBottom*%
%LPD*%
X15875Y62870D2*
D15*
X18420D1*
X21907Y66358D1*
Y101282D1*
X26988Y106362D1*
Y109142D1*
X27065Y109220D1*
X37465Y31845D2*
D14*
X29210D1*
X25623D1*
X22384Y35084D1*
Y52546D1*
X18415Y56515D1*
X15880D1*
X15875Y56520D1*
X37065Y109220D2*
D17*
Y112795D1*
X35877Y113983D1*
X11430D1*
X7302Y109855D1*
Y76835D1*
X15875D1*
X7302D2*
Y73660D1*
Y40640D1*
X15875D1*
X5715Y73660D2*
D14*
X7302D1*
Y40640D2*
D18*
Y37470D1*
X25400Y19372D1*
Y12383D1*
X27940Y9843D1*
X40308D1*
X41581D1*
X53340D1*
X61278Y1905D1*
X63500D1*
X69850D1*
X73343Y5398D1*
Y24130D1*
Y45720D1*
Y67310D1*
Y88900D1*
X40308Y9840D2*
D16*
Y9843D1*
X15875Y99065D2*
D15*
Y102870D1*
X17145Y104140D1*
Y109140D1*
X17065Y109220D1*
X69850Y16510D2*
D14*
Y19050D1*
Y21590D1*
Y37988D1*
X69962Y38100D1*
Y40640D1*
Y43180D1*
Y59690D1*
Y62230D1*
Y64770D1*
Y81280D1*
Y83820D1*
Y86360D1*
X69850Y14605D2*
Y16510D1*
X51117Y93853D2*
D13*
Y94933D1*
X49530Y96520D1*
Y104457D1*
X50165Y105093D1*
X51245D1*
X51117Y104965D1*
X69962Y86360D2*
D14*
Y92598D1*
X69850Y92710D1*
X15875Y99065D2*
D15*
X13975D1*
X12065Y97155D1*
Y85090D1*
X19050Y78105D1*
Y75248D1*
X12383Y68580D1*
Y59968D1*
Y47942D1*
X14605Y45720D1*
X16510D1*
X20320Y41910D1*
Y35560D1*
X18850Y34090D1*
X17145Y32385D1*
X18850Y34090D2*
D14*
Y34290D1*
X20003D1*
X27940Y26353D1*
Y14922D1*
X29845Y13018D1*
X53340D1*
X57526Y8831D1*
X62230Y4128D1*
X67945D1*
X69850Y6032D1*
Y14605D1*
X12383Y59968D2*
X19646D1*
X21273Y61595D1*
X25718D1*
Y59055D1*
Y61595D2*
Y65406D1*
X26669Y66357D1*
X28099D1*
D19*
X26988D1*
Y77788D1*
Y82868D1*
X28099Y83979D1*
X29210D1*
X29369Y84138D1*
X29082D1*
X29210Y84010D1*
X43180Y79820D2*
X41244D1*
X39211Y77788D1*
X26988D1*
X57626Y38894D2*
Y40322D1*
X56039Y41910D1*
X49212D1*
X46990Y39688D1*
Y33020D1*
X59690Y20320D1*
Y10995D1*
X57526Y8831D1*
X78740Y86360D2*
D13*
X82233D1*
Y71120D1*
Y64770D1*
Y49530D1*
Y43180D1*
Y27940D1*
Y21590D1*
Y8255D1*
X80328Y6350D1*
X78740D1*
Y21590D2*
X82233D1*
X78740Y27940D2*
X82233D1*
X78740Y43180D2*
X82233D1*
X78740Y49530D2*
X82233D1*
X78740Y64770D2*
X82233D1*
X78740Y71120D2*
X82233D1*
X74612Y107950D2*
D16*
X76200Y106362D1*
X80645D1*
X81597Y107315D1*
Y110808D1*
Y114300D1*
X79375Y116522D1*
X74295D1*
Y113665D1*
X17463Y17463D2*
X13336D1*
X12383Y16510D1*
Y13335D1*
X13336Y17463D2*
X12224Y16351D1*
X4128D1*
X2857Y17621D1*
Y32385D1*
X3492Y33020D1*
X17463Y17463D2*
X22225D1*
X82233Y86360D2*
Y95567D1*
X86043Y99377D1*
Y108267D1*
X83502Y110808D1*
X81597D1*
X34452Y46042D2*
X37310Y48900D1*
X49218D1*
X50805Y50488D1*
X78740Y88900D2*
D15*
X78422D1*
X76142D1*
X66040Y81280D2*
D13*
X68263D1*
X66040Y83820D2*
X68263D1*
X66040Y86360D2*
X68263D1*
X78740Y45720D2*
D15*
X76142D1*
X78740Y24130D2*
X76142D1*
X66040Y16510D2*
D13*
X68150D1*
X66040Y19050D2*
X68150D1*
X66040Y21590D2*
X68150D1*
X66040Y38100D2*
X68263D1*
X66040Y40640D2*
X68263D1*
X66040Y43180D2*
X68263D1*
X66040Y59690D2*
X68263D1*
X66040Y62230D2*
X68263D1*
X66040Y64770D2*
X68263D1*
X23178Y59055D2*
D16*
Y57785D1*
X24924Y56039D1*
X29051D1*
X38576Y52387D2*
X40481D1*
X44768Y56674D1*
Y60166D1*
X48255Y50795D2*
Y51758D1*
X47625Y52387D1*
Y55880D1*
X46831Y56674D1*
X44768D1*
X33179Y63817D2*
X41117D1*
X44768Y60166D1*
X78740Y67310D2*
D15*
X76142D1*
X28099Y63817D2*
D16*
X29369Y65087D1*
X38735D1*
X40322Y66675D1*
X31115Y74612D2*
X36036D1*
X42863Y67786D1*
Y64770D1*
X46514Y61119D1*
Y60008D1*
X52070Y84010D2*
X51625D1*
X50006Y82391D1*
Y61278D1*
X48578Y59849D1*
Y58261D1*
X52070Y82010D2*
X51530D1*
X50800Y81280D1*
Y59055D1*
X50165Y58420D1*
X43180Y81820D2*
X42926D1*
X42863Y81756D1*
X44768D1*
X46038Y80486D1*
Y73184D1*
X47942Y71279D1*
Y66358D1*
X46672Y65087D1*
X45561D1*
X32703Y46038D2*
X31115D1*
X30480Y45403D1*
Y44450D1*
X31115Y43815D1*
X41275D1*
X43498Y41593D1*
Y19368D1*
X41751Y17621D1*
X35401D1*
X31535Y44926D2*
X41751D1*
X44450Y42227D1*
Y19368D1*
X46196Y17621D1*
X57468D1*
X64453Y102965D2*
X65945D1*
X69850Y99060D1*
X76517D1*
X81280Y103822D1*
X43656Y71914D2*
Y70961D1*
X46355Y68263D1*
X33020Y40322D2*
Y35401D1*
X31274Y33655D1*
X39370Y40322D2*
Y31750D1*
X37465Y29845D1*
X37935Y47308D2*
X55562D1*
X36989Y46196D2*
X56515D1*
X5080Y18415D2*
X11430D1*
X15558Y22543D1*
X17463D1*
X59055Y111125D2*
X54928Y106998D1*
Y99377D1*
X59373Y94933D1*
Y73660D1*
X64135Y111125D2*
Y110808D1*
X60325Y106998D1*
Y99060D1*
X61913Y97473D1*
Y28099D1*
X63183Y26829D1*
Y10319D1*
X64611Y8890D1*
X66040D1*
X56515Y111125D2*
X53975Y108585D1*
Y98425D1*
X58102Y94297D1*
Y72866D1*
X59373Y71596D1*
X61595Y111125D2*
X61278D1*
X55880Y105728D1*
Y100330D1*
X60643Y95567D1*
Y27623D1*
X61913Y26353D1*
Y8890D1*
X64453Y6350D1*
X66040D1*
X46355Y113665D2*
X46038D1*
X41275Y108902D1*
Y90487D1*
X43498Y88265D1*
X47942D1*
X49530Y86678D1*
X53023D1*
X54292Y85407D1*
Y71279D1*
X56833Y68739D1*
Y50165D1*
X59373Y47625D1*
Y30480D1*
X53975Y113665D2*
X52705Y112395D1*
Y97790D1*
X56833Y93663D1*
Y72073D1*
X59373Y69532D1*
Y52070D1*
X66675Y111125D2*
X61278Y105728D1*
Y100330D1*
X63183Y98425D1*
Y29051D1*
X64294Y27940D1*
X66040D1*
X51435Y113665D2*
X50165Y112395D1*
Y107315D1*
X48260Y105410D1*
Y90170D1*
X50482Y87947D1*
X53657D1*
X55562Y86043D1*
Y71438D1*
X58102Y68897D1*
Y50800D1*
X59373Y49530D1*
X44450Y93853D2*
X44578D1*
X43180Y95250D1*
Y106362D1*
X45720Y108902D1*
X47625D1*
X48895Y110172D1*
Y111125D1*
X44450Y91853D2*
X44355D1*
X42227Y93980D1*
Y106998D1*
X46355Y111125D1*
X48895Y113665D2*
Y114618D1*
X48101Y115411D1*
X45561D1*
X40322Y110172D1*
Y89853D1*
X43180Y86995D1*
X46355D1*
X62547Y102965D2*
Y104775D1*
X66992Y109220D1*
X69850D1*
X71755Y111125D1*
X78422Y107950D2*
Y108267D1*
X76835Y109855D1*
Y111125D1*
X37306Y51276D2*
X42227D1*
X46196Y55245D1*
X37306Y51276D2*
X35242Y49212D1*
X31591D1*
X29051Y46672D1*
Y41593D1*
X28258Y40799D1*
X32703Y50193D2*
X31461D1*
X28099Y46831D1*
Y42545D1*
D61*
X5715Y73660D3*
X41581Y9843D3*
X40308Y9840D3*
X61278Y1905D3*
X63500D3*
X69850Y14605D3*
Y92710D3*
X17145Y32385D3*
X69850Y14605D3*
X74612Y107950D3*
X12383Y13335D3*
X3492Y33020D3*
X22225Y17463D3*
X34452Y46042D3*
X50805Y50488D3*
X29051Y56039D3*
X38576Y52387D3*
X44768Y60166D3*
X48255Y50795D3*
X40322Y66675D3*
X31115Y74612D3*
X46514Y60008D3*
X48578Y58261D3*
X50165Y58420D3*
X45561Y65087D3*
X32703Y46038D3*
X35401Y17621D3*
X31535Y44926D3*
X57468Y17621D3*
X81280Y103822D3*
X43656Y71914D3*
X46355Y68263D3*
X33020Y40322D3*
X31274Y33655D3*
X39370Y40322D3*
X37935Y47308D3*
X55562D3*
X36989Y46196D3*
X56515D3*
X5080Y18415D3*
X59373Y73660D3*
Y71596D3*
Y30480D3*
Y52070D3*
Y49530D3*
X46355Y86995D3*
X62547Y102965D3*
X78422Y107950D3*
X37306Y51276D3*
X46196Y55245D3*
X28258Y40799D3*
X37306Y51276D3*
X32703Y50193D3*
X28099Y42545D3*
X28258Y36989D3*
X31433Y51911D3*
X76041Y93504D3*
X78422Y95885D3*
X67945Y26035D3*
X68263Y13018D3*
Y8096D3*
X68104Y31909D3*
X740Y118903D2*
D16*
X89263D1*
X740Y118507D2*
X84088D1*
X86724D2*
X89263D1*
X740Y118110D2*
X4619D1*
X5543D2*
X83413D1*
X87399D2*
X89263D1*
X740Y117713D2*
X3444D1*
X6712D2*
X82988D1*
X87831D2*
X89263D1*
X740Y117317D2*
X2901D1*
X7262D2*
X82682D1*
X88131D2*
X89263D1*
X740Y116920D2*
X2526D1*
X7637D2*
X82463D1*
X88349D2*
X89263D1*
X740Y116523D2*
X2257D1*
X7899D2*
X82307D1*
X88506D2*
X89263D1*
X740Y116127D2*
X2069D1*
X8093D2*
X45313D1*
X48349D2*
X82213D1*
X88599D2*
X89263D1*
X740Y115730D2*
X1938D1*
X8224D2*
X44788D1*
X48874D2*
X82169D1*
X88649D2*
X89263D1*
X740Y115333D2*
X1863D1*
X8299D2*
X10638D1*
X36668D2*
X44388D1*
X49274D2*
X82176D1*
X88643D2*
X89263D1*
X740Y114937D2*
X1838D1*
X8324D2*
X10157D1*
X37149D2*
X43994D1*
X49612D2*
X51088D1*
X51781D2*
X53632D1*
X54318D2*
X56169D1*
X56862D2*
X58713D1*
X59399D2*
X61251D1*
X61937D2*
X63788D1*
X64481D2*
X66332D1*
X67018D2*
X68869D1*
X69562D2*
X71413D1*
X72099D2*
X73951D1*
X74637D2*
X76488D1*
X77181D2*
X82226D1*
X88587D2*
X89263D1*
X740Y114540D2*
X1863D1*
X8299D2*
X9763D1*
X37543D2*
X43594D1*
X49906D2*
X50426D1*
X52449D2*
X52963D1*
X54987D2*
X55501D1*
X57524D2*
X58044D1*
X60068D2*
X60582D1*
X62606D2*
X63126D1*
X65149D2*
X65663D1*
X67687D2*
X68201D1*
X70224D2*
X70744D1*
X72768D2*
X73282D1*
X75306D2*
X75826D1*
X77849D2*
X82332D1*
X88481D2*
X89263D1*
X740Y114143D2*
X1938D1*
X8224D2*
X9363D1*
X37943D2*
X43201D1*
X78093D2*
X82501D1*
X88318D2*
X89263D1*
X740Y113747D2*
X2063D1*
X8093D2*
X8969D1*
X38324D2*
X42801D1*
X78181D2*
X82732D1*
X88081D2*
X89263D1*
X740Y113350D2*
X2257D1*
X7906D2*
X8569D1*
X38549D2*
X42407D1*
X78143D2*
X83057D1*
X87756D2*
X89263D1*
X740Y112953D2*
X2526D1*
X7637D2*
X8176D1*
X38643D2*
X42007D1*
X77974D2*
X83519D1*
X87293D2*
X89263D1*
X740Y112557D2*
X2894D1*
X7268D2*
X7776D1*
X38649D2*
X41613D1*
X77568D2*
X84282D1*
X86531D2*
X89263D1*
X740Y112160D2*
X3438D1*
X6718D2*
X7382D1*
X11831D2*
X35476D1*
X38649D2*
X41213D1*
X77674D2*
X89263D1*
X740Y111763D2*
X4594D1*
X5568D2*
X6982D1*
X11437D2*
X35482D1*
X38649D2*
X40819D1*
X78018D2*
X89263D1*
X740Y111367D2*
X6588D1*
X11043D2*
X35482D1*
X38649D2*
X40419D1*
X78162D2*
X89263D1*
X740Y110970D2*
X6194D1*
X10643D2*
X10963D1*
X13162D2*
X15963D1*
X18162D2*
X20963D1*
X23162D2*
X25963D1*
X28162D2*
X30963D1*
X33162D2*
X35482D1*
X38649D2*
X40026D1*
X78174D2*
X89263D1*
X740Y110573D2*
X5894D1*
X10249D2*
X10488D1*
X13637D2*
X15488D1*
X18637D2*
X20488D1*
X23637D2*
X25488D1*
X28637D2*
X30488D1*
X33637D2*
X35482D1*
X38649D2*
X39651D1*
X78062D2*
X89263D1*
X740Y110177D2*
X5751D1*
X9849D2*
X10219D1*
X13912D2*
X15219D1*
X18912D2*
X20219D1*
X23912D2*
X25219D1*
X28912D2*
X30219D1*
X33912D2*
X35219D1*
X38912D2*
X39538D1*
X72693D2*
X73357D1*
X75237D2*
X75894D1*
X77774D2*
X89263D1*
X740Y109780D2*
X5719D1*
X9456D2*
X10057D1*
X14074D2*
X15057D1*
X19074D2*
X20057D1*
X24074D2*
X25057D1*
X29074D2*
X30057D1*
X34074D2*
X35057D1*
X39074D2*
X39538D1*
X61024D2*
X62013D1*
X71506D2*
X76051D1*
X78006D2*
X89263D1*
X740Y109383D2*
X5719D1*
X9056D2*
X9988D1*
X14143D2*
X14988D1*
X19143D2*
X19988D1*
X24143D2*
X24988D1*
X29143D2*
X29988D1*
X34143D2*
X34988D1*
X39143D2*
X39538D1*
X60631D2*
X61619D1*
X71106D2*
X76219D1*
X78399D2*
X89263D1*
X740Y108987D2*
X5719D1*
X8887D2*
X9994D1*
X14137D2*
X14994D1*
X19137D2*
X19994D1*
X24137D2*
X24994D1*
X29137D2*
X29994D1*
X34137D2*
X34994D1*
X39137D2*
X39538D1*
X48806D2*
X49382D1*
X60231D2*
X61219D1*
X70712D2*
X76607D1*
X78799D2*
X89263D1*
X740Y108590D2*
X5719D1*
X8887D2*
X10082D1*
X14049D2*
X15082D1*
X19049D2*
X20082D1*
X24049D2*
X25082D1*
X29049D2*
X30082D1*
X34049D2*
X35082D1*
X39049D2*
X39538D1*
X48406D2*
X49382D1*
X59837D2*
X60826D1*
X70287D2*
X77007D1*
X79237D2*
X89263D1*
X740Y108193D2*
X5719D1*
X8887D2*
X10257D1*
X13874D2*
X15257D1*
X18874D2*
X20257D1*
X23874D2*
X25257D1*
X28874D2*
X30257D1*
X33874D2*
X35257D1*
X38874D2*
X39538D1*
X47893D2*
X49382D1*
X59443D2*
X60426D1*
X67062D2*
X77401D1*
X79437D2*
X89263D1*
X740Y107797D2*
X5719D1*
X8887D2*
X10557D1*
X13574D2*
X15557D1*
X18574D2*
X20557D1*
X23574D2*
X25557D1*
X28574D2*
X30557D1*
X33574D2*
X35557D1*
X38574D2*
X39538D1*
X45706D2*
X49382D1*
X59043D2*
X60032D1*
X66662D2*
X77394D1*
X79456D2*
X89263D1*
X740Y107400D2*
X5719D1*
X8887D2*
X11088D1*
X13037D2*
X15857D1*
X18431D2*
X21088D1*
X23037D2*
X25701D1*
X28274D2*
X31088D1*
X33037D2*
X36088D1*
X38037D2*
X39538D1*
X45312D2*
X49157D1*
X58649D2*
X59657D1*
X66268D2*
X77544D1*
X79299D2*
X89263D1*
X740Y107003D2*
X5719D1*
X8887D2*
X15857D1*
X18431D2*
X25701D1*
X28274D2*
X39538D1*
X44918D2*
X48757D1*
X58249D2*
X59538D1*
X65868D2*
X78051D1*
X78793D2*
X89263D1*
X740Y106607D2*
X5719D1*
X8887D2*
X15857D1*
X18431D2*
X25432D1*
X28274D2*
X39538D1*
X44518D2*
X48363D1*
X57856D2*
X59538D1*
X65474D2*
X89263D1*
X740Y106210D2*
X5719D1*
X8887D2*
X15857D1*
X18431D2*
X25032D1*
X28262D2*
X39538D1*
X44124D2*
X47963D1*
X57456D2*
X59538D1*
X65074D2*
X89263D1*
X740Y105813D2*
X5719D1*
X8887D2*
X15857D1*
X18431D2*
X24638D1*
X28143D2*
X39538D1*
X45331D2*
X47594D1*
X58668D2*
X59538D1*
X65337D2*
X70238D1*
X72006D2*
X89263D1*
X740Y105417D2*
X5719D1*
X8887D2*
X15857D1*
X18431D2*
X24238D1*
X27843D2*
X39538D1*
X45599D2*
X47476D1*
X58931D2*
X59538D1*
X65599D2*
X69976D1*
X72268D2*
X89263D1*
X740Y105020D2*
X5719D1*
X8887D2*
X15857D1*
X18431D2*
X23844D1*
X27449D2*
X39538D1*
X45687D2*
X47476D1*
X59018D2*
X59538D1*
X65687D2*
X69888D1*
X72356D2*
X89263D1*
X740Y104623D2*
X5719D1*
X8887D2*
X15826D1*
X18431D2*
X23444D1*
X27049D2*
X39538D1*
X45637D2*
X47476D1*
X58968D2*
X59538D1*
X65637D2*
X69932D1*
X72306D2*
X80638D1*
X81924D2*
X89263D1*
X740Y104227D2*
X5719D1*
X8887D2*
X15432D1*
X18431D2*
X23051D1*
X26656D2*
X39538D1*
X45431D2*
X47476D1*
X58768D2*
X59538D1*
X65431D2*
X70138D1*
X72099D2*
X80319D1*
X82237D2*
X89263D1*
X740Y103830D2*
X5719D1*
X8887D2*
X15032D1*
X18393D2*
X22651D1*
X26256D2*
X39538D1*
X45318D2*
X47476D1*
X58649D2*
X59538D1*
X65318D2*
X70257D1*
X71987D2*
X80194D1*
X82324D2*
X89263D1*
X740Y103433D2*
X5719D1*
X8887D2*
X14726D1*
X18212D2*
X22257D1*
X25862D2*
X39538D1*
X45593D2*
X47476D1*
X58924D2*
X59538D1*
X66568D2*
X69982D1*
X72262D2*
X79794D1*
X82243D2*
X89263D1*
X740Y103037D2*
X5719D1*
X8887D2*
X14601D1*
X17843D2*
X21863D1*
X25462D2*
X39538D1*
X45681D2*
X47476D1*
X59018D2*
X59538D1*
X66968D2*
X69888D1*
X72356D2*
X79401D1*
X81943D2*
X89263D1*
X740Y102640D2*
X5719D1*
X8887D2*
X14588D1*
X17449D2*
X21463D1*
X25068D2*
X39538D1*
X45643D2*
X47476D1*
X58974D2*
X59538D1*
X67362D2*
X69932D1*
X72312D2*
X79001D1*
X81193D2*
X89263D1*
X740Y102243D2*
X5719D1*
X8887D2*
X14588D1*
X17162D2*
X21069D1*
X24668D2*
X39538D1*
X45443D2*
X47476D1*
X58781D2*
X59538D1*
X67762D2*
X70126D1*
X72112D2*
X78607D1*
X80793D2*
X89263D1*
X740Y101847D2*
X5719D1*
X8887D2*
X14588D1*
X17162D2*
X20757D1*
X24274D2*
X39538D1*
X45299D2*
X47476D1*
X58631D2*
X59538D1*
X62062D2*
X63607D1*
X65299D2*
X65969D1*
X68156D2*
X70269D1*
X71968D2*
X78207D1*
X80399D2*
X89263D1*
X740Y101450D2*
X5719D1*
X8887D2*
X14588D1*
X17162D2*
X20632D1*
X23874D2*
X39538D1*
X45581D2*
X47476D1*
X58918D2*
X59538D1*
X62062D2*
X63319D1*
X65587D2*
X66363D1*
X68556D2*
X69988D1*
X72256D2*
X77813D1*
X79999D2*
X89263D1*
X740Y101053D2*
X5719D1*
X8887D2*
X14588D1*
X17162D2*
X20619D1*
X23481D2*
X39538D1*
X45681D2*
X47476D1*
X59018D2*
X59538D1*
X62062D2*
X63219D1*
X65687D2*
X66763D1*
X68949D2*
X69888D1*
X72349D2*
X77419D1*
X79606D2*
X89263D1*
X740Y100657D2*
X2301D1*
X4049D2*
X5719D1*
X8887D2*
X14588D1*
X17162D2*
X20619D1*
X23193D2*
X39538D1*
X45643D2*
X47476D1*
X58981D2*
X59538D1*
X62062D2*
X63257D1*
X65649D2*
X67157D1*
X69349D2*
X69926D1*
X72318D2*
X77019D1*
X79206D2*
X89263D1*
X740Y100260D2*
X1794D1*
X4556D2*
X5719D1*
X8887D2*
X13582D1*
X17256D2*
X20619D1*
X23193D2*
X39538D1*
X45456D2*
X47476D1*
X58793D2*
X59538D1*
X62443D2*
X63444D1*
X65456D2*
X67557D1*
X69743D2*
X70113D1*
X72124D2*
X76626D1*
X78812D2*
X89263D1*
X740Y99863D2*
X1526D1*
X4824D2*
X5719D1*
X8887D2*
X12969D1*
X17524D2*
X20619D1*
X23193D2*
X39538D1*
X44956D2*
X47476D1*
X51624D2*
X51919D1*
X58287D2*
X59538D1*
X62837D2*
X63951D1*
X64956D2*
X67951D1*
X70143D2*
X70613D1*
X71624D2*
X76226D1*
X78418D2*
X89263D1*
X740Y99467D2*
X1382D1*
X4968D2*
X5719D1*
X8887D2*
X12576D1*
X17668D2*
X20619D1*
X23193D2*
X39538D1*
X43968D2*
X47476D1*
X50418D2*
X51919D1*
X57837D2*
X59538D1*
X63237D2*
X68351D1*
X78018D2*
X89263D1*
X740Y99070D2*
X1338D1*
X5012D2*
X5719D1*
X8887D2*
X12176D1*
X17712D2*
X20619D1*
X23193D2*
X39538D1*
X43968D2*
X47476D1*
X50418D2*
X51919D1*
X58237D2*
X59538D1*
X63631D2*
X68744D1*
X77624D2*
X89263D1*
X740Y98673D2*
X1382D1*
X4968D2*
X5719D1*
X8887D2*
X11782D1*
X17668D2*
X20619D1*
X23193D2*
X39538D1*
X43968D2*
X47476D1*
X50418D2*
X51919D1*
X58631D2*
X59644D1*
X63924D2*
X69144D1*
X77224D2*
X89263D1*
X740Y98277D2*
X1519D1*
X4831D2*
X5719D1*
X8887D2*
X11388D1*
X17531D2*
X20619D1*
X23193D2*
X39538D1*
X43968D2*
X47476D1*
X50418D2*
X51919D1*
X59031D2*
X60013D1*
X63968D2*
X89263D1*
X740Y97880D2*
X1788D1*
X4562D2*
X5719D1*
X8887D2*
X11013D1*
X17262D2*
X20619D1*
X23193D2*
X39538D1*
X43968D2*
X47476D1*
X50418D2*
X51919D1*
X59424D2*
X60413D1*
X63968D2*
X89263D1*
X740Y97483D2*
X2282D1*
X4068D2*
X5719D1*
X8887D2*
X10826D1*
X14193D2*
X14982D1*
X16768D2*
X20619D1*
X23193D2*
X39538D1*
X43968D2*
X47476D1*
X50418D2*
X51988D1*
X59818D2*
X60807D1*
X63968D2*
X89263D1*
X740Y97087D2*
X5719D1*
X8887D2*
X10782D1*
X13799D2*
X20619D1*
X23193D2*
X39538D1*
X43968D2*
X47476D1*
X50418D2*
X52313D1*
X60218D2*
X61126D1*
X63968D2*
X89263D1*
X740Y96690D2*
X5719D1*
X8887D2*
X10782D1*
X13399D2*
X20619D1*
X23193D2*
X39538D1*
X43968D2*
X47476D1*
X50593D2*
X52713D1*
X60612D2*
X61126D1*
X63968D2*
X89263D1*
X740Y96293D2*
X5719D1*
X8887D2*
X10782D1*
X13349D2*
X20619D1*
X23193D2*
X39538D1*
X43968D2*
X47476D1*
X50993D2*
X53107D1*
X63968D2*
X89263D1*
X740Y95897D2*
X5719D1*
X8887D2*
X10782D1*
X13349D2*
X20619D1*
X23193D2*
X39538D1*
X43968D2*
X47476D1*
X51387D2*
X53507D1*
X63968D2*
X89263D1*
X740Y95500D2*
X5719D1*
X8887D2*
X10782D1*
X13349D2*
X20619D1*
X23193D2*
X39538D1*
X44024D2*
X47476D1*
X49043D2*
X49313D1*
X51787D2*
X53901D1*
X63968D2*
X89263D1*
X740Y95103D2*
X5719D1*
X8887D2*
X10782D1*
X13349D2*
X20619D1*
X23193D2*
X39538D1*
X44418D2*
X47476D1*
X49043D2*
X49713D1*
X51987D2*
X54294D1*
X63968D2*
X89263D1*
X740Y94707D2*
X5719D1*
X8887D2*
X10782D1*
X13349D2*
X20619D1*
X23193D2*
X39538D1*
X45324D2*
X47476D1*
X49043D2*
X50107D1*
X52006D2*
X54694D1*
X63968D2*
X89263D1*
X740Y94310D2*
X5719D1*
X8887D2*
X10782D1*
X13349D2*
X15013D1*
X16737D2*
X20619D1*
X23193D2*
X39538D1*
X45593D2*
X47476D1*
X49043D2*
X49976D1*
X52262D2*
X55088D1*
X63968D2*
X89263D1*
X740Y93913D2*
X5719D1*
X8887D2*
X10782D1*
X13349D2*
X14501D1*
X17249D2*
X20619D1*
X23193D2*
X39538D1*
X45687D2*
X47476D1*
X49043D2*
X49882D1*
X52349D2*
X55488D1*
X63968D2*
X89263D1*
X740Y93517D2*
X5719D1*
X8887D2*
X10782D1*
X13349D2*
X14226D1*
X17524D2*
X20619D1*
X23193D2*
X39538D1*
X45637D2*
X47476D1*
X49043D2*
X49932D1*
X52306D2*
X55882D1*
X63968D2*
X69144D1*
X70556D2*
X89263D1*
X740Y93120D2*
X5719D1*
X8887D2*
X10782D1*
X13349D2*
X14088D1*
X17662D2*
X20619D1*
X23193D2*
X39538D1*
X45437D2*
X47476D1*
X49043D2*
X50132D1*
X52106D2*
X56044D1*
X63968D2*
X68851D1*
X70906D2*
X89263D1*
X740Y92723D2*
X5719D1*
X8887D2*
X10782D1*
X13349D2*
X14038D1*
X17712D2*
X20619D1*
X23193D2*
X39538D1*
X42062D2*
X42388D1*
X45312D2*
X47476D1*
X49043D2*
X50257D1*
X51974D2*
X56044D1*
X63968D2*
X68763D1*
X71043D2*
X89263D1*
X740Y92327D2*
X5719D1*
X8887D2*
X10782D1*
X13349D2*
X14082D1*
X17668D2*
X20619D1*
X23193D2*
X39538D1*
X42062D2*
X42788D1*
X45587D2*
X47476D1*
X49043D2*
X49982D1*
X52256D2*
X56044D1*
X63968D2*
X68838D1*
X71049D2*
X89263D1*
X740Y91930D2*
X5719D1*
X8887D2*
X10782D1*
X13349D2*
X14219D1*
X17531D2*
X20619D1*
X23193D2*
X39538D1*
X42062D2*
X43182D1*
X45681D2*
X47476D1*
X49043D2*
X49882D1*
X52349D2*
X56044D1*
X63968D2*
X68876D1*
X71049D2*
X89263D1*
X740Y91533D2*
X5719D1*
X8887D2*
X10782D1*
X13349D2*
X14482D1*
X17268D2*
X20619D1*
X23193D2*
X39538D1*
X42062D2*
X43257D1*
X45643D2*
X47476D1*
X49043D2*
X49926D1*
X52312D2*
X56044D1*
X63968D2*
X68876D1*
X71049D2*
X89263D1*
X740Y91137D2*
X5719D1*
X8887D2*
X10782D1*
X13349D2*
X14976D1*
X16774D2*
X20619D1*
X23193D2*
X39538D1*
X42062D2*
X43451D1*
X45449D2*
X47476D1*
X49043D2*
X50119D1*
X52118D2*
X56044D1*
X63968D2*
X68876D1*
X71049D2*
X89263D1*
X740Y90740D2*
X5719D1*
X8887D2*
X10782D1*
X13349D2*
X14501D1*
X17249D2*
X20619D1*
X23193D2*
X39538D1*
X42118D2*
X43607D1*
X45293D2*
X47476D1*
X49043D2*
X50276D1*
X51956D2*
X56044D1*
X63968D2*
X68876D1*
X71049D2*
X71957D1*
X77531D2*
X89263D1*
X740Y90343D2*
X5719D1*
X8887D2*
X10782D1*
X13349D2*
X14232D1*
X17518D2*
X20619D1*
X23193D2*
X39538D1*
X42512D2*
X43319D1*
X45581D2*
X47476D1*
X49181D2*
X49988D1*
X52249D2*
X56044D1*
X63968D2*
X65444D1*
X66631D2*
X68876D1*
X71049D2*
X71957D1*
X77531D2*
X78144D1*
X79331D2*
X89263D1*
X740Y89947D2*
X5719D1*
X8887D2*
X10782D1*
X13349D2*
X14088D1*
X17662D2*
X20619D1*
X23193D2*
X39538D1*
X42912D2*
X43219D1*
X45681D2*
X47507D1*
X49581D2*
X49888D1*
X52349D2*
X56044D1*
X63968D2*
X64863D1*
X67218D2*
X68876D1*
X71049D2*
X71957D1*
X79918D2*
X89263D1*
X740Y89550D2*
X5719D1*
X8887D2*
X10782D1*
X13349D2*
X14038D1*
X17712D2*
X20619D1*
X23193D2*
X39601D1*
X45649D2*
X47788D1*
X52312D2*
X56044D1*
X63968D2*
X64601D1*
X67481D2*
X68876D1*
X71049D2*
X71957D1*
X80181D2*
X89263D1*
X740Y89153D2*
X5719D1*
X8887D2*
X10782D1*
X13349D2*
X14082D1*
X17668D2*
X20619D1*
X23193D2*
X39926D1*
X45462D2*
X48182D1*
X52124D2*
X56044D1*
X63968D2*
X64476D1*
X67606D2*
X68876D1*
X71049D2*
X71957D1*
X80306D2*
X89263D1*
X740Y88757D2*
X5719D1*
X8887D2*
X10782D1*
X13349D2*
X14219D1*
X17531D2*
X20619D1*
X23193D2*
X40326D1*
X51637D2*
X56044D1*
X63968D2*
X64463D1*
X67618D2*
X68876D1*
X71049D2*
X71957D1*
X80318D2*
X89263D1*
X740Y88360D2*
X5719D1*
X8887D2*
X10782D1*
X13349D2*
X14476D1*
X17274D2*
X20619D1*
X23193D2*
X40719D1*
X54337D2*
X56044D1*
X63968D2*
X64551D1*
X67531D2*
X68876D1*
X71049D2*
X71957D1*
X80231D2*
X89263D1*
X740Y87963D2*
X5719D1*
X8887D2*
X10782D1*
X13349D2*
X14969D1*
X16781D2*
X20619D1*
X23193D2*
X41119D1*
X54737D2*
X56044D1*
X63968D2*
X64769D1*
X67312D2*
X68876D1*
X71049D2*
X71957D1*
X80012D2*
X89263D1*
X740Y87567D2*
X5719D1*
X8887D2*
X10782D1*
X13349D2*
X14507D1*
X17243D2*
X20619D1*
X23193D2*
X41513D1*
X55131D2*
X56044D1*
X63968D2*
X65032D1*
X67043D2*
X68876D1*
X71049D2*
X71957D1*
X79743D2*
X89263D1*
X740Y87170D2*
X5719D1*
X8887D2*
X10782D1*
X13349D2*
X14232D1*
X17518D2*
X20619D1*
X23193D2*
X41913D1*
X47381D2*
X47944D1*
X55531D2*
X56044D1*
X63968D2*
X64682D1*
X71099D2*
X71957D1*
X80099D2*
X89263D1*
X740Y86773D2*
X5719D1*
X8887D2*
X10782D1*
X13349D2*
X14088D1*
X17662D2*
X20619D1*
X23193D2*
X42307D1*
X47374D2*
X48338D1*
X63968D2*
X64513D1*
X71099D2*
X71957D1*
X74731D2*
X77213D1*
X80268D2*
X89263D1*
X740Y86377D2*
X5719D1*
X8887D2*
X10782D1*
X13349D2*
X14038D1*
X17712D2*
X20619D1*
X23193D2*
X42726D1*
X47187D2*
X48738D1*
X63968D2*
X64457D1*
X71099D2*
X71957D1*
X74731D2*
X77157D1*
X80324D2*
X89263D1*
X740Y85980D2*
X5719D1*
X8887D2*
X10782D1*
X13349D2*
X14082D1*
X17668D2*
X20619D1*
X23193D2*
X49226D1*
X63968D2*
X64501D1*
X71099D2*
X71957D1*
X74731D2*
X77201D1*
X80281D2*
X89263D1*
X740Y85583D2*
X5719D1*
X8887D2*
X10782D1*
X13374D2*
X14213D1*
X17537D2*
X20619D1*
X23193D2*
X53019D1*
X63968D2*
X64663D1*
X71099D2*
X71957D1*
X74731D2*
X77363D1*
X80118D2*
X89263D1*
X740Y85187D2*
X5719D1*
X8887D2*
X10782D1*
X13768D2*
X14469D1*
X17281D2*
X20619D1*
X23193D2*
X28957D1*
X29462D2*
X36576D1*
X37081D2*
X51819D1*
X52324D2*
X53419D1*
X63968D2*
X64994D1*
X71049D2*
X71957D1*
X74731D2*
X77694D1*
X79787D2*
X89263D1*
X740Y84790D2*
X5719D1*
X8887D2*
X10813D1*
X14168D2*
X14957D1*
X16793D2*
X20619D1*
X23193D2*
X27576D1*
X30156D2*
X35882D1*
X37774D2*
X42438D1*
X43918D2*
X51126D1*
X53018D2*
X53507D1*
X63968D2*
X64794D1*
X71099D2*
X71957D1*
X74731D2*
X77494D1*
X79981D2*
X89263D1*
X740Y84393D2*
X5719D1*
X8887D2*
X10994D1*
X14562D2*
X20619D1*
X23193D2*
X27138D1*
X30381D2*
X35657D1*
X38006D2*
X42088D1*
X44268D2*
X50894D1*
X53243D2*
X53507D1*
X63968D2*
X64563D1*
X71099D2*
X71957D1*
X74731D2*
X77263D1*
X80218D2*
X89263D1*
X740Y83997D2*
X5719D1*
X8887D2*
X11357D1*
X14962D2*
X20619D1*
X23193D2*
X26738D1*
X30443D2*
X35594D1*
X38068D2*
X41957D1*
X44406D2*
X50519D1*
X53306D2*
X53507D1*
X63968D2*
X64463D1*
X71099D2*
X71957D1*
X74731D2*
X77163D1*
X80318D2*
X89263D1*
X740Y83600D2*
X5719D1*
X8887D2*
X11751D1*
X15356D2*
X20619D1*
X23193D2*
X26344D1*
X30374D2*
X35669D1*
X37993D2*
X41963D1*
X44393D2*
X50119D1*
X53231D2*
X53507D1*
X63968D2*
X64469D1*
X71099D2*
X71957D1*
X74731D2*
X77169D1*
X80312D2*
X89263D1*
X740Y83203D2*
X5719D1*
X8887D2*
X12151D1*
X15756D2*
X20619D1*
X23193D2*
X26063D1*
X30131D2*
X35907D1*
X37756D2*
X42113D1*
X44243D2*
X49726D1*
X52993D2*
X53507D1*
X63968D2*
X64582D1*
X71099D2*
X71957D1*
X74731D2*
X77282D1*
X80199D2*
X84401D1*
X85781D2*
X89263D1*
X740Y82807D2*
X5719D1*
X8887D2*
X12544D1*
X16149D2*
X20619D1*
X23193D2*
X26001D1*
X30143D2*
X35901D1*
X37762D2*
X42463D1*
X43893D2*
X49344D1*
X52999D2*
X53507D1*
X63968D2*
X64832D1*
X71099D2*
X71957D1*
X74731D2*
X77532D1*
X79949D2*
X84019D1*
X86162D2*
X89263D1*
X740Y82410D2*
X5719D1*
X8887D2*
X12944D1*
X16549D2*
X20619D1*
X23193D2*
X26001D1*
X30374D2*
X35663D1*
X37999D2*
X42101D1*
X45168D2*
X49219D1*
X53237D2*
X53507D1*
X63968D2*
X64944D1*
X71049D2*
X71957D1*
X74731D2*
X77644D1*
X79837D2*
X83876D1*
X86306D2*
X89263D1*
X740Y82013D2*
X5719D1*
X8887D2*
X13338D1*
X16943D2*
X20619D1*
X23193D2*
X26001D1*
X30443D2*
X35594D1*
X38068D2*
X41963D1*
X45606D2*
X49219D1*
X53306D2*
X53507D1*
X63968D2*
X64638D1*
X71099D2*
X71957D1*
X74731D2*
X77338D1*
X80143D2*
X83869D1*
X86312D2*
X89263D1*
X740Y81617D2*
X5719D1*
X8887D2*
X13738D1*
X17337D2*
X20619D1*
X23193D2*
X26001D1*
X30381D2*
X35663D1*
X37999D2*
X41963D1*
X45999D2*
X49219D1*
X53237D2*
X53507D1*
X63968D2*
X64494D1*
X71099D2*
X71957D1*
X74731D2*
X77194D1*
X80287D2*
X84007D1*
X86174D2*
X89263D1*
X740Y81220D2*
X5719D1*
X8887D2*
X14132D1*
X17737D2*
X20619D1*
X23193D2*
X26001D1*
X27974D2*
X28269D1*
X30149D2*
X35894D1*
X37768D2*
X42107D1*
X46399D2*
X49219D1*
X53006D2*
X53507D1*
X63968D2*
X64457D1*
X71099D2*
X71957D1*
X74731D2*
X77157D1*
X80324D2*
X84363D1*
X85812D2*
X89263D1*
X740Y80823D2*
X5719D1*
X8887D2*
X14532D1*
X18131D2*
X20619D1*
X23193D2*
X26001D1*
X27974D2*
X28294D1*
X30124D2*
X35913D1*
X37749D2*
X42482D1*
X43881D2*
X44607D1*
X46743D2*
X49219D1*
X52987D2*
X53507D1*
X63968D2*
X64526D1*
X71099D2*
X71957D1*
X74731D2*
X77226D1*
X80256D2*
X84032D1*
X86149D2*
X89263D1*
X740Y80427D2*
X5719D1*
X8887D2*
X14926D1*
X18531D2*
X20619D1*
X23193D2*
X26001D1*
X30368D2*
X35669D1*
X37993D2*
X40476D1*
X44249D2*
X45001D1*
X46824D2*
X49219D1*
X53231D2*
X53507D1*
X63968D2*
X64713D1*
X71099D2*
X71957D1*
X74731D2*
X77413D1*
X80068D2*
X83876D1*
X86306D2*
X89263D1*
X740Y80030D2*
X5719D1*
X8887D2*
X15326D1*
X18924D2*
X20619D1*
X23193D2*
X26001D1*
X30443D2*
X35594D1*
X38068D2*
X40076D1*
X44399D2*
X45251D1*
X46824D2*
X49219D1*
X53306D2*
X53507D1*
X63968D2*
X65088D1*
X66987D2*
X68876D1*
X71049D2*
X71957D1*
X74731D2*
X77788D1*
X79687D2*
X83869D1*
X86312D2*
X89263D1*
X740Y79633D2*
X5719D1*
X8887D2*
X15719D1*
X19324D2*
X20619D1*
X23193D2*
X26001D1*
X30387D2*
X35657D1*
X38006D2*
X39682D1*
X44399D2*
X45251D1*
X46824D2*
X49219D1*
X53243D2*
X53507D1*
X63968D2*
X64738D1*
X67343D2*
X68876D1*
X71049D2*
X71957D1*
X74731D2*
X77438D1*
X80043D2*
X83994D1*
X86181D2*
X89263D1*
X740Y79237D2*
X5719D1*
X8887D2*
X16119D1*
X19718D2*
X20619D1*
X23193D2*
X26001D1*
X27974D2*
X28254D1*
X30162D2*
X35876D1*
X37781D2*
X39282D1*
X44262D2*
X45251D1*
X46824D2*
X49219D1*
X53024D2*
X53507D1*
X63968D2*
X64538D1*
X67543D2*
X68876D1*
X71049D2*
X71957D1*
X74731D2*
X77238D1*
X80243D2*
X84344D1*
X85837D2*
X89263D1*
X740Y78840D2*
X5719D1*
X8887D2*
X16513D1*
X20093D2*
X20619D1*
X23193D2*
X26001D1*
X27974D2*
X28926D1*
X29499D2*
X36544D1*
X37118D2*
X38888D1*
X41643D2*
X42457D1*
X43906D2*
X45251D1*
X46824D2*
X49219D1*
X51587D2*
X51788D1*
X52356D2*
X53507D1*
X63968D2*
X64457D1*
X67624D2*
X68876D1*
X71049D2*
X71957D1*
X74731D2*
X77157D1*
X80324D2*
X84038D1*
X86137D2*
X89263D1*
X740Y78443D2*
X2338D1*
X4012D2*
X5719D1*
X8887D2*
X15038D1*
X16712D2*
X16913D1*
X20287D2*
X20619D1*
X23193D2*
X26001D1*
X41243D2*
X45251D1*
X46824D2*
X49219D1*
X51587D2*
X53507D1*
X63968D2*
X64482D1*
X67599D2*
X68876D1*
X71049D2*
X71957D1*
X74731D2*
X77182D1*
X80299D2*
X83882D1*
X86299D2*
X89263D1*
X740Y78047D2*
X1807D1*
X4543D2*
X5719D1*
X20337D2*
X20619D1*
X23193D2*
X26001D1*
X40849D2*
X45251D1*
X46824D2*
X49219D1*
X51587D2*
X53507D1*
X63968D2*
X64619D1*
X67462D2*
X68876D1*
X71049D2*
X71957D1*
X74731D2*
X77319D1*
X80162D2*
X83863D1*
X86318D2*
X89263D1*
X740Y77650D2*
X1532D1*
X4818D2*
X5719D1*
X20337D2*
X20619D1*
X23193D2*
X26001D1*
X40449D2*
X45251D1*
X46824D2*
X49219D1*
X51587D2*
X53507D1*
X63968D2*
X64907D1*
X67174D2*
X68876D1*
X71049D2*
X71957D1*
X74731D2*
X77607D1*
X79874D2*
X83988D1*
X86193D2*
X89263D1*
X740Y77253D2*
X1388D1*
X4962D2*
X5719D1*
X20337D2*
X20619D1*
X23193D2*
X26001D1*
X40056D2*
X45251D1*
X46824D2*
X49219D1*
X51587D2*
X53507D1*
X63968D2*
X64869D1*
X67212D2*
X68876D1*
X71049D2*
X71957D1*
X74731D2*
X77569D1*
X79912D2*
X84319D1*
X85862D2*
X89263D1*
X740Y76857D2*
X1338D1*
X5012D2*
X5719D1*
X20337D2*
X20619D1*
X23193D2*
X26001D1*
X39418D2*
X45251D1*
X46824D2*
X49219D1*
X51587D2*
X53507D1*
X63968D2*
X64601D1*
X67481D2*
X68876D1*
X71049D2*
X71957D1*
X74731D2*
X77301D1*
X80181D2*
X84051D1*
X86131D2*
X89263D1*
X740Y76460D2*
X1382D1*
X4968D2*
X5719D1*
X20337D2*
X20619D1*
X23193D2*
X26001D1*
X27974D2*
X45251D1*
X46824D2*
X49219D1*
X51587D2*
X53507D1*
X63968D2*
X64476D1*
X67606D2*
X68876D1*
X71049D2*
X71957D1*
X74731D2*
X77176D1*
X80306D2*
X83882D1*
X86299D2*
X89263D1*
X740Y76063D2*
X1513D1*
X4837D2*
X5719D1*
X17537D2*
X17763D1*
X20337D2*
X20619D1*
X23193D2*
X26001D1*
X27974D2*
X45251D1*
X46824D2*
X49219D1*
X51587D2*
X53507D1*
X63968D2*
X64463D1*
X67618D2*
X68876D1*
X71049D2*
X71957D1*
X74731D2*
X77163D1*
X80318D2*
X83863D1*
X86318D2*
X89263D1*
X740Y75667D2*
X1769D1*
X4581D2*
X5719D1*
X17281D2*
X17669D1*
X20337D2*
X20619D1*
X23193D2*
X26001D1*
X27974D2*
X45251D1*
X46824D2*
X49219D1*
X51587D2*
X53507D1*
X63968D2*
X64551D1*
X67531D2*
X68876D1*
X71049D2*
X71957D1*
X74731D2*
X77251D1*
X80231D2*
X83982D1*
X86199D2*
X89263D1*
X740Y75270D2*
X2257D1*
X4093D2*
X5719D1*
X8887D2*
X14957D1*
X16793D2*
X17269D1*
X20337D2*
X20619D1*
X23193D2*
X26001D1*
X27974D2*
X30319D1*
X36431D2*
X45251D1*
X46824D2*
X49219D1*
X51587D2*
X53507D1*
X63968D2*
X64763D1*
X67312D2*
X68876D1*
X71049D2*
X71957D1*
X74731D2*
X77463D1*
X80012D2*
X84301D1*
X85881D2*
X89263D1*
X740Y74873D2*
X5719D1*
X8887D2*
X16876D1*
X20281D2*
X20619D1*
X23193D2*
X26001D1*
X27974D2*
X30107D1*
X36868D2*
X45251D1*
X46824D2*
X49219D1*
X51587D2*
X53507D1*
X63968D2*
X65044D1*
X67037D2*
X68876D1*
X71049D2*
X71957D1*
X74731D2*
X77744D1*
X79737D2*
X89263D1*
X740Y74477D2*
X5019D1*
X8887D2*
X16476D1*
X20068D2*
X20619D1*
X23193D2*
X26001D1*
X27974D2*
X30082D1*
X37268D2*
X45251D1*
X46824D2*
X49219D1*
X51587D2*
X53507D1*
X63968D2*
X64688D1*
X67393D2*
X68876D1*
X71049D2*
X71957D1*
X74731D2*
X77388D1*
X80093D2*
X89263D1*
X740Y74080D2*
X4719D1*
X8887D2*
X16082D1*
X19687D2*
X20619D1*
X23193D2*
X26001D1*
X27974D2*
X30226D1*
X37662D2*
X45251D1*
X46824D2*
X49219D1*
X51587D2*
X53507D1*
X63968D2*
X64513D1*
X67568D2*
X68876D1*
X71049D2*
X71957D1*
X74731D2*
X77213D1*
X80268D2*
X89263D1*
X740Y73683D2*
X4632D1*
X8887D2*
X15682D1*
X19287D2*
X20619D1*
X23193D2*
X26001D1*
X27974D2*
X30701D1*
X31531D2*
X35869D1*
X38062D2*
X45251D1*
X46824D2*
X49219D1*
X51587D2*
X53507D1*
X63968D2*
X64457D1*
X67624D2*
X68876D1*
X71049D2*
X71957D1*
X74731D2*
X77157D1*
X80324D2*
X89263D1*
X740Y73287D2*
X4701D1*
X8887D2*
X15288D1*
X18893D2*
X20619D1*
X23193D2*
X26001D1*
X27974D2*
X36269D1*
X38456D2*
X45251D1*
X47031D2*
X49219D1*
X51587D2*
X53507D1*
X63968D2*
X64501D1*
X67581D2*
X68876D1*
X71049D2*
X71957D1*
X74731D2*
X77201D1*
X80281D2*
X89263D1*
X740Y72890D2*
X4969D1*
X8887D2*
X14888D1*
X18493D2*
X20619D1*
X23193D2*
X26001D1*
X27974D2*
X36663D1*
X38856D2*
X43388D1*
X43924D2*
X45313D1*
X47424D2*
X49219D1*
X51587D2*
X53507D1*
X63968D2*
X64657D1*
X67418D2*
X68876D1*
X71049D2*
X71957D1*
X74731D2*
X77357D1*
X80118D2*
X89263D1*
X740Y72493D2*
X5719D1*
X8887D2*
X14494D1*
X18099D2*
X20619D1*
X23193D2*
X26001D1*
X27974D2*
X37063D1*
X39249D2*
X42801D1*
X44512D2*
X45632D1*
X47824D2*
X49219D1*
X51587D2*
X53507D1*
X63968D2*
X64988D1*
X67093D2*
X68876D1*
X71049D2*
X71957D1*
X74731D2*
X77688D1*
X79793D2*
X89263D1*
X740Y72097D2*
X5719D1*
X8887D2*
X14101D1*
X17699D2*
X20619D1*
X23193D2*
X26001D1*
X27974D2*
X37457D1*
X39649D2*
X42632D1*
X44681D2*
X46032D1*
X48218D2*
X49219D1*
X51587D2*
X53507D1*
X63968D2*
X64801D1*
X67281D2*
X68876D1*
X71049D2*
X71957D1*
X74731D2*
X77501D1*
X79981D2*
X89263D1*
X740Y71700D2*
X5719D1*
X8887D2*
X13701D1*
X17306D2*
X20619D1*
X23193D2*
X26001D1*
X27974D2*
X37857D1*
X40043D2*
X42638D1*
X44674D2*
X46426D1*
X48599D2*
X49219D1*
X51587D2*
X53507D1*
X63968D2*
X64569D1*
X67512D2*
X68876D1*
X71049D2*
X71957D1*
X74731D2*
X77269D1*
X80212D2*
X89263D1*
X740Y71303D2*
X5719D1*
X8887D2*
X13307D1*
X16906D2*
X20619D1*
X23193D2*
X26001D1*
X27974D2*
X38251D1*
X40437D2*
X42819D1*
X44493D2*
X46826D1*
X48731D2*
X49219D1*
X51587D2*
X53507D1*
X63968D2*
X64463D1*
X67612D2*
X68876D1*
X71049D2*
X71957D1*
X74731D2*
X77163D1*
X80312D2*
X89263D1*
X740Y70907D2*
X5719D1*
X8887D2*
X12907D1*
X16512D2*
X20619D1*
X23193D2*
X26001D1*
X27974D2*
X38651D1*
X40837D2*
X42876D1*
X44806D2*
X47157D1*
X48731D2*
X49219D1*
X51587D2*
X53607D1*
X63968D2*
X64469D1*
X67612D2*
X68876D1*
X71049D2*
X71957D1*
X74731D2*
X77169D1*
X80312D2*
X89263D1*
X740Y70510D2*
X5719D1*
X8887D2*
X12513D1*
X16112D2*
X20619D1*
X23193D2*
X26001D1*
X27974D2*
X39044D1*
X41231D2*
X43026D1*
X45199D2*
X47157D1*
X48731D2*
X49219D1*
X51587D2*
X53969D1*
X63968D2*
X64582D1*
X67499D2*
X68876D1*
X71049D2*
X71957D1*
X74731D2*
X77282D1*
X80199D2*
X89263D1*
X740Y70113D2*
X5719D1*
X8887D2*
X12113D1*
X15718D2*
X20619D1*
X23193D2*
X26001D1*
X27974D2*
X39438D1*
X41631D2*
X43407D1*
X45599D2*
X47157D1*
X48731D2*
X49219D1*
X51587D2*
X54363D1*
X63968D2*
X64826D1*
X67256D2*
X68876D1*
X71049D2*
X71957D1*
X74731D2*
X77526D1*
X79956D2*
X89263D1*
X740Y69717D2*
X5719D1*
X8887D2*
X11719D1*
X15318D2*
X20619D1*
X23193D2*
X26001D1*
X27974D2*
X39838D1*
X42024D2*
X43807D1*
X45993D2*
X47157D1*
X48731D2*
X49219D1*
X51587D2*
X54763D1*
X63968D2*
X65351D1*
X66731D2*
X68876D1*
X71049D2*
X71957D1*
X74731D2*
X78051D1*
X79431D2*
X89263D1*
X740Y69320D2*
X5719D1*
X8887D2*
X11338D1*
X14924D2*
X20619D1*
X23193D2*
X26001D1*
X27974D2*
X40232D1*
X42424D2*
X44201D1*
X46393D2*
X47157D1*
X48731D2*
X49219D1*
X51587D2*
X55157D1*
X63968D2*
X68876D1*
X71049D2*
X71957D1*
X74731D2*
X89263D1*
X740Y68923D2*
X5719D1*
X8887D2*
X11144D1*
X14524D2*
X20619D1*
X23193D2*
X26001D1*
X27974D2*
X40632D1*
X42818D2*
X44601D1*
X48731D2*
X49219D1*
X51587D2*
X55551D1*
X63968D2*
X68876D1*
X71049D2*
X71957D1*
X77531D2*
X89263D1*
X740Y68527D2*
X5719D1*
X8887D2*
X11094D1*
X14131D2*
X20619D1*
X23193D2*
X26001D1*
X27974D2*
X41026D1*
X43218D2*
X44994D1*
X48731D2*
X49219D1*
X51587D2*
X55951D1*
X63968D2*
X65044D1*
X67031D2*
X68876D1*
X71049D2*
X71957D1*
X79731D2*
X89263D1*
X740Y68130D2*
X5719D1*
X8887D2*
X11094D1*
X13737D2*
X20619D1*
X23193D2*
X26001D1*
X27974D2*
X41426D1*
X43562D2*
X45319D1*
X48731D2*
X49219D1*
X51587D2*
X56044D1*
X63968D2*
X64688D1*
X67393D2*
X68876D1*
X71049D2*
X71957D1*
X80093D2*
X89263D1*
X740Y67733D2*
X5719D1*
X8887D2*
X11094D1*
X13668D2*
X20619D1*
X23193D2*
X26001D1*
X27974D2*
X41819D1*
X43649D2*
X45463D1*
X48731D2*
X49219D1*
X51587D2*
X56044D1*
X63968D2*
X64513D1*
X67568D2*
X68876D1*
X71049D2*
X71957D1*
X80268D2*
X89263D1*
X740Y67337D2*
X5719D1*
X8887D2*
X11094D1*
X13668D2*
X20619D1*
X23193D2*
X26001D1*
X28987D2*
X29751D1*
X31524D2*
X32288D1*
X34068D2*
X39532D1*
X41118D2*
X42076D1*
X43649D2*
X45932D1*
X46781D2*
X47157D1*
X48731D2*
X49219D1*
X51587D2*
X56044D1*
X63968D2*
X64457D1*
X67624D2*
X68876D1*
X71049D2*
X71957D1*
X80324D2*
X89263D1*
X740Y66940D2*
X5719D1*
X8887D2*
X11094D1*
X13668D2*
X20619D1*
X23193D2*
X25732D1*
X34374D2*
X39313D1*
X41331D2*
X42076D1*
X43649D2*
X47157D1*
X48731D2*
X49219D1*
X51587D2*
X56044D1*
X63968D2*
X64501D1*
X67581D2*
X68876D1*
X71049D2*
X71957D1*
X80281D2*
X89263D1*
X740Y66543D2*
X5719D1*
X8887D2*
X11094D1*
X13668D2*
X20294D1*
X23193D2*
X25338D1*
X34499D2*
X39094D1*
X41356D2*
X42076D1*
X43649D2*
X47032D1*
X48731D2*
X49219D1*
X51587D2*
X52682D1*
X53999D2*
X56044D1*
X63968D2*
X64657D1*
X67424D2*
X68876D1*
X71049D2*
X71957D1*
X80124D2*
X89263D1*
X740Y66147D2*
X5719D1*
X8887D2*
X11094D1*
X13668D2*
X19894D1*
X23174D2*
X24938D1*
X34499D2*
X38701D1*
X41212D2*
X42076D1*
X43649D2*
X46638D1*
X48699D2*
X49219D1*
X51587D2*
X52238D1*
X54443D2*
X56044D1*
X63968D2*
X64982D1*
X67099D2*
X68876D1*
X71049D2*
X71957D1*
X79799D2*
X89263D1*
X740Y65750D2*
X5719D1*
X8887D2*
X11094D1*
X13668D2*
X19501D1*
X23037D2*
X24688D1*
X40749D2*
X42076D1*
X43649D2*
X44769D1*
X48431D2*
X49219D1*
X51587D2*
X52051D1*
X54631D2*
X56044D1*
X63968D2*
X64807D1*
X71099D2*
X71957D1*
X79974D2*
X89263D1*
X740Y65353D2*
X5719D1*
X8887D2*
X11094D1*
X13668D2*
X19101D1*
X22706D2*
X24632D1*
X40093D2*
X42076D1*
X43649D2*
X44557D1*
X48031D2*
X49219D1*
X51587D2*
X52007D1*
X54674D2*
X56044D1*
X63968D2*
X64569D1*
X71099D2*
X71957D1*
X74731D2*
X77269D1*
X80212D2*
X89263D1*
X740Y64957D2*
X5719D1*
X8887D2*
X11094D1*
X13668D2*
X18707D1*
X22306D2*
X24632D1*
X39699D2*
X42076D1*
X43768D2*
X44526D1*
X47637D2*
X49219D1*
X51587D2*
X52082D1*
X54593D2*
X56044D1*
X63968D2*
X64463D1*
X71099D2*
X71957D1*
X74731D2*
X77163D1*
X80312D2*
X89263D1*
X740Y64560D2*
X2526D1*
X3824D2*
X5719D1*
X8887D2*
X11094D1*
X13668D2*
X15226D1*
X16524D2*
X18307D1*
X21912D2*
X24632D1*
X41218D2*
X42107D1*
X44168D2*
X44669D1*
X47237D2*
X49219D1*
X51587D2*
X52319D1*
X54362D2*
X56044D1*
X63968D2*
X64469D1*
X71099D2*
X71957D1*
X74731D2*
X77169D1*
X80312D2*
X89263D1*
X740Y64163D2*
X1888D1*
X4462D2*
X5719D1*
X8887D2*
X11094D1*
X13668D2*
X14588D1*
X17162D2*
X17913D1*
X21512D2*
X24632D1*
X41862D2*
X42376D1*
X44562D2*
X45132D1*
X45993D2*
X49219D1*
X51587D2*
X52932D1*
X53749D2*
X56044D1*
X63968D2*
X64576D1*
X71099D2*
X71957D1*
X74731D2*
X77276D1*
X80199D2*
X89263D1*
X740Y63767D2*
X1582D1*
X4768D2*
X5719D1*
X8887D2*
X11094D1*
X13668D2*
X14282D1*
X21118D2*
X24632D1*
X42262D2*
X42769D1*
X44962D2*
X49219D1*
X51587D2*
X56044D1*
X63968D2*
X64826D1*
X71099D2*
X71957D1*
X74731D2*
X77526D1*
X79956D2*
X89263D1*
X740Y63370D2*
X1413D1*
X4937D2*
X5719D1*
X8887D2*
X11094D1*
X13668D2*
X14113D1*
X20724D2*
X24632D1*
X42656D2*
X43169D1*
X45356D2*
X49219D1*
X51587D2*
X56044D1*
X63968D2*
X64957D1*
X71049D2*
X71957D1*
X74731D2*
X77657D1*
X79824D2*
X89263D1*
X740Y62973D2*
X1344D1*
X5006D2*
X5719D1*
X8887D2*
X11094D1*
X13668D2*
X14044D1*
X20324D2*
X24632D1*
X31662D2*
X32157D1*
X34199D2*
X40863D1*
X43056D2*
X43563D1*
X45756D2*
X49219D1*
X51587D2*
X56044D1*
X63968D2*
X64644D1*
X71099D2*
X71957D1*
X74731D2*
X77344D1*
X80137D2*
X89263D1*
X740Y62577D2*
X1363D1*
X4987D2*
X5719D1*
X8887D2*
X11094D1*
X13668D2*
X14063D1*
X19931D2*
X20869D1*
X29437D2*
X30226D1*
X31056D2*
X32763D1*
X33593D2*
X41263D1*
X43449D2*
X43963D1*
X46149D2*
X49219D1*
X51587D2*
X56044D1*
X63968D2*
X64494D1*
X71099D2*
X71957D1*
X74731D2*
X77194D1*
X80287D2*
X89263D1*
X740Y62180D2*
X1476D1*
X4874D2*
X5719D1*
X8887D2*
X11094D1*
X13668D2*
X14176D1*
X19531D2*
X20338D1*
X26806D2*
X41657D1*
X43849D2*
X44357D1*
X46549D2*
X49219D1*
X51587D2*
X56044D1*
X63968D2*
X64457D1*
X71099D2*
X71957D1*
X74731D2*
X77157D1*
X80324D2*
X89263D1*
X740Y61783D2*
X1707D1*
X4643D2*
X5719D1*
X8887D2*
X11094D1*
X13668D2*
X14407D1*
X19068D2*
X19944D1*
X26806D2*
X42057D1*
X44243D2*
X44757D1*
X46943D2*
X49219D1*
X51587D2*
X52819D1*
X53856D2*
X56044D1*
X63968D2*
X64519D1*
X71099D2*
X71957D1*
X74731D2*
X77219D1*
X80262D2*
X84819D1*
X85362D2*
X89263D1*
X740Y61387D2*
X2126D1*
X4224D2*
X5719D1*
X8887D2*
X11094D1*
X13668D2*
X14826D1*
X16924D2*
X19544D1*
X26806D2*
X42451D1*
X44643D2*
X45151D1*
X47249D2*
X49019D1*
X51587D2*
X52288D1*
X54393D2*
X56044D1*
X63968D2*
X64707D1*
X71099D2*
X71957D1*
X74731D2*
X77407D1*
X80074D2*
X84138D1*
X86037D2*
X89263D1*
X740Y60990D2*
X5719D1*
X8887D2*
X11094D1*
X26806D2*
X42851D1*
X47299D2*
X48626D1*
X51587D2*
X52069D1*
X54612D2*
X56044D1*
X63968D2*
X65076D1*
X71049D2*
X71957D1*
X74731D2*
X77776D1*
X79706D2*
X83919D1*
X86262D2*
X89263D1*
X740Y60593D2*
X5719D1*
X8887D2*
X11094D1*
X26806D2*
X43244D1*
X47368D2*
X48226D1*
X51587D2*
X52007D1*
X54674D2*
X56044D1*
X63968D2*
X64744D1*
X71099D2*
X71957D1*
X74731D2*
X77444D1*
X80037D2*
X83857D1*
X86324D2*
X89263D1*
X740Y60197D2*
X5719D1*
X8887D2*
X11094D1*
X21393D2*
X21844D1*
X26806D2*
X27607D1*
X28912D2*
X30144D1*
X31449D2*
X32688D1*
X33993D2*
X35226D1*
X36531D2*
X43644D1*
X47537D2*
X47876D1*
X51587D2*
X52063D1*
X54618D2*
X56044D1*
X63968D2*
X64538D1*
X71099D2*
X71957D1*
X74731D2*
X77238D1*
X80243D2*
X83926D1*
X86249D2*
X89263D1*
X740Y59800D2*
X5719D1*
X8887D2*
X11094D1*
X20999D2*
X21844D1*
X26818D2*
X27157D1*
X29356D2*
X29701D1*
X31899D2*
X32238D1*
X34437D2*
X34776D1*
X36981D2*
X43794D1*
X47537D2*
X47794D1*
X51587D2*
X52263D1*
X54418D2*
X56044D1*
X63968D2*
X64457D1*
X71099D2*
X71957D1*
X74731D2*
X77157D1*
X80324D2*
X84169D1*
X86012D2*
X89263D1*
X740Y59403D2*
X5719D1*
X8887D2*
X11094D1*
X20599D2*
X21844D1*
X37168D2*
X43982D1*
X47356D2*
X47794D1*
X51587D2*
X52757D1*
X53924D2*
X56044D1*
X63968D2*
X64482D1*
X71099D2*
X71957D1*
X74731D2*
X77182D1*
X80299D2*
X84157D1*
X86024D2*
X89263D1*
X740Y59007D2*
X5719D1*
X8887D2*
X11094D1*
X20099D2*
X21844D1*
X37212D2*
X43982D1*
X45556D2*
X46413D1*
X46613D2*
X47794D1*
X51587D2*
X56044D1*
X63968D2*
X64613D1*
X71099D2*
X71957D1*
X74731D2*
X77313D1*
X80168D2*
X83919D1*
X86256D2*
X89263D1*
X740Y58610D2*
X5719D1*
X8887D2*
X11094D1*
X13668D2*
X21844D1*
X37137D2*
X43982D1*
X45556D2*
X47594D1*
X51437D2*
X56044D1*
X63968D2*
X64894D1*
X67187D2*
X68876D1*
X71049D2*
X71957D1*
X74731D2*
X77594D1*
X79887D2*
X83857D1*
X86324D2*
X89263D1*
X740Y58213D2*
X5719D1*
X8887D2*
X11094D1*
X13668D2*
X15238D1*
X16512D2*
X21844D1*
X26743D2*
X27232D1*
X29281D2*
X29776D1*
X31824D2*
X32313D1*
X34362D2*
X34851D1*
X36906D2*
X43982D1*
X45556D2*
X47538D1*
X51187D2*
X56044D1*
X63968D2*
X64876D1*
X67199D2*
X68876D1*
X71049D2*
X71957D1*
X74731D2*
X77576D1*
X79899D2*
X83919D1*
X86256D2*
X89263D1*
X740Y57817D2*
X5719D1*
X8887D2*
X11094D1*
X13668D2*
X14594D1*
X17156D2*
X21844D1*
X24512D2*
X25294D1*
X26137D2*
X27838D1*
X28681D2*
X30376D1*
X31218D2*
X32919D1*
X33762D2*
X35457D1*
X36299D2*
X43982D1*
X45556D2*
X47638D1*
X51006D2*
X56044D1*
X63968D2*
X64607D1*
X67474D2*
X68876D1*
X71049D2*
X71957D1*
X74731D2*
X77307D1*
X80174D2*
X84157D1*
X86024D2*
X89263D1*
X740Y57420D2*
X5719D1*
X8887D2*
X11094D1*
X13668D2*
X14282D1*
X18981D2*
X22488D1*
X24637D2*
X43982D1*
X45556D2*
X47994D1*
X49162D2*
X50051D1*
X50278D2*
X56044D1*
X63968D2*
X64476D1*
X67599D2*
X68876D1*
X71049D2*
X71957D1*
X74731D2*
X77176D1*
X80299D2*
X84169D1*
X86012D2*
X89263D1*
X740Y57023D2*
X5719D1*
X8887D2*
X11094D1*
X13668D2*
X14113D1*
X19424D2*
X22844D1*
X25031D2*
X28819D1*
X29281D2*
X43982D1*
X47574D2*
X56044D1*
X63968D2*
X64457D1*
X67618D2*
X68876D1*
X71049D2*
X71957D1*
X74731D2*
X77157D1*
X80318D2*
X83926D1*
X86249D2*
X89263D1*
X740Y56627D2*
X5719D1*
X8887D2*
X11094D1*
X13668D2*
X14044D1*
X19824D2*
X23244D1*
X29906D2*
X43626D1*
X47974D2*
X56044D1*
X63968D2*
X64544D1*
X67537D2*
X68876D1*
X71049D2*
X71957D1*
X74731D2*
X77244D1*
X80237D2*
X83857D1*
X86324D2*
X89263D1*
X740Y56230D2*
X5719D1*
X8887D2*
X11094D1*
X13668D2*
X14063D1*
X20218D2*
X23638D1*
X30074D2*
X43232D1*
X48324D2*
X56044D1*
X63968D2*
X64757D1*
X67324D2*
X68876D1*
X71049D2*
X71957D1*
X74731D2*
X77457D1*
X80024D2*
X83919D1*
X86262D2*
X89263D1*
X740Y55833D2*
X5719D1*
X8887D2*
X11094D1*
X13668D2*
X14176D1*
X20618D2*
X24032D1*
X30074D2*
X42832D1*
X48412D2*
X56044D1*
X63968D2*
X65057D1*
X67024D2*
X68876D1*
X71049D2*
X71957D1*
X74731D2*
X77757D1*
X79724D2*
X84138D1*
X86037D2*
X89263D1*
X740Y55437D2*
X5719D1*
X8887D2*
X11094D1*
X13668D2*
X14401D1*
X17349D2*
X17976D1*
X21012D2*
X24444D1*
X29893D2*
X42438D1*
X48412D2*
X56044D1*
X63968D2*
X64694D1*
X67387D2*
X68876D1*
X71049D2*
X71957D1*
X74731D2*
X77394D1*
X80087D2*
X84188D1*
X85993D2*
X89263D1*
X740Y55040D2*
X5719D1*
X8887D2*
X11094D1*
X13668D2*
X14819D1*
X16931D2*
X18369D1*
X21412D2*
X28926D1*
X29178D2*
X42038D1*
X49993D2*
X50419D1*
X53087D2*
X56044D1*
X63968D2*
X64513D1*
X67562D2*
X68876D1*
X71049D2*
X71957D1*
X74731D2*
X77213D1*
X80262D2*
X83932D1*
X86243D2*
X89263D1*
X740Y54643D2*
X5719D1*
X8887D2*
X11094D1*
X13668D2*
X14601D1*
X17149D2*
X18769D1*
X21806D2*
X41644D1*
X53087D2*
X56044D1*
X63968D2*
X64457D1*
X67624D2*
X68876D1*
X71049D2*
X71957D1*
X74731D2*
X77157D1*
X80324D2*
X83857D1*
X86324D2*
X89263D1*
X740Y54247D2*
X5719D1*
X8887D2*
X11094D1*
X13668D2*
X14288D1*
X17462D2*
X19163D1*
X22199D2*
X41244D1*
X46331D2*
X46838D1*
X53087D2*
X56044D1*
X63968D2*
X64501D1*
X67581D2*
X68876D1*
X71049D2*
X71957D1*
X74731D2*
X77201D1*
X80281D2*
X83913D1*
X86268D2*
X89263D1*
X740Y53850D2*
X5719D1*
X8887D2*
X11094D1*
X13668D2*
X14113D1*
X17637D2*
X19563D1*
X22599D2*
X40851D1*
X45893D2*
X46838D1*
X53087D2*
X56044D1*
X63968D2*
X64657D1*
X67424D2*
X68876D1*
X71049D2*
X71957D1*
X74731D2*
X77357D1*
X80124D2*
X84126D1*
X86056D2*
X89263D1*
X740Y53453D2*
X5719D1*
X8887D2*
X11094D1*
X13668D2*
X14044D1*
X17706D2*
X19957D1*
X22993D2*
X40451D1*
X45499D2*
X46838D1*
X53087D2*
X56044D1*
X63968D2*
X64976D1*
X67106D2*
X68876D1*
X71049D2*
X71957D1*
X74731D2*
X77676D1*
X79806D2*
X84744D1*
X85431D2*
X89263D1*
X740Y53057D2*
X5719D1*
X8887D2*
X11094D1*
X13668D2*
X14063D1*
X17687D2*
X20357D1*
X23337D2*
X37788D1*
X45099D2*
X46838D1*
X50168D2*
X50419D1*
X53087D2*
X56044D1*
X63968D2*
X64813D1*
X67268D2*
X68876D1*
X71049D2*
X71957D1*
X74731D2*
X77513D1*
X79968D2*
X89263D1*
X740Y52660D2*
X5719D1*
X8887D2*
X11094D1*
X13668D2*
X14176D1*
X17574D2*
X20751D1*
X23462D2*
X37569D1*
X44706D2*
X46838D1*
X48449D2*
X56044D1*
X63968D2*
X64569D1*
X67506D2*
X68876D1*
X71049D2*
X71957D1*
X74731D2*
X77269D1*
X80206D2*
X89263D1*
X740Y52263D2*
X5719D1*
X8887D2*
X11094D1*
X13668D2*
X14401D1*
X17349D2*
X21151D1*
X23468D2*
X37088D1*
X44312D2*
X46851D1*
X48843D2*
X56044D1*
X63968D2*
X64469D1*
X67612D2*
X68876D1*
X71049D2*
X71957D1*
X74731D2*
X77169D1*
X80312D2*
X89263D1*
X740Y51867D2*
X5719D1*
X8887D2*
X11094D1*
X13668D2*
X14807D1*
X16943D2*
X21301D1*
X23468D2*
X36457D1*
X43912D2*
X47051D1*
X49031D2*
X56044D1*
X63968D2*
X64469D1*
X67612D2*
X68876D1*
X71049D2*
X71957D1*
X74731D2*
X77169D1*
X80312D2*
X89263D1*
X740Y51470D2*
X5719D1*
X8887D2*
X11094D1*
X13668D2*
X14607D1*
X17143D2*
X21301D1*
X23468D2*
X36282D1*
X43518D2*
X47451D1*
X49043D2*
X50563D1*
X51049D2*
X56044D1*
X63968D2*
X64576D1*
X67506D2*
X68876D1*
X71049D2*
X71957D1*
X74731D2*
X77276D1*
X80206D2*
X89263D1*
X740Y51073D2*
X5719D1*
X8887D2*
X11094D1*
X13668D2*
X14288D1*
X17462D2*
X21301D1*
X23468D2*
X32182D1*
X33224D2*
X36007D1*
X43118D2*
X47251D1*
X49256D2*
X49951D1*
X51662D2*
X56044D1*
X63968D2*
X64819D1*
X67262D2*
X68876D1*
X71049D2*
X71957D1*
X74731D2*
X77519D1*
X79962D2*
X89263D1*
X740Y50677D2*
X5719D1*
X8887D2*
X11094D1*
X13668D2*
X14113D1*
X17637D2*
X21301D1*
X23468D2*
X30851D1*
X33618D2*
X35613D1*
X42712D2*
X47219D1*
X49293D2*
X49782D1*
X51831D2*
X56044D1*
X63968D2*
X64963D1*
X67118D2*
X68876D1*
X71049D2*
X71957D1*
X74731D2*
X77663D1*
X79818D2*
X89263D1*
X740Y50280D2*
X5719D1*
X8887D2*
X11094D1*
X13668D2*
X14044D1*
X17706D2*
X21301D1*
X23468D2*
X30451D1*
X33743D2*
X35213D1*
X37462D2*
X47357D1*
X49156D2*
X49501D1*
X51824D2*
X56044D1*
X63968D2*
X64651D1*
X67431D2*
X68876D1*
X71049D2*
X71957D1*
X74731D2*
X77351D1*
X80131D2*
X89263D1*
X740Y49883D2*
X5719D1*
X8887D2*
X11094D1*
X13668D2*
X14063D1*
X17687D2*
X21301D1*
X23468D2*
X30057D1*
X37006D2*
X47801D1*
X48712D2*
X49107D1*
X51643D2*
X56101D1*
X63968D2*
X64494D1*
X67587D2*
X68876D1*
X71049D2*
X71957D1*
X74731D2*
X77194D1*
X80287D2*
X89263D1*
X740Y49487D2*
X5719D1*
X8887D2*
X11094D1*
X13668D2*
X14169D1*
X17581D2*
X21301D1*
X23468D2*
X29657D1*
X36612D2*
X36814D1*
X50899D2*
X56419D1*
X63968D2*
X64457D1*
X67624D2*
X68876D1*
X71049D2*
X71957D1*
X74731D2*
X77157D1*
X80324D2*
X89263D1*
X740Y49090D2*
X5719D1*
X8887D2*
X11094D1*
X13668D2*
X14394D1*
X17356D2*
X21301D1*
X23468D2*
X29263D1*
X50499D2*
X56813D1*
X63968D2*
X64519D1*
X67562D2*
X68876D1*
X71049D2*
X71957D1*
X74731D2*
X77219D1*
X80262D2*
X89263D1*
X740Y48693D2*
X5719D1*
X8887D2*
X11094D1*
X13668D2*
X14801D1*
X16949D2*
X21301D1*
X23468D2*
X28869D1*
X50106D2*
X57207D1*
X63968D2*
X64701D1*
X67381D2*
X68876D1*
X71049D2*
X71957D1*
X74731D2*
X77401D1*
X80081D2*
X89263D1*
X740Y48297D2*
X5719D1*
X8887D2*
X11094D1*
X13831D2*
X21301D1*
X23468D2*
X28469D1*
X31768D2*
X35613D1*
X49693D2*
X55357D1*
X55768D2*
X57607D1*
X63968D2*
X65069D1*
X67012D2*
X68876D1*
X71049D2*
X71957D1*
X74731D2*
X77769D1*
X79712D2*
X89263D1*
X740Y47900D2*
X5719D1*
X8887D2*
X11101D1*
X14224D2*
X21301D1*
X23468D2*
X28076D1*
X31374D2*
X35213D1*
X56412D2*
X58001D1*
X63968D2*
X68876D1*
X71049D2*
X71957D1*
X74731D2*
X89263D1*
X740Y47503D2*
X5719D1*
X8887D2*
X11176D1*
X14624D2*
X21301D1*
X23468D2*
X23851D1*
X25681D2*
X27676D1*
X30974D2*
X34819D1*
X56587D2*
X58401D1*
X63968D2*
X68876D1*
X71049D2*
X71957D1*
X77531D2*
X89263D1*
X740Y47107D2*
X5719D1*
X8887D2*
X11419D1*
X15018D2*
X21301D1*
X25974D2*
X27363D1*
X30581D2*
X34419D1*
X56974D2*
X58588D1*
X63968D2*
X65319D1*
X66762D2*
X68876D1*
X71049D2*
X71957D1*
X77531D2*
X78019D1*
X79462D2*
X89263D1*
X740Y46710D2*
X5719D1*
X8887D2*
X11813D1*
X17306D2*
X21301D1*
X26093D2*
X27313D1*
X30181D2*
X30751D1*
X57418D2*
X58588D1*
X63968D2*
X64813D1*
X67268D2*
X68876D1*
X71049D2*
X71957D1*
X79968D2*
X89263D1*
X740Y46313D2*
X5719D1*
X8887D2*
X12213D1*
X17718D2*
X21301D1*
X26081D2*
X27313D1*
X29837D2*
X30294D1*
X57549D2*
X58588D1*
X63968D2*
X64576D1*
X67506D2*
X68876D1*
X71049D2*
X71957D1*
X80206D2*
X89263D1*
X740Y45917D2*
X5719D1*
X8887D2*
X12607D1*
X18112D2*
X21301D1*
X25937D2*
X27313D1*
X57518D2*
X58588D1*
X63968D2*
X64469D1*
X67612D2*
X68876D1*
X71049D2*
X71957D1*
X80312D2*
X89263D1*
X740Y45520D2*
X5719D1*
X8887D2*
X13001D1*
X18512D2*
X21301D1*
X23468D2*
X23932D1*
X25599D2*
X27313D1*
X57293D2*
X58588D1*
X63968D2*
X64469D1*
X67612D2*
X68876D1*
X71049D2*
X71957D1*
X80312D2*
X89263D1*
X740Y45123D2*
X5719D1*
X8887D2*
X13401D1*
X18906D2*
X21301D1*
X23468D2*
X27313D1*
X42649D2*
X58588D1*
X63968D2*
X64576D1*
X67506D2*
X68876D1*
X71049D2*
X71957D1*
X80206D2*
X89263D1*
X740Y44727D2*
X5719D1*
X8887D2*
X13813D1*
X19306D2*
X21301D1*
X23468D2*
X27313D1*
X43043D2*
X58588D1*
X63968D2*
X64813D1*
X67262D2*
X68876D1*
X71049D2*
X71957D1*
X79962D2*
X89263D1*
X740Y44330D2*
X5719D1*
X8887D2*
X16101D1*
X19699D2*
X21301D1*
X23468D2*
X27313D1*
X43443D2*
X58588D1*
X63968D2*
X64969D1*
X67112D2*
X68876D1*
X71049D2*
X71957D1*
X79812D2*
X89263D1*
X740Y43933D2*
X5719D1*
X8887D2*
X16494D1*
X20099D2*
X21301D1*
X23468D2*
X27313D1*
X43837D2*
X58588D1*
X63968D2*
X64651D1*
X71099D2*
X71957D1*
X80131D2*
X89263D1*
X740Y43537D2*
X5719D1*
X8887D2*
X16894D1*
X20493D2*
X21301D1*
X23468D2*
X27313D1*
X29837D2*
X30301D1*
X44237D2*
X58588D1*
X63968D2*
X64494D1*
X71099D2*
X71957D1*
X74731D2*
X77194D1*
X80287D2*
X89263D1*
X740Y43140D2*
X5719D1*
X8887D2*
X17288D1*
X20893D2*
X21301D1*
X23468D2*
X27251D1*
X29837D2*
X30757D1*
X44631D2*
X58588D1*
X63968D2*
X64457D1*
X71099D2*
X71957D1*
X74731D2*
X77157D1*
X80324D2*
X89263D1*
X740Y42743D2*
X5719D1*
X8887D2*
X17688D1*
X23468D2*
X23932D1*
X25599D2*
X27076D1*
X29837D2*
X41251D1*
X45031D2*
X48726D1*
X56524D2*
X58588D1*
X63968D2*
X64519D1*
X71099D2*
X71957D1*
X74731D2*
X77219D1*
X80262D2*
X89263D1*
X740Y42347D2*
X2576D1*
X3774D2*
X5719D1*
X8887D2*
X15276D1*
X16474D2*
X18082D1*
X25937D2*
X27076D1*
X29837D2*
X41651D1*
X45224D2*
X48269D1*
X56981D2*
X58588D1*
X63968D2*
X64701D1*
X71099D2*
X71957D1*
X74731D2*
X77401D1*
X80081D2*
X89263D1*
X740Y41950D2*
X1907D1*
X4443D2*
X5719D1*
X17143D2*
X18476D1*
X26081D2*
X27251D1*
X29837D2*
X42044D1*
X45237D2*
X47876D1*
X57374D2*
X58588D1*
X63968D2*
X65063D1*
X71049D2*
X71957D1*
X74731D2*
X77763D1*
X79718D2*
X89263D1*
X740Y41553D2*
X1588D1*
X4762D2*
X5719D1*
X17462D2*
X18876D1*
X26087D2*
X27557D1*
X29837D2*
X42444D1*
X45237D2*
X47476D1*
X57774D2*
X58588D1*
X63968D2*
X64751D1*
X71099D2*
X71957D1*
X74731D2*
X77451D1*
X80024D2*
X89263D1*
X740Y41157D2*
X1413D1*
X4937D2*
X5719D1*
X17637D2*
X19032D1*
X25974D2*
X27282D1*
X29699D2*
X32426D1*
X33618D2*
X38776D1*
X39968D2*
X42713D1*
X45237D2*
X47082D1*
X58168D2*
X58588D1*
X63968D2*
X64544D1*
X71099D2*
X71957D1*
X74731D2*
X77244D1*
X80237D2*
X89263D1*
X740Y40760D2*
X1344D1*
X5006D2*
X5719D1*
X17706D2*
X19032D1*
X23468D2*
X23857D1*
X25674D2*
X27213D1*
X29312D2*
X32076D1*
X33962D2*
X38426D1*
X40312D2*
X42713D1*
X45237D2*
X46688D1*
X49437D2*
X55813D1*
X63968D2*
X64457D1*
X71099D2*
X71957D1*
X74731D2*
X77157D1*
X80318D2*
X89263D1*
X740Y40363D2*
X1363D1*
X4987D2*
X5744D1*
X17687D2*
X19032D1*
X23468D2*
X27313D1*
X29199D2*
X31976D1*
X34062D2*
X38326D1*
X40412D2*
X42713D1*
X45237D2*
X46288D1*
X49043D2*
X56207D1*
X63968D2*
X64482D1*
X71099D2*
X71957D1*
X74731D2*
X77182D1*
X80299D2*
X89263D1*
X740Y39967D2*
X1469D1*
X4881D2*
X5869D1*
X17581D2*
X19032D1*
X23468D2*
X27657D1*
X28856D2*
X32044D1*
X33999D2*
X38394D1*
X40349D2*
X42713D1*
X45237D2*
X46044D1*
X48649D2*
X49157D1*
X50856D2*
X51694D1*
X53399D2*
X54232D1*
X55937D2*
X56238D1*
X63968D2*
X64607D1*
X71099D2*
X71957D1*
X74731D2*
X77307D1*
X80174D2*
X84319D1*
X85862D2*
X89263D1*
X740Y39570D2*
X1694D1*
X4656D2*
X5919D1*
X17356D2*
X19032D1*
X23468D2*
X32232D1*
X33806D2*
X38582D1*
X40156D2*
X42713D1*
X45237D2*
X46007D1*
X48249D2*
X48801D1*
X63968D2*
X64882D1*
X71049D2*
X71957D1*
X74731D2*
X77582D1*
X79893D2*
X83988D1*
X86193D2*
X89263D1*
X740Y39173D2*
X2101D1*
X4249D2*
X5919D1*
X16949D2*
X19032D1*
X23468D2*
X32232D1*
X33806D2*
X38582D1*
X40156D2*
X42713D1*
X45237D2*
X46007D1*
X47974D2*
X48651D1*
X63968D2*
X64888D1*
X71049D2*
X71957D1*
X74731D2*
X77588D1*
X79893D2*
X83863D1*
X86318D2*
X89263D1*
X740Y38777D2*
X5919D1*
X8687D2*
X19032D1*
X23468D2*
X32232D1*
X33806D2*
X38582D1*
X40156D2*
X42713D1*
X45237D2*
X46007D1*
X47974D2*
X48626D1*
X63968D2*
X64613D1*
X71099D2*
X71957D1*
X74731D2*
X77313D1*
X80168D2*
X83882D1*
X86299D2*
X89263D1*
X740Y38380D2*
X5919D1*
X8687D2*
X19032D1*
X23468D2*
X32232D1*
X33806D2*
X38582D1*
X40156D2*
X42713D1*
X45237D2*
X46007D1*
X47974D2*
X48726D1*
X63968D2*
X64482D1*
X71099D2*
X71957D1*
X74731D2*
X77182D1*
X80299D2*
X84038D1*
X86137D2*
X89263D1*
X740Y37983D2*
X5919D1*
X8731D2*
X19032D1*
X23468D2*
X32232D1*
X33806D2*
X38582D1*
X40156D2*
X42713D1*
X45237D2*
X46007D1*
X47974D2*
X48976D1*
X63968D2*
X64457D1*
X71099D2*
X71957D1*
X74731D2*
X77157D1*
X80324D2*
X84344D1*
X85837D2*
X89263D1*
X740Y37587D2*
X5919D1*
X9131D2*
X19032D1*
X23468D2*
X32232D1*
X33806D2*
X38582D1*
X40156D2*
X42713D1*
X45237D2*
X46007D1*
X47974D2*
X49426D1*
X63968D2*
X64544D1*
X71099D2*
X71957D1*
X74731D2*
X77244D1*
X80237D2*
X83994D1*
X86181D2*
X89263D1*
X740Y37190D2*
X5944D1*
X9524D2*
X19032D1*
X23468D2*
X32232D1*
X33806D2*
X38582D1*
X40156D2*
X42713D1*
X45237D2*
X46007D1*
X47974D2*
X48913D1*
X63968D2*
X64751D1*
X71099D2*
X71957D1*
X74731D2*
X77451D1*
X80031D2*
X83869D1*
X86312D2*
X89263D1*
X740Y36793D2*
X6101D1*
X9924D2*
X19032D1*
X23468D2*
X32232D1*
X33806D2*
X38582D1*
X40156D2*
X42713D1*
X45237D2*
X46007D1*
X47974D2*
X48694D1*
X63968D2*
X65069D1*
X67012D2*
X68763D1*
X70937D2*
X71957D1*
X74731D2*
X77769D1*
X79712D2*
X83876D1*
X86306D2*
X89263D1*
X740Y36397D2*
X6432D1*
X10318D2*
X19032D1*
X23468D2*
X32232D1*
X33806D2*
X38582D1*
X40156D2*
X42713D1*
X45237D2*
X46007D1*
X47974D2*
X48619D1*
X63968D2*
X64701D1*
X67381D2*
X68763D1*
X70937D2*
X71957D1*
X74731D2*
X77401D1*
X80081D2*
X84032D1*
X86149D2*
X89263D1*
X740Y36000D2*
X6832D1*
X10718D2*
X18957D1*
X23468D2*
X32232D1*
X33806D2*
X38582D1*
X40156D2*
X42713D1*
X45237D2*
X46007D1*
X47974D2*
X48669D1*
X63968D2*
X64519D1*
X67562D2*
X68763D1*
X70937D2*
X71957D1*
X74731D2*
X77219D1*
X80262D2*
X84363D1*
X85812D2*
X89263D1*
X740Y35603D2*
X7226D1*
X11112D2*
X18563D1*
X23468D2*
X32126D1*
X33806D2*
X38582D1*
X40156D2*
X42713D1*
X45237D2*
X46007D1*
X47974D2*
X48851D1*
X51162D2*
X51395D1*
X53706D2*
X53932D1*
X56243D2*
X56469D1*
X63968D2*
X64457D1*
X67624D2*
X68763D1*
X70937D2*
X71957D1*
X74731D2*
X77157D1*
X80324D2*
X84007D1*
X86174D2*
X89263D1*
X740Y35207D2*
X7619D1*
X11506D2*
X18163D1*
X23781D2*
X31732D1*
X33781D2*
X38582D1*
X40156D2*
X42713D1*
X45237D2*
X46007D1*
X47974D2*
X49263D1*
X50749D2*
X51801D1*
X53287D2*
X54344D1*
X55831D2*
X56882D1*
X58368D2*
X58584D1*
X63968D2*
X64494D1*
X67587D2*
X68763D1*
X70937D2*
X71957D1*
X74731D2*
X77194D1*
X80287D2*
X83869D1*
X86312D2*
X89263D1*
X740Y34810D2*
X8019D1*
X11906D2*
X17769D1*
X24174D2*
X28463D1*
X29956D2*
X31332D1*
X33524D2*
X36719D1*
X38212D2*
X38582D1*
X40156D2*
X42713D1*
X45237D2*
X46007D1*
X47974D2*
X58588D1*
X63968D2*
X64651D1*
X67431D2*
X68763D1*
X70937D2*
X71957D1*
X74731D2*
X77351D1*
X80131D2*
X83876D1*
X86306D2*
X89263D1*
X740Y34413D2*
X8413D1*
X12299D2*
X17369D1*
X24574D2*
X28119D1*
X30299D2*
X30576D1*
X33124D2*
X36376D1*
X40156D2*
X42713D1*
X45237D2*
X46007D1*
X47974D2*
X58588D1*
X63968D2*
X64963D1*
X67118D2*
X68763D1*
X70937D2*
X71957D1*
X74731D2*
X77663D1*
X79818D2*
X84019D1*
X86162D2*
X89263D1*
X740Y34017D2*
X8813D1*
X12699D2*
X16976D1*
X24968D2*
X27988D1*
X32731D2*
X36244D1*
X40156D2*
X42713D1*
X45237D2*
X46007D1*
X47974D2*
X58588D1*
X63968D2*
X64819D1*
X67262D2*
X68763D1*
X70937D2*
X71957D1*
X74731D2*
X77519D1*
X79962D2*
X84388D1*
X85793D2*
X89263D1*
X740Y33620D2*
X9207D1*
X13093D2*
X16576D1*
X25368D2*
X27994D1*
X32331D2*
X36251D1*
X40156D2*
X42713D1*
X45237D2*
X46007D1*
X47974D2*
X58588D1*
X63968D2*
X64576D1*
X67506D2*
X68763D1*
X70937D2*
X71957D1*
X74731D2*
X77276D1*
X80206D2*
X84013D1*
X86162D2*
X89263D1*
X740Y33223D2*
X9607D1*
X13493D2*
X16182D1*
X25762D2*
X28151D1*
X32218D2*
X36401D1*
X40156D2*
X42713D1*
X45237D2*
X46007D1*
X48162D2*
X58588D1*
X63968D2*
X64469D1*
X67612D2*
X68763D1*
X70937D2*
X71957D1*
X74731D2*
X77169D1*
X80312D2*
X83869D1*
X86306D2*
X89263D1*
X740Y32827D2*
X10001D1*
X13887D2*
X15938D1*
X19387D2*
X19944D1*
X40156D2*
X42713D1*
X45237D2*
X46026D1*
X48562D2*
X58588D1*
X63968D2*
X64469D1*
X67612D2*
X68763D1*
X70937D2*
X71957D1*
X74731D2*
X77169D1*
X80312D2*
X83869D1*
X86312D2*
X89263D1*
X740Y32430D2*
X10401D1*
X14287D2*
X15863D1*
X18993D2*
X20344D1*
X40156D2*
X42713D1*
X45237D2*
X46213D1*
X48956D2*
X58588D1*
X63968D2*
X64569D1*
X67506D2*
X68763D1*
X70937D2*
X71957D1*
X74731D2*
X77269D1*
X80206D2*
X84013D1*
X86168D2*
X89263D1*
X740Y32033D2*
X10794D1*
X14681D2*
X15913D1*
X18593D2*
X20738D1*
X40156D2*
X42713D1*
X45237D2*
X46601D1*
X49356D2*
X58588D1*
X63968D2*
X64813D1*
X67268D2*
X68763D1*
X70937D2*
X71957D1*
X74731D2*
X77513D1*
X79968D2*
X84376D1*
X85806D2*
X89263D1*
X740Y31637D2*
X11194D1*
X15081D2*
X16107D1*
X18199D2*
X21138D1*
X40149D2*
X42713D1*
X45237D2*
X46994D1*
X49749D2*
X58588D1*
X63968D2*
X64976D1*
X67106D2*
X68763D1*
X70937D2*
X71957D1*
X74731D2*
X77676D1*
X79806D2*
X89263D1*
X740Y31240D2*
X11588D1*
X15474D2*
X16613D1*
X17674D2*
X21532D1*
X39956D2*
X42713D1*
X45237D2*
X47394D1*
X50149D2*
X58588D1*
X63968D2*
X64657D1*
X67424D2*
X68763D1*
X70937D2*
X71957D1*
X74731D2*
X77357D1*
X80124D2*
X89263D1*
X740Y30843D2*
X7907D1*
X9556D2*
X11988D1*
X15874D2*
X21932D1*
X24968D2*
X25282D1*
X39556D2*
X42713D1*
X45237D2*
X47788D1*
X50543D2*
X58401D1*
X63968D2*
X64501D1*
X67581D2*
X68763D1*
X70937D2*
X71957D1*
X74731D2*
X77201D1*
X80281D2*
X89263D1*
X740Y30447D2*
X7632D1*
X9831D2*
X12382D1*
X16268D2*
X22326D1*
X25362D2*
X28138D1*
X30281D2*
X36394D1*
X39162D2*
X42713D1*
X45237D2*
X48188D1*
X50943D2*
X58332D1*
X63968D2*
X64457D1*
X67624D2*
X68763D1*
X70937D2*
X71957D1*
X74731D2*
X77157D1*
X80324D2*
X89263D1*
X740Y30050D2*
X7544D1*
X9918D2*
X12782D1*
X16668D2*
X22726D1*
X25762D2*
X27994D1*
X30431D2*
X36244D1*
X38762D2*
X42713D1*
X45237D2*
X48582D1*
X51337D2*
X58426D1*
X63968D2*
X64513D1*
X67562D2*
X68763D1*
X70937D2*
X71957D1*
X74731D2*
X77213D1*
X80262D2*
X89263D1*
X740Y29653D2*
X7601D1*
X10599D2*
X13176D1*
X17062D2*
X23119D1*
X26156D2*
X27988D1*
X30431D2*
X36244D1*
X38687D2*
X42713D1*
X45237D2*
X48982D1*
X51737D2*
X58763D1*
X63968D2*
X64694D1*
X67387D2*
X68763D1*
X70937D2*
X71957D1*
X74731D2*
X77394D1*
X80087D2*
X89263D1*
X740Y29257D2*
X7826D1*
X11124D2*
X13569D1*
X17456D2*
X23519D1*
X26556D2*
X28132D1*
X30293D2*
X36382D1*
X38543D2*
X42713D1*
X45237D2*
X49376D1*
X52131D2*
X59857D1*
X64074D2*
X65057D1*
X67024D2*
X68763D1*
X70937D2*
X71957D1*
X74731D2*
X77757D1*
X79724D2*
X89263D1*
X740Y28860D2*
X9013D1*
X11312D2*
X13969D1*
X17856D2*
X23913D1*
X26949D2*
X28494D1*
X29931D2*
X36744D1*
X38181D2*
X42713D1*
X45237D2*
X49776D1*
X52524D2*
X59857D1*
X64468D2*
X64757D1*
X67324D2*
X68763D1*
X70937D2*
X71957D1*
X74731D2*
X77457D1*
X80024D2*
X89263D1*
X740Y28463D2*
X8982D1*
X11343D2*
X14363D1*
X18249D2*
X24313D1*
X27349D2*
X42713D1*
X45237D2*
X50169D1*
X52924D2*
X59857D1*
X67537D2*
X68763D1*
X70937D2*
X71957D1*
X74731D2*
X77244D1*
X80237D2*
X89263D1*
X740Y28067D2*
X9094D1*
X11224D2*
X14763D1*
X18649D2*
X24707D1*
X27743D2*
X42713D1*
X45237D2*
X50563D1*
X53318D2*
X59857D1*
X67618D2*
X68763D1*
X70937D2*
X71957D1*
X74731D2*
X77157D1*
X80318D2*
X89263D1*
X740Y27670D2*
X9419D1*
X10899D2*
X15157D1*
X19043D2*
X25101D1*
X28143D2*
X42713D1*
X45237D2*
X50963D1*
X53718D2*
X59857D1*
X67599D2*
X68763D1*
X70937D2*
X71957D1*
X74731D2*
X77176D1*
X80299D2*
X89263D1*
X740Y27273D2*
X15557D1*
X19443D2*
X25501D1*
X28537D2*
X42713D1*
X45237D2*
X51357D1*
X54112D2*
X59944D1*
X67474D2*
X68763D1*
X70937D2*
X71957D1*
X74731D2*
X77307D1*
X80174D2*
X89263D1*
X740Y26877D2*
X15951D1*
X19837D2*
X25894D1*
X28887D2*
X42713D1*
X45237D2*
X51757D1*
X54512D2*
X60294D1*
X63968D2*
X64876D1*
X67199D2*
X68763D1*
X70937D2*
X71957D1*
X74731D2*
X77576D1*
X79899D2*
X89263D1*
X740Y26480D2*
X16351D1*
X20237D2*
X26294D1*
X29018D2*
X42713D1*
X45237D2*
X52151D1*
X54906D2*
X60688D1*
X63968D2*
X65494D1*
X66587D2*
X68763D1*
X70937D2*
X71957D1*
X74731D2*
X78194D1*
X79287D2*
X89263D1*
X740Y26083D2*
X16744D1*
X20631D2*
X26688D1*
X29024D2*
X42713D1*
X45237D2*
X52551D1*
X55306D2*
X61088D1*
X63968D2*
X68763D1*
X70937D2*
X71957D1*
X74731D2*
X89263D1*
X740Y25687D2*
X17144D1*
X21031D2*
X26857D1*
X29024D2*
X42713D1*
X45237D2*
X52944D1*
X55699D2*
X61126D1*
X63968D2*
X68763D1*
X70937D2*
X71957D1*
X77531D2*
X89263D1*
X740Y25290D2*
X17538D1*
X21424D2*
X26857D1*
X29024D2*
X42713D1*
X45237D2*
X53344D1*
X56099D2*
X61126D1*
X63968D2*
X64976D1*
X67099D2*
X68763D1*
X70937D2*
X71957D1*
X79799D2*
X89263D1*
X740Y24893D2*
X17938D1*
X21824D2*
X26857D1*
X29024D2*
X42713D1*
X45237D2*
X53738D1*
X56493D2*
X61126D1*
X63968D2*
X64657D1*
X67424D2*
X68763D1*
X70937D2*
X71957D1*
X80124D2*
X89263D1*
X740Y24497D2*
X18332D1*
X22218D2*
X26857D1*
X29024D2*
X42713D1*
X45237D2*
X54138D1*
X56893D2*
X61126D1*
X63968D2*
X64501D1*
X67581D2*
X68763D1*
X70937D2*
X71957D1*
X80281D2*
X89263D1*
X740Y24100D2*
X18732D1*
X22618D2*
X26857D1*
X29024D2*
X42713D1*
X45237D2*
X54532D1*
X57287D2*
X61126D1*
X63968D2*
X64457D1*
X67624D2*
X68763D1*
X70937D2*
X71957D1*
X80324D2*
X89263D1*
X740Y23703D2*
X16126D1*
X18799D2*
X19126D1*
X23012D2*
X26857D1*
X29024D2*
X42713D1*
X45237D2*
X54932D1*
X57687D2*
X61126D1*
X63968D2*
X64513D1*
X67568D2*
X68763D1*
X70937D2*
X71957D1*
X80268D2*
X89263D1*
X740Y23307D2*
X16126D1*
X18799D2*
X19519D1*
X23406D2*
X26857D1*
X29024D2*
X42713D1*
X45237D2*
X55326D1*
X58081D2*
X61126D1*
X63968D2*
X64694D1*
X67387D2*
X68763D1*
X70937D2*
X71957D1*
X80087D2*
X89263D1*
X740Y22910D2*
X14832D1*
X18799D2*
X19919D1*
X23806D2*
X26857D1*
X29024D2*
X42713D1*
X45237D2*
X55726D1*
X58474D2*
X61126D1*
X63968D2*
X65051D1*
X67031D2*
X68763D1*
X70937D2*
X71957D1*
X79731D2*
X89263D1*
X740Y22513D2*
X14432D1*
X18799D2*
X20313D1*
X24199D2*
X26857D1*
X29024D2*
X42713D1*
X45237D2*
X56119D1*
X58874D2*
X61126D1*
X63968D2*
X64763D1*
X70987D2*
X71957D1*
X80018D2*
X89263D1*
X740Y22117D2*
X14038D1*
X18799D2*
X20713D1*
X24599D2*
X26857D1*
X29024D2*
X42713D1*
X45237D2*
X56513D1*
X59268D2*
X61126D1*
X63968D2*
X64544D1*
X70987D2*
X71957D1*
X74731D2*
X77244D1*
X80231D2*
X89263D1*
X740Y21720D2*
X13638D1*
X15831D2*
X16126D1*
X18799D2*
X21107D1*
X24993D2*
X26857D1*
X29024D2*
X42713D1*
X45237D2*
X56913D1*
X59668D2*
X61126D1*
X63968D2*
X64457D1*
X70987D2*
X71957D1*
X74731D2*
X77157D1*
X80318D2*
X89263D1*
X740Y21323D2*
X13244D1*
X15431D2*
X16126D1*
X18799D2*
X21507D1*
X25393D2*
X26857D1*
X29024D2*
X42713D1*
X45237D2*
X57307D1*
X60062D2*
X61126D1*
X63968D2*
X64476D1*
X70987D2*
X71957D1*
X74731D2*
X77176D1*
X80299D2*
X89263D1*
X740Y20927D2*
X12844D1*
X15037D2*
X16513D1*
X18412D2*
X21901D1*
X25787D2*
X26857D1*
X29024D2*
X42713D1*
X45237D2*
X57707D1*
X60456D2*
X61126D1*
X63968D2*
X64607D1*
X70987D2*
X71957D1*
X74731D2*
X77307D1*
X80174D2*
X89263D1*
X740Y20530D2*
X12451D1*
X14637D2*
X16238D1*
X18687D2*
X22301D1*
X26187D2*
X26857D1*
X29024D2*
X42713D1*
X45237D2*
X58101D1*
X60649D2*
X61126D1*
X63968D2*
X64876D1*
X70937D2*
X71957D1*
X74731D2*
X77576D1*
X79906D2*
X89263D1*
X740Y20133D2*
X12057D1*
X14243D2*
X16132D1*
X18793D2*
X22694D1*
X26549D2*
X26854D1*
X29024D2*
X42713D1*
X45237D2*
X58501D1*
X60674D2*
X61126D1*
X63968D2*
X64901D1*
X70937D2*
X71957D1*
X74731D2*
X77601D1*
X79881D2*
X89263D1*
X740Y19737D2*
X11657D1*
X13843D2*
X16157D1*
X18768D2*
X23094D1*
X29024D2*
X42713D1*
X45237D2*
X58707D1*
X60674D2*
X61126D1*
X63968D2*
X64613D1*
X70987D2*
X71957D1*
X74731D2*
X77313D1*
X80162D2*
X89263D1*
X740Y19340D2*
X4651D1*
X5506D2*
X11263D1*
X13449D2*
X16307D1*
X18618D2*
X23488D1*
X29024D2*
X42376D1*
X45574D2*
X58707D1*
X60674D2*
X61126D1*
X63968D2*
X64482D1*
X70987D2*
X71957D1*
X74731D2*
X77182D1*
X80299D2*
X89263D1*
X740Y18943D2*
X4188D1*
X13056D2*
X16676D1*
X18249D2*
X23888D1*
X29024D2*
X41982D1*
X45968D2*
X58707D1*
X60674D2*
X61126D1*
X63968D2*
X64457D1*
X70987D2*
X71957D1*
X74731D2*
X77157D1*
X80324D2*
X89263D1*
X740Y18547D2*
X4044D1*
X12656D2*
X16713D1*
X18212D2*
X24013D1*
X29024D2*
X34976D1*
X35824D2*
X41582D1*
X43768D2*
X44176D1*
X46368D2*
X57044D1*
X57893D2*
X58707D1*
X60674D2*
X61126D1*
X63968D2*
X64538D1*
X70987D2*
X71957D1*
X74731D2*
X77238D1*
X80243D2*
X84626D1*
X85556D2*
X89263D1*
X740Y18150D2*
X4076D1*
X12262D2*
X16326D1*
X18599D2*
X24013D1*
X29024D2*
X34507D1*
X43374D2*
X44576D1*
X58362D2*
X58707D1*
X60674D2*
X61126D1*
X63968D2*
X64744D1*
X70987D2*
X71957D1*
X74731D2*
X77444D1*
X80037D2*
X84094D1*
X86087D2*
X89263D1*
X740Y17753D2*
X4288D1*
X11812D2*
X16163D1*
X18768D2*
X24013D1*
X29024D2*
X34369D1*
X42981D2*
X44969D1*
X58499D2*
X58707D1*
X60674D2*
X61126D1*
X63968D2*
X65082D1*
X70937D2*
X71957D1*
X74731D2*
X77782D1*
X79699D2*
X83901D1*
X86281D2*
X89263D1*
X740Y17357D2*
X16132D1*
X18793D2*
X24013D1*
X29024D2*
X34394D1*
X42581D2*
X45369D1*
X58474D2*
X58707D1*
X60674D2*
X61126D1*
X63968D2*
X64707D1*
X70987D2*
X71957D1*
X74731D2*
X77407D1*
X80074D2*
X83857D1*
X86324D2*
X89263D1*
X740Y16960D2*
X16232D1*
X18699D2*
X24013D1*
X29024D2*
X34607D1*
X42137D2*
X45813D1*
X58262D2*
X58707D1*
X60674D2*
X61126D1*
X63968D2*
X64519D1*
X70987D2*
X71957D1*
X74731D2*
X77219D1*
X80256D2*
X83951D1*
X86231D2*
X89263D1*
X740Y16563D2*
X16488D1*
X18437D2*
X24013D1*
X29024D2*
X58707D1*
X60674D2*
X61126D1*
X63968D2*
X64457D1*
X70987D2*
X71957D1*
X74731D2*
X77157D1*
X80324D2*
X84226D1*
X85956D2*
X89263D1*
X740Y16167D2*
X17057D1*
X17868D2*
X24013D1*
X29024D2*
X58707D1*
X60674D2*
X61126D1*
X63968D2*
X64494D1*
X70987D2*
X71957D1*
X74731D2*
X77194D1*
X80287D2*
X84107D1*
X86074D2*
X89263D1*
X740Y15770D2*
X16444D1*
X18481D2*
X24013D1*
X29024D2*
X58707D1*
X60674D2*
X61126D1*
X63968D2*
X64644D1*
X70987D2*
X71957D1*
X74731D2*
X77344D1*
X80137D2*
X83901D1*
X86274D2*
X89263D1*
X740Y15373D2*
X16207D1*
X18718D2*
X24013D1*
X29024D2*
X58707D1*
X60674D2*
X61126D1*
X63968D2*
X64951D1*
X67124D2*
X68763D1*
X70937D2*
X71957D1*
X74731D2*
X77651D1*
X79824D2*
X83857D1*
X86324D2*
X89263D1*
X740Y14977D2*
X16126D1*
X18799D2*
X24013D1*
X29406D2*
X58707D1*
X60674D2*
X61126D1*
X63968D2*
X64826D1*
X67256D2*
X68763D1*
X70937D2*
X71957D1*
X74731D2*
X77526D1*
X79956D2*
X83944D1*
X86237D2*
X89263D1*
X740Y14580D2*
X16176D1*
X18749D2*
X24013D1*
X29799D2*
X58707D1*
X60674D2*
X61126D1*
X63968D2*
X64582D1*
X67499D2*
X68763D1*
X70937D2*
X71957D1*
X74731D2*
X77282D1*
X80199D2*
X84207D1*
X85968D2*
X89263D1*
X740Y14183D2*
X16357D1*
X18568D2*
X24013D1*
X26787D2*
X27163D1*
X30199D2*
X58707D1*
X60674D2*
X61126D1*
X63968D2*
X64469D1*
X67612D2*
X68763D1*
X70937D2*
X71957D1*
X74731D2*
X77169D1*
X80312D2*
X84119D1*
X86056D2*
X89263D1*
X740Y13787D2*
X16801D1*
X18124D2*
X24013D1*
X26787D2*
X27557D1*
X54087D2*
X58707D1*
X60674D2*
X61126D1*
X63968D2*
X64463D1*
X67612D2*
X68763D1*
X70937D2*
X71957D1*
X74731D2*
X77163D1*
X80312D2*
X83907D1*
X86268D2*
X89263D1*
X740Y13390D2*
X16607D1*
X18318D2*
X24013D1*
X26787D2*
X27951D1*
X54487D2*
X58707D1*
X60674D2*
X61126D1*
X63968D2*
X64569D1*
X67512D2*
X68763D1*
X70937D2*
X71957D1*
X74731D2*
X77269D1*
X80212D2*
X83857D1*
X86324D2*
X89263D1*
X740Y12993D2*
X16282D1*
X18643D2*
X24013D1*
X26787D2*
X28351D1*
X54881D2*
X58707D1*
X60674D2*
X61126D1*
X63968D2*
X64801D1*
X67281D2*
X68763D1*
X70937D2*
X71957D1*
X74731D2*
X77501D1*
X79981D2*
X83938D1*
X86243D2*
X89263D1*
X740Y12597D2*
X16144D1*
X18781D2*
X24013D1*
X27131D2*
X28744D1*
X55281D2*
X58707D1*
X60674D2*
X61126D1*
X63968D2*
X64988D1*
X67093D2*
X68763D1*
X70937D2*
X71957D1*
X74731D2*
X77688D1*
X79793D2*
X84194D1*
X85987D2*
X89263D1*
X740Y12200D2*
X16138D1*
X18787D2*
X24026D1*
X27524D2*
X29151D1*
X55674D2*
X58707D1*
X60674D2*
X61126D1*
X63968D2*
X64657D1*
X67418D2*
X68763D1*
X70937D2*
X71957D1*
X74731D2*
X77357D1*
X80118D2*
X84138D1*
X86043D2*
X89263D1*
X740Y11803D2*
X16263D1*
X18662D2*
X24144D1*
X27924D2*
X53038D1*
X56074D2*
X58707D1*
X60674D2*
X61126D1*
X63968D2*
X64501D1*
X67581D2*
X68763D1*
X70937D2*
X71957D1*
X74731D2*
X77201D1*
X80281D2*
X83913D1*
X86268D2*
X89263D1*
X740Y11407D2*
X16569D1*
X18356D2*
X24432D1*
X28318D2*
X53432D1*
X56468D2*
X58707D1*
X60674D2*
X61126D1*
X63968D2*
X64457D1*
X67624D2*
X68763D1*
X70937D2*
X71957D1*
X74731D2*
X77157D1*
X80324D2*
X83857D1*
X86324D2*
X89263D1*
X740Y11010D2*
X16863D1*
X18068D2*
X24832D1*
X56868D2*
X58326D1*
X60674D2*
X61126D1*
X63968D2*
X64513D1*
X67568D2*
X68763D1*
X70937D2*
X71957D1*
X74731D2*
X77213D1*
X80268D2*
X83932D1*
X86249D2*
X89263D1*
X740Y10613D2*
X16382D1*
X18543D2*
X25226D1*
X57262D2*
X57932D1*
X60593D2*
X61126D1*
X63981D2*
X64688D1*
X67393D2*
X68763D1*
X70937D2*
X71957D1*
X74731D2*
X77388D1*
X80093D2*
X84176D1*
X86006D2*
X89263D1*
X740Y10217D2*
X16182D1*
X18743D2*
X25626D1*
X60287D2*
X61126D1*
X64381D2*
X65044D1*
X67037D2*
X68763D1*
X70937D2*
X71957D1*
X74731D2*
X77744D1*
X79737D2*
X89263D1*
X740Y9820D2*
X16126D1*
X18799D2*
X26019D1*
X59893D2*
X61126D1*
X67312D2*
X68763D1*
X70937D2*
X71957D1*
X74731D2*
X77463D1*
X80012D2*
X89263D1*
X740Y9423D2*
X16194D1*
X18731D2*
X26413D1*
X59493D2*
X61126D1*
X67531D2*
X68763D1*
X70937D2*
X71957D1*
X74731D2*
X77251D1*
X80231D2*
X89263D1*
X740Y9027D2*
X16419D1*
X18512D2*
X26813D1*
X59099D2*
X61126D1*
X67618D2*
X68763D1*
X70937D2*
X71957D1*
X74731D2*
X77163D1*
X80318D2*
X89263D1*
X740Y8630D2*
X16969D1*
X17956D2*
X27319D1*
X59249D2*
X61176D1*
X67606D2*
X68763D1*
X70937D2*
X71957D1*
X74731D2*
X77176D1*
X80306D2*
X89263D1*
X740Y8233D2*
X53007D1*
X59643D2*
X61476D1*
X67481D2*
X68763D1*
X70937D2*
X71957D1*
X74731D2*
X77301D1*
X80181D2*
X89263D1*
X740Y7837D2*
X53401D1*
X60037D2*
X61869D1*
X67212D2*
X68763D1*
X70937D2*
X71957D1*
X74731D2*
X77569D1*
X79912D2*
X89263D1*
X740Y7440D2*
X3269D1*
X5618D2*
X53801D1*
X60437D2*
X62269D1*
X67174D2*
X68763D1*
X70937D2*
X71957D1*
X74731D2*
X77607D1*
X79874D2*
X89263D1*
X740Y7043D2*
X2532D1*
X6356D2*
X54194D1*
X60831D2*
X62663D1*
X67462D2*
X68763D1*
X70937D2*
X71957D1*
X74731D2*
X77319D1*
X80162D2*
X84357D1*
X87093D2*
X89263D1*
X740Y6647D2*
X2076D1*
X6812D2*
X54594D1*
X61231D2*
X63063D1*
X67599D2*
X68763D1*
X70937D2*
X71957D1*
X74731D2*
X77182D1*
X80299D2*
X83707D1*
X87743D2*
X89263D1*
X740Y6250D2*
X1757D1*
X7131D2*
X54988D1*
X61624D2*
X63457D1*
X67624D2*
X68551D1*
X70937D2*
X71957D1*
X74731D2*
X77157D1*
X80324D2*
X83288D1*
X88162D2*
X89263D1*
X740Y5853D2*
X1526D1*
X7362D2*
X55388D1*
X62024D2*
X63857D1*
X67543D2*
X68151D1*
X70918D2*
X71857D1*
X74731D2*
X77238D1*
X80243D2*
X82988D1*
X88462D2*
X89263D1*
X740Y5457D2*
X1363D1*
X7524D2*
X55782D1*
X62418D2*
X64738D1*
X67343D2*
X67757D1*
X70762D2*
X71457D1*
X74731D2*
X77438D1*
X80043D2*
X82769D1*
X88681D2*
X89263D1*
X740Y5060D2*
X1263D1*
X7631D2*
X10176D1*
X12049D2*
X12319D1*
X14987D2*
X18744D1*
X20624D2*
X20888D1*
X23562D2*
X40969D1*
X42849D2*
X43113D1*
X45787D2*
X56182D1*
X70399D2*
X71063D1*
X74687D2*
X77851D1*
X79631D2*
X82619D1*
X88831D2*
X89263D1*
X740Y4663D2*
X1207D1*
X7681D2*
X9894D1*
X14987D2*
X18463D1*
X23562D2*
X40688D1*
X45787D2*
X56576D1*
X69999D2*
X70663D1*
X74512D2*
X82526D1*
X88924D2*
X89263D1*
X740Y4267D2*
X1207D1*
X7681D2*
X9782D1*
X14987D2*
X18357D1*
X23562D2*
X40582D1*
X45787D2*
X56976D1*
X69606D2*
X70269D1*
X74156D2*
X82488D1*
X88962D2*
X89263D1*
X740Y3870D2*
X1257D1*
X7637D2*
X9801D1*
X14987D2*
X18376D1*
X23562D2*
X40601D1*
X45787D2*
X57369D1*
X69206D2*
X69869D1*
X73756D2*
X82494D1*
X88956D2*
X89263D1*
X740Y3473D2*
X1351D1*
X7537D2*
X9957D1*
X14987D2*
X18526D1*
X23562D2*
X40751D1*
X45787D2*
X57763D1*
X68812D2*
X69476D1*
X73362D2*
X82551D1*
X88899D2*
X89263D1*
X740Y3077D2*
X1507D1*
X7381D2*
X10313D1*
X11912D2*
X12319D1*
X14987D2*
X18888D1*
X20481D2*
X20888D1*
X23562D2*
X41113D1*
X42706D2*
X43113D1*
X45787D2*
X58163D1*
X72962D2*
X82657D1*
X88793D2*
X89263D1*
X740Y2680D2*
X1732D1*
X7156D2*
X58557D1*
X72568D2*
X82826D1*
X88624D2*
X89263D1*
X740Y2283D2*
X2044D1*
X6849D2*
X58957D1*
X72174D2*
X83063D1*
X88387D2*
X89263D1*
X740Y1887D2*
X2476D1*
X6412D2*
X59351D1*
X71774D2*
X83394D1*
X88056D2*
X89263D1*
X740Y1490D2*
X3169D1*
X5718D2*
X59751D1*
X71381D2*
X83869D1*
X87581D2*
X89263D1*
X740Y1093D2*
X60144D1*
X70981D2*
X84657D1*
X86793D2*
X89263D1*
X30405Y79970D2*
X30382Y79772D1*
X30326Y79580D1*
X30239Y79400D1*
X30123Y79237D1*
X29982Y79096D1*
X29819Y78980D1*
X29639Y78894D1*
X29447Y78838D1*
X29249Y78815D1*
X29049Y78825D1*
X28854Y78868D1*
X28669Y78943D1*
X28499Y79048D1*
X28349Y79180D1*
X28223Y79335D1*
X28124Y79509D1*
X28056Y79696D1*
X28020Y79893D1*
X28017Y80093D1*
X28047Y80290D1*
X28110Y80480D1*
X28204Y80656D1*
X28325Y80815D1*
X28471Y80951D1*
X28554Y81010D1*
X28377Y81152D1*
X28246Y81302D1*
X28142Y81473D1*
X28067Y81658D1*
X28024Y81853D1*
X28015Y82053D1*
X28039Y82251D1*
X28095Y82443D1*
X28183Y82622D1*
X28299Y82785D1*
X28440Y82925D1*
X28558Y83008D1*
X28517Y83037D1*
X28485Y83027D1*
X27933Y82468D1*
Y78736D1*
X33587Y78734D1*
X38825Y78739D1*
X40575Y80489D1*
X40730Y80614D1*
X40908Y80704D1*
X41073Y80750D1*
X41444Y80766D1*
X42450D1*
X42502Y80835D1*
X42347Y80962D1*
X42216Y81112D1*
X42112Y81283D1*
X42037Y81468D1*
X41994Y81663D1*
X41985Y81863D1*
X42009Y82061D1*
X42065Y82253D1*
X42153Y82432D1*
X42269Y82595D1*
X42410Y82736D1*
X42528Y82818D1*
X42376Y82934D1*
X42240Y83080D1*
X42130Y83247D1*
X42049Y83430D1*
X42000Y83624D1*
X41984Y83823D1*
X42001Y84022D1*
X42051Y84215D1*
X42133Y84397D1*
X42243Y84564D1*
X42380Y84709D1*
X42539Y84830D1*
X42716Y84922D1*
X42906Y84984D1*
X43104Y85014D1*
X43304Y85010D1*
X43500Y84972D1*
X43687Y84903D1*
X43861Y84803D1*
X44015Y84676D1*
X44146Y84526D1*
X44250Y84355D1*
X44324Y84169D1*
X44366Y83974D1*
X44373Y83740D1*
X44343Y83543D1*
X44281Y83353D1*
X44188Y83176D1*
X44067Y83017D1*
X43921Y82881D1*
X43836Y82820D1*
X44043Y82648D1*
X44165Y82498D1*
X44768Y82502D1*
X44965Y82476D1*
X45149Y82398D1*
X45295Y82284D1*
X46565Y81014D1*
X46686Y80855D1*
X46760Y80670D1*
X46784Y80486D1*
Y73492D1*
X48470Y71806D1*
X48591Y71648D1*
X48665Y71463D1*
X48688Y71279D1*
Y66358D1*
X48662Y66160D1*
X48584Y65976D1*
X48470Y65830D1*
X47200Y64560D1*
X47041Y64439D1*
X46857Y64365D1*
X46672Y64341D1*
X46229D1*
X46106Y64245D1*
X45928Y64154D1*
X45736Y64100D1*
X45537Y64085D1*
X45339Y64110D1*
X45149Y64173D1*
X44976Y64273D1*
X44827Y64405D1*
X44706Y64564D1*
X44619Y64744D1*
X44570Y64937D1*
X44559Y65136D1*
X44589Y65334D1*
X44657Y65522D1*
X44761Y65692D1*
X44897Y65839D1*
X45059Y65955D1*
X45240Y66038D1*
X45435Y66083D1*
X45635Y66088D1*
X45831Y66053D1*
X46017Y65981D1*
X46226Y65834D1*
X46368D1*
X47201Y66671D1*
X47196Y67714D1*
X47055Y67545D1*
X46899Y67420D1*
X46722Y67329D1*
X46530Y67275D1*
X46331Y67260D1*
X46132Y67285D1*
X45943Y67348D1*
X45770Y67448D1*
X45620Y67580D1*
X45500Y67739D1*
X45413Y67919D1*
X45363Y68112D1*
X45359Y68206D1*
X43129Y70434D1*
X43008Y70592D1*
X42933Y70777D1*
X42910Y70961D1*
Y71243D1*
X42801Y71390D1*
X42714Y71570D1*
X42665Y71763D1*
X42654Y71963D1*
X42684Y72160D1*
X42752Y72348D1*
X42856Y72518D1*
X42992Y72665D1*
X43154Y72782D1*
X43335Y72864D1*
X43530Y72909D1*
X43730Y72914D1*
X43926Y72880D1*
X44112Y72807D1*
X44280Y72699D1*
X44423Y72560D1*
X44536Y72395D1*
X44614Y72211D1*
X44654Y72016D1*
X44659Y71914D1*
X44639Y71715D1*
X44581Y71524D1*
X44485Y71349D1*
X44409Y71258D1*
X46022Y69650D1*
X46407Y69266D1*
X46625Y69228D1*
X46811Y69156D1*
X46979Y69048D1*
X47122Y68909D1*
X47196Y68800D1*
Y70976D1*
X46142Y72024D1*
X45510Y72656D1*
X45389Y72815D1*
X45315Y73000D1*
X45292Y73184D1*
Y80177D1*
X44454Y81015D1*
X44061Y81010D1*
X43838Y80823D1*
X44043Y80648D1*
X44169Y80493D1*
X44267Y80319D1*
X44335Y80131D1*
X44376Y79820D1*
X44359Y79621D1*
X44310Y79427D1*
X44229Y79245D1*
X44118Y79078D1*
X43982Y78933D1*
X43823Y78811D1*
X43646Y78719D1*
X43456Y78656D1*
X43259Y78627D1*
X43059Y78630D1*
X42863Y78667D1*
X42675Y78736D1*
X42458Y78871D1*
X41636Y78874D1*
X39880Y77119D1*
X39725Y76993D1*
X39547Y76903D1*
X39382Y76857D1*
X39011Y76841D1*
X27930D1*
X27933Y74188D1*
Y67644D1*
X28192Y67650D1*
X28389Y67620D1*
X28580Y67560D1*
X28759Y67472D1*
X28923Y67358D1*
X29067Y67219D1*
X29188Y67060D1*
X29283Y66884D1*
X29367Y66604D1*
X29449Y66871D1*
X29542Y67048D1*
X29662Y67208D1*
X29804Y67348D1*
X29966Y67465D1*
X30145Y67555D1*
X30335Y67617D1*
X30532Y67649D1*
X30732Y67650D1*
X30929Y67620D1*
X31120Y67560D1*
X31299Y67472D1*
X31463Y67358D1*
X31607Y67219D1*
X31728Y67060D1*
X31823Y66884D1*
X31907Y66604D1*
X31960Y66797D1*
X32062Y67014D1*
X32202Y67208D1*
X32375Y67373D1*
X32576Y67504D1*
X32797Y67596D1*
X33032Y67645D1*
X33272Y67650D1*
X33508Y67611D1*
X33733Y67528D1*
X33940Y67406D1*
X34120Y67248D1*
X34268Y67060D1*
X34379Y66847D1*
X34448Y66618D1*
X34475Y66380D1*
X34460Y66158D1*
X34401Y65925D1*
X34369Y65834D1*
X38426D1*
X39326Y66733D1*
X39350Y66921D1*
X39418Y67109D1*
X39522Y67280D1*
X39658Y67426D1*
X39820Y67543D1*
X40002Y67625D1*
X40196Y67670D1*
X40396Y67675D1*
X40593Y67641D1*
X40779Y67568D1*
X40947Y67460D1*
X41090Y67321D1*
X41202Y67156D1*
X41280Y66972D1*
X41320Y66777D1*
X41325Y66675D1*
X41306Y66476D1*
X41247Y66286D1*
X41151Y66110D1*
X41023Y65957D1*
X40867Y65833D1*
X40689Y65741D1*
X40497Y65687D1*
X40379Y65678D1*
X39266Y64563D1*
X41117D1*
X41314Y64536D1*
X41498Y64458D1*
X41644Y64344D1*
X44822Y61167D1*
X45038Y61132D1*
X45224Y61060D1*
X45392Y60952D1*
X45535Y60812D1*
X45647Y60648D1*
X45684Y60561D1*
X45769Y60672D1*
X45768Y60814D1*
X42335Y64242D1*
X42214Y64401D1*
X42140Y64586D1*
X42117Y64770D1*
Y67476D1*
X35728Y73866D1*
X31780Y73867D1*
X31659Y73770D1*
X31482Y73679D1*
X31290Y73625D1*
X31091Y73610D1*
X30892Y73635D1*
X30703Y73698D1*
X30530Y73798D1*
X30380Y73930D1*
X30260Y74089D1*
X30173Y74269D1*
X30123Y74462D1*
X30113Y74661D1*
X30143Y74859D1*
X30211Y75047D1*
X30315Y75217D1*
X30450Y75364D1*
X30612Y75480D1*
X30794Y75563D1*
X30989Y75608D1*
X31188Y75613D1*
X31385Y75578D1*
X31571Y75506D1*
X31779Y75359D1*
X36036D1*
X36234Y75332D1*
X36417Y75254D1*
X36564Y75140D1*
X43390Y68314D1*
X43511Y68155D1*
X43585Y67970D1*
X43608Y67786D1*
Y65080D1*
X47041Y61646D1*
X47162Y61488D1*
X47237Y61303D1*
X47260Y61119D1*
Y60675D1*
X47394Y60489D1*
X47472Y60305D1*
X47512Y60109D1*
X47517Y60008D1*
X47497Y59809D1*
X47438Y59618D1*
X47343Y59443D1*
X47214Y59290D1*
X47058Y59165D1*
X46881Y59074D1*
X46688Y59020D1*
X46489Y59005D1*
X46291Y59030D1*
X46102Y59093D1*
X45929Y59193D1*
X45779Y59325D1*
X45658Y59484D1*
X45596Y59601D1*
X45512Y59501D1*
X45514Y57422D1*
X46831Y57420D1*
X47029Y57393D1*
X47212Y57315D1*
X47359Y57201D1*
X48153Y56407D1*
X48273Y56249D1*
X48348Y56064D1*
X48371Y55880D1*
X48378Y54966D1*
X48540Y55083D1*
X48718Y55173D1*
X48908Y55235D1*
X49105Y55267D1*
X49305Y55268D1*
X49503Y55238D1*
X49693Y55178D1*
X49873Y55090D1*
X50036Y54976D1*
X50180Y54837D1*
X50301Y54678D1*
X50396Y54502D1*
X50457Y54332D1*
Y55271D1*
X53048D1*
Y52679D1*
X50457D1*
X50447Y53581D1*
X50372Y53396D1*
X50269Y53225D1*
X50141Y53071D1*
X49992Y52939D1*
X49823Y52832D1*
X49640Y52752D1*
X49447Y52700D1*
X49248Y52679D1*
X49049Y52689D1*
X48853Y52730D1*
X48666Y52800D1*
X48492Y52898D1*
X48369Y52994D1*
X48371Y52699D1*
X48782Y52285D1*
X48903Y52126D1*
X48978Y51941D1*
X49001Y51758D1*
Y51464D1*
X49135Y51276D1*
X49213Y51093D1*
X49253Y50897D1*
X49258Y50795D1*
X49238Y50596D1*
X49179Y50406D1*
X49084Y50230D1*
X48956Y50077D1*
X48799Y49953D1*
X48622Y49861D1*
X48430Y49807D1*
X48230Y49792D1*
X48032Y49817D1*
X47843Y49881D1*
X47670Y49980D1*
X47520Y50112D1*
X47400Y50271D1*
X47313Y50451D1*
X47263Y50645D1*
X47253Y50844D1*
X47283Y51041D1*
X47351Y51229D1*
X47455Y51400D1*
X47501Y51450D1*
X47097Y51860D1*
X46977Y52019D1*
X46902Y52203D1*
X46879Y52387D1*
Y54506D1*
X46740Y54403D1*
X46563Y54311D1*
X46371Y54257D1*
X46252Y54248D1*
X42755Y50749D1*
X42596Y50628D1*
X42411Y50553D1*
X42227Y50530D1*
X37971D1*
X37851Y50434D1*
X37673Y50343D1*
X37481Y50289D1*
X37363Y50280D1*
X35770Y48685D1*
X35611Y48564D1*
X35426Y48490D1*
X35242Y48466D1*
X31899D1*
X29799Y46365D1*
X29797Y45704D1*
X29839Y45784D1*
X29953Y45930D1*
X30588Y46565D1*
X30746Y46686D1*
X30931Y46760D1*
X31115Y46784D1*
X32038Y46789D1*
X32200Y46905D1*
X32382Y46988D1*
X32576Y47033D1*
X32776Y47038D1*
X32973Y47003D1*
X33159Y46931D1*
X33327Y46823D1*
X33470Y46684D1*
X33579Y46524D1*
X33652Y46647D1*
X33788Y46793D1*
X33950Y46910D1*
X34132Y46993D1*
X34326Y47037D1*
X34395Y47039D1*
X36783Y49428D1*
X36941Y49549D1*
X37126Y49623D1*
X37310Y49646D1*
X48904D1*
X49808Y50546D1*
X49833Y50734D1*
X49901Y50922D1*
X50005Y51092D1*
X50141Y51239D1*
X50303Y51356D1*
X50485Y51438D1*
X50679Y51483D1*
X50879Y51488D1*
X51075Y51454D1*
X51261Y51381D1*
X51429Y51273D1*
X51572Y51134D1*
X51685Y50969D1*
X51763Y50785D1*
X51803Y50590D1*
X51808Y50488D1*
X51788Y50289D1*
X51730Y50098D1*
X51634Y49923D1*
X51506Y49770D1*
X51350Y49645D1*
X51172Y49554D1*
X50980Y49500D1*
X50862Y49491D1*
X49745Y48373D1*
X49587Y48252D1*
X49402Y48177D1*
X49218Y48154D1*
X38474D1*
X38599Y48054D1*
X54898Y48059D1*
X55060Y48175D1*
X55242Y48258D1*
X55436Y48303D1*
X55636Y48308D1*
X55833Y48273D1*
X56019Y48201D1*
X56187Y48093D1*
X56330Y47954D1*
X56442Y47789D1*
X56520Y47605D1*
X56560Y47409D1*
X56555Y47202D1*
X56785Y47162D1*
X56971Y47090D1*
X57139Y46982D1*
X57282Y46842D1*
X57395Y46678D1*
X57473Y46494D1*
X57513Y46298D1*
X57518Y46196D1*
X57498Y45998D1*
X57439Y45807D1*
X57344Y45631D1*
X57215Y45478D1*
X57059Y45354D1*
X56882Y45263D1*
X56690Y45209D1*
X56490Y45194D1*
X56292Y45218D1*
X56103Y45282D1*
X55930Y45381D1*
X55851Y45452D1*
X42284Y45450D1*
X44977Y42755D1*
X45098Y42596D1*
X45173Y42411D1*
X45196Y42227D1*
Y19671D1*
X46502Y18370D1*
X51596Y18367D1*
X56803Y18372D1*
X56965Y18489D1*
X57147Y18572D1*
X57341Y18616D1*
X57541Y18622D1*
X57738Y18587D1*
X57924Y18515D1*
X58091Y18407D1*
X58235Y18267D1*
X58347Y18103D1*
X58425Y17919D1*
X58465Y17723D1*
X58470Y17621D1*
X58451Y17423D1*
X58392Y17232D1*
X58296Y17056D1*
X58168Y16903D1*
X58012Y16779D1*
X57834Y16688D1*
X57642Y16634D1*
X57443Y16619D1*
X57245Y16643D1*
X57056Y16707D1*
X56883Y16806D1*
X56803Y16877D1*
X46196Y16875D1*
X45999Y16902D1*
X45815Y16980D1*
X45669Y17094D1*
X43976Y18786D1*
X42279Y17094D1*
X42120Y16973D1*
X41935Y16898D1*
X41751Y16875D1*
X36070D1*
X35946Y16779D1*
X35768Y16688D1*
X35576Y16634D1*
X35377Y16619D1*
X35179Y16643D1*
X34989Y16707D1*
X34816Y16806D1*
X34666Y16939D1*
X34546Y17098D1*
X34459Y17277D1*
X34410Y17471D1*
X34399Y17670D1*
X34429Y17868D1*
X34497Y18055D1*
X34601Y18226D1*
X34737Y18372D1*
X34899Y18489D1*
X35080Y18572D1*
X35275Y18616D1*
X35475Y18622D1*
X35671Y18587D1*
X35857Y18515D1*
X36066Y18367D1*
X41445D1*
X42748Y19673D1*
X42752Y24768D1*
Y41286D1*
X40968Y43067D1*
X31115Y43069D1*
X30917Y43096D1*
X30734Y43174D1*
X30588Y43288D1*
X29953Y43922D1*
X29829Y44087D1*
X29797Y44072D1*
Y41593D1*
X29771Y41395D1*
X29693Y41211D1*
X29579Y41065D1*
X29256Y40742D1*
X29241Y40600D1*
X29182Y40409D1*
X29086Y40234D1*
X28958Y40081D1*
X28802Y39956D1*
X28624Y39865D1*
X28432Y39811D1*
X28233Y39796D1*
X28035Y39821D1*
X27846Y39884D1*
X27673Y39984D1*
X27523Y40116D1*
X27402Y40275D1*
X27315Y40455D1*
X27266Y40648D1*
X27256Y40848D1*
X27285Y41045D1*
X27353Y41233D1*
X27457Y41403D1*
X27593Y41550D1*
X27699Y41627D1*
X27514Y41730D1*
X27364Y41862D1*
X27243Y42021D1*
X27157Y42201D1*
X27107Y42395D1*
X27097Y42594D1*
X27127Y42791D1*
X27195Y42979D1*
X27299Y43150D1*
X27354Y43209D1*
X27353Y46831D1*
X27379Y47029D1*
X27457Y47212D1*
X27571Y47359D1*
X30933Y50720D1*
X31092Y50841D1*
X31277Y50916D1*
X31461Y50939D1*
X32038Y50944D1*
X32200Y51061D1*
X32382Y51143D1*
X32576Y51188D1*
X32776Y51193D1*
X32973Y51159D1*
X33159Y51086D1*
X33327Y50978D1*
X33470Y50839D1*
X33582Y50674D1*
X33660Y50490D1*
X33700Y50295D1*
X33706Y50193D1*
X33673Y49953D1*
X34791Y49958D1*
X34935D1*
X36302Y51327D1*
X36334Y51523D1*
X36402Y51710D1*
X36506Y51881D1*
X36642Y52027D1*
X36804Y52144D1*
X36985Y52227D1*
X37180Y52271D1*
X37380Y52277D1*
X37582Y52240D1*
X37574Y52436D1*
X37604Y52634D1*
X37672Y52822D1*
X37776Y52992D1*
X37912Y53139D1*
X38074Y53255D1*
X38255Y53338D1*
X38450Y53383D1*
X38650Y53388D1*
X38846Y53353D1*
X39032Y53281D1*
X39241Y53134D1*
X40170Y53133D1*
X44024Y56985D1*
X44022Y59493D1*
X43912Y59643D1*
X43825Y59822D1*
X43776Y60016D1*
X43771Y60109D1*
X40806Y63073D1*
X34236Y63067D1*
X34108Y62913D1*
X33958Y62781D1*
X33790Y62674D1*
X33607Y62594D1*
X33413Y62542D1*
X33215Y62522D1*
X33015Y62531D1*
X32820Y62572D1*
X32632Y62642D1*
X32458Y62740D1*
X32301Y62863D1*
X32165Y63010D1*
X32053Y63175D1*
X31968Y63356D1*
X31909Y63566D1*
X31874Y63423D1*
X31799Y63238D1*
X31696Y63067D1*
X31568Y62913D1*
X31418Y62781D1*
X31250Y62674D1*
X31067Y62594D1*
X30873Y62542D1*
X30675Y62522D1*
X30475Y62531D1*
X30280Y62572D1*
X30092Y62642D1*
X29918Y62740D1*
X29761Y62863D1*
X29625Y63010D1*
X29513Y63175D1*
X29428Y63356D1*
X29394Y63470D1*
X29395Y62521D1*
X26803D1*
Y65011D1*
X26764Y64805D1*
Y59814D1*
X26902Y59582D1*
X26986Y59302D1*
X27039Y59495D1*
X27141Y59712D1*
X27281Y59906D1*
X27454Y60071D1*
X27655Y60202D1*
X27876Y60294D1*
X28111Y60343D1*
X28351Y60348D1*
X28587Y60309D1*
X28812Y60226D1*
X29018Y60104D1*
X29199Y59946D1*
X29347Y59758D1*
X29458Y59545D1*
X29528Y59313D1*
X29608Y59569D1*
X29701Y59746D1*
X29821Y59906D1*
X29963Y60046D1*
X30125Y60163D1*
X30304Y60253D1*
X30494Y60315D1*
X30691Y60347D1*
X30891Y60348D1*
X31088Y60318D1*
X31279Y60258D1*
X31458Y60170D1*
X31622Y60055D1*
X31766Y59917D1*
X31887Y59758D1*
X31982Y59582D1*
X32066Y59302D1*
X32148Y59569D1*
X32241Y59746D1*
X32361Y59906D1*
X32503Y60046D1*
X32665Y60163D1*
X32844Y60253D1*
X33034Y60315D1*
X33231Y60347D1*
X33431Y60348D1*
X33628Y60318D1*
X33819Y60258D1*
X33998Y60170D1*
X34162Y60055D1*
X34306Y59917D1*
X34427Y59758D1*
X34522Y59582D1*
X34606Y59302D1*
X34688Y59569D1*
X34781Y59746D1*
X34901Y59906D1*
X35043Y60046D1*
X35205Y60163D1*
X35384Y60253D1*
X35574Y60315D1*
X35771Y60347D1*
X35971Y60348D1*
X36168Y60318D1*
X36359Y60258D1*
X36538Y60170D1*
X36702Y60055D1*
X36846Y59917D1*
X36967Y59758D1*
X37062Y59582D1*
X37129Y59394D1*
X37166Y59198D1*
X37174Y59055D1*
X37159Y58856D1*
X37113Y58661D1*
X37038Y58476D1*
X36935Y58305D1*
X36807Y58151D1*
X36657Y58019D1*
X36489Y57912D1*
X36306Y57832D1*
X36112Y57780D1*
X35914Y57760D1*
X35714Y57769D1*
X35519Y57810D1*
X35331Y57880D1*
X35157Y57978D1*
X35000Y58101D1*
X34864Y58248D1*
X34752Y58413D1*
X34667Y58594D1*
X34608Y58804D1*
X34573Y58661D1*
X34498Y58476D1*
X34395Y58305D1*
X34267Y58151D1*
X34117Y58019D1*
X33949Y57912D1*
X33766Y57832D1*
X33572Y57780D1*
X33374Y57760D1*
X33174Y57769D1*
X32979Y57810D1*
X32791Y57880D1*
X32617Y57978D1*
X32460Y58101D1*
X32324Y58248D1*
X32212Y58413D1*
X32127Y58594D1*
X32068Y58804D1*
X32033Y58661D1*
X31958Y58476D1*
X31855Y58305D1*
X31727Y58151D1*
X31577Y58019D1*
X31409Y57912D1*
X31226Y57832D1*
X31032Y57780D1*
X30834Y57760D1*
X30634Y57769D1*
X30439Y57810D1*
X30251Y57880D1*
X30077Y57978D1*
X29920Y58101D1*
X29784Y58248D1*
X29672Y58413D1*
X29587Y58594D1*
X29528Y58804D1*
X29480Y58623D1*
X29380Y58406D1*
X29241Y58210D1*
X29069Y58044D1*
X28869Y57912D1*
X28648Y57819D1*
X28413Y57768D1*
X28174Y57762D1*
X27937Y57799D1*
X27711Y57880D1*
X27504Y58001D1*
X27323Y58157D1*
X27174Y58345D1*
X27062Y58557D1*
X26990Y58785D1*
X26953Y58661D1*
X26878Y58476D1*
X26775Y58305D1*
X26647Y58151D1*
X26497Y58019D1*
X26329Y57912D1*
X26146Y57832D1*
X25952Y57780D1*
X25754Y57760D1*
X25554Y57769D1*
X25359Y57810D1*
X25171Y57880D1*
X24997Y57978D1*
X24840Y58101D1*
X24704Y58248D1*
X24592Y58413D1*
X24507Y58594D1*
X24473Y58708D1*
X24474Y57759D1*
X24255D1*
X25230Y56787D1*
X28380Y56785D1*
X28549Y56907D1*
X28730Y56989D1*
X28925Y57034D1*
X29125Y57039D1*
X29321Y57005D1*
X29507Y56932D1*
X29675Y56824D1*
X29818Y56685D1*
X29931Y56520D1*
X30009Y56336D1*
X30049Y56141D1*
X30054Y56039D1*
X30034Y55840D1*
X29976Y55649D1*
X29880Y55474D1*
X29752Y55321D1*
X29596Y55196D1*
X29418Y55105D1*
X29226Y55051D1*
X29027Y55036D1*
X28829Y55061D1*
X28639Y55124D1*
X28466Y55224D1*
X28387Y55294D1*
X24924Y55293D1*
X24726Y55319D1*
X24543Y55397D1*
X24396Y55511D1*
X22651Y57257D1*
X22530Y57416D1*
X22445Y57646D1*
X22274Y57759D1*
X21882D1*
Y60351D1*
X24474D1*
Y59420D1*
X24528Y59569D1*
X24670Y59811D1*
X24672Y60549D1*
X21699D1*
X20385Y59228D1*
X20231Y59101D1*
X20056Y59006D1*
X19865Y58945D1*
X19646Y58922D1*
X13627D1*
X13629Y48462D1*
X15124Y46963D1*
X16510Y46966D1*
X16709Y46950D1*
X16903Y46902D1*
X17087Y46824D1*
X17256Y46718D1*
X17391Y46601D1*
X21201Y42791D1*
X21334Y42634D1*
X21338Y44484D1*
Y52115D1*
X17980Y55470D1*
X17334Y55469D1*
X17152Y55258D1*
X17004Y55123D1*
X16706Y54930D1*
X16937Y54788D1*
X17092Y54661D1*
X17231Y54518D1*
X17353Y54360D1*
X17458Y54189D1*
X17542Y54008D1*
X17606Y53819D1*
X17649Y53623D1*
X17671Y53340D1*
X17660Y53140D1*
X17627Y52943D1*
X17572Y52751D1*
X17496Y52566D1*
X17400Y52391D1*
X17285Y52227D1*
X17152Y52078D1*
X17004Y51943D1*
X16706Y51750D1*
X16937Y51608D1*
X17092Y51481D1*
X17231Y51338D1*
X17353Y51180D1*
X17458Y51009D1*
X17542Y50828D1*
X17606Y50639D1*
X17649Y50443D1*
X17671Y50160D1*
X17660Y49960D1*
X17627Y49763D1*
X17572Y49571D1*
X17496Y49386D1*
X17400Y49211D1*
X17285Y49047D1*
X17152Y48898D1*
X17004Y48763D1*
X16842Y48647D1*
X16668Y48548D1*
X16484Y48470D1*
X16292Y48413D1*
X16096Y48378D1*
X15896Y48364D1*
X15696Y48373D1*
X15499Y48404D1*
X15306Y48456D1*
X15120Y48530D1*
X14944Y48624D1*
X14779Y48737D1*
X14628Y48868D1*
X14492Y49014D1*
X14373Y49175D1*
X14273Y49348D1*
X14193Y49531D1*
X14133Y49722D1*
X14095Y49918D1*
X14080Y50118D1*
X14086Y50317D1*
X14114Y50515D1*
X14165Y50709D1*
X14236Y50895D1*
X14328Y51073D1*
X14439Y51239D1*
X14568Y51392D1*
X14713Y51530D1*
X14873Y51650D1*
X15039Y51749D1*
X14779Y51917D1*
X14628Y52048D1*
X14492Y52194D1*
X14373Y52355D1*
X14273Y52528D1*
X14193Y52711D1*
X14133Y52902D1*
X14095Y53098D1*
X14080Y53298D1*
X14086Y53498D1*
X14114Y53695D1*
X14165Y53889D1*
X14236Y54075D1*
X14328Y54253D1*
X14439Y54419D1*
X14568Y54572D1*
X14713Y54710D1*
X14873Y54830D1*
X15039Y54929D1*
X14779Y55097D1*
X14628Y55228D1*
X14492Y55374D1*
X14373Y55535D1*
X14273Y55708D1*
X14193Y55891D1*
X14133Y56082D1*
X14095Y56278D1*
X14080Y56478D1*
X14086Y56678D1*
X14114Y56875D1*
X14165Y57069D1*
X14236Y57255D1*
X14328Y57433D1*
X14439Y57599D1*
X14568Y57752D1*
X14713Y57890D1*
X14873Y58010D1*
X15044Y58112D1*
X15227Y58195D1*
X15417Y58257D1*
X15612Y58297D1*
X15812Y58315D1*
X16011Y58311D1*
X16210Y58285D1*
X16404Y58236D1*
X16591Y58167D1*
X16770Y58077D1*
X16937Y57968D1*
X17092Y57841D1*
X17231Y57698D1*
X17334Y57565D1*
X18415Y57561D1*
X18614Y57542D1*
X18805Y57485D1*
X18983Y57394D1*
X19155Y57255D1*
X23123Y53286D1*
X23250Y53132D1*
X23346Y52956D1*
X23406Y52766D1*
X23430Y52546D1*
Y35515D1*
X26053Y32893D1*
X28491Y32891D1*
X28377Y32987D1*
X28246Y33137D1*
X28142Y33308D1*
X28067Y33493D1*
X28024Y33688D1*
X28015Y33888D1*
X28039Y34086D1*
X28095Y34278D1*
X28183Y34457D1*
X28299Y34620D1*
X28440Y34761D1*
X28604Y34876D1*
X28784Y34962D1*
X28976Y35018D1*
X29174Y35040D1*
X29373Y35030D1*
X29568Y34986D1*
X29753Y34910D1*
X29923Y34805D1*
X30073Y34673D1*
X30199Y34518D1*
X30297Y34344D1*
X30375Y34101D1*
X30474Y34260D1*
X30609Y34406D1*
X30771Y34523D1*
X30953Y34605D1*
X31148Y34650D1*
X31216Y34652D1*
X32271Y35707D1*
X32274Y39657D1*
X32165Y39799D1*
X32078Y39979D1*
X32028Y40172D1*
X32018Y40371D1*
X32048Y40569D1*
X32116Y40757D1*
X32220Y40927D1*
X32355Y41074D1*
X32517Y41190D1*
X32699Y41273D1*
X32894Y41318D1*
X33093Y41323D1*
X33290Y41288D1*
X33476Y41216D1*
X33644Y41108D1*
X33787Y40969D1*
X33900Y40804D1*
X33978Y40620D1*
X34018Y40424D1*
X34023Y40322D1*
X34003Y40124D1*
X33944Y39933D1*
X33849Y39758D1*
X33765Y39657D1*
X33766Y35401D1*
X33739Y35204D1*
X33661Y35020D1*
X33547Y34874D1*
X32279Y33605D1*
X32257Y33456D1*
X32198Y33266D1*
X32103Y33090D1*
X31974Y32937D1*
X31921Y32894D1*
X35610Y32891D1*
X36741D1*
X36632Y32987D1*
X36501Y33137D1*
X36397Y33308D1*
X36322Y33493D1*
X36279Y33688D1*
X36270Y33888D1*
X36294Y34086D1*
X36350Y34278D1*
X36438Y34457D1*
X36554Y34620D1*
X36695Y34761D1*
X36859Y34876D1*
X37039Y34962D1*
X37230Y35018D1*
X37429Y35040D1*
X37628Y35030D1*
X37823Y34986D1*
X38008Y34910D1*
X38178Y34805D1*
X38328Y34673D1*
X38454Y34518D1*
X38552Y34344D1*
X38625Y34125D1*
X38624Y39656D1*
X38515Y39799D1*
X38428Y39979D1*
X38378Y40172D1*
X38368Y40371D1*
X38398Y40569D1*
X38466Y40757D1*
X38570Y40927D1*
X38705Y41074D1*
X38867Y41190D1*
X39049Y41273D1*
X39244Y41318D1*
X39443Y41323D1*
X39640Y41288D1*
X39826Y41216D1*
X39994Y41108D1*
X40137Y40969D1*
X40250Y40804D1*
X40328Y40620D1*
X40368Y40424D1*
X40373Y40322D1*
X40353Y40124D1*
X40294Y39933D1*
X40199Y39758D1*
X40115Y39657D1*
X40116Y31750D1*
X40089Y31552D1*
X40011Y31369D1*
X39898Y31222D1*
X38656Y29981D1*
X38661Y29845D1*
X38644Y29646D1*
X38595Y29452D1*
X38514Y29270D1*
X38403Y29103D1*
X38267Y28957D1*
X38108Y28836D1*
X37931Y28744D1*
X37741Y28681D1*
X37544Y28652D1*
X37344Y28655D1*
X37148Y28692D1*
X36960Y28761D1*
X36787Y28860D1*
X36632Y28987D1*
X36501Y29137D1*
X36397Y29308D1*
X36322Y29493D1*
X36279Y29688D1*
X36270Y29888D1*
X36294Y30086D1*
X36350Y30278D1*
X36438Y30457D1*
X36554Y30620D1*
X36752Y30800D1*
X29934Y30799D1*
X30073Y30673D1*
X30199Y30518D1*
X30297Y30344D1*
X30365Y30156D1*
X30406Y29845D1*
X30389Y29646D1*
X30340Y29452D1*
X30259Y29270D1*
X30148Y29103D1*
X30012Y28957D1*
X29853Y28836D1*
X29676Y28744D1*
X29486Y28681D1*
X29289Y28652D1*
X29089Y28655D1*
X28893Y28692D1*
X28705Y28761D1*
X28532Y28860D1*
X28377Y28987D1*
X28246Y29137D1*
X28142Y29308D1*
X28067Y29493D1*
X28024Y29688D1*
X28015Y29888D1*
X28039Y30086D1*
X28095Y30278D1*
X28183Y30457D1*
X28299Y30620D1*
X28496Y30800D1*
X25623Y30799D1*
X25424Y30818D1*
X25232Y30875D1*
X25055Y30966D1*
X24883Y31105D1*
X21644Y34344D1*
X21517Y34498D1*
X21422Y34674D1*
X21360Y34870D1*
X21201Y34679D1*
X21144Y34621D1*
X21873Y33898D1*
X28680Y27092D1*
X28807Y26938D1*
X28902Y26763D1*
X28963Y26572D1*
X28986Y26353D1*
Y15359D1*
X30275Y14067D1*
X36245Y14063D1*
X53340D1*
X53539Y14044D1*
X53730Y13988D1*
X53908Y13896D1*
X54080Y13757D1*
X57593Y10244D1*
X58696Y11339D1*
X58744Y11395D1*
X58738Y19934D1*
X46321Y32351D1*
X46196Y32506D1*
X46105Y32684D1*
X46060Y32849D1*
X46044Y33220D1*
Y39688D1*
X46065Y39886D1*
X46127Y40076D1*
X46211Y40224D1*
X46462Y40498D1*
X48544Y42579D1*
X48699Y42704D1*
X48877Y42794D1*
X49042Y42840D1*
X49413Y42856D1*
X56039D1*
X56237Y42835D1*
X56427Y42773D1*
X56576Y42689D1*
X56849Y42438D1*
X58295Y40991D1*
X58421Y40836D1*
X58511Y40658D1*
X58557Y40494D1*
X58572Y40241D1*
X58627Y40280D1*
Y47311D1*
X56305Y49637D1*
X56184Y49796D1*
X56110Y49981D1*
X56087Y50165D1*
Y68434D1*
X53765Y70751D1*
X53644Y70910D1*
X53570Y71095D1*
X53547Y71279D1*
Y85098D1*
X52709Y85936D1*
X51222Y85931D1*
X49530D1*
X49332Y85958D1*
X49149Y86036D1*
X49002Y86150D1*
X47637Y87516D1*
X47211Y87519D1*
X47313Y87293D1*
X47353Y87097D1*
X47358Y86995D1*
X47338Y86796D1*
X47279Y86606D1*
X47184Y86430D1*
X47055Y86277D1*
X46899Y86153D1*
X46722Y86061D1*
X46530Y86007D1*
X46331Y85992D1*
X46132Y86017D1*
X45943Y86080D1*
X45770Y86180D1*
X45691Y86250D1*
X43180Y86249D1*
X42982Y86276D1*
X42799Y86354D1*
X42653Y86468D1*
X39795Y89325D1*
X39674Y89484D1*
X39600Y89668D1*
X39577Y89853D1*
Y110172D1*
X39603Y110370D1*
X39681Y110554D1*
X39795Y110700D1*
X45034Y115939D1*
X45192Y116060D1*
X45377Y116134D1*
X45561Y116157D1*
X48101D1*
X48299Y116131D1*
X48482Y116053D1*
X48629Y115939D1*
X49422Y115145D1*
X49543Y114986D1*
X49628Y114756D1*
X49826Y114584D1*
X49955Y114431D1*
X50059Y114261D1*
X50137Y114076D1*
X50162Y113973D1*
X50218Y114144D1*
X50305Y114324D1*
X50419Y114489D1*
X50556Y114634D1*
X50714Y114756D1*
X50889Y114853D1*
X51076Y114923D1*
X51272Y114963D1*
X51471Y114973D1*
X51670Y114952D1*
X51863Y114901D1*
X52046Y114821D1*
X52215Y114715D1*
X52366Y114584D1*
X52495Y114431D1*
X52599Y114261D1*
X52677Y114076D1*
X52702Y113973D1*
X52758Y114144D1*
X52845Y114324D1*
X52959Y114489D1*
X53096Y114634D1*
X53254Y114756D1*
X53429Y114853D1*
X53616Y114923D1*
X53812Y114963D1*
X54011Y114973D1*
X54210Y114952D1*
X54403Y114901D1*
X54586Y114821D1*
X54755Y114715D1*
X54906Y114584D1*
X55035Y114431D1*
X55139Y114261D1*
X55217Y114076D1*
X55242Y113973D1*
X55298Y114144D1*
X55385Y114324D1*
X55499Y114489D1*
X55636Y114634D1*
X55794Y114756D1*
X55969Y114853D1*
X56156Y114923D1*
X56352Y114963D1*
X56551Y114973D1*
X56750Y114952D1*
X56943Y114901D1*
X57126Y114821D1*
X57295Y114715D1*
X57446Y114584D1*
X57575Y114431D1*
X57679Y114261D1*
X57757Y114076D1*
X57782Y113973D1*
X57838Y114144D1*
X57925Y114324D1*
X58039Y114489D1*
X58176Y114634D1*
X58334Y114756D1*
X58508Y114853D1*
X58696Y114923D1*
X58892Y114963D1*
X59091Y114973D1*
X59290Y114952D1*
X59483Y114901D1*
X59666Y114821D1*
X59835Y114715D1*
X59986Y114584D1*
X60115Y114431D1*
X60220Y114261D1*
X60297Y114076D1*
X60322Y113973D1*
X60378Y114144D1*
X60465Y114324D1*
X60579Y114489D1*
X60716Y114634D1*
X60874Y114756D1*
X61048Y114853D1*
X61236Y114923D1*
X61432Y114963D1*
X61631Y114973D1*
X61830Y114952D1*
X62023Y114901D1*
X62206Y114821D1*
X62375Y114715D1*
X62526Y114584D1*
X62655Y114431D1*
X62760Y114261D1*
X62837Y114076D1*
X62862Y113973D1*
X62918Y114144D1*
X63005Y114324D1*
X63119Y114489D1*
X63256Y114634D1*
X63414Y114756D1*
X63589Y114853D1*
X63776Y114923D1*
X63972Y114963D1*
X64171Y114973D1*
X64370Y114952D1*
X64563Y114901D1*
X64746Y114821D1*
X64915Y114715D1*
X65066Y114584D1*
X65195Y114431D1*
X65300Y114261D1*
X65377Y114076D1*
X65402Y113973D1*
X65458Y114144D1*
X65545Y114324D1*
X65659Y114489D1*
X65796Y114634D1*
X65954Y114756D1*
X66129Y114853D1*
X66316Y114923D1*
X66512Y114963D1*
X66711Y114973D1*
X66910Y114952D1*
X67103Y114901D1*
X67286Y114821D1*
X67455Y114715D1*
X67606Y114584D1*
X67735Y114431D1*
X67840Y114261D1*
X67917Y114076D1*
X67942Y113973D1*
X68030Y114218D1*
X68150Y114425D1*
X68307Y114606D1*
X68494Y114756D1*
X68705Y114870D1*
X68933Y114942D1*
X69171Y114972D1*
X69410Y114958D1*
X69643Y114901D1*
X69861Y114802D1*
X70058Y114665D1*
X70226Y114494D1*
X70361Y114296D1*
X70457Y114076D1*
X70485Y113977D1*
X70553Y114181D1*
X70668Y114392D1*
X70819Y114578D1*
X71001Y114734D1*
X71209Y114853D1*
X71434Y114933D1*
X71671Y114970D1*
X71911Y114964D1*
X72145Y114913D1*
X72366Y114821D1*
X72567Y114690D1*
X72741Y114525D1*
X72881Y114331D1*
X72984Y114114D1*
X73025Y113977D1*
X73093Y114181D1*
X73208Y114392D1*
X73359Y114578D1*
X73541Y114734D1*
X73748Y114853D1*
X73974Y114933D1*
X74211Y114970D1*
X74451Y114964D1*
X74685Y114913D1*
X74906Y114821D1*
X75107Y114690D1*
X75281Y114525D1*
X75421Y114331D1*
X75523Y114114D1*
X75565Y113977D1*
X75618Y114144D1*
X75705Y114324D1*
X75819Y114489D1*
X75956Y114634D1*
X76114Y114756D1*
X76288Y114853D1*
X76476Y114923D1*
X76672Y114963D1*
X76871Y114973D1*
X77070Y114952D1*
X77263Y114901D1*
X77446Y114821D1*
X77615Y114715D1*
X77766Y114584D1*
X77895Y114431D1*
X77999Y114261D1*
X78077Y114076D1*
X78125Y113882D1*
X78143Y113665D1*
X78128Y113466D1*
X78082Y113271D1*
X78008Y113086D1*
X77906Y112914D1*
X77779Y112760D1*
X77630Y112626D1*
X77463Y112517D1*
X77281Y112435D1*
X77142Y112397D1*
X77446Y112281D1*
X77615Y112175D1*
X77766Y112044D1*
X77895Y111891D1*
X77999Y111721D1*
X78077Y111536D1*
X78125Y111342D1*
X78143Y111125D1*
X78128Y110926D1*
X78082Y110731D1*
X78008Y110546D1*
X77906Y110374D1*
X77779Y110220D1*
X77644Y110099D1*
X78931Y108814D1*
X79046Y108735D1*
X79190Y108596D1*
X79302Y108431D1*
X79380Y108248D1*
X79420Y108052D1*
X79425Y107950D1*
X79406Y107751D1*
X79347Y107561D1*
X79251Y107385D1*
X79123Y107232D1*
X78967Y107108D1*
X78789Y107016D1*
X78597Y106962D1*
X78398Y106947D1*
X78200Y106972D1*
X78011Y107035D1*
X77838Y107135D1*
X77688Y107267D1*
X77567Y107426D1*
X77480Y107606D1*
X77431Y107800D1*
X77421Y107999D1*
X77449Y108190D1*
X76308Y109328D1*
X76187Y109486D1*
X76112Y109671D1*
X76089Y109855D1*
Y110049D1*
X75970Y110144D1*
X75830Y110287D1*
X75715Y110450D1*
X75625Y110629D1*
X75565Y110813D1*
X75468Y110546D1*
X75366Y110374D1*
X75239Y110220D1*
X75090Y110086D1*
X74923Y109977D1*
X74740Y109895D1*
X74548Y109842D1*
X74350Y109818D1*
X74150Y109825D1*
X73954Y109862D1*
X73765Y109929D1*
X73589Y110024D1*
X73430Y110144D1*
X73290Y110287D1*
X73175Y110450D1*
X73085Y110629D1*
X73025Y110813D1*
X72928Y110546D1*
X72826Y110374D1*
X72699Y110220D1*
X72550Y110086D1*
X72383Y109977D1*
X72200Y109895D1*
X72008Y109842D1*
X71810Y109818D1*
X71530Y109840D1*
X70377Y108692D1*
X70219Y108572D1*
X70034Y108497D1*
X69850Y108474D1*
X67306D1*
X64899Y106072D1*
X64996Y106030D1*
X65166Y105925D1*
X65315Y105793D1*
X65441Y105638D1*
X65539Y105464D1*
X65607Y105276D1*
X65648Y104965D1*
X65632Y104766D1*
X65582Y104572D1*
X65501Y104390D1*
X65391Y104223D1*
X65254Y104078D1*
X65110Y103968D1*
X65315Y103793D1*
X65382Y103711D1*
X65945D1*
X66143Y103684D1*
X66326Y103606D1*
X66472Y103493D1*
X70163Y99802D1*
X70831Y99806D1*
X70652Y99865D1*
X70475Y99958D1*
X70316Y100079D1*
X70180Y100225D1*
X70070Y100392D1*
X69989Y100575D1*
X69940Y100769D1*
X69924Y100968D1*
X69941Y101167D1*
X69991Y101360D1*
X70073Y101542D1*
X70183Y101709D1*
X70320Y101854D1*
X70464Y101965D1*
X70287Y102107D1*
X70156Y102257D1*
X70052Y102428D1*
X69977Y102613D1*
X69934Y102808D1*
X69925Y103008D1*
X69949Y103206D1*
X70005Y103398D1*
X70093Y103577D1*
X70209Y103740D1*
X70350Y103880D1*
X70468Y103963D1*
X70287Y104107D1*
X70156Y104257D1*
X70052Y104428D1*
X69977Y104613D1*
X69934Y104808D1*
X69925Y105008D1*
X69949Y105206D1*
X70005Y105398D1*
X70093Y105577D1*
X70209Y105740D1*
X70350Y105880D1*
X70514Y105996D1*
X70694Y106082D1*
X70885Y106138D1*
X71084Y106160D1*
X71283Y106150D1*
X71478Y106106D1*
X71663Y106030D1*
X71833Y105925D1*
X71983Y105793D1*
X72109Y105638D1*
X72207Y105464D1*
X72275Y105276D1*
X72316Y104965D1*
X72299Y104766D1*
X72250Y104572D1*
X72169Y104390D1*
X72058Y104223D1*
X71922Y104078D1*
X71778Y103968D1*
X71983Y103793D1*
X72109Y103638D1*
X72207Y103464D1*
X72275Y103276D1*
X72316Y102965D1*
X72299Y102766D1*
X72250Y102572D1*
X72169Y102390D1*
X72058Y102223D1*
X71922Y102078D1*
X71778Y101968D1*
X71955Y101822D1*
X72086Y101671D1*
X72190Y101500D1*
X72264Y101314D1*
X72306Y101119D1*
X72313Y100885D1*
X72283Y100688D1*
X72221Y100498D1*
X72128Y100321D1*
X72007Y100162D1*
X71861Y100026D1*
X71694Y99916D1*
X71511Y99835D1*
X71414Y99806D1*
X76206D1*
X80281Y103879D1*
X80308Y104069D1*
X80376Y104257D1*
X80480Y104427D1*
X80615Y104574D1*
X80777Y104690D1*
X80959Y104773D1*
X81154Y104818D1*
X81353Y104823D1*
X81550Y104788D1*
X81736Y104716D1*
X81904Y104608D1*
X82047Y104469D1*
X82160Y104304D1*
X82238Y104120D1*
X82278Y103924D1*
X82283Y103822D1*
X82263Y103624D1*
X82204Y103433D1*
X82109Y103258D1*
X81980Y103105D1*
X81824Y102980D1*
X81647Y102889D1*
X81455Y102835D1*
X81336Y102826D1*
X77045Y98532D1*
X76886Y98412D1*
X76701Y98337D1*
X76517Y98314D1*
X69850D1*
X69652Y98341D1*
X69469Y98419D1*
X69323Y98532D1*
X65632Y102223D1*
X65389Y102219D1*
X65254Y102078D1*
X65110Y101968D1*
X65287Y101822D1*
X65418Y101671D1*
X65522Y101500D1*
X65596Y101314D1*
X65639Y101119D1*
X65646Y100885D1*
X65616Y100688D1*
X65553Y100498D1*
X65460Y100321D1*
X65339Y100162D1*
X65193Y100026D1*
X65026Y99916D1*
X64844Y99835D1*
X64650Y99785D1*
X64451Y99769D1*
X64252Y99786D1*
X64059Y99836D1*
X63876Y99917D1*
X63710Y100028D1*
X63564Y100164D1*
X63443Y100323D1*
X63351Y100500D1*
X63288Y100690D1*
X63259Y100888D1*
X63263Y101087D1*
X63300Y101284D1*
X63369Y101471D1*
X63468Y101644D1*
X63595Y101799D1*
X63746Y101930D1*
X63796Y101965D1*
X63620Y102107D1*
X63488Y102257D1*
X63387Y102422D1*
X63248Y102247D1*
X63092Y102123D1*
X62914Y102031D1*
X62722Y101977D1*
X62523Y101962D1*
X62325Y101987D1*
X62136Y102050D1*
X62022Y102116D1*
X62024Y100634D1*
X63710Y98953D1*
X63831Y98794D1*
X63905Y98609D1*
X63929Y98425D1*
Y29356D1*
X64607Y28682D1*
X64773Y28826D1*
X64898Y28982D1*
X65042Y29120D1*
X65157Y29206D1*
X64977Y29357D1*
X64841Y29504D1*
X64725Y29666D1*
X64631Y29843D1*
X64561Y30030D1*
X64515Y30224D1*
X64495Y30423D1*
X64501Y30623D1*
X64532Y30820D1*
X64588Y31012D1*
X64669Y31195D1*
X64773Y31366D1*
X64898Y31522D1*
X65042Y31660D1*
X65157Y31746D1*
X64977Y31897D1*
X64841Y32044D1*
X64725Y32206D1*
X64631Y32383D1*
X64561Y32570D1*
X64515Y32764D1*
X64495Y32963D1*
X64501Y33163D1*
X64532Y33360D1*
X64588Y33552D1*
X64669Y33735D1*
X64773Y33906D1*
X64898Y34062D1*
X65042Y34200D1*
X65157Y34286D1*
X64977Y34437D1*
X64841Y34584D1*
X64725Y34746D1*
X64631Y34923D1*
X64561Y35110D1*
X64515Y35304D1*
X64495Y35503D1*
X64501Y35703D1*
X64532Y35900D1*
X64588Y36092D1*
X64669Y36275D1*
X64773Y36446D1*
X64898Y36602D1*
X65042Y36740D1*
X65157Y36826D1*
X64977Y36977D1*
X64841Y37124D1*
X64725Y37286D1*
X64631Y37463D1*
X64561Y37650D1*
X64515Y37844D1*
X64495Y38043D1*
X64501Y38243D1*
X64532Y38440D1*
X64588Y38632D1*
X64669Y38815D1*
X64773Y38986D1*
X64898Y39142D1*
X65042Y39280D1*
X65157Y39366D1*
X64977Y39517D1*
X64841Y39664D1*
X64725Y39826D1*
X64631Y40003D1*
X64561Y40190D1*
X64515Y40384D1*
X64495Y40583D1*
X64501Y40783D1*
X64532Y40980D1*
X64588Y41172D1*
X64669Y41355D1*
X64773Y41526D1*
X64898Y41682D1*
X65042Y41820D1*
X65157Y41906D1*
X64977Y42057D1*
X64841Y42204D1*
X64725Y42366D1*
X64631Y42543D1*
X64561Y42730D1*
X64515Y42924D1*
X64495Y43123D1*
X64501Y43323D1*
X64532Y43520D1*
X64588Y43712D1*
X64669Y43895D1*
X64773Y44066D1*
X64898Y44222D1*
X65042Y44360D1*
X65157Y44446D1*
X64977Y44597D1*
X64841Y44744D1*
X64725Y44906D1*
X64631Y45083D1*
X64561Y45270D1*
X64515Y45464D1*
X64495Y45663D1*
X64501Y45863D1*
X64532Y46060D1*
X64588Y46252D1*
X64669Y46435D1*
X64773Y46606D1*
X64898Y46762D1*
X65042Y46900D1*
X65202Y47019D1*
X65377Y47117D1*
X65563Y47190D1*
X65756Y47240D1*
X65955Y47264D1*
X66155Y47262D1*
X66352Y47234D1*
X66545Y47181D1*
X66729Y47104D1*
X66902Y47003D1*
X67061Y46881D1*
X67202Y46740D1*
X67324Y46582D1*
X67424Y46409D1*
X67501Y46224D1*
X67554Y46032D1*
X67586Y45720D1*
X67573Y45521D1*
X67535Y45324D1*
X67471Y45135D1*
X67384Y44955D1*
X67274Y44788D1*
X67143Y44637D1*
X66917Y44451D1*
X67061Y44341D1*
X67180Y44222D1*
X68923Y44226D1*
X68916Y45380D1*
Y58649D1*
X68758Y58644D1*
X67172D1*
X66994Y58474D1*
X66917Y58421D1*
X67061Y58311D1*
X67202Y58170D1*
X67324Y58012D1*
X67424Y57839D1*
X67501Y57654D1*
X67554Y57462D1*
X67586Y57150D1*
X67573Y56951D1*
X67535Y56754D1*
X67471Y56565D1*
X67384Y56385D1*
X67274Y56218D1*
X67143Y56067D1*
X66917Y55881D1*
X67061Y55771D1*
X67202Y55630D1*
X67324Y55472D1*
X67424Y55299D1*
X67501Y55114D1*
X67554Y54922D1*
X67586Y54610D1*
X67573Y54411D1*
X67535Y54214D1*
X67471Y54025D1*
X67384Y53845D1*
X67274Y53678D1*
X67143Y53527D1*
X66917Y53341D1*
X67061Y53231D1*
X67202Y53090D1*
X67324Y52932D1*
X67424Y52759D1*
X67501Y52574D1*
X67554Y52382D1*
X67586Y52070D1*
X67573Y51871D1*
X67535Y51674D1*
X67471Y51485D1*
X67384Y51305D1*
X67274Y51138D1*
X67143Y50987D1*
X66917Y50801D1*
X67061Y50691D1*
X67202Y50550D1*
X67324Y50392D1*
X67424Y50219D1*
X67501Y50034D1*
X67554Y49842D1*
X67586Y49530D1*
X67573Y49331D1*
X67535Y49134D1*
X67471Y48945D1*
X67384Y48765D1*
X67274Y48598D1*
X67143Y48447D1*
X66994Y48314D1*
X66829Y48201D1*
X66651Y48110D1*
X66463Y48043D1*
X66268Y48001D1*
X66068Y47984D1*
X65869Y47994D1*
X65672Y48028D1*
X65481Y48088D1*
X65300Y48173D1*
X65131Y48279D1*
X64977Y48407D1*
X64841Y48554D1*
X64725Y48716D1*
X64631Y48893D1*
X64561Y49080D1*
X64515Y49274D1*
X64495Y49473D1*
X64501Y49673D1*
X64532Y49870D1*
X64588Y50062D1*
X64669Y50245D1*
X64773Y50416D1*
X64898Y50572D1*
X65042Y50710D1*
X65157Y50796D1*
X64977Y50947D1*
X64841Y51094D1*
X64725Y51256D1*
X64631Y51433D1*
X64561Y51620D1*
X64515Y51814D1*
X64495Y52013D1*
X64501Y52213D1*
X64532Y52410D1*
X64588Y52602D1*
X64669Y52785D1*
X64773Y52956D1*
X64898Y53112D1*
X65042Y53250D1*
X65157Y53336D1*
X64977Y53487D1*
X64841Y53634D1*
X64725Y53796D1*
X64631Y53973D1*
X64561Y54160D1*
X64515Y54354D1*
X64495Y54553D1*
X64501Y54753D1*
X64532Y54950D1*
X64588Y55142D1*
X64669Y55325D1*
X64773Y55496D1*
X64898Y55652D1*
X65042Y55790D1*
X65157Y55876D1*
X64977Y56027D1*
X64841Y56174D1*
X64725Y56336D1*
X64631Y56513D1*
X64561Y56700D1*
X64515Y56894D1*
X64495Y57093D1*
X64501Y57293D1*
X64532Y57490D1*
X64588Y57682D1*
X64669Y57865D1*
X64773Y58036D1*
X64898Y58192D1*
X65042Y58330D1*
X65157Y58416D1*
X64977Y58567D1*
X64841Y58714D1*
X64725Y58876D1*
X64631Y59053D1*
X64561Y59240D1*
X64515Y59434D1*
X64495Y59633D1*
X64501Y59833D1*
X64532Y60030D1*
X64588Y60222D1*
X64669Y60405D1*
X64773Y60576D1*
X64898Y60732D1*
X65042Y60870D1*
X65157Y60956D1*
X64977Y61107D1*
X64841Y61254D1*
X64725Y61416D1*
X64631Y61593D1*
X64561Y61780D1*
X64515Y61974D1*
X64495Y62173D1*
X64501Y62373D1*
X64532Y62570D1*
X64588Y62762D1*
X64669Y62945D1*
X64773Y63116D1*
X64898Y63272D1*
X65042Y63410D1*
X65157Y63496D1*
X64977Y63647D1*
X64841Y63794D1*
X64725Y63956D1*
X64631Y64133D1*
X64561Y64320D1*
X64515Y64514D1*
X64495Y64713D1*
X64501Y64913D1*
X64532Y65110D1*
X64588Y65302D1*
X64669Y65485D1*
X64773Y65656D1*
X64898Y65812D1*
X65042Y65950D1*
X65157Y66036D1*
X64977Y66187D1*
X64841Y66334D1*
X64725Y66496D1*
X64631Y66673D1*
X64561Y66860D1*
X64515Y67054D1*
X64495Y67253D1*
X64501Y67453D1*
X64532Y67650D1*
X64588Y67842D1*
X64669Y68025D1*
X64773Y68196D1*
X64898Y68352D1*
X65042Y68490D1*
X65202Y68609D1*
X65377Y68707D1*
X65563Y68780D1*
X65756Y68830D1*
X65955Y68854D1*
X66155Y68852D1*
X66352Y68824D1*
X66545Y68771D1*
X66729Y68694D1*
X66902Y68593D1*
X67061Y68471D1*
X67202Y68330D1*
X67324Y68172D1*
X67424Y67999D1*
X67501Y67814D1*
X67554Y67622D1*
X67586Y67310D1*
X67573Y67111D1*
X67535Y66914D1*
X67471Y66725D1*
X67384Y66545D1*
X67274Y66378D1*
X67143Y66227D1*
X66917Y66041D1*
X67061Y65931D1*
X67180Y65812D1*
X68923Y65816D1*
X68916Y66970D1*
Y80239D1*
X68758Y80234D1*
X67172D1*
X66994Y80064D1*
X66917Y80011D1*
X67061Y79901D1*
X67202Y79760D1*
X67324Y79602D1*
X67424Y79429D1*
X67501Y79244D1*
X67554Y79052D1*
X67586Y78740D1*
X67573Y78541D1*
X67535Y78344D1*
X67471Y78155D1*
X67384Y77975D1*
X67274Y77808D1*
X67143Y77657D1*
X66917Y77471D1*
X67061Y77361D1*
X67202Y77220D1*
X67324Y77062D1*
X67424Y76889D1*
X67501Y76704D1*
X67554Y76512D1*
X67586Y76200D1*
X67573Y76001D1*
X67535Y75804D1*
X67471Y75615D1*
X67384Y75435D1*
X67274Y75268D1*
X67143Y75117D1*
X66917Y74931D1*
X67061Y74821D1*
X67202Y74680D1*
X67324Y74522D1*
X67424Y74349D1*
X67501Y74164D1*
X67554Y73972D1*
X67586Y73660D1*
X67573Y73461D1*
X67535Y73264D1*
X67471Y73075D1*
X67384Y72895D1*
X67274Y72728D1*
X67143Y72577D1*
X66917Y72391D1*
X67061Y72281D1*
X67202Y72140D1*
X67324Y71982D1*
X67424Y71809D1*
X67501Y71624D1*
X67554Y71432D1*
X67586Y71120D1*
X67573Y70921D1*
X67535Y70724D1*
X67471Y70535D1*
X67384Y70355D1*
X67274Y70188D1*
X67143Y70037D1*
X66994Y69904D1*
X66829Y69791D1*
X66651Y69700D1*
X66463Y69633D1*
X66268Y69591D1*
X66068Y69574D1*
X65869Y69584D1*
X65672Y69618D1*
X65481Y69678D1*
X65300Y69763D1*
X65131Y69869D1*
X64977Y69997D1*
X64841Y70144D1*
X64725Y70306D1*
X64631Y70483D1*
X64561Y70670D1*
X64515Y70864D1*
X64495Y71063D1*
X64501Y71263D1*
X64532Y71460D1*
X64588Y71652D1*
X64669Y71835D1*
X64773Y72006D1*
X64898Y72162D1*
X65042Y72300D1*
X65157Y72386D1*
X64977Y72537D1*
X64841Y72684D1*
X64725Y72846D1*
X64631Y73023D1*
X64561Y73210D1*
X64515Y73404D1*
X64495Y73603D1*
X64501Y73803D1*
X64532Y74000D1*
X64588Y74192D1*
X64669Y74375D1*
X64773Y74546D1*
X64898Y74702D1*
X65042Y74840D1*
X65157Y74926D1*
X64977Y75077D1*
X64841Y75224D1*
X64725Y75386D1*
X64631Y75563D1*
X64561Y75750D1*
X64515Y75944D1*
X64495Y76143D1*
X64501Y76343D1*
X64532Y76540D1*
X64588Y76732D1*
X64669Y76915D1*
X64773Y77086D1*
X64898Y77242D1*
X65042Y77380D1*
X65157Y77466D1*
X64977Y77617D1*
X64841Y77764D1*
X64725Y77926D1*
X64631Y78103D1*
X64561Y78290D1*
X64515Y78484D1*
X64495Y78683D1*
X64501Y78883D1*
X64532Y79080D1*
X64588Y79272D1*
X64669Y79455D1*
X64773Y79626D1*
X64898Y79782D1*
X65042Y79920D1*
X65157Y80006D1*
X64977Y80157D1*
X64841Y80304D1*
X64725Y80466D1*
X64631Y80643D1*
X64561Y80830D1*
X64515Y81024D1*
X64495Y81223D1*
X64501Y81423D1*
X64532Y81620D1*
X64588Y81812D1*
X64669Y81995D1*
X64773Y82166D1*
X64898Y82322D1*
X65042Y82460D1*
X65157Y82546D1*
X64977Y82697D1*
X64841Y82844D1*
X64725Y83006D1*
X64631Y83183D1*
X64561Y83370D1*
X64515Y83564D1*
X64495Y83763D1*
X64501Y83963D1*
X64532Y84160D1*
X64588Y84352D1*
X64669Y84535D1*
X64773Y84706D1*
X64898Y84862D1*
X65042Y85000D1*
X65157Y85086D1*
X64977Y85237D1*
X64841Y85384D1*
X64725Y85546D1*
X64631Y85723D1*
X64561Y85910D1*
X64515Y86104D1*
X64495Y86303D1*
X64501Y86503D1*
X64532Y86700D1*
X64588Y86892D1*
X64669Y87075D1*
X64773Y87246D1*
X64898Y87402D1*
X65042Y87540D1*
X65157Y87626D1*
X64977Y87777D1*
X64841Y87924D1*
X64725Y88086D1*
X64631Y88263D1*
X64561Y88450D1*
X64515Y88644D1*
X64495Y88843D1*
X64501Y89043D1*
X64532Y89240D1*
X64588Y89432D1*
X64669Y89615D1*
X64773Y89786D1*
X64898Y89942D1*
X65042Y90080D1*
X65202Y90199D1*
X65377Y90297D1*
X65563Y90370D1*
X65756Y90420D1*
X65955Y90444D1*
X66155Y90442D1*
X66352Y90414D1*
X66545Y90361D1*
X66729Y90284D1*
X66902Y90183D1*
X67061Y90061D1*
X67202Y89920D1*
X67324Y89762D1*
X67424Y89589D1*
X67501Y89404D1*
X67554Y89212D1*
X67586Y88900D1*
X67573Y88701D1*
X67535Y88504D1*
X67471Y88315D1*
X67384Y88135D1*
X67274Y87968D1*
X67143Y87817D1*
X66917Y87631D1*
X67061Y87521D1*
X67180Y87402D1*
X68923Y87406D1*
X68916Y88560D1*
Y92241D1*
X68844Y92423D1*
X68807Y92631D1*
X68812Y92843D1*
X68860Y93049D1*
X68949Y93241D1*
X69075Y93412D1*
X69232Y93554D1*
X69414Y93661D1*
X69615Y93729D1*
X69825Y93756D1*
X70036Y93739D1*
X70240Y93681D1*
X70427Y93582D1*
X70590Y93450D1*
X70773Y93258D1*
X70890Y93082D1*
X70968Y92885D1*
X71005Y92683D1*
X71008Y89598D1*
Y87404D1*
X71058Y87406D1*
Y85314D1*
X71002D1*
X71008Y84866D1*
X71058D1*
Y82774D1*
X71002D1*
X71008Y82326D1*
X71058D1*
Y80234D1*
X71002D1*
X71008Y79080D1*
Y65811D1*
X71058Y65816D1*
Y63724D1*
X71002D1*
X71008Y63276D1*
X71058D1*
Y61184D1*
X71002D1*
X71008Y60736D1*
X71058D1*
Y58644D1*
X71002D1*
X71008Y57490D1*
Y44221D1*
X71058Y44226D1*
Y42134D1*
X71002D1*
X71008Y41686D1*
X71058D1*
Y39594D1*
X71002D1*
X71008Y39146D1*
X71058D1*
Y37054D1*
X70890D1*
X70896Y36387D1*
Y22631D1*
X70946Y22636D1*
Y20544D1*
X70890D1*
X70896Y20096D1*
X70946D1*
Y18004D1*
X70890D1*
X70896Y17556D1*
X70946D1*
Y15464D1*
X70890D1*
X70896Y14605D1*
Y6032D1*
X70877Y5834D1*
X70820Y5642D1*
X70729Y5465D1*
X70590Y5293D1*
X68685Y3388D1*
X68578Y3295D1*
X68700Y3251D1*
X69294D1*
X71996Y5955D1*
Y90796D1*
X74688D1*
X74682Y87004D1*
X74688Y87100D1*
Y5398D1*
X74674Y5198D1*
X74629Y5003D1*
X74557Y4817D1*
X74458Y4644D1*
X74294Y4446D1*
X70802Y953D1*
X70650Y823D1*
X70450Y701D1*
X89300Y700D1*
Y119300D1*
X700D1*
Y700D1*
X60672Y703D1*
X60500Y806D1*
X60326Y953D1*
X52782Y8497D1*
X27940Y8496D1*
X27741Y8511D1*
X27546Y8556D1*
X27360Y8628D1*
X27186Y8727D1*
X26988Y8891D1*
X24448Y11431D1*
X24318Y11582D1*
X24211Y11751D1*
X24131Y11934D1*
X24079Y12127D1*
X24054Y12383D1*
Y18814D1*
X6351Y36518D1*
X6220Y36669D1*
X6114Y36838D1*
X6033Y37021D1*
X5981Y37214D1*
X5957Y37470D1*
Y39876D1*
X5824Y40190D1*
X5778Y40384D1*
X5756Y40640D1*
Y72609D1*
X5516Y72633D1*
X5325Y72690D1*
X5147Y72781D1*
X4991Y72905D1*
X4861Y73057D1*
X4761Y73230D1*
X4697Y73419D1*
X4670Y73617D1*
X4681Y73816D1*
X4729Y74010D1*
X4814Y74191D1*
X4931Y74353D1*
X5077Y74489D1*
X5246Y74595D1*
X5432Y74667D1*
X5715Y74706D1*
X5759D1*
X5756Y89835D1*
Y109855D1*
X5769Y110054D1*
X5808Y110251D1*
X5871Y110440D1*
X5959Y110620D1*
X6069Y110787D1*
X6351Y111090D1*
X10337Y115076D1*
X10487Y115208D1*
X10653Y115319D1*
X10832Y115408D1*
X11021Y115473D1*
X11216Y115514D1*
X11630Y115529D1*
X35877D1*
X36077Y115516D1*
X36273Y115477D1*
X36463Y115414D1*
X36642Y115326D1*
X36809Y115216D1*
X37112Y114934D1*
X38158Y113888D1*
X38290Y113738D1*
X38401Y113572D1*
X38491Y113393D1*
X38556Y113204D1*
X38596Y113009D1*
X38611Y112595D1*
X38615Y110556D1*
X38845Y110229D1*
X39007Y109864D1*
X39095Y109475D1*
X39111Y109220D1*
X39072Y108823D1*
X38957Y108440D1*
X38769Y108088D1*
X38517Y107778D1*
X38209Y107524D1*
X37858Y107334D1*
X37476Y107216D1*
X37079Y107174D1*
X36681Y107210D1*
X36298Y107323D1*
X35944Y107508D1*
X35633Y107759D1*
X35376Y108065D1*
X35184Y108415D1*
X35064Y108795D1*
X35019Y109192D1*
X35053Y109590D1*
X35163Y109974D1*
X35346Y110329D1*
X35516Y110553D1*
X35519Y112151D1*
X35234Y112440D1*
X30278Y112437D1*
X12071D1*
X8851Y109217D1*
X8848Y81455D1*
Y78386D1*
X9703Y78381D1*
X14959D1*
X15227Y78510D1*
X15417Y78572D1*
X15612Y78612D1*
X15812Y78630D1*
X16011Y78626D1*
X16210Y78600D1*
X16404Y78551D1*
X16591Y78482D1*
X16770Y78392D1*
X16937Y78283D1*
X17092Y78156D1*
X17231Y78013D1*
X17353Y77855D1*
X17458Y77684D1*
X17542Y77503D1*
X17606Y77314D1*
X17649Y77118D1*
X17671Y76835D1*
X17660Y76635D1*
X17627Y76438D1*
X17572Y76246D1*
X17496Y76061D1*
X17400Y75886D1*
X17285Y75722D1*
X17152Y75573D1*
X17004Y75438D1*
X16842Y75322D1*
X16668Y75223D1*
X16484Y75145D1*
X16292Y75088D1*
X16096Y75053D1*
X15896Y75039D1*
X15696Y75048D1*
X15499Y75079D1*
X15306Y75131D1*
X15120Y75205D1*
X14960Y75290D1*
X8844Y75289D1*
X8848Y74235D1*
Y42191D1*
X9703Y42186D1*
X14959D1*
X15227Y42315D1*
X15417Y42377D1*
X15612Y42417D1*
X15812Y42435D1*
X16011Y42431D1*
X16210Y42405D1*
X16404Y42356D1*
X16591Y42287D1*
X16770Y42197D1*
X16937Y42088D1*
X17092Y41961D1*
X17231Y41818D1*
X17353Y41660D1*
X17458Y41489D1*
X17542Y41308D1*
X17606Y41119D1*
X17649Y40923D1*
X17671Y40640D1*
X17660Y40440D1*
X17627Y40243D1*
X17572Y40051D1*
X17496Y39866D1*
X17400Y39691D1*
X17285Y39527D1*
X17152Y39378D1*
X17004Y39243D1*
X16842Y39127D1*
X16668Y39028D1*
X16484Y38950D1*
X16292Y38893D1*
X16096Y38858D1*
X15896Y38844D1*
X15696Y38853D1*
X15499Y38884D1*
X15306Y38936D1*
X15120Y39010D1*
X14960Y39095D1*
X8644Y39094D1*
X8649Y38021D1*
X9668Y37007D1*
X26352Y20324D1*
X26482Y20173D1*
X26589Y20004D1*
X26669Y19821D1*
X26722Y19628D1*
X26746Y19372D1*
Y12941D1*
X28495Y11191D1*
X39140Y11188D1*
X53340D1*
X53539Y11174D1*
X53740Y11127D1*
X53392Y11486D1*
X52911Y11968D1*
X49740Y11971D1*
X29845D1*
X29646Y11991D1*
X29455Y12047D1*
X29277Y12139D1*
X29105Y12278D1*
X27200Y14183D1*
X27073Y14337D1*
X26978Y14512D1*
X26917Y14703D1*
X26894Y14922D1*
Y25916D1*
X19665Y33148D1*
X18026Y31504D1*
X17874Y31374D1*
X17703Y31271D1*
X17518Y31196D1*
X17323Y31152D1*
X17124Y31139D1*
X16925Y31159D1*
X16732Y31210D1*
X16549Y31291D1*
X16382Y31400D1*
X16234Y31535D1*
X16110Y31691D1*
X16012Y31866D1*
X15944Y32053D1*
X15906Y32249D1*
X15901Y32449D1*
X15927Y32647D1*
X15984Y32839D1*
X16072Y33018D1*
X16264Y33266D1*
X19078Y36080D1*
X19074Y38560D1*
Y41391D1*
X15996Y44472D1*
X14605Y44474D1*
X14406Y44490D1*
X14212Y44538D1*
X14028Y44616D1*
X13859Y44722D1*
X13724Y44839D1*
X11501Y47061D1*
X11372Y47214D1*
X11268Y47384D1*
X11194Y47570D1*
X11149Y47764D1*
X11136Y47942D1*
Y68580D1*
X11153Y68779D1*
X11200Y68973D1*
X11278Y69157D1*
X11385Y69326D1*
X11501Y69461D1*
X17808Y75768D1*
X17804Y77591D1*
X11184Y84209D1*
X11054Y84361D1*
X10951Y84532D1*
X10876Y84717D1*
X10832Y84912D1*
X10819Y85090D1*
Y97155D1*
X10835Y97354D1*
X10883Y97548D1*
X10961Y97732D1*
X11067Y97901D1*
X11184Y98036D1*
X13094Y99946D1*
X13246Y100076D1*
X13417Y100179D1*
X13602Y100254D1*
X13797Y100298D1*
X13975Y100311D1*
X14581D1*
X14629Y100465D1*
Y102870D1*
X14645Y103069D1*
X14693Y103263D1*
X14771Y103447D1*
X14877Y103616D1*
X14994Y103751D1*
X15900Y104657D1*
X15899Y107534D1*
X15633Y107759D1*
X15376Y108065D1*
X15184Y108415D1*
X15064Y108795D1*
X15019Y109192D1*
X15053Y109590D1*
X15163Y109974D1*
X15346Y110329D1*
X15594Y110642D1*
X15898Y110901D1*
X16247Y111095D1*
X16627Y111219D1*
X17023Y111266D1*
X17422Y111235D1*
X17806Y111127D1*
X18163Y110947D1*
X18477Y110701D1*
X18738Y110398D1*
X18935Y110051D1*
X19061Y109672D1*
X19110Y109275D1*
X19101Y109020D1*
X19024Y108629D1*
X18871Y108259D1*
X18650Y107927D1*
X18392Y107664D1*
X18391Y104140D1*
X18375Y103941D1*
X18327Y103747D1*
X18249Y103563D1*
X18143Y103394D1*
X18026Y103259D1*
X17120Y102353D1*
X17121Y100364D1*
X17353Y100085D1*
X17458Y99914D1*
X17542Y99733D1*
X17606Y99544D1*
X17649Y99348D1*
X17671Y99065D1*
X17660Y98865D1*
X17627Y98668D1*
X17572Y98476D1*
X17496Y98291D1*
X17400Y98116D1*
X17285Y97952D1*
X17152Y97803D1*
X17004Y97668D1*
X16842Y97552D1*
X16668Y97453D1*
X16484Y97375D1*
X16292Y97318D1*
X16096Y97283D1*
X15896Y97269D1*
X15696Y97278D1*
X15499Y97309D1*
X15306Y97361D1*
X15120Y97435D1*
X14944Y97529D1*
X14779Y97642D1*
X14581Y97823D1*
X14432Y97760D1*
X13314Y96642D1*
X13311Y88755D1*
Y85611D1*
X15350Y83567D1*
X19931Y78986D1*
X20061Y78834D1*
X20164Y78663D1*
X20239Y78478D1*
X20283Y78283D1*
X20296Y78105D1*
Y75248D1*
X20280Y75048D1*
X20232Y74854D1*
X20154Y74670D1*
X20048Y74501D1*
X19931Y74366D1*
X13625Y68060D1*
X13629Y65980D1*
Y61011D1*
X19214Y61014D1*
X20533Y62335D1*
X20687Y62462D1*
X20862Y62557D1*
X21053Y62618D1*
X21273Y62641D1*
X24666D1*
X24672Y63995D1*
Y65406D1*
X24691Y65604D1*
X24748Y65796D1*
X24839Y65973D1*
X24978Y66145D1*
X26037Y67189D1*
X26041Y69357D1*
Y82868D1*
X26063Y83066D1*
X26125Y83256D1*
X26209Y83405D1*
X26460Y83678D1*
X27430Y84648D1*
X27585Y84773D1*
X27763Y84863D1*
X27928Y84909D1*
X28299Y84925D1*
X28440D1*
X28604Y85041D1*
X28784Y85127D1*
X28976Y85183D1*
X29174Y85205D1*
X29373Y85195D1*
X29568Y85151D1*
X29753Y85075D1*
X29923Y84970D1*
X30073Y84838D1*
X30199Y84683D1*
X30297Y84509D1*
X30365Y84321D1*
X30406Y84010D1*
X30389Y83811D1*
X30340Y83617D1*
X30259Y83435D1*
X30148Y83268D1*
X30012Y83123D1*
X29868Y83013D1*
X30073Y82838D1*
X30199Y82683D1*
X30297Y82509D1*
X30365Y82321D1*
X30406Y82010D1*
X30389Y81811D1*
X30340Y81617D1*
X30259Y81435D1*
X30148Y81268D1*
X30012Y81123D1*
X29868Y81013D1*
X30045Y80867D1*
X30176Y80716D1*
X30280Y80545D1*
X30354Y80359D1*
X30396Y80164D1*
X30405Y79970D1*
X53265D2*
X53242Y79772D1*
X53186Y79580D1*
X53099Y79400D1*
X52983Y79237D1*
X52842Y79096D1*
X52679Y78980D1*
X52499Y78894D1*
X52307Y78838D1*
X52109Y78815D1*
X51909Y78825D1*
X51714Y78868D1*
X51546Y78935D1*
Y59055D1*
X51519Y58857D1*
X51441Y58674D1*
X51328Y58528D1*
X51164Y58364D1*
X51148Y58221D1*
X51089Y58031D1*
X50994Y57855D1*
X50865Y57702D1*
X50709Y57578D1*
X50532Y57486D1*
X50340Y57432D1*
X50141Y57417D1*
X49942Y57442D1*
X49753Y57506D1*
X49580Y57605D1*
X49435Y57733D1*
X49278Y57543D1*
X49122Y57419D1*
X48944Y57328D1*
X48752Y57274D1*
X48553Y57259D1*
X48355Y57283D1*
X48166Y57347D1*
X47993Y57446D1*
X47843Y57578D1*
X47722Y57738D1*
X47635Y57917D1*
X47586Y58111D1*
X47576Y58310D1*
X47605Y58508D1*
X47673Y58695D1*
X47777Y58866D1*
X47832Y58925D1*
Y59849D1*
X47858Y60046D1*
X47936Y60230D1*
X48050Y60376D1*
X49256Y61583D1*
X49260Y64278D1*
Y82391D1*
X49287Y82589D1*
X49365Y82772D1*
X49479Y82919D1*
X50933Y84373D1*
X51043Y84622D1*
X51159Y84785D1*
X51300Y84925D1*
X51464Y85041D1*
X51644Y85127D1*
X51836Y85183D1*
X52034Y85205D1*
X52233Y85195D1*
X52428Y85151D1*
X52613Y85075D1*
X52783Y84970D1*
X52933Y84838D1*
X53059Y84683D1*
X53157Y84509D1*
X53225Y84321D1*
X53266Y84010D1*
X53249Y83811D1*
X53200Y83617D1*
X53119Y83435D1*
X53008Y83268D1*
X52872Y83123D1*
X52728Y83013D1*
X52933Y82838D1*
X53059Y82683D1*
X53157Y82509D1*
X53225Y82321D1*
X53266Y82010D1*
X53249Y81811D1*
X53200Y81617D1*
X53119Y81435D1*
X53008Y81268D1*
X52872Y81123D1*
X52728Y81013D1*
X52905Y80867D1*
X53036Y80716D1*
X53140Y80545D1*
X53214Y80359D1*
X53256Y80164D1*
X53265Y79970D1*
X38009Y79811D2*
X37960Y79617D1*
X37879Y79435D1*
X37768Y79268D1*
X37632Y79123D1*
X37473Y79001D1*
X37296Y78909D1*
X37106Y78846D1*
X36909Y78817D1*
X36709Y78820D1*
X36513Y78857D1*
X36325Y78926D1*
X36152Y79025D1*
X35997Y79152D1*
X35866Y79302D1*
X35762Y79473D1*
X35687Y79658D1*
X35644Y79853D1*
X35635Y80053D1*
X35659Y80251D1*
X35715Y80443D1*
X35803Y80622D1*
X35919Y80785D1*
X36060Y80925D1*
X36178Y81008D1*
X35997Y81152D1*
X35866Y81302D1*
X35762Y81473D1*
X35687Y81658D1*
X35644Y81853D1*
X35635Y82053D1*
X35659Y82251D1*
X35715Y82443D1*
X35803Y82622D1*
X35919Y82785D1*
X36060Y82925D1*
X36178Y83008D1*
X35997Y83152D1*
X35866Y83302D1*
X35762Y83473D1*
X35687Y83658D1*
X35644Y83853D1*
X35635Y84053D1*
X35659Y84251D1*
X35715Y84443D1*
X35803Y84622D1*
X35919Y84785D1*
X36060Y84925D1*
X36224Y85041D1*
X36404Y85127D1*
X36595Y85183D1*
X36794Y85205D1*
X36993Y85195D1*
X37188Y85151D1*
X37373Y85075D1*
X37543Y84970D1*
X37693Y84838D1*
X37819Y84683D1*
X37917Y84509D1*
X37985Y84321D1*
X38026Y84010D1*
X38009Y83811D1*
X37960Y83617D1*
X37879Y83435D1*
X37768Y83268D1*
X37632Y83123D1*
X37488Y83013D1*
X37693Y82838D1*
X37819Y82683D1*
X37917Y82509D1*
X37985Y82321D1*
X38026Y82010D1*
X38009Y81811D1*
X37960Y81617D1*
X37879Y81435D1*
X37768Y81268D1*
X37632Y81123D1*
X37488Y81013D1*
X37693Y80838D1*
X37819Y80683D1*
X37917Y80509D1*
X37985Y80321D1*
X38026Y80010D1*
X38009Y79811D1*
X52313Y89812D2*
X52289Y89614D1*
X52233Y89422D1*
X52146Y89243D1*
X52030Y89080D1*
X51889Y88939D1*
X51726Y88823D1*
X51546Y88736D1*
X51412Y88693D1*
X53657Y88694D1*
X53855Y88667D1*
X54039Y88589D1*
X54185Y88475D1*
X56088Y86572D1*
X56087Y93354D1*
X52178Y97263D1*
X52057Y97421D1*
X51982Y97606D1*
X51959Y97790D1*
Y100121D1*
X51858Y100026D1*
X51691Y99916D1*
X51509Y99835D1*
X51315Y99785D1*
X51116Y99769D1*
X50917Y99786D1*
X50724Y99836D1*
X50541Y99917D1*
X50376Y100027D1*
Y96864D1*
X51118Y96128D1*
X51716Y95531D1*
X51839Y95374D1*
X51922Y95193D1*
X51964Y94933D1*
Y94701D1*
X52106Y94525D1*
X52204Y94351D1*
X52272Y94164D1*
X52313Y93853D1*
X52297Y93653D1*
X52247Y93460D1*
X52166Y93277D1*
X52056Y93111D1*
X51919Y92965D1*
X51775Y92855D1*
X51980Y92681D1*
X52106Y92525D1*
X52204Y92351D1*
X52272Y92164D1*
X52313Y91853D1*
X52297Y91653D1*
X52247Y91460D1*
X52166Y91277D1*
X52056Y91111D1*
X51919Y90965D1*
X51775Y90855D1*
X51952Y90709D1*
X52083Y90558D1*
X52187Y90388D1*
X52261Y90202D1*
X52304Y90007D1*
X52313Y89812D1*
X49971Y89514D2*
X49927Y89735D1*
X49924Y89935D1*
X49955Y90133D1*
X50018Y90322D1*
X50111Y90499D1*
X50233Y90657D1*
X50379Y90793D1*
X50461Y90852D1*
X50285Y90994D1*
X50153Y91145D1*
X50049Y91315D1*
X49974Y91500D1*
X49932Y91696D1*
X49922Y91895D1*
X49946Y92094D1*
X50002Y92285D1*
X50090Y92465D1*
X50206Y92627D1*
X50348Y92768D1*
X50465Y92851D1*
X50285Y92994D1*
X50153Y93145D1*
X50049Y93315D1*
X49974Y93500D1*
X49932Y93696D1*
X49922Y93895D1*
X49946Y94094D1*
X50002Y94285D1*
X50090Y94465D1*
X50220Y94640D1*
X49003Y95850D1*
X49006Y90479D1*
X49968Y89518D1*
X7642Y4245D2*
X7592Y3848D1*
X7494Y3461D1*
X7347Y3089D1*
X7156Y2738D1*
X6922Y2414D1*
X6650Y2121D1*
X6343Y1865D1*
X6007Y1648D1*
X5647Y1476D1*
X5267Y1349D1*
X4875Y1271D1*
X4477Y1242D1*
X4078Y1263D1*
X3684Y1333D1*
X3302Y1452D1*
X2939Y1618D1*
X2598Y1828D1*
X2287Y2078D1*
X2009Y2365D1*
X1769Y2685D1*
X1570Y3032D1*
X1417Y3401D1*
X1310Y3786D1*
X1253Y4182D1*
X1245Y4581D1*
X1286Y4979D1*
X1378Y5368D1*
X1516Y5743D1*
X1701Y6098D1*
X1928Y6427D1*
X2194Y6725D1*
X2496Y6987D1*
X2828Y7210D1*
X3185Y7390D1*
X3561Y7524D1*
X3952Y7610D1*
X4350Y7647D1*
X4749Y7634D1*
X5144Y7571D1*
X5528Y7460D1*
X5895Y7301D1*
X6239Y7099D1*
X6556Y6854D1*
X6840Y6573D1*
X7086Y6258D1*
X7291Y5915D1*
X7452Y5549D1*
X7566Y5166D1*
X7632Y4772D1*
X7648Y4445D1*
X7642Y4245D1*
X8277Y114735D2*
X8227Y114338D1*
X8129Y113951D1*
X7982Y113579D1*
X7791Y113228D1*
X7557Y112904D1*
X7285Y112611D1*
X6978Y112355D1*
X6642Y112138D1*
X6282Y111966D1*
X5902Y111839D1*
X5510Y111761D1*
X5112Y111732D1*
X4713Y111753D1*
X4319Y111823D1*
X3938Y111942D1*
X3574Y112108D1*
X3233Y112318D1*
X2922Y112568D1*
X2644Y112855D1*
X2404Y113175D1*
X2205Y113522D1*
X2052Y113891D1*
X1945Y114276D1*
X1888Y114672D1*
X1880Y115071D1*
X1921Y115469D1*
X2013Y115858D1*
X2151Y116233D1*
X2336Y116588D1*
X2563Y116917D1*
X2829Y117215D1*
X3131Y117477D1*
X3463Y117700D1*
X3820Y117880D1*
X4196Y118014D1*
X4587Y118100D1*
X4985Y118137D1*
X5384Y118124D1*
X5779Y118061D1*
X6163Y117950D1*
X6530Y117791D1*
X6874Y117589D1*
X7191Y117344D1*
X7475Y117063D1*
X7721Y116748D1*
X7926Y116405D1*
X8087Y116039D1*
X8201Y115656D1*
X8267Y115262D1*
X8283Y114935D1*
X8277Y114735D1*
X88922Y3928D2*
X88872Y3531D1*
X88773Y3144D1*
X88627Y2772D1*
X88436Y2421D1*
X88202Y2096D1*
X87930Y1804D1*
X87623Y1547D1*
X87287Y1331D1*
X86927Y1158D1*
X86547Y1032D1*
X86155Y953D1*
X85757Y924D1*
X85358Y945D1*
X84964Y1016D1*
X84582Y1135D1*
X84219Y1300D1*
X83878Y1510D1*
X83567Y1760D1*
X83289Y2048D1*
X83049Y2367D1*
X82850Y2714D1*
X82697Y3083D1*
X82590Y3469D1*
X82532Y3864D1*
X82525Y4264D1*
X82566Y4661D1*
X82658Y5051D1*
X82796Y5425D1*
X82981Y5780D1*
X83208Y6109D1*
X83474Y6407D1*
X83776Y6670D1*
X84108Y6893D1*
X84465Y7072D1*
X84841Y7207D1*
X85232Y7293D1*
X85630Y7329D1*
X86029Y7316D1*
X86424Y7254D1*
X86808Y7142D1*
X87175Y6984D1*
X87519Y6781D1*
X87836Y6537D1*
X88120Y6255D1*
X88366Y5940D1*
X88571Y5597D1*
X88732Y5232D1*
X88846Y4848D1*
X88912Y4454D1*
X88928Y4128D1*
X88922Y3928D1*
X88605Y115370D2*
X88555Y114974D1*
X88456Y114586D1*
X88310Y114214D1*
X88118Y113863D1*
X87885Y113539D1*
X87612Y113246D1*
X87306Y112990D1*
X86970Y112773D1*
X86609Y112601D1*
X86230Y112474D1*
X85838Y112396D1*
X85439Y112367D1*
X85040Y112388D1*
X84647Y112458D1*
X84265Y112577D1*
X83901Y112743D1*
X83561Y112953D1*
X83249Y113203D1*
X82971Y113490D1*
X82731Y113810D1*
X82533Y114157D1*
X82379Y114526D1*
X82273Y114911D1*
X82215Y115307D1*
X82207Y115706D1*
X82249Y116104D1*
X82340Y116493D1*
X82479Y116868D1*
X82663Y117223D1*
X82891Y117552D1*
X83157Y117850D1*
X83458Y118112D1*
X83790Y118335D1*
X84147Y118515D1*
X84524Y118649D1*
X84914Y118735D1*
X85312Y118772D1*
X85712Y118759D1*
X86106Y118696D1*
X86490Y118585D1*
X86857Y118426D1*
X87202Y118224D1*
X87518Y117979D1*
X87802Y117698D1*
X88048Y117383D1*
X88254Y117040D1*
X88415Y116674D1*
X88529Y116291D1*
X88594Y115897D1*
X88611Y115570D1*
X88605Y115370D1*
X74996Y90796D2*
X77489D1*
Y90140D1*
X77824Y90146D1*
X78077Y90297D1*
X78263Y90370D1*
X78456Y90420D1*
X78655Y90444D1*
X78855Y90442D1*
X79052Y90414D1*
X79245Y90361D1*
X79429Y90284D1*
X79602Y90183D1*
X79761Y90061D1*
X79902Y89920D1*
X80024Y89762D1*
X80124Y89589D1*
X80201Y89404D1*
X80254Y89212D1*
X80286Y88900D1*
X80273Y88701D1*
X80235Y88504D1*
X80171Y88315D1*
X80084Y88135D1*
X79974Y87968D1*
X79843Y87817D1*
X79617Y87631D1*
X79761Y87521D1*
X79928Y87350D1*
X80067Y87154D1*
X80173Y86939D1*
X80246Y86711D1*
X80282Y86474D1*
X80281Y86240D1*
X80244Y86003D1*
X80171Y85775D1*
X80063Y85561D1*
X79924Y85366D1*
X79756Y85195D1*
X79621Y85090D1*
X79761Y84981D1*
X79902Y84840D1*
X80024Y84682D1*
X80124Y84509D1*
X80201Y84324D1*
X80254Y84132D1*
X80286Y83820D1*
X80273Y83621D1*
X80235Y83424D1*
X80171Y83235D1*
X80084Y83055D1*
X79974Y82888D1*
X79843Y82737D1*
X79617Y82551D1*
X79761Y82441D1*
X79902Y82300D1*
X80024Y82142D1*
X80124Y81969D1*
X80201Y81784D1*
X80254Y81592D1*
X80286Y81280D1*
X80273Y81081D1*
X80235Y80884D1*
X80171Y80695D1*
X80084Y80515D1*
X79974Y80348D1*
X79843Y80197D1*
X79617Y80011D1*
X79761Y79901D1*
X79902Y79760D1*
X80024Y79602D1*
X80124Y79429D1*
X80201Y79244D1*
X80254Y79052D1*
X80286Y78740D1*
X80273Y78541D1*
X80235Y78344D1*
X80171Y78155D1*
X80084Y77975D1*
X79974Y77808D1*
X79843Y77657D1*
X79617Y77471D1*
X79761Y77361D1*
X79902Y77220D1*
X80024Y77062D1*
X80124Y76889D1*
X80201Y76704D1*
X80254Y76512D1*
X80286Y76200D1*
X80273Y76001D1*
X80235Y75804D1*
X80171Y75615D1*
X80084Y75435D1*
X79974Y75268D1*
X79843Y75117D1*
X79617Y74931D1*
X79761Y74821D1*
X79902Y74680D1*
X80024Y74522D1*
X80124Y74349D1*
X80201Y74164D1*
X80254Y73972D1*
X80286Y73660D1*
X80273Y73461D1*
X80235Y73264D1*
X80171Y73075D1*
X80084Y72895D1*
X79974Y72728D1*
X79843Y72577D1*
X79617Y72391D1*
X79761Y72281D1*
X79928Y72110D1*
X80067Y71914D1*
X80173Y71699D1*
X80246Y71471D1*
X80282Y71234D1*
X80281Y71000D1*
X80244Y70763D1*
X80171Y70535D1*
X80063Y70321D1*
X79924Y70126D1*
X79756Y69955D1*
X79563Y69812D1*
X79351Y69700D1*
X79124Y69623D1*
X78888Y69581D1*
X78648Y69577D1*
X78411Y69609D1*
X78181Y69678D1*
X77965Y69782D1*
X77768Y69918D1*
X77594Y70083D1*
X77447Y70273D1*
X77331Y70483D1*
X77250Y70708D1*
X77204Y70943D1*
X77195Y71183D1*
X77224Y71421D1*
X77288Y71652D1*
X77388Y71870D1*
X77520Y72070D1*
X77682Y72247D1*
X77860Y72391D1*
X77677Y72537D1*
X77541Y72684D1*
X77425Y72846D1*
X77331Y73023D1*
X77261Y73210D1*
X77215Y73404D1*
X77195Y73603D1*
X77201Y73803D1*
X77232Y74000D1*
X77288Y74192D1*
X77369Y74375D1*
X77473Y74546D1*
X77598Y74702D1*
X77742Y74840D1*
X77857Y74926D1*
X77677Y75077D1*
X77541Y75224D1*
X77425Y75386D1*
X77331Y75563D1*
X77261Y75750D1*
X77215Y75944D1*
X77195Y76143D1*
X77201Y76343D1*
X77232Y76540D1*
X77288Y76732D1*
X77369Y76915D1*
X77473Y77086D1*
X77598Y77242D1*
X77742Y77380D1*
X77857Y77466D1*
X77677Y77617D1*
X77541Y77764D1*
X77425Y77926D1*
X77331Y78103D1*
X77261Y78290D1*
X77215Y78484D1*
X77195Y78683D1*
X77201Y78883D1*
X77232Y79080D1*
X77288Y79272D1*
X77369Y79455D1*
X77473Y79626D1*
X77598Y79782D1*
X77742Y79920D1*
X77857Y80006D1*
X77677Y80157D1*
X77541Y80304D1*
X77425Y80466D1*
X77331Y80643D1*
X77261Y80830D1*
X77215Y81024D1*
X77195Y81223D1*
X77201Y81423D1*
X77232Y81620D1*
X77288Y81812D1*
X77369Y81995D1*
X77473Y82166D1*
X77598Y82322D1*
X77742Y82460D1*
X77857Y82546D1*
X77677Y82697D1*
X77541Y82844D1*
X77425Y83006D1*
X77331Y83183D1*
X77261Y83370D1*
X77215Y83564D1*
X77195Y83763D1*
X77201Y83963D1*
X77232Y84160D1*
X77288Y84352D1*
X77369Y84535D1*
X77473Y84706D1*
X77598Y84862D1*
X77742Y85000D1*
X77857Y85086D1*
X77649Y85265D1*
X77492Y85447D1*
X77366Y85651D1*
X77273Y85872D1*
X77215Y86104D1*
X77194Y86343D1*
X77210Y86582D1*
X77263Y86816D1*
X77335Y87004D1*
X74796D1*
Y90796D1*
X74996D1*
Y26026D2*
X77489D1*
Y25370D1*
X77824Y25376D1*
X78077Y25527D1*
X78263Y25600D1*
X78456Y25650D1*
X78655Y25674D1*
X78855Y25672D1*
X79052Y25644D1*
X79245Y25591D1*
X79429Y25514D1*
X79602Y25413D1*
X79761Y25291D1*
X79902Y25150D1*
X80024Y24992D1*
X80124Y24819D1*
X80201Y24634D1*
X80254Y24442D1*
X80286Y24130D1*
X80273Y23931D1*
X80235Y23734D1*
X80171Y23545D1*
X80084Y23365D1*
X79974Y23198D1*
X79843Y23047D1*
X79617Y22861D1*
X79761Y22751D1*
X79928Y22580D1*
X80067Y22384D1*
X80173Y22169D1*
X80246Y21941D1*
X80282Y21704D1*
X80281Y21470D1*
X80244Y21233D1*
X80171Y21005D1*
X80063Y20791D1*
X79924Y20596D1*
X79756Y20425D1*
X79621Y20320D1*
X79761Y20211D1*
X79902Y20070D1*
X80024Y19912D1*
X80124Y19739D1*
X80201Y19554D1*
X80254Y19362D1*
X80286Y19050D1*
X80273Y18851D1*
X80235Y18654D1*
X80171Y18465D1*
X80084Y18285D1*
X79974Y18118D1*
X79843Y17967D1*
X79617Y17781D1*
X79761Y17671D1*
X79902Y17530D1*
X80024Y17372D1*
X80124Y17199D1*
X80201Y17014D1*
X80254Y16822D1*
X80286Y16510D1*
X80273Y16311D1*
X80235Y16114D1*
X80171Y15925D1*
X80084Y15745D1*
X79974Y15578D1*
X79843Y15427D1*
X79617Y15241D1*
X79761Y15131D1*
X79902Y14990D1*
X80024Y14832D1*
X80124Y14659D1*
X80201Y14474D1*
X80254Y14282D1*
X80286Y13970D1*
X80273Y13771D1*
X80235Y13574D1*
X80171Y13385D1*
X80084Y13205D1*
X79974Y13038D1*
X79843Y12887D1*
X79617Y12701D1*
X79761Y12591D1*
X79902Y12450D1*
X80024Y12292D1*
X80124Y12119D1*
X80201Y11934D1*
X80254Y11742D1*
X80286Y11430D1*
X80273Y11231D1*
X80235Y11034D1*
X80171Y10845D1*
X80084Y10665D1*
X79974Y10498D1*
X79843Y10347D1*
X79617Y10161D1*
X79761Y10051D1*
X79902Y9910D1*
X80024Y9752D1*
X80124Y9579D1*
X80201Y9394D1*
X80254Y9202D1*
X80286Y8890D1*
X80273Y8691D1*
X80235Y8494D1*
X80171Y8305D1*
X80084Y8125D1*
X79974Y7958D1*
X79843Y7807D1*
X79617Y7621D1*
X79761Y7511D1*
X79928Y7340D1*
X80067Y7144D1*
X80173Y6929D1*
X80246Y6701D1*
X80282Y6464D1*
X80281Y6230D1*
X80244Y5993D1*
X80171Y5765D1*
X80063Y5551D1*
X79924Y5356D1*
X79756Y5185D1*
X79563Y5042D1*
X79351Y4930D1*
X79124Y4853D1*
X78888Y4811D1*
X78648Y4807D1*
X78411Y4839D1*
X78181Y4908D1*
X77965Y5012D1*
X77768Y5148D1*
X77594Y5313D1*
X77447Y5503D1*
X77331Y5713D1*
X77250Y5938D1*
X77204Y6173D1*
X77195Y6413D1*
X77224Y6651D1*
X77288Y6882D1*
X77388Y7100D1*
X77520Y7300D1*
X77682Y7477D1*
X77860Y7621D1*
X77677Y7767D1*
X77541Y7914D1*
X77425Y8076D1*
X77331Y8253D1*
X77261Y8440D1*
X77215Y8634D1*
X77195Y8833D1*
X77201Y9033D1*
X77232Y9230D1*
X77288Y9422D1*
X77369Y9605D1*
X77473Y9776D1*
X77598Y9932D1*
X77742Y10070D1*
X77857Y10156D1*
X77677Y10307D1*
X77541Y10454D1*
X77425Y10616D1*
X77331Y10793D1*
X77261Y10980D1*
X77215Y11174D1*
X77195Y11373D1*
X77201Y11573D1*
X77232Y11770D1*
X77288Y11962D1*
X77369Y12145D1*
X77473Y12316D1*
X77598Y12472D1*
X77742Y12610D1*
X77857Y12696D1*
X77677Y12847D1*
X77541Y12994D1*
X77425Y13156D1*
X77331Y13333D1*
X77261Y13520D1*
X77215Y13714D1*
X77195Y13913D1*
X77201Y14113D1*
X77232Y14310D1*
X77288Y14502D1*
X77369Y14685D1*
X77473Y14856D1*
X77598Y15012D1*
X77742Y15150D1*
X77857Y15236D1*
X77677Y15387D1*
X77541Y15534D1*
X77425Y15696D1*
X77331Y15873D1*
X77261Y16060D1*
X77215Y16254D1*
X77195Y16453D1*
X77201Y16653D1*
X77232Y16850D1*
X77288Y17042D1*
X77369Y17225D1*
X77473Y17396D1*
X77598Y17552D1*
X77742Y17690D1*
X77857Y17776D1*
X77677Y17927D1*
X77541Y18074D1*
X77425Y18236D1*
X77331Y18413D1*
X77261Y18600D1*
X77215Y18794D1*
X77195Y18993D1*
X77201Y19193D1*
X77232Y19390D1*
X77288Y19582D1*
X77369Y19765D1*
X77473Y19936D1*
X77598Y20092D1*
X77742Y20230D1*
X77857Y20316D1*
X77649Y20495D1*
X77492Y20677D1*
X77366Y20881D1*
X77273Y21102D1*
X77215Y21334D1*
X77194Y21573D1*
X77210Y21812D1*
X77263Y22046D1*
X77335Y22234D1*
X74796D1*
Y26026D1*
X74996D1*
Y47616D2*
X77489D1*
Y46960D1*
X77824Y46966D1*
X78077Y47117D1*
X78263Y47190D1*
X78456Y47240D1*
X78655Y47264D1*
X78855Y47262D1*
X79052Y47234D1*
X79245Y47181D1*
X79429Y47104D1*
X79602Y47003D1*
X79761Y46881D1*
X79902Y46740D1*
X80024Y46582D1*
X80124Y46409D1*
X80201Y46224D1*
X80254Y46032D1*
X80286Y45720D1*
X80273Y45521D1*
X80235Y45324D1*
X80171Y45135D1*
X80084Y44955D1*
X79974Y44788D1*
X79843Y44637D1*
X79617Y44451D1*
X79761Y44341D1*
X79928Y44170D1*
X80067Y43974D1*
X80173Y43759D1*
X80246Y43531D1*
X80282Y43294D1*
X80281Y43060D1*
X80244Y42823D1*
X80171Y42595D1*
X80063Y42381D1*
X79924Y42186D1*
X79756Y42015D1*
X79621Y41910D1*
X79761Y41801D1*
X79902Y41660D1*
X80024Y41502D1*
X80124Y41329D1*
X80201Y41144D1*
X80254Y40952D1*
X80286Y40640D1*
X80273Y40441D1*
X80235Y40244D1*
X80171Y40055D1*
X80084Y39875D1*
X79974Y39708D1*
X79843Y39557D1*
X79617Y39371D1*
X79761Y39261D1*
X79902Y39120D1*
X80024Y38962D1*
X80124Y38789D1*
X80201Y38604D1*
X80254Y38412D1*
X80286Y38100D1*
X80273Y37901D1*
X80235Y37704D1*
X80171Y37515D1*
X80084Y37335D1*
X79974Y37168D1*
X79843Y37017D1*
X79617Y36831D1*
X79761Y36721D1*
X79902Y36580D1*
X80024Y36422D1*
X80124Y36249D1*
X80201Y36064D1*
X80254Y35872D1*
X80286Y35560D1*
X80273Y35361D1*
X80235Y35164D1*
X80171Y34975D1*
X80084Y34795D1*
X79974Y34628D1*
X79843Y34477D1*
X79617Y34291D1*
X79761Y34181D1*
X79902Y34040D1*
X80024Y33882D1*
X80124Y33709D1*
X80201Y33524D1*
X80254Y33332D1*
X80286Y33020D1*
X80273Y32821D1*
X80235Y32624D1*
X80171Y32435D1*
X80084Y32255D1*
X79974Y32088D1*
X79843Y31937D1*
X79617Y31751D1*
X79761Y31641D1*
X79902Y31500D1*
X80024Y31342D1*
X80124Y31169D1*
X80201Y30984D1*
X80254Y30792D1*
X80286Y30480D1*
X80273Y30281D1*
X80235Y30084D1*
X80171Y29895D1*
X80084Y29715D1*
X79974Y29548D1*
X79843Y29397D1*
X79617Y29211D1*
X79761Y29101D1*
X79928Y28930D1*
X80067Y28734D1*
X80173Y28519D1*
X80246Y28291D1*
X80282Y28054D1*
X80281Y27820D1*
X80244Y27583D1*
X80171Y27355D1*
X80063Y27141D1*
X79924Y26946D1*
X79756Y26775D1*
X79563Y26632D1*
X79351Y26520D1*
X79124Y26443D1*
X78888Y26401D1*
X78648Y26397D1*
X78411Y26429D1*
X78181Y26498D1*
X77965Y26602D1*
X77768Y26738D1*
X77594Y26903D1*
X77447Y27093D1*
X77331Y27303D1*
X77250Y27528D1*
X77204Y27763D1*
X77195Y28003D1*
X77224Y28241D1*
X77288Y28472D1*
X77388Y28690D1*
X77520Y28890D1*
X77682Y29067D1*
X77860Y29211D1*
X77677Y29357D1*
X77541Y29504D1*
X77425Y29666D1*
X77331Y29843D1*
X77261Y30030D1*
X77215Y30224D1*
X77195Y30423D1*
X77201Y30623D1*
X77232Y30820D1*
X77288Y31012D1*
X77369Y31195D1*
X77473Y31366D1*
X77598Y31522D1*
X77742Y31660D1*
X77857Y31746D1*
X77677Y31897D1*
X77541Y32044D1*
X77425Y32206D1*
X77331Y32383D1*
X77261Y32570D1*
X77215Y32764D1*
X77195Y32963D1*
X77201Y33163D1*
X77232Y33360D1*
X77288Y33552D1*
X77369Y33735D1*
X77473Y33906D1*
X77598Y34062D1*
X77742Y34200D1*
X77857Y34286D1*
X77677Y34437D1*
X77541Y34584D1*
X77425Y34746D1*
X77331Y34923D1*
X77261Y35110D1*
X77215Y35304D1*
X77195Y35503D1*
X77201Y35703D1*
X77232Y35900D1*
X77288Y36092D1*
X77369Y36275D1*
X77473Y36446D1*
X77598Y36602D1*
X77742Y36740D1*
X77857Y36826D1*
X77677Y36977D1*
X77541Y37124D1*
X77425Y37286D1*
X77331Y37463D1*
X77261Y37650D1*
X77215Y37844D1*
X77195Y38043D1*
X77201Y38243D1*
X77232Y38440D1*
X77288Y38632D1*
X77369Y38815D1*
X77473Y38986D1*
X77598Y39142D1*
X77742Y39280D1*
X77857Y39366D1*
X77677Y39517D1*
X77541Y39664D1*
X77425Y39826D1*
X77331Y40003D1*
X77261Y40190D1*
X77215Y40384D1*
X77195Y40583D1*
X77201Y40783D1*
X77232Y40980D1*
X77288Y41172D1*
X77369Y41355D1*
X77473Y41526D1*
X77598Y41682D1*
X77742Y41820D1*
X77857Y41906D1*
X77649Y42085D1*
X77492Y42267D1*
X77366Y42471D1*
X77273Y42692D1*
X77215Y42924D1*
X77194Y43163D1*
X77210Y43402D1*
X77263Y43636D1*
X77335Y43824D1*
X74796D1*
Y47616D1*
X74996D1*
Y69206D2*
X77489D1*
Y68550D1*
X77824Y68556D1*
X78077Y68707D1*
X78263Y68780D1*
X78456Y68830D1*
X78655Y68854D1*
X78855Y68852D1*
X79052Y68824D1*
X79245Y68771D1*
X79429Y68694D1*
X79602Y68593D1*
X79761Y68471D1*
X79902Y68330D1*
X80024Y68172D1*
X80124Y67999D1*
X80201Y67814D1*
X80254Y67622D1*
X80286Y67310D1*
X80273Y67111D1*
X80235Y66914D1*
X80171Y66725D1*
X80084Y66545D1*
X79974Y66378D1*
X79843Y66227D1*
X79617Y66041D1*
X79761Y65931D1*
X79928Y65760D1*
X80067Y65564D1*
X80173Y65349D1*
X80246Y65121D1*
X80282Y64884D1*
X80281Y64650D1*
X80244Y64413D1*
X80171Y64185D1*
X80063Y63971D1*
X79924Y63776D1*
X79756Y63605D1*
X79621Y63500D1*
X79761Y63391D1*
X79902Y63250D1*
X80024Y63092D1*
X80124Y62919D1*
X80201Y62734D1*
X80254Y62542D1*
X80286Y62230D1*
X80273Y62031D1*
X80235Y61834D1*
X80171Y61645D1*
X80084Y61465D1*
X79974Y61298D1*
X79843Y61147D1*
X79617Y60961D1*
X79761Y60851D1*
X79902Y60710D1*
X80024Y60552D1*
X80124Y60379D1*
X80201Y60194D1*
X80254Y60002D1*
X80286Y59690D1*
X80273Y59491D1*
X80235Y59294D1*
X80171Y59105D1*
X80084Y58925D1*
X79974Y58758D1*
X79843Y58607D1*
X79617Y58421D1*
X79761Y58311D1*
X79902Y58170D1*
X80024Y58012D1*
X80124Y57839D1*
X80201Y57654D1*
X80254Y57462D1*
X80286Y57150D1*
X80273Y56951D1*
X80235Y56754D1*
X80171Y56565D1*
X80084Y56385D1*
X79974Y56218D1*
X79843Y56067D1*
X79617Y55881D1*
X79761Y55771D1*
X79902Y55630D1*
X80024Y55472D1*
X80124Y55299D1*
X80201Y55114D1*
X80254Y54922D1*
X80286Y54610D1*
X80273Y54411D1*
X80235Y54214D1*
X80171Y54025D1*
X80084Y53845D1*
X79974Y53678D1*
X79843Y53527D1*
X79617Y53341D1*
X79761Y53231D1*
X79902Y53090D1*
X80024Y52932D1*
X80124Y52759D1*
X80201Y52574D1*
X80254Y52382D1*
X80286Y52070D1*
X80273Y51871D1*
X80235Y51674D1*
X80171Y51485D1*
X80084Y51305D1*
X79974Y51138D1*
X79843Y50987D1*
X79617Y50801D1*
X79761Y50691D1*
X79928Y50520D1*
X80067Y50324D1*
X80173Y50109D1*
X80246Y49881D1*
X80282Y49644D1*
X80281Y49410D1*
X80244Y49173D1*
X80171Y48945D1*
X80063Y48731D1*
X79924Y48536D1*
X79756Y48365D1*
X79563Y48222D1*
X79351Y48110D1*
X79124Y48033D1*
X78888Y47991D1*
X78648Y47987D1*
X78411Y48019D1*
X78181Y48088D1*
X77965Y48192D1*
X77768Y48328D1*
X77594Y48493D1*
X77447Y48683D1*
X77331Y48893D1*
X77250Y49118D1*
X77204Y49353D1*
X77195Y49593D1*
X77224Y49831D1*
X77288Y50062D1*
X77388Y50280D1*
X77520Y50480D1*
X77682Y50657D1*
X77860Y50801D1*
X77677Y50947D1*
X77541Y51094D1*
X77425Y51256D1*
X77331Y51433D1*
X77261Y51620D1*
X77215Y51814D1*
X77195Y52013D1*
X77201Y52213D1*
X77232Y52410D1*
X77288Y52602D1*
X77369Y52785D1*
X77473Y52956D1*
X77598Y53112D1*
X77742Y53250D1*
X77857Y53336D1*
X77677Y53487D1*
X77541Y53634D1*
X77425Y53796D1*
X77331Y53973D1*
X77261Y54160D1*
X77215Y54354D1*
X77195Y54553D1*
X77201Y54753D1*
X77232Y54950D1*
X77288Y55142D1*
X77369Y55325D1*
X77473Y55496D1*
X77598Y55652D1*
X77742Y55790D1*
X77857Y55876D1*
X77677Y56027D1*
X77541Y56174D1*
X77425Y56336D1*
X77331Y56513D1*
X77261Y56700D1*
X77215Y56894D1*
X77195Y57093D1*
X77201Y57293D1*
X77232Y57490D1*
X77288Y57682D1*
X77369Y57865D1*
X77473Y58036D1*
X77598Y58192D1*
X77742Y58330D1*
X77857Y58416D1*
X77677Y58567D1*
X77541Y58714D1*
X77425Y58876D1*
X77331Y59053D1*
X77261Y59240D1*
X77215Y59434D1*
X77195Y59633D1*
X77201Y59833D1*
X77232Y60030D1*
X77288Y60222D1*
X77369Y60405D1*
X77473Y60576D1*
X77598Y60732D1*
X77742Y60870D1*
X77857Y60956D1*
X77677Y61107D1*
X77541Y61254D1*
X77425Y61416D1*
X77331Y61593D1*
X77261Y61780D1*
X77215Y61974D1*
X77195Y62173D1*
X77201Y62373D1*
X77232Y62570D1*
X77288Y62762D1*
X77369Y62945D1*
X77473Y63116D1*
X77598Y63272D1*
X77742Y63410D1*
X77857Y63496D1*
X77649Y63675D1*
X77492Y63857D1*
X77366Y64061D1*
X77273Y64282D1*
X77215Y64514D1*
X77194Y64753D1*
X77210Y64992D1*
X77263Y65226D1*
X77335Y65414D1*
X74796D1*
Y69206D1*
X74996D1*
X43354Y5424D2*
X45746D1*
Y2832D1*
X43154D1*
X43145Y3734D1*
X43070Y3549D1*
X42967Y3378D1*
X42839Y3224D1*
X42689Y3092D1*
X42521Y2985D1*
X42338Y2905D1*
X42144Y2853D1*
X41946Y2833D1*
X41746Y2842D1*
X41551Y2883D1*
X41363Y2953D1*
X41189Y3051D1*
X41032Y3174D1*
X40896Y3321D1*
X40784Y3486D1*
X40699Y3667D1*
X40642Y3858D1*
X40616Y4057D1*
X40620Y4256D1*
X40655Y4453D1*
X40720Y4642D1*
X40813Y4819D1*
X40933Y4979D1*
X41075Y5119D1*
X41237Y5236D1*
X41416Y5326D1*
X41606Y5388D1*
X41803Y5420D1*
X42003Y5421D1*
X42200Y5391D1*
X42391Y5331D1*
X42570Y5243D1*
X42734Y5128D1*
X42878Y4990D1*
X42999Y4831D1*
X43094Y4655D1*
X43155Y4485D1*
X43154Y5424D1*
X43354D1*
X21129Y5423D2*
X23521D1*
Y2832D1*
X20929D1*
X20920Y3734D1*
X20845Y3549D1*
X20742Y3377D1*
X20614Y3224D1*
X20464Y3092D1*
X20296Y2984D1*
X20113Y2904D1*
X19919Y2853D1*
X19721Y2832D1*
X19521Y2842D1*
X19326Y2882D1*
X19138Y2952D1*
X18964Y3050D1*
X18807Y3174D1*
X18671Y3320D1*
X18559Y3486D1*
X18474Y3666D1*
X18417Y3858D1*
X18391Y4056D1*
X18395Y4256D1*
X18430Y4453D1*
X18495Y4641D1*
X18588Y4818D1*
X18708Y4979D1*
X18850Y5119D1*
X19012Y5235D1*
X19191Y5326D1*
X19381Y5387D1*
X19578Y5419D1*
X19778Y5420D1*
X19975Y5391D1*
X20166Y5331D1*
X20345Y5243D1*
X20509Y5128D1*
X20653Y4989D1*
X20774Y4830D1*
X20869Y4655D1*
X20930Y4484D1*
X20929Y5423D1*
X21129D1*
X12556D2*
X14949D1*
Y2832D1*
X12356D1*
X12347Y3734D1*
X12272Y3549D1*
X12169Y3377D1*
X12041Y3224D1*
X11892Y3092D1*
X11723Y2984D1*
X11540Y2904D1*
X11347Y2853D1*
X11148Y2832D1*
X10949Y2842D1*
X10753Y2882D1*
X10566Y2952D1*
X10392Y3050D1*
X10235Y3174D1*
X10099Y3320D1*
X9987Y3486D1*
X9901Y3666D1*
X9845Y3858D1*
X9818Y4056D1*
X9823Y4256D1*
X9858Y4453D1*
X9923Y4641D1*
X10016Y4818D1*
X10135Y4979D1*
X10278Y5119D1*
X10440Y5235D1*
X10618Y5326D1*
X10808Y5387D1*
X11005Y5419D1*
X11205Y5420D1*
X11403Y5391D1*
X11593Y5331D1*
X11773Y5243D1*
X11936Y5128D1*
X12080Y4989D1*
X12201Y4830D1*
X12296Y4655D1*
X12357Y4484D1*
X12356Y5423D1*
X12556D1*
X58980Y100925D2*
X58957Y100727D1*
X58901Y100535D1*
X58814Y100355D1*
X58698Y100192D1*
X58557Y100051D1*
X58394Y99936D1*
X58214Y99849D1*
X58022Y99793D1*
X57824Y99770D1*
X57624Y99780D1*
X57447Y99818D1*
X61167Y96099D1*
Y97167D1*
X59797Y98532D1*
X59677Y98691D1*
X59602Y98876D1*
X59579Y99060D1*
Y106998D1*
X59606Y107195D1*
X59684Y107379D1*
X59797Y107525D1*
X62286Y110013D1*
X62041Y109895D1*
X61848Y109842D1*
X61650Y109818D1*
X61450Y109825D1*
X61254Y109862D1*
X61118Y109910D1*
X57231Y106023D1*
X57359Y106082D1*
X57550Y106138D1*
X57749Y106160D1*
X57948Y106150D1*
X58143Y106106D1*
X58328Y106030D1*
X58498Y105925D1*
X58648Y105793D1*
X58774Y105638D1*
X58872Y105464D1*
X58940Y105276D1*
X58981Y104965D1*
X58964Y104766D1*
X58915Y104572D1*
X58834Y104390D1*
X58723Y104223D1*
X58587Y104078D1*
X58443Y103968D1*
X58648Y103793D1*
X58774Y103638D1*
X58872Y103464D1*
X58940Y103276D1*
X58981Y102965D1*
X58964Y102766D1*
X58915Y102572D1*
X58834Y102390D1*
X58723Y102223D1*
X58587Y102078D1*
X58443Y101968D1*
X58620Y101822D1*
X58751Y101671D1*
X58855Y101500D1*
X58929Y101314D1*
X58971Y101119D1*
X58980Y100925D1*
X9861Y29808D2*
X9824Y29669D1*
X9962Y29707D1*
X10161Y29724D1*
X10360Y29707D1*
X10553Y29655D1*
X10734Y29571D1*
X10897Y29456D1*
X11039Y29315D1*
X11153Y29151D1*
X11238Y28970D1*
X11290Y28778D1*
X11307Y28578D1*
X11290Y28379D1*
X11238Y28186D1*
X11154Y28005D1*
X11039Y27841D1*
X10898Y27700D1*
X10734Y27586D1*
X10553Y27501D1*
X10360Y27449D1*
X10161Y27432D1*
X9962Y27449D1*
X9769Y27501D1*
X9588Y27585D1*
X9425Y27700D1*
X9283Y27841D1*
X9169Y28005D1*
X9084Y28186D1*
X9033Y28379D1*
X9015Y28578D1*
X9032Y28777D1*
X9070Y28915D1*
X8931Y28878D1*
X8732Y28861D1*
X8533Y28878D1*
X8340Y28930D1*
X8159Y29014D1*
X7996Y29129D1*
X7854Y29270D1*
X7740Y29434D1*
X7655Y29615D1*
X7604Y29808D1*
X7586Y30007D1*
X7604Y30206D1*
X7655Y30399D1*
X7740Y30580D1*
X7854Y30743D1*
X7995Y30885D1*
X8159Y30999D1*
X8340Y31084D1*
X8533Y31135D1*
X8732Y31153D1*
X8931Y31136D1*
X9124Y31084D1*
X9305Y31000D1*
X9468Y30885D1*
X9610Y30744D1*
X9724Y30580D1*
X9809Y30399D1*
X9861Y30206D1*
X9878Y30007D1*
X9861Y29808D1*
X67173Y22636D2*
X68810D1*
X68804Y23790D1*
Y37059D1*
X67758Y37054D1*
X67172D1*
X66994Y36884D1*
X66917Y36831D1*
X67061Y36721D1*
X67202Y36580D1*
X67324Y36422D1*
X67424Y36249D1*
X67501Y36064D1*
X67554Y35872D1*
X67586Y35560D1*
X67573Y35361D1*
X67535Y35164D1*
X67471Y34975D1*
X67384Y34795D1*
X67274Y34628D1*
X67143Y34477D1*
X66917Y34291D1*
X67061Y34181D1*
X67202Y34040D1*
X67324Y33882D1*
X67424Y33709D1*
X67501Y33524D1*
X67554Y33332D1*
X67586Y33020D1*
X67573Y32821D1*
X67535Y32624D1*
X67471Y32435D1*
X67384Y32255D1*
X67274Y32088D1*
X67143Y31937D1*
X66917Y31751D1*
X67061Y31641D1*
X67202Y31500D1*
X67324Y31342D1*
X67424Y31169D1*
X67501Y30984D1*
X67554Y30792D1*
X67586Y30480D1*
X67573Y30281D1*
X67535Y30084D1*
X67471Y29895D1*
X67384Y29715D1*
X67274Y29548D1*
X67143Y29397D1*
X66917Y29211D1*
X67061Y29101D1*
X67202Y28960D1*
X67324Y28802D1*
X67424Y28629D1*
X67501Y28444D1*
X67554Y28252D1*
X67586Y27940D1*
X67573Y27741D1*
X67535Y27544D1*
X67471Y27355D1*
X67384Y27175D1*
X67274Y27008D1*
X67143Y26857D1*
X66994Y26724D1*
X66829Y26611D1*
X66651Y26520D1*
X66463Y26453D1*
X66268Y26411D1*
X66068Y26394D1*
X65869Y26403D1*
X65672Y26438D1*
X65481Y26498D1*
X65300Y26583D1*
X65131Y26689D1*
X64977Y26817D1*
X64841Y26964D1*
X64687Y27198D1*
X64294Y27194D1*
X64096Y27221D1*
X63913Y27299D1*
X63766Y27412D1*
X62659Y28520D1*
Y28404D1*
X63710Y27356D1*
X63831Y27198D1*
X63905Y27013D1*
X63929Y26829D1*
Y10622D1*
X64775Y9781D1*
X64898Y9932D1*
X65042Y10070D1*
X65157Y10156D1*
X64977Y10307D1*
X64841Y10454D1*
X64725Y10616D1*
X64631Y10793D1*
X64561Y10980D1*
X64515Y11174D1*
X64495Y11373D1*
X64501Y11573D1*
X64532Y11770D1*
X64588Y11962D1*
X64669Y12145D1*
X64773Y12316D1*
X64898Y12472D1*
X65042Y12610D1*
X65157Y12696D1*
X64977Y12847D1*
X64841Y12994D1*
X64725Y13156D1*
X64631Y13333D1*
X64561Y13520D1*
X64515Y13714D1*
X64495Y13913D1*
X64501Y14113D1*
X64532Y14310D1*
X64588Y14502D1*
X64669Y14685D1*
X64773Y14856D1*
X64898Y15012D1*
X65042Y15150D1*
X65157Y15236D1*
X64977Y15387D1*
X64841Y15534D1*
X64725Y15696D1*
X64631Y15873D1*
X64561Y16060D1*
X64515Y16254D1*
X64495Y16453D1*
X64501Y16653D1*
X64532Y16850D1*
X64588Y17042D1*
X64669Y17225D1*
X64773Y17396D1*
X64898Y17552D1*
X65042Y17690D1*
X65157Y17776D1*
X64977Y17927D1*
X64841Y18074D1*
X64725Y18236D1*
X64631Y18413D1*
X64561Y18600D1*
X64515Y18794D1*
X64495Y18993D1*
X64501Y19193D1*
X64532Y19390D1*
X64588Y19582D1*
X64669Y19765D1*
X64773Y19936D1*
X64898Y20092D1*
X65042Y20230D1*
X65157Y20316D1*
X64977Y20467D1*
X64841Y20614D1*
X64725Y20776D1*
X64631Y20953D1*
X64561Y21140D1*
X64515Y21334D1*
X64495Y21533D1*
X64501Y21733D1*
X64532Y21930D1*
X64588Y22122D1*
X64669Y22305D1*
X64773Y22476D1*
X64898Y22632D1*
X65042Y22770D1*
X65157Y22856D1*
X64977Y23007D1*
X64841Y23154D1*
X64725Y23316D1*
X64631Y23493D1*
X64561Y23680D1*
X64515Y23874D1*
X64495Y24073D1*
X64501Y24273D1*
X64532Y24470D1*
X64588Y24662D1*
X64669Y24845D1*
X64773Y25016D1*
X64898Y25172D1*
X65042Y25310D1*
X65202Y25429D1*
X65377Y25527D1*
X65563Y25600D1*
X65756Y25650D1*
X65955Y25674D1*
X66155Y25672D1*
X66352Y25644D1*
X66545Y25591D1*
X66729Y25514D1*
X66902Y25413D1*
X67061Y25291D1*
X67202Y25150D1*
X67324Y24992D1*
X67424Y24819D1*
X67501Y24634D1*
X67554Y24442D1*
X67586Y24130D1*
X67573Y23931D1*
X67535Y23734D1*
X67471Y23545D1*
X67384Y23365D1*
X67274Y23198D1*
X67143Y23047D1*
X66917Y22861D1*
X67061Y22751D1*
X67180Y22632D1*
X68802Y15464D2*
X67180D1*
X66994Y15294D1*
X66917Y15241D1*
X67061Y15131D1*
X67202Y14990D1*
X67324Y14832D1*
X67424Y14659D1*
X67501Y14474D1*
X67554Y14282D1*
X67586Y13970D1*
X67573Y13771D1*
X67535Y13574D1*
X67471Y13385D1*
X67384Y13205D1*
X67274Y13038D1*
X67143Y12887D1*
X66917Y12701D1*
X67061Y12591D1*
X67202Y12450D1*
X67324Y12292D1*
X67424Y12119D1*
X67501Y11934D1*
X67554Y11742D1*
X67586Y11430D1*
X67573Y11231D1*
X67535Y11034D1*
X67471Y10845D1*
X67384Y10665D1*
X67274Y10498D1*
X67143Y10347D1*
X66917Y10161D1*
X67061Y10051D1*
X67202Y9910D1*
X67324Y9752D1*
X67424Y9579D1*
X67501Y9394D1*
X67554Y9202D1*
X67586Y8890D1*
X67573Y8691D1*
X67535Y8494D1*
X67471Y8305D1*
X67384Y8125D1*
X67274Y7958D1*
X67143Y7807D1*
X66917Y7621D1*
X67061Y7511D1*
X67202Y7370D1*
X67324Y7212D1*
X67424Y7039D1*
X67501Y6854D1*
X67554Y6662D1*
X67586Y6350D1*
X67573Y6151D1*
X67535Y5954D1*
X67471Y5765D1*
X67384Y5585D1*
X67274Y5418D1*
X67143Y5267D1*
X67036Y5171D1*
X67511Y5173D1*
X68801Y6463D1*
X68804Y12432D1*
Y15461D1*
X68754Y15470D1*
X86269Y76001D2*
X86220Y75807D1*
X86139Y75625D1*
X86028Y75458D1*
X85892Y75312D1*
X85733Y75191D1*
X85556Y75099D1*
X85366Y75036D1*
X85169Y75007D1*
X84969Y75010D1*
X84773Y75047D1*
X84585Y75116D1*
X84412Y75215D1*
X84257Y75342D1*
X84126Y75492D1*
X84022Y75663D1*
X83947Y75848D1*
X83904Y76043D1*
X83895Y76243D1*
X83919Y76441D1*
X83975Y76633D1*
X84063Y76812D1*
X84179Y76975D1*
X84320Y77115D1*
X84438Y77198D1*
X84257Y77342D1*
X84126Y77492D1*
X84022Y77663D1*
X83947Y77848D1*
X83904Y78043D1*
X83895Y78243D1*
X83919Y78441D1*
X83975Y78633D1*
X84063Y78812D1*
X84179Y78975D1*
X84320Y79115D1*
X84438Y79198D1*
X84257Y79342D1*
X84126Y79492D1*
X84022Y79663D1*
X83947Y79848D1*
X83904Y80043D1*
X83895Y80243D1*
X83919Y80441D1*
X83975Y80633D1*
X84063Y80812D1*
X84179Y80975D1*
X84320Y81115D1*
X84438Y81198D1*
X84257Y81342D1*
X84126Y81492D1*
X84022Y81663D1*
X83947Y81848D1*
X83904Y82043D1*
X83895Y82243D1*
X83919Y82441D1*
X83975Y82633D1*
X84063Y82812D1*
X84179Y82975D1*
X84320Y83115D1*
X84484Y83231D1*
X84664Y83317D1*
X84855Y83373D1*
X85054Y83395D1*
X85253Y83385D1*
X85448Y83341D1*
X85633Y83265D1*
X85803Y83160D1*
X85953Y83028D1*
X86079Y82873D1*
X86177Y82699D1*
X86245Y82511D1*
X86286Y82200D1*
X86269Y82001D1*
X86220Y81807D1*
X86139Y81625D1*
X86028Y81458D1*
X85892Y81312D1*
X85748Y81203D1*
X85953Y81028D1*
X86079Y80873D1*
X86177Y80699D1*
X86245Y80511D1*
X86286Y80200D1*
X86269Y80001D1*
X86220Y79807D1*
X86139Y79625D1*
X86028Y79458D1*
X85892Y79312D1*
X85748Y79203D1*
X85953Y79028D1*
X86079Y78873D1*
X86177Y78699D1*
X86245Y78511D1*
X86286Y78200D1*
X86269Y78001D1*
X86220Y77807D1*
X86139Y77625D1*
X86028Y77458D1*
X85892Y77312D1*
X85748Y77203D1*
X85953Y77028D1*
X86079Y76873D1*
X86177Y76699D1*
X86245Y76511D1*
X86286Y76200D1*
X86269Y76001D1*
X65040Y5175D2*
X64841Y5374D1*
X64687Y5608D1*
X64453Y5604D1*
X64255Y5631D1*
X64071Y5709D1*
X63925Y5823D1*
X61385Y8362D1*
X61264Y8521D1*
X61190Y8706D1*
X61167Y8890D1*
Y26046D1*
X60115Y27095D1*
X59994Y27254D1*
X59920Y27439D1*
X59897Y27623D1*
Y29629D1*
X59739Y29546D1*
X59547Y29492D1*
X59348Y29477D1*
X59150Y29502D1*
X58961Y29566D1*
X58788Y29665D1*
X58638Y29797D1*
X58517Y29956D1*
X58430Y30136D1*
X58381Y30330D1*
X58371Y30529D1*
X58400Y30726D1*
X58468Y30914D1*
X58572Y31085D1*
X58627Y31144D1*
Y35449D1*
X58440Y35282D1*
X58237Y35154D1*
X58015Y35065D1*
X57780Y35017D1*
X57541Y35011D1*
X57304Y35047D1*
X57077Y35125D1*
X56868Y35242D1*
X56683Y35394D1*
X56527Y35577D1*
X56407Y35784D1*
X56356Y35908D1*
X56301Y35773D1*
X56201Y35600D1*
X56078Y35443D1*
X55932Y35307D1*
X55767Y35193D1*
X55588Y35105D1*
X55398Y35044D1*
X55200Y35013D1*
X55001Y35011D1*
X54803Y35038D1*
X54611Y35094D1*
X54430Y35179D1*
X54263Y35289D1*
X54114Y35422D1*
X53987Y35577D1*
X53884Y35748D1*
X53815Y35915D1*
X53761Y35773D1*
X53661Y35600D1*
X53538Y35443D1*
X53392Y35307D1*
X53227Y35193D1*
X53048Y35105D1*
X52858Y35044D1*
X52660Y35013D1*
X52461Y35011D1*
X52263Y35038D1*
X52071Y35094D1*
X51890Y35179D1*
X51723Y35289D1*
X51575Y35422D1*
X51447Y35577D1*
X51344Y35748D1*
X51275Y35915D1*
X51221Y35773D1*
X51121Y35600D1*
X50998Y35443D1*
X50852Y35307D1*
X50687Y35193D1*
X50508Y35105D1*
X50318Y35044D1*
X50120Y35013D1*
X49921Y35011D1*
X49723Y35038D1*
X49531Y35094D1*
X49350Y35179D1*
X49183Y35289D1*
X49035Y35422D1*
X48907Y35577D1*
X48804Y35748D1*
X48728Y35932D1*
X48680Y36126D1*
X48661Y36325D1*
X48671Y36525D1*
X48711Y36720D1*
X48780Y36908D1*
X48875Y37084D1*
X48996Y37243D1*
X49139Y37383D1*
X49300Y37500D1*
X49567Y37622D1*
X49350Y37719D1*
X49183Y37829D1*
X49035Y37962D1*
X48907Y38117D1*
X48804Y38288D1*
X48728Y38472D1*
X48680Y38666D1*
X48661Y38865D1*
X48671Y39065D1*
X48711Y39261D1*
X48780Y39448D1*
X48875Y39624D1*
X48996Y39783D1*
X49139Y39923D1*
X49300Y40040D1*
X49478Y40132D1*
X49667Y40196D1*
X49864Y40232D1*
X50063Y40239D1*
X50262Y40215D1*
X50455Y40163D1*
X50638Y40083D1*
X50807Y39976D1*
X50958Y39846D1*
X51088Y39694D1*
X51195Y39525D1*
X51277Y39336D1*
X51320Y39448D1*
X51415Y39624D1*
X51536Y39783D1*
X51679Y39923D1*
X51840Y40040D1*
X52018Y40132D1*
X52207Y40196D1*
X52404Y40232D1*
X52603Y40239D1*
X52802Y40215D1*
X52995Y40163D1*
X53178Y40083D1*
X53347Y39976D1*
X53498Y39846D1*
X53628Y39694D1*
X53735Y39525D1*
X53817Y39336D1*
X53860Y39448D1*
X53955Y39624D1*
X54076Y39783D1*
X54219Y39923D1*
X54381Y40040D1*
X54558Y40132D1*
X54747Y40196D1*
X54944Y40232D1*
X55143Y40239D1*
X55342Y40215D1*
X55535Y40163D1*
X55718Y40083D1*
X55887Y39976D1*
X56038Y39846D1*
X56168Y39694D1*
X56282Y39508D1*
X56280Y40240D1*
X56374D1*
X55639Y40964D1*
X49599Y40958D1*
X47936Y39288D1*
X47942Y33406D1*
X60359Y20989D1*
X60484Y20834D1*
X60575Y20656D1*
X60620Y20491D1*
X60636Y20120D1*
Y10995D1*
X60615Y10797D1*
X60553Y10607D1*
X60469Y10458D1*
X60218Y10185D1*
X58931Y8899D1*
X59821Y8015D1*
X62663Y5174D1*
X65036Y5173D1*
X17165Y61622D2*
X17004Y61473D1*
X16842Y61357D1*
X16668Y61258D1*
X16484Y61180D1*
X16292Y61123D1*
X16096Y61088D1*
X15896Y61074D1*
X15696Y61083D1*
X15499Y61114D1*
X15306Y61166D1*
X15120Y61240D1*
X14944Y61334D1*
X14779Y61447D1*
X14628Y61578D1*
X14492Y61724D1*
X14373Y61885D1*
X14273Y62058D1*
X14193Y62241D1*
X14133Y62432D1*
X14095Y62628D1*
X14080Y62828D1*
X14086Y63028D1*
X14114Y63225D1*
X14165Y63419D1*
X14236Y63605D1*
X14328Y63783D1*
X14439Y63949D1*
X14568Y64102D1*
X14713Y64240D1*
X14873Y64360D1*
X15044Y64462D1*
X15227Y64545D1*
X15417Y64607D1*
X15612Y64647D1*
X15812Y64665D1*
X16011Y64661D1*
X16210Y64635D1*
X16404Y64586D1*
X16591Y64517D1*
X16770Y64427D1*
X16937Y64318D1*
X17166Y64115D1*
X17906Y64116D1*
X20663Y66876D1*
X20662Y96957D1*
Y101282D1*
X20678Y101482D1*
X20725Y101676D1*
X20803Y101860D1*
X20910Y102029D1*
X21026Y102164D1*
X25742Y106879D1*
Y107656D1*
X25497Y107905D1*
X25272Y108235D1*
X25115Y108602D1*
X25032Y108993D1*
X25026Y109392D1*
X25099Y109785D1*
X25246Y110156D1*
X25462Y110492D1*
X25740Y110779D1*
X26068Y111007D1*
X26434Y111166D1*
X26824Y111252D1*
X27223Y111260D1*
X27617Y111190D1*
X27989Y111046D1*
X28326Y110831D1*
X28615Y110556D1*
X28845Y110229D1*
X29007Y109864D1*
X29095Y109475D1*
X29111Y109220D1*
X29072Y108823D1*
X28957Y108440D1*
X28769Y108088D1*
X28517Y107778D1*
X28234Y107542D1*
Y106362D1*
X28217Y106163D1*
X28170Y105969D1*
X28092Y105785D1*
X27985Y105616D1*
X27869Y105481D1*
X23153Y100766D1*
Y66358D1*
X23137Y66158D1*
X23090Y65964D1*
X23012Y65780D1*
X22905Y65611D1*
X22789Y65476D1*
X19301Y61989D1*
X19149Y61859D1*
X18978Y61756D1*
X18793Y61681D1*
X18598Y61637D1*
X18420Y61624D1*
X17164D1*
X4971Y40600D2*
X4943Y40322D1*
X4872Y40051D1*
X4760Y39795D1*
X4609Y39559D1*
X4424Y39349D1*
X4208Y39171D1*
X3968Y39028D1*
X3708Y38925D1*
X3435Y38863D1*
X3156Y38844D1*
X2878Y38869D1*
X2606Y38936D1*
X2348Y39045D1*
X2111Y39193D1*
X1899Y39376D1*
X1718Y39589D1*
X1573Y39828D1*
X1466Y40087D1*
X1401Y40359D1*
X1379Y40638D1*
X1400Y40917D1*
X1465Y41189D1*
X1571Y41448D1*
X1716Y41687D1*
X1896Y41901D1*
X2107Y42084D1*
X2344Y42232D1*
X2602Y42342D1*
X2873Y42410D1*
X3152Y42436D1*
X3431Y42418D1*
X3704Y42356D1*
X3964Y42254D1*
X4205Y42112D1*
X4421Y41934D1*
X4606Y41725D1*
X4758Y41489D1*
X4870Y41233D1*
X4942Y40963D1*
X4970Y40685D1*
X4971Y40600D1*
Y62830D2*
X4943Y62552D1*
X4872Y62281D1*
X4760Y62025D1*
X4609Y61789D1*
X4424Y61579D1*
X4208Y61401D1*
X3968Y61258D1*
X3708Y61155D1*
X3435Y61093D1*
X3156Y61074D1*
X2878Y61099D1*
X2606Y61166D1*
X2348Y61275D1*
X2111Y61423D1*
X1899Y61606D1*
X1718Y61819D1*
X1573Y62058D1*
X1466Y62317D1*
X1401Y62589D1*
X1379Y62868D1*
X1400Y63147D1*
X1465Y63419D1*
X1571Y63678D1*
X1716Y63917D1*
X1896Y64131D1*
X2107Y64314D1*
X2344Y64462D1*
X2602Y64572D1*
X2873Y64640D1*
X3152Y64666D1*
X3431Y64648D1*
X3704Y64586D1*
X3964Y64484D1*
X4205Y64342D1*
X4421Y64164D1*
X4606Y63955D1*
X4758Y63719D1*
X4870Y63463D1*
X4942Y63193D1*
X4970Y62915D1*
X4971Y62830D1*
X17660Y86155D2*
X17627Y85958D1*
X17572Y85766D1*
X17496Y85581D1*
X17400Y85406D1*
X17285Y85242D1*
X17152Y85093D1*
X17004Y84958D1*
X16842Y84842D1*
X16668Y84743D1*
X16484Y84665D1*
X16292Y84608D1*
X16096Y84573D1*
X15896Y84559D1*
X15696Y84568D1*
X15499Y84599D1*
X15306Y84651D1*
X15120Y84725D1*
X14944Y84819D1*
X14779Y84932D1*
X14628Y85063D1*
X14492Y85209D1*
X14373Y85370D1*
X14273Y85543D1*
X14193Y85726D1*
X14133Y85917D1*
X14095Y86113D1*
X14080Y86313D1*
X14086Y86513D1*
X14114Y86710D1*
X14165Y86904D1*
X14236Y87090D1*
X14328Y87268D1*
X14439Y87434D1*
X14568Y87587D1*
X14713Y87725D1*
X14873Y87845D1*
X15039Y87944D1*
X14779Y88112D1*
X14628Y88243D1*
X14492Y88389D1*
X14373Y88550D1*
X14273Y88723D1*
X14193Y88906D1*
X14133Y89097D1*
X14095Y89293D1*
X14080Y89493D1*
X14086Y89692D1*
X14114Y89890D1*
X14165Y90084D1*
X14236Y90270D1*
X14328Y90448D1*
X14439Y90614D1*
X14568Y90767D1*
X14713Y90905D1*
X14873Y91025D1*
X15039Y91124D1*
X14779Y91292D1*
X14628Y91423D1*
X14492Y91569D1*
X14373Y91730D1*
X14273Y91903D1*
X14193Y92086D1*
X14133Y92277D1*
X14095Y92473D1*
X14080Y92673D1*
X14086Y92873D1*
X14114Y93070D1*
X14165Y93264D1*
X14236Y93450D1*
X14328Y93628D1*
X14439Y93794D1*
X14568Y93947D1*
X14713Y94085D1*
X14873Y94205D1*
X15044Y94307D1*
X15227Y94390D1*
X15417Y94452D1*
X15612Y94492D1*
X15812Y94510D1*
X16011Y94506D1*
X16210Y94480D1*
X16404Y94431D1*
X16591Y94362D1*
X16770Y94272D1*
X16937Y94163D1*
X17092Y94036D1*
X17231Y93893D1*
X17353Y93735D1*
X17458Y93564D1*
X17542Y93383D1*
X17606Y93194D1*
X17649Y92998D1*
X17671Y92715D1*
X17660Y92515D1*
X17627Y92318D1*
X17572Y92126D1*
X17496Y91941D1*
X17400Y91766D1*
X17285Y91602D1*
X17152Y91453D1*
X17004Y91318D1*
X16706Y91125D1*
X16937Y90983D1*
X17092Y90856D1*
X17231Y90713D1*
X17353Y90555D1*
X17458Y90384D1*
X17542Y90203D1*
X17606Y90014D1*
X17649Y89818D1*
X17671Y89535D1*
X17660Y89335D1*
X17627Y89138D1*
X17572Y88946D1*
X17496Y88761D1*
X17400Y88586D1*
X17285Y88422D1*
X17152Y88273D1*
X17004Y88138D1*
X16706Y87945D1*
X16937Y87803D1*
X17092Y87676D1*
X17231Y87533D1*
X17353Y87375D1*
X17458Y87204D1*
X17542Y87023D1*
X17606Y86834D1*
X17649Y86638D1*
X17671Y86355D1*
X17660Y86155D1*
X4971Y76795D2*
X4943Y76517D1*
X4872Y76246D1*
X4760Y75990D1*
X4609Y75754D1*
X4424Y75544D1*
X4208Y75366D1*
X3968Y75223D1*
X3708Y75120D1*
X3435Y75058D1*
X3156Y75039D1*
X2878Y75064D1*
X2606Y75131D1*
X2348Y75240D1*
X2111Y75388D1*
X1899Y75571D1*
X1718Y75784D1*
X1573Y76023D1*
X1466Y76282D1*
X1401Y76554D1*
X1379Y76833D1*
X1400Y77112D1*
X1465Y77384D1*
X1571Y77643D1*
X1716Y77882D1*
X1896Y78096D1*
X2107Y78279D1*
X2344Y78427D1*
X2602Y78537D1*
X2873Y78605D1*
X3152Y78631D1*
X3431Y78613D1*
X3704Y78551D1*
X3964Y78449D1*
X4205Y78307D1*
X4421Y78129D1*
X4606Y77920D1*
X4758Y77684D1*
X4870Y77428D1*
X4942Y77158D1*
X4970Y76880D1*
X4971Y76795D1*
Y99025D2*
X4943Y98747D1*
X4872Y98476D1*
X4760Y98220D1*
X4609Y97984D1*
X4424Y97774D1*
X4208Y97596D1*
X3968Y97453D1*
X3708Y97350D1*
X3435Y97288D1*
X3156Y97269D1*
X2878Y97294D1*
X2606Y97361D1*
X2348Y97470D1*
X2111Y97618D1*
X1899Y97801D1*
X1718Y98014D1*
X1573Y98253D1*
X1466Y98512D1*
X1401Y98784D1*
X1379Y99063D1*
X1400Y99342D1*
X1465Y99614D1*
X1571Y99873D1*
X1716Y100112D1*
X1896Y100326D1*
X2107Y100509D1*
X2344Y100657D1*
X2602Y100767D1*
X2873Y100835D1*
X3152Y100861D1*
X3431Y100843D1*
X3704Y100781D1*
X3964Y100679D1*
X4205Y100537D1*
X4421Y100359D1*
X4606Y100150D1*
X4758Y99914D1*
X4870Y99658D1*
X4942Y99388D1*
X4970Y99110D1*
X4971Y99025D1*
X14111Y109180D2*
X14086Y108901D1*
X14024Y108629D1*
X13925Y108367D1*
X13791Y108121D1*
X13625Y107896D1*
X13430Y107696D1*
X13209Y107524D1*
X12967Y107383D1*
X12708Y107278D1*
X12437Y107208D1*
X12159Y107176D1*
X11879Y107182D1*
X11603Y107227D1*
X11335Y107309D1*
X11081Y107426D1*
X10846Y107577D1*
X10633Y107759D1*
X10447Y107968D1*
X10291Y108200D1*
X10169Y108452D1*
X10082Y108718D1*
X10032Y108993D1*
X10020Y109272D1*
X10046Y109551D1*
X10110Y109823D1*
X10211Y110084D1*
X10346Y110329D1*
X10513Y110553D1*
X10710Y110753D1*
X10931Y110923D1*
X11174Y111062D1*
X11434Y111166D1*
X11705Y111234D1*
X11983Y111264D1*
X12263Y111256D1*
X12539Y111210D1*
X12806Y111127D1*
X13059Y111008D1*
X13294Y110856D1*
X13506Y110673D1*
X13690Y110463D1*
X13845Y110229D1*
X13966Y109977D1*
X14051Y109711D1*
X14100Y109435D1*
X14111Y109180D1*
X24111D2*
X24086Y108901D1*
X24024Y108629D1*
X23925Y108367D1*
X23791Y108121D1*
X23625Y107896D1*
X23430Y107696D1*
X23209Y107524D1*
X22967Y107383D1*
X22708Y107278D1*
X22437Y107208D1*
X22159Y107176D1*
X21879Y107182D1*
X21603Y107227D1*
X21335Y107309D1*
X21081Y107426D1*
X20846Y107577D1*
X20633Y107759D1*
X20447Y107968D1*
X20291Y108200D1*
X20169Y108452D1*
X20082Y108718D1*
X20032Y108993D1*
X20020Y109272D1*
X20046Y109551D1*
X20110Y109823D1*
X20210Y110084D1*
X20346Y110329D1*
X20513Y110553D1*
X20710Y110753D1*
X20931Y110923D1*
X21174Y111062D1*
X21434Y111166D1*
X21705Y111234D1*
X21983Y111264D1*
X22263Y111256D1*
X22539Y111210D1*
X22806Y111127D1*
X23059Y111008D1*
X23294Y110856D1*
X23506Y110673D1*
X23690Y110463D1*
X23845Y110229D1*
X23966Y109977D1*
X24051Y109711D1*
X24100Y109435D1*
X24111Y109180D1*
X34111D2*
X34086Y108901D1*
X34024Y108629D1*
X33925Y108367D1*
X33791Y108121D1*
X33625Y107896D1*
X33430Y107696D1*
X33209Y107524D1*
X32967Y107383D1*
X32708Y107278D1*
X32437Y107208D1*
X32159Y107176D1*
X31879Y107182D1*
X31603Y107227D1*
X31335Y107309D1*
X31081Y107426D1*
X30846Y107577D1*
X30633Y107759D1*
X30447Y107968D1*
X30291Y108200D1*
X30169Y108452D1*
X30082Y108718D1*
X30032Y108993D1*
X30020Y109272D1*
X30046Y109551D1*
X30110Y109823D1*
X30210Y110084D1*
X30346Y110329D1*
X30513Y110553D1*
X30710Y110753D1*
X30931Y110923D1*
X31174Y111062D1*
X31434Y111166D1*
X31705Y111234D1*
X31983Y111264D1*
X32263Y111256D1*
X32539Y111210D1*
X32806Y111127D1*
X33059Y111008D1*
X33294Y110856D1*
X33506Y110673D1*
X33690Y110463D1*
X33845Y110229D1*
X33966Y109977D1*
X34051Y109711D1*
X34100Y109435D1*
X34111Y109180D1*
X16367Y23839D2*
X18759D1*
Y21247D1*
X17828D1*
X18123Y21118D1*
X18287Y21003D1*
X18431Y20865D1*
X18552Y20706D1*
X18647Y20530D1*
X18714Y20342D1*
X18751Y20146D1*
X18759Y20003D1*
X18744Y19804D1*
X18698Y19609D1*
X18623Y19424D1*
X18520Y19253D1*
X18392Y19099D1*
X18242Y18967D1*
X18074Y18860D1*
X17891Y18780D1*
X17716Y18733D1*
X17907Y18681D1*
X18123Y18578D1*
X18317Y18438D1*
X18482Y18264D1*
X18612Y18062D1*
X18703Y17840D1*
X18751Y17606D1*
X18757Y17383D1*
X18720Y17146D1*
X18640Y16920D1*
X18520Y16713D1*
X18364Y16531D1*
X18177Y16381D1*
X17965Y16268D1*
X17737Y16196D1*
X17721Y16193D1*
X17944Y16126D1*
X18123Y16038D1*
X18287Y15923D1*
X18431Y15785D1*
X18552Y15626D1*
X18647Y15450D1*
X18714Y15262D1*
X18751Y15066D1*
X18759Y14923D1*
X18744Y14724D1*
X18698Y14529D1*
X18623Y14344D1*
X18520Y14173D1*
X18392Y14019D1*
X18242Y13887D1*
X18074Y13780D1*
X17891Y13700D1*
X17716Y13653D1*
X17944Y13586D1*
X18123Y13498D1*
X18287Y13383D1*
X18431Y13245D1*
X18552Y13086D1*
X18647Y12910D1*
X18714Y12722D1*
X18751Y12526D1*
X18759Y12383D1*
X18744Y12184D1*
X18698Y11989D1*
X18623Y11804D1*
X18520Y11633D1*
X18392Y11479D1*
X18242Y11347D1*
X18074Y11240D1*
X17891Y11160D1*
X17716Y11113D1*
X17944Y11046D1*
X18123Y10958D1*
X18287Y10844D1*
X18431Y10705D1*
X18552Y10546D1*
X18647Y10370D1*
X18714Y10182D1*
X18751Y9986D1*
X18759Y9843D1*
X18744Y9644D1*
X18698Y9449D1*
X18623Y9264D1*
X18520Y9093D1*
X18392Y8939D1*
X18242Y8807D1*
X18074Y8700D1*
X17891Y8620D1*
X17697Y8568D1*
X17499Y8547D1*
X17299Y8557D1*
X17104Y8598D1*
X16916Y8668D1*
X16742Y8766D1*
X16585Y8889D1*
X16449Y9036D1*
X16337Y9201D1*
X16252Y9382D1*
X16195Y9573D1*
X16169Y9772D1*
X16173Y9971D1*
X16208Y10168D1*
X16273Y10357D1*
X16366Y10534D1*
X16486Y10694D1*
X16628Y10834D1*
X16790Y10951D1*
X16969Y11041D1*
X17214Y11112D1*
X16916Y11208D1*
X16742Y11306D1*
X16585Y11429D1*
X16449Y11576D1*
X16337Y11741D1*
X16252Y11922D1*
X16195Y12113D1*
X16169Y12312D1*
X16173Y12511D1*
X16208Y12708D1*
X16273Y12897D1*
X16366Y13074D1*
X16486Y13234D1*
X16628Y13374D1*
X16790Y13491D1*
X16969Y13581D1*
X17214Y13652D1*
X16916Y13748D1*
X16742Y13846D1*
X16585Y13969D1*
X16449Y14116D1*
X16337Y14281D1*
X16252Y14462D1*
X16195Y14653D1*
X16169Y14852D1*
X16173Y15051D1*
X16208Y15248D1*
X16273Y15437D1*
X16366Y15614D1*
X16486Y15774D1*
X16628Y15914D1*
X16790Y16031D1*
X16969Y16121D1*
X17214Y16192D1*
X16990Y16256D1*
X16776Y16364D1*
X16585Y16509D1*
X16425Y16687D1*
X16300Y16892D1*
X16214Y17116D1*
X16172Y17352D1*
X16173Y17591D1*
X16219Y17827D1*
X16307Y18049D1*
X16435Y18252D1*
X16598Y18428D1*
X16790Y18571D1*
X17006Y18676D1*
X17206Y18733D1*
X16916Y18828D1*
X16742Y18926D1*
X16585Y19049D1*
X16449Y19196D1*
X16337Y19361D1*
X16252Y19542D1*
X16195Y19733D1*
X16169Y19932D1*
X16173Y20131D1*
X16208Y20328D1*
X16273Y20517D1*
X16366Y20694D1*
X16486Y20854D1*
X16628Y20994D1*
X16790Y21111D1*
X16969Y21201D1*
X17117Y21249D1*
X16167Y21247D1*
Y21803D1*
X15869Y21797D1*
X11958Y17887D1*
X11799Y17767D1*
X11614Y17692D1*
X11430Y17669D1*
X5749D1*
X5624Y17573D1*
X5447Y17481D1*
X5255Y17427D1*
X5055Y17412D1*
X4857Y17437D1*
X4668Y17500D1*
X4495Y17600D1*
X4345Y17732D1*
X4225Y17891D1*
X4138Y18071D1*
X4088Y18265D1*
X4078Y18464D1*
X4108Y18661D1*
X4176Y18849D1*
X4280Y19020D1*
X4415Y19166D1*
X4577Y19283D1*
X4759Y19365D1*
X4954Y19410D1*
X5153Y19415D1*
X5350Y19381D1*
X5536Y19308D1*
X5744Y19161D1*
X11124D1*
X15031Y23070D1*
X15189Y23191D1*
X15374Y23266D1*
X15558Y23289D1*
X16164D1*
X16167Y23839D1*
X16367D1*
X86269Y11231D2*
X86220Y11037D1*
X86139Y10855D1*
X86028Y10688D1*
X85892Y10542D1*
X85733Y10421D1*
X85556Y10329D1*
X85366Y10266D1*
X85169Y10237D1*
X84969Y10240D1*
X84773Y10277D1*
X84585Y10346D1*
X84412Y10445D1*
X84257Y10572D1*
X84126Y10722D1*
X84022Y10893D1*
X83947Y11078D1*
X83904Y11273D1*
X83895Y11473D1*
X83919Y11671D1*
X83975Y11863D1*
X84063Y12042D1*
X84179Y12205D1*
X84320Y12345D1*
X84438Y12428D1*
X84257Y12572D1*
X84126Y12722D1*
X84022Y12893D1*
X83947Y13078D1*
X83904Y13273D1*
X83895Y13473D1*
X83919Y13671D1*
X83975Y13863D1*
X84063Y14042D1*
X84179Y14205D1*
X84320Y14345D1*
X84438Y14428D1*
X84257Y14572D1*
X84126Y14722D1*
X84022Y14893D1*
X83947Y15078D1*
X83904Y15273D1*
X83895Y15473D1*
X83919Y15671D1*
X83975Y15863D1*
X84063Y16042D1*
X84179Y16205D1*
X84320Y16345D1*
X84438Y16428D1*
X84257Y16572D1*
X84126Y16722D1*
X84022Y16893D1*
X83947Y17078D1*
X83904Y17273D1*
X83895Y17473D1*
X83919Y17671D1*
X83975Y17863D1*
X84063Y18042D1*
X84179Y18205D1*
X84320Y18345D1*
X84484Y18461D1*
X84664Y18547D1*
X84855Y18603D1*
X85054Y18625D1*
X85253Y18615D1*
X85448Y18571D1*
X85633Y18495D1*
X85803Y18390D1*
X85953Y18258D1*
X86079Y18103D1*
X86177Y17929D1*
X86245Y17741D1*
X86286Y17430D1*
X86269Y17231D1*
X86220Y17037D1*
X86139Y16855D1*
X86028Y16688D1*
X85892Y16543D1*
X85748Y16433D1*
X85953Y16258D1*
X86079Y16103D1*
X86177Y15929D1*
X86245Y15741D1*
X86286Y15430D1*
X86269Y15231D1*
X86220Y15037D1*
X86139Y14855D1*
X86028Y14688D1*
X85892Y14542D1*
X85748Y14433D1*
X85953Y14258D1*
X86079Y14103D1*
X86177Y13929D1*
X86245Y13741D1*
X86286Y13430D1*
X86269Y13231D1*
X86220Y13037D1*
X86139Y12855D1*
X86028Y12688D1*
X85892Y12542D1*
X85748Y12433D1*
X85953Y12258D1*
X86079Y12103D1*
X86177Y11929D1*
X86245Y11741D1*
X86286Y11430D1*
X86269Y11231D1*
Y32821D2*
X86220Y32627D1*
X86139Y32445D1*
X86028Y32278D1*
X85892Y32133D1*
X85733Y32011D1*
X85556Y31919D1*
X85366Y31856D1*
X85169Y31827D1*
X84969Y31830D1*
X84773Y31867D1*
X84585Y31936D1*
X84412Y32035D1*
X84257Y32162D1*
X84126Y32312D1*
X84022Y32483D1*
X83947Y32668D1*
X83904Y32863D1*
X83895Y33063D1*
X83919Y33261D1*
X83975Y33453D1*
X84063Y33632D1*
X84179Y33795D1*
X84320Y33935D1*
X84438Y34018D1*
X84257Y34162D1*
X84126Y34312D1*
X84022Y34483D1*
X83947Y34668D1*
X83904Y34863D1*
X83895Y35063D1*
X83919Y35261D1*
X83975Y35453D1*
X84063Y35632D1*
X84179Y35795D1*
X84320Y35935D1*
X84438Y36018D1*
X84257Y36162D1*
X84126Y36312D1*
X84022Y36483D1*
X83947Y36668D1*
X83904Y36863D1*
X83895Y37063D1*
X83919Y37261D1*
X83975Y37453D1*
X84063Y37632D1*
X84179Y37795D1*
X84320Y37935D1*
X84438Y38018D1*
X84257Y38162D1*
X84126Y38312D1*
X84022Y38483D1*
X83947Y38668D1*
X83904Y38863D1*
X83895Y39063D1*
X83919Y39261D1*
X83975Y39453D1*
X84063Y39632D1*
X84179Y39795D1*
X84320Y39935D1*
X84484Y40051D1*
X84664Y40137D1*
X84855Y40193D1*
X85054Y40215D1*
X85253Y40205D1*
X85448Y40161D1*
X85633Y40085D1*
X85803Y39980D1*
X85953Y39848D1*
X86079Y39693D1*
X86177Y39519D1*
X86245Y39331D1*
X86286Y39020D1*
X86269Y38821D1*
X86220Y38627D1*
X86139Y38445D1*
X86028Y38278D1*
X85892Y38133D1*
X85748Y38023D1*
X85953Y37848D1*
X86079Y37693D1*
X86177Y37519D1*
X86245Y37331D1*
X86286Y37020D1*
X86269Y36821D1*
X86220Y36627D1*
X86139Y36445D1*
X86028Y36278D1*
X85892Y36133D1*
X85748Y36023D1*
X85953Y35848D1*
X86079Y35693D1*
X86177Y35519D1*
X86245Y35331D1*
X86286Y35020D1*
X86269Y34821D1*
X86220Y34627D1*
X86139Y34445D1*
X86028Y34278D1*
X85892Y34133D1*
X85748Y34023D1*
X85953Y33848D1*
X86079Y33693D1*
X86177Y33519D1*
X86245Y33331D1*
X86286Y33020D1*
X86269Y32821D1*
Y54411D2*
X86220Y54217D1*
X86139Y54035D1*
X86028Y53868D1*
X85892Y53722D1*
X85733Y53601D1*
X85556Y53509D1*
X85366Y53446D1*
X85169Y53417D1*
X84969Y53420D1*
X84773Y53457D1*
X84585Y53526D1*
X84412Y53625D1*
X84257Y53752D1*
X84126Y53902D1*
X84022Y54073D1*
X83947Y54258D1*
X83904Y54453D1*
X83895Y54653D1*
X83919Y54851D1*
X83975Y55043D1*
X84063Y55222D1*
X84179Y55385D1*
X84320Y55526D1*
X84438Y55608D1*
X84257Y55752D1*
X84126Y55902D1*
X84022Y56073D1*
X83947Y56258D1*
X83904Y56453D1*
X83895Y56653D1*
X83919Y56851D1*
X83975Y57043D1*
X84063Y57222D1*
X84179Y57385D1*
X84320Y57526D1*
X84438Y57608D1*
X84257Y57752D1*
X84126Y57902D1*
X84022Y58073D1*
X83947Y58258D1*
X83904Y58453D1*
X83895Y58653D1*
X83919Y58851D1*
X83975Y59043D1*
X84063Y59222D1*
X84179Y59385D1*
X84320Y59526D1*
X84438Y59608D1*
X84257Y59752D1*
X84126Y59902D1*
X84022Y60073D1*
X83947Y60258D1*
X83904Y60453D1*
X83895Y60653D1*
X83919Y60851D1*
X83975Y61043D1*
X84063Y61222D1*
X84179Y61385D1*
X84320Y61526D1*
X84484Y61641D1*
X84664Y61727D1*
X84855Y61783D1*
X85054Y61805D1*
X85253Y61795D1*
X85448Y61751D1*
X85633Y61675D1*
X85803Y61570D1*
X85953Y61438D1*
X86079Y61283D1*
X86177Y61109D1*
X86245Y60921D1*
X86286Y60610D1*
X86269Y60411D1*
X86220Y60217D1*
X86139Y60035D1*
X86028Y59868D1*
X85892Y59722D1*
X85748Y59613D1*
X85953Y59438D1*
X86079Y59283D1*
X86177Y59109D1*
X86245Y58921D1*
X86286Y58610D1*
X86269Y58411D1*
X86220Y58217D1*
X86139Y58035D1*
X86028Y57868D1*
X85892Y57722D1*
X85748Y57613D1*
X85953Y57438D1*
X86079Y57283D1*
X86177Y57109D1*
X86245Y56921D1*
X86286Y56610D1*
X86269Y56411D1*
X86220Y56217D1*
X86139Y56035D1*
X86028Y55868D1*
X85892Y55722D1*
X85748Y55613D1*
X85953Y55438D1*
X86079Y55283D1*
X86177Y55109D1*
X86245Y54921D1*
X86286Y54610D1*
X86269Y54411D1*
X45645Y89812D2*
X45622Y89614D1*
X45566Y89422D1*
X45479Y89243D1*
X45363Y89080D1*
X45300Y89011D1*
X47942D1*
X48140Y88984D1*
X48324Y88906D1*
X48470Y88793D1*
X49836Y87427D1*
X49945Y87430D1*
X47732Y89642D1*
X47612Y89801D1*
X47537Y89986D1*
X47514Y90170D1*
Y105410D1*
X47541Y105608D1*
X47619Y105791D1*
X47732Y105938D1*
X49416Y107621D1*
X49419Y109646D1*
X48153Y108375D1*
X47994Y108254D1*
X47809Y108180D1*
X47625Y108156D1*
X46031D1*
X43927Y106055D1*
X44215Y106138D1*
X44414Y106160D1*
X44613Y106150D1*
X44808Y106106D1*
X44993Y106030D1*
X45163Y105925D1*
X45313Y105793D1*
X45439Y105638D1*
X45537Y105464D1*
X45605Y105276D1*
X45646Y104965D1*
X45629Y104766D1*
X45580Y104572D1*
X45499Y104390D1*
X45388Y104223D1*
X45252Y104078D1*
X45108Y103968D1*
X45313Y103793D1*
X45439Y103638D1*
X45537Y103464D1*
X45605Y103276D1*
X45646Y102965D1*
X45629Y102766D1*
X45580Y102572D1*
X45499Y102390D1*
X45388Y102223D1*
X45252Y102078D1*
X45108Y101968D1*
X45285Y101822D1*
X45416Y101671D1*
X45520Y101500D1*
X45594Y101314D1*
X45636Y101119D1*
X45643Y100885D1*
X45613Y100688D1*
X45551Y100498D1*
X45458Y100321D1*
X45337Y100162D1*
X45191Y100026D1*
X45024Y99916D1*
X44841Y99835D1*
X44648Y99785D1*
X44449Y99769D1*
X44250Y99786D1*
X44056Y99836D1*
X43926Y99890D1*
Y95556D1*
X44437Y95048D1*
X44613Y95037D1*
X44808Y94994D1*
X44993Y94918D1*
X45163Y94813D1*
X45313Y94681D1*
X45439Y94525D1*
X45537Y94351D1*
X45605Y94164D1*
X45646Y93853D1*
X45629Y93653D1*
X45580Y93460D1*
X45499Y93277D1*
X45388Y93111D1*
X45252Y92965D1*
X45108Y92855D1*
X45313Y92681D1*
X45439Y92525D1*
X45537Y92351D1*
X45605Y92164D1*
X45646Y91853D1*
X45629Y91653D1*
X45580Y91460D1*
X45499Y91277D1*
X45388Y91111D1*
X45252Y90965D1*
X45108Y90855D1*
X45285Y90709D1*
X45416Y90558D1*
X45520Y90388D1*
X45594Y90202D1*
X45636Y90007D1*
X45645Y89812D1*
X43303Y89514D2*
X43260Y89735D1*
X43257Y89935D1*
X43287Y90133D1*
X43350Y90322D1*
X43444Y90499D1*
X43565Y90657D1*
X43711Y90793D1*
X43794Y90852D1*
X43617Y90994D1*
X43486Y91145D1*
X43382Y91315D1*
X43307Y91500D1*
X43264Y91696D1*
X43256Y91901D1*
X42020Y93133D1*
X42021Y90796D1*
X43301Y89517D1*
X26046Y46347D2*
X26000Y46152D1*
X25925Y45967D1*
X25822Y45796D1*
X25694Y45642D1*
X25544Y45510D1*
X25376Y45403D1*
X25193Y45323D1*
X24999Y45271D1*
X24801Y45250D1*
X24601Y45260D1*
X24406Y45301D1*
X24218Y45371D1*
X24044Y45469D1*
X23887Y45592D1*
X23751Y45739D1*
X23639Y45904D1*
X23554Y46085D1*
X23497Y46276D1*
X23471Y46475D1*
X23475Y46674D1*
X23510Y46871D1*
X23575Y47060D1*
X23668Y47237D1*
X23788Y47397D1*
X23930Y47537D1*
X24092Y47654D1*
X24271Y47744D1*
X24461Y47806D1*
X24658Y47838D1*
X24858Y47839D1*
X25055Y47809D1*
X25246Y47749D1*
X25425Y47661D1*
X25589Y47547D1*
X25733Y47408D1*
X25854Y47249D1*
X25949Y47073D1*
X26016Y46885D1*
X26053Y46689D1*
X26061Y46546D1*
X26046Y46347D1*
Y41521D2*
X26000Y41326D1*
X25925Y41141D1*
X25822Y40970D1*
X25694Y40816D1*
X25544Y40684D1*
X25376Y40577D1*
X25193Y40497D1*
X24999Y40445D1*
X24801Y40425D1*
X24601Y40434D1*
X24406Y40475D1*
X24218Y40545D1*
X24044Y40643D1*
X23887Y40766D1*
X23751Y40913D1*
X23639Y41078D1*
X23554Y41259D1*
X23497Y41450D1*
X23471Y41649D1*
X23475Y41848D1*
X23510Y42045D1*
X23575Y42234D1*
X23668Y42411D1*
X23788Y42571D1*
X23930Y42711D1*
X24092Y42828D1*
X24271Y42918D1*
X24461Y42980D1*
X24658Y43012D1*
X24858Y43013D1*
X25055Y42983D1*
X25246Y42923D1*
X25425Y42835D1*
X25589Y42720D1*
X25733Y42582D1*
X25854Y42423D1*
X25949Y42247D1*
X26016Y42059D1*
X26053Y41863D1*
X26061Y41720D1*
X26046Y41521D1*
X54621Y65206D2*
X54575Y65011D1*
X54500Y64826D1*
X54397Y64655D1*
X54269Y64501D1*
X54119Y64369D1*
X53951Y64262D1*
X53768Y64182D1*
X53574Y64130D1*
X53376Y64109D1*
X53176Y64119D1*
X52981Y64160D1*
X52793Y64230D1*
X52619Y64328D1*
X52462Y64451D1*
X52326Y64598D1*
X52214Y64763D1*
X52129Y64944D1*
X52072Y65135D1*
X52046Y65334D1*
X52050Y65533D1*
X52085Y65730D1*
X52150Y65919D1*
X52243Y66096D1*
X52363Y66256D1*
X52505Y66396D1*
X52667Y66513D1*
X52846Y66603D1*
X53036Y66665D1*
X53233Y66697D1*
X53433Y66698D1*
X53630Y66668D1*
X53821Y66608D1*
X54000Y66520D1*
X54164Y66406D1*
X54308Y66267D1*
X54429Y66108D1*
X54524Y65932D1*
X54591Y65744D1*
X54628Y65548D1*
X54636Y65405D1*
X54621Y65206D1*
Y60380D2*
X54575Y60185D1*
X54500Y60000D1*
X54397Y59829D1*
X54269Y59675D1*
X54119Y59543D1*
X53951Y59436D1*
X53768Y59356D1*
X53574Y59304D1*
X53376Y59284D1*
X53176Y59293D1*
X52981Y59334D1*
X52793Y59404D1*
X52619Y59502D1*
X52462Y59625D1*
X52326Y59772D1*
X52214Y59937D1*
X52129Y60118D1*
X52072Y60309D1*
X52046Y60508D1*
X52050Y60707D1*
X52085Y60904D1*
X52150Y61093D1*
X52243Y61270D1*
X52363Y61430D1*
X52505Y61570D1*
X52667Y61687D1*
X52846Y61777D1*
X53036Y61839D1*
X53233Y61871D1*
X53433Y61872D1*
X53630Y61842D1*
X53821Y61782D1*
X54000Y61694D1*
X54164Y61579D1*
X54308Y61441D1*
X54429Y61282D1*
X54524Y61106D1*
X54591Y60918D1*
X54628Y60722D1*
X54636Y60579D1*
X54621Y60380D1*
X36305Y51331D2*
X36334Y51523D1*
X36402Y51710D1*
X36506Y51881D1*
X36642Y52027D1*
X36804Y52144D1*
X36985Y52227D1*
X37180Y52271D1*
X37380Y52277D1*
X37582Y52240D1*
X29210Y80010D2*
D20*
Y78815D1*
X28015Y80010D2*
X30405D1*
X52070D2*
Y78815D1*
Y80010D2*
X53265D1*
X43180Y85015D2*
Y83820D1*
X41985D2*
X44375D1*
X49922Y89853D2*
X52313D1*
X51117Y100965D2*
Y99770D1*
X57785Y100965D2*
Y99770D1*
Y100965D2*
X58980D1*
X64453D2*
Y99770D1*
X63257Y100965D2*
X65648D1*
X69925D2*
X72315D1*
X74295Y114972D2*
Y113665D1*
X71755Y114972D2*
Y113665D1*
X69215Y114972D2*
Y113665D1*
X78740Y6350D2*
Y4805D1*
X77195Y6350D2*
X80285D1*
X77195Y21590D2*
X80285D1*
X28258Y60350D2*
Y57760D1*
X33179Y67652D2*
Y66357D1*
X34474D1*
X3175Y42435D2*
Y38845D1*
X1380Y40640D2*
X4970D1*
X3175Y64665D2*
Y61075D1*
X1380Y62870D2*
X4970D1*
X3175Y78630D2*
Y75040D1*
X1380Y76835D2*
X4970D1*
X3175Y100860D2*
Y97270D1*
X1380Y99065D2*
X4970D1*
X12065Y111265D2*
Y107175D1*
X10020Y109220D2*
X14110D1*
X22065Y111265D2*
Y107175D1*
X20020Y109220D2*
X24110D1*
X32065Y111265D2*
Y107175D1*
X30020Y109220D2*
X34110D1*
X16168Y17463D2*
X18758D1*
X57626Y36354D2*
Y35009D1*
X78740Y71120D2*
Y69575D1*
X77195Y71120D2*
X80285D1*
X77195Y86360D2*
X80285D1*
X78740Y27940D2*
Y26395D1*
X77195Y27940D2*
X80285D1*
X77195Y43180D2*
X80285D1*
X78740Y49530D2*
Y47985D1*
X77195Y49530D2*
X80285D1*
X77195Y64770D2*
X80285D1*
X43255Y89853D2*
X45645D1*
X44450Y100965D2*
Y99770D1*
Y100965D2*
X45645D1*
D33*
X29210Y80010D3*
Y82010D3*
Y84010D3*
X52070Y80010D3*
Y82010D3*
Y84010D3*
X36830Y80010D3*
Y82010D3*
Y84010D3*
X43180Y83820D3*
Y81820D3*
Y79820D3*
X29210Y29845D3*
Y31845D3*
Y33845D3*
X37465Y29845D3*
Y31845D3*
Y33845D3*
X51117Y89853D3*
Y91853D3*
Y93853D3*
D27*
X73342Y88900D3*
X76142D3*
X73342Y24130D3*
X76142D3*
X73342Y45720D3*
X76142D3*
X73342Y67310D3*
X76142D3*
D38*
X44450Y4128D3*
D39*
X41910D3*
D38*
X22225D3*
D39*
X19685D3*
D38*
X13653D3*
D39*
X11112D3*
D33*
X51117Y100965D3*
Y102965D3*
Y104965D3*
X57785Y100965D3*
Y102965D3*
Y104965D3*
X64453Y100965D3*
Y102965D3*
Y104965D3*
X71120Y100965D3*
Y102965D3*
Y104965D3*
D44*
X8732Y30007D3*
X10161Y28578D3*
D45*
X74295Y113665D3*
Y111125D3*
X71755Y113665D3*
Y111125D3*
D46*
X46355D3*
D45*
X48895D3*
X51435D3*
X53975D3*
X56515D3*
X59055D3*
X61595D3*
X64135D3*
X66675D3*
X69215D3*
Y113665D3*
X66675D3*
X64135D3*
X61595D3*
X59055D3*
X56515D3*
X53975D3*
X51435D3*
X48895D3*
X46355D3*
X76835Y111125D3*
Y113665D3*
D26*
X68263Y86360D3*
X69962D3*
X68263Y83820D3*
X69962D3*
X68263Y81280D3*
X69962D3*
X68150Y21590D3*
X69850D3*
X68150Y19050D3*
X69850D3*
X68150Y16510D3*
X69850D3*
X68263Y43180D3*
X69962D3*
X68263Y40640D3*
X69962D3*
X68263Y38100D3*
X69962D3*
X68263Y64770D3*
X69962D3*
X68263Y62230D3*
X69962D3*
X68263Y59690D3*
X69962D3*
D33*
X85090Y76200D3*
Y78200D3*
Y80200D3*
Y82200D3*
D17*
X66040Y6350D3*
Y8890D3*
Y11430D3*
Y13970D3*
Y16510D3*
Y19050D3*
Y21590D3*
Y24130D3*
X78740Y6350D3*
Y8890D3*
Y11430D3*
Y13970D3*
Y16510D3*
Y19050D3*
Y21590D3*
Y24130D3*
D38*
X23178Y59055D3*
D39*
X25718D3*
X28258D3*
X30798D3*
X33338D3*
X35878D3*
D38*
X28099Y63817D3*
D39*
Y66357D3*
X30639Y63817D3*
Y66357D3*
X33179Y63817D3*
Y66357D3*
D56*
X15875Y40640D3*
Y50160D3*
Y53340D3*
Y56520D3*
Y62870D3*
X3175Y40640D3*
Y62870D3*
X15875Y76835D3*
Y86355D3*
Y89535D3*
Y92715D3*
Y99065D3*
X3175Y76835D3*
Y99065D3*
D38*
X51752Y53975D3*
D39*
X49212D3*
D57*
X12065Y109220D3*
X17065D3*
X22065D3*
X27065D3*
X32065D3*
X37065D3*
D38*
X17463Y22543D3*
D39*
Y20003D3*
Y17463D3*
Y14923D3*
Y12383D3*
Y9843D3*
D60*
X57626Y38894D3*
D18*
X55086D3*
X52546D3*
X50006D3*
X57626Y36354D3*
X55086D3*
X52546D3*
X50006D3*
D17*
X66040Y71120D3*
Y73660D3*
Y76200D3*
Y78740D3*
Y81280D3*
Y83820D3*
Y86360D3*
Y88900D3*
X78740Y71120D3*
Y73660D3*
Y76200D3*
Y78740D3*
Y81280D3*
Y83820D3*
Y86360D3*
Y88900D3*
D33*
X85090Y11430D3*
Y13430D3*
Y15430D3*
Y17430D3*
D17*
X66040Y27940D3*
Y30480D3*
Y33020D3*
Y35560D3*
Y38100D3*
Y40640D3*
Y43180D3*
Y45720D3*
X78740Y27940D3*
Y30480D3*
Y33020D3*
Y35560D3*
Y38100D3*
Y40640D3*
Y43180D3*
Y45720D3*
D33*
X85090Y33020D3*
Y35020D3*
Y37020D3*
Y39020D3*
D17*
X66040Y49530D3*
Y52070D3*
Y54610D3*
Y57150D3*
Y59690D3*
Y62230D3*
Y64770D3*
Y67310D3*
X78740Y49530D3*
Y52070D3*
Y54610D3*
Y57150D3*
Y59690D3*
Y62230D3*
Y64770D3*
Y67310D3*
D33*
X85090Y54610D3*
Y56610D3*
Y58610D3*
Y60610D3*
X44450Y89853D3*
Y91853D3*
Y93853D3*
D39*
X24765Y46546D3*
Y41720D3*
X53340Y65405D3*
Y60579D3*
D33*
X44450Y100965D3*
Y102965D3*
Y104965D3*
M02*
