G04 DipTrace Beta 2.3.5.2*
%INBottomMask.gbr*%
%MOMM*%
%ADD17C,2.0*%
%ADD18C,1.6*%
%ADD26R,1.1X1.0*%
%ADD27R,1.6X2.7*%
%ADD33C,1.3*%
%ADD38R,1.5X1.5*%
%ADD39C,1.5*%
%ADD44C,1.2*%
%ADD45C,1.524*%
%ADD46R,1.524X1.524*%
%ADD56C,2.5*%
%ADD57C,3.0*%
%ADD60R,1.6X1.6*%
%FSLAX53Y53*%
G04*
G71*
G90*
G75*
G01*
%LNBotMask*%
%LPD*%
D33*
X29210Y80010D3*
Y82010D3*
Y84010D3*
X52070Y80010D3*
Y82010D3*
Y84010D3*
X36830Y80010D3*
Y82010D3*
Y84010D3*
X43180Y83820D3*
Y81820D3*
Y79820D3*
X29210Y29845D3*
Y31845D3*
Y33845D3*
X37465Y29845D3*
Y31845D3*
Y33845D3*
X51117Y89853D3*
Y91853D3*
Y93853D3*
D57*
X4445Y4445D3*
X5080Y114935D3*
X85725Y4128D3*
X85407Y115570D3*
D27*
X73342Y88900D3*
X76142D3*
X73342Y24130D3*
X76142D3*
X73342Y45720D3*
X76142D3*
X73342Y67310D3*
X76142D3*
D38*
X44450Y4128D3*
D39*
X41910D3*
D38*
X22225D3*
D39*
X19685D3*
D38*
X13653D3*
D39*
X11112D3*
D33*
X51117Y100965D3*
Y102965D3*
Y104965D3*
X57785Y100965D3*
Y102965D3*
Y104965D3*
X64453Y100965D3*
Y102965D3*
Y104965D3*
X71120Y100965D3*
Y102965D3*
Y104965D3*
D44*
X8732Y30007D3*
X10161Y28578D3*
D45*
X74295Y113665D3*
Y111125D3*
X71755Y113665D3*
Y111125D3*
D46*
X46355D3*
D45*
X48895D3*
X51435D3*
X53975D3*
X56515D3*
X59055D3*
X61595D3*
X64135D3*
X66675D3*
X69215D3*
Y113665D3*
X66675D3*
X64135D3*
X61595D3*
X59055D3*
X56515D3*
X53975D3*
X51435D3*
X48895D3*
X46355D3*
X76835Y111125D3*
Y113665D3*
D26*
X68263Y86360D3*
X69962D3*
X68263Y83820D3*
X69962D3*
X68263Y81280D3*
X69962D3*
X68150Y21590D3*
X69850D3*
X68150Y19050D3*
X69850D3*
X68150Y16510D3*
X69850D3*
X68263Y43180D3*
X69962D3*
X68263Y40640D3*
X69962D3*
X68263Y38100D3*
X69962D3*
X68263Y64770D3*
X69962D3*
X68263Y62230D3*
X69962D3*
X68263Y59690D3*
X69962D3*
D33*
X85090Y76200D3*
Y78200D3*
Y80200D3*
Y82200D3*
D17*
X66040Y6350D3*
Y8890D3*
Y11430D3*
Y13970D3*
Y16510D3*
Y19050D3*
Y21590D3*
Y24130D3*
X78740Y6350D3*
Y8890D3*
Y11430D3*
Y13970D3*
Y16510D3*
Y19050D3*
Y21590D3*
Y24130D3*
D38*
X23178Y59055D3*
D39*
X25718D3*
X28258D3*
X30798D3*
X33338D3*
X35878D3*
D38*
X28099Y63817D3*
D39*
Y66357D3*
X30639Y63817D3*
Y66357D3*
X33179Y63817D3*
Y66357D3*
D56*
X15875Y40640D3*
Y50160D3*
Y53340D3*
Y56520D3*
Y62870D3*
X3175Y40640D3*
Y62870D3*
X15875Y76835D3*
Y86355D3*
Y89535D3*
Y92715D3*
Y99065D3*
X3175Y76835D3*
Y99065D3*
D38*
X51752Y53975D3*
D39*
X49212D3*
D57*
X12065Y109220D3*
X17065D3*
X22065D3*
X27065D3*
X32065D3*
X37065D3*
D38*
X17463Y22543D3*
D39*
Y20003D3*
Y17463D3*
Y14923D3*
Y12383D3*
Y9843D3*
D60*
X57626Y38894D3*
D18*
X55086D3*
X52546D3*
X50006D3*
X57626Y36354D3*
X55086D3*
X52546D3*
X50006D3*
D17*
X66040Y71120D3*
Y73660D3*
Y76200D3*
Y78740D3*
Y81280D3*
Y83820D3*
Y86360D3*
Y88900D3*
X78740Y71120D3*
Y73660D3*
Y76200D3*
Y78740D3*
Y81280D3*
Y83820D3*
Y86360D3*
Y88900D3*
D33*
X85090Y11430D3*
Y13430D3*
Y15430D3*
Y17430D3*
D17*
X66040Y27940D3*
Y30480D3*
Y33020D3*
Y35560D3*
Y38100D3*
Y40640D3*
Y43180D3*
Y45720D3*
X78740Y27940D3*
Y30480D3*
Y33020D3*
Y35560D3*
Y38100D3*
Y40640D3*
Y43180D3*
Y45720D3*
D33*
X85090Y33020D3*
Y35020D3*
Y37020D3*
Y39020D3*
D17*
X66040Y49530D3*
Y52070D3*
Y54610D3*
Y57150D3*
Y59690D3*
Y62230D3*
Y64770D3*
Y67310D3*
X78740Y49530D3*
Y52070D3*
Y54610D3*
Y57150D3*
Y59690D3*
Y62230D3*
Y64770D3*
Y67310D3*
D33*
X85090Y54610D3*
Y56610D3*
Y58610D3*
Y60610D3*
X44450Y89853D3*
Y91853D3*
Y93853D3*
D39*
X24765Y46546D3*
Y41720D3*
X53340Y65405D3*
Y60579D3*
D33*
X44450Y100965D3*
Y102965D3*
Y104965D3*
M02*
