G04 DipTrace Beta 2.3.5.2*
%INBottomSilk.gbr*%
%MOMM*%
%ADD10C,0.25*%
%ADD68C,0.235*%
%FSLAX53Y53*%
G04*
G71*
G90*
G75*
G01*
%LNBotSilk*%
%LPD*%
X74443Y87650D2*
D10*
X75042D1*
X74443Y90150D2*
X75042D1*
X74443Y22880D2*
X75042D1*
X74443Y25380D2*
X75042D1*
X74443Y44470D2*
X75042D1*
X74443Y46970D2*
X75042D1*
X74443Y66060D2*
X75042D1*
X74443Y68560D2*
X75042D1*
X58356Y13271D2*
D68*
X57699D1*
X57481Y13343D1*
X57407Y13417D1*
X57335Y13562D1*
Y13781D1*
X57407Y13926D1*
X57481Y14000D1*
X57699Y14073D1*
X58356D1*
Y12541D1*
X56864Y14073D2*
X56792Y14000D1*
X56718Y14073D1*
X56792Y14147D1*
X56864Y14073D1*
X56792Y13562D2*
Y12541D1*
X55371Y13343D2*
X55518Y13490D1*
X55664Y13562D1*
X55882D1*
X56028Y13490D1*
X56173Y13343D1*
X56247Y13124D1*
Y12979D1*
X56173Y12760D1*
X56028Y12616D1*
X55882Y12541D1*
X55664D1*
X55518Y12616D1*
X55371Y12760D1*
X54901Y14073D2*
Y12541D1*
X54171Y13562D2*
X54901Y12833D1*
X54609Y13124D2*
X54099Y12541D1*
X50762Y13562D2*
X50836D1*
X50909Y13488D1*
X50981Y13343D1*
X51128Y12979D1*
X51272Y12760D1*
X51417Y12614D1*
X51564Y12541D1*
X51855D1*
X52000Y12614D1*
X52074Y12688D1*
X52147Y12833D1*
Y12979D1*
X52074Y13124D1*
X52000Y13197D1*
X51491Y13488D1*
X51417Y13562D1*
X51345Y13707D1*
Y13854D1*
X51417Y13999D1*
X51564Y14071D1*
X51709Y13999D1*
X51783Y13854D1*
Y13707D1*
X51709Y13488D1*
X51564Y13271D1*
X51200Y12760D1*
X51053Y12614D1*
X50909Y12541D1*
X50762D1*
X48810Y13271D2*
X48153D1*
X47936Y13343D1*
X47862Y13417D1*
X47789Y13562D1*
Y13781D1*
X47862Y13926D1*
X47936Y14000D1*
X48153Y14073D1*
X48810D1*
Y12541D1*
X47319Y14073D2*
Y12541D1*
X45974Y13562D2*
Y12541D1*
Y13343D2*
X46119Y13490D1*
X46265Y13562D1*
X46482D1*
X46629Y13490D1*
X46774Y13343D1*
X46848Y13124D1*
Y12979D1*
X46774Y12760D1*
X46629Y12616D1*
X46482Y12541D1*
X46265D1*
X46119Y12616D1*
X45974Y12760D1*
X44627Y13343D2*
X44774Y13490D1*
X44920Y13562D1*
X45138D1*
X45284Y13490D1*
X45429Y13343D1*
X45503Y13124D1*
Y12979D1*
X45429Y12760D1*
X45284Y12616D1*
X45138Y12541D1*
X44920D1*
X44774Y12616D1*
X44627Y12760D1*
X44156Y13124D2*
X43282D1*
Y13271D1*
X43355Y13417D1*
X43427Y13490D1*
X43574Y13562D1*
X43793D1*
X43937Y13490D1*
X44084Y13343D1*
X44156Y13124D1*
Y12979D1*
X44084Y12760D1*
X43937Y12616D1*
X43793Y12541D1*
X43574D1*
X43427Y12616D1*
X43282Y12760D1*
X40237Y13709D2*
X40309Y13854D1*
X40456Y14000D1*
X40601Y14073D1*
X40892D1*
X41039Y14000D1*
X41184Y13854D1*
X41258Y13709D1*
X41330Y13490D1*
Y13124D1*
X41258Y12907D1*
X41184Y12760D1*
X41039Y12616D1*
X40892Y12541D1*
X40601D1*
X40456Y12616D1*
X40309Y12760D1*
X40237Y12907D1*
X39402Y13562D2*
X39547Y13490D1*
X39694Y13343D1*
X39766Y13124D1*
Y12979D1*
X39694Y12760D1*
X39547Y12616D1*
X39402Y12541D1*
X39183D1*
X39037Y12616D1*
X38892Y12760D1*
X38818Y12979D1*
Y13124D1*
X38892Y13343D1*
X39037Y13490D1*
X39183Y13562D1*
X39402D1*
X38347D2*
Y12541D1*
Y13271D2*
X38128Y13490D1*
X37982Y13562D1*
X37764D1*
X37618Y13490D1*
X37545Y13271D1*
Y12541D1*
X36856Y14073D2*
Y12833D1*
X36783Y12616D1*
X36637Y12541D1*
X36492D1*
X37075Y13562D2*
X36564D1*
X36021D2*
Y12541D1*
Y13124D2*
X35947Y13343D1*
X35802Y13490D1*
X35656Y13562D1*
X35437D1*
X34602D2*
X34747Y13490D1*
X34894Y13343D1*
X34966Y13124D1*
Y12979D1*
X34894Y12760D1*
X34747Y12616D1*
X34602Y12541D1*
X34383D1*
X34237Y12616D1*
X34092Y12760D1*
X34018Y12979D1*
Y13124D1*
X34092Y13343D1*
X34237Y13490D1*
X34383Y13562D1*
X34602D1*
X33547Y14073D2*
Y12541D1*
X31595Y14073D2*
Y12541D1*
X30938D1*
X30719Y12616D1*
X30647Y12688D1*
X30574Y12833D1*
Y13052D1*
X30647Y13198D1*
X30719Y13271D1*
X30938Y13343D1*
X30719Y13417D1*
X30647Y13490D1*
X30574Y13635D1*
Y13781D1*
X30647Y13926D1*
X30719Y14000D1*
X30938Y14073D1*
X31595D1*
Y13343D2*
X30938D1*
X29740Y13562D2*
X29885Y13490D1*
X30031Y13343D1*
X30104Y13124D1*
Y12979D1*
X30031Y12760D1*
X29885Y12616D1*
X29740Y12541D1*
X29521D1*
X29374Y12616D1*
X29229Y12760D1*
X29155Y12979D1*
Y13124D1*
X29229Y13343D1*
X29374Y13490D1*
X29521Y13562D1*
X29740D1*
X27810D2*
Y12541D1*
Y13343D2*
X27955Y13490D1*
X28102Y13562D1*
X28319D1*
X28466Y13490D1*
X28611Y13343D1*
X28685Y13124D1*
Y12979D1*
X28611Y12760D1*
X28466Y12616D1*
X28319Y12541D1*
X28102D1*
X27955Y12616D1*
X27810Y12760D1*
X27340Y13562D2*
Y12541D1*
Y13124D2*
X27266Y13343D1*
X27121Y13490D1*
X26974Y13562D1*
X26755D1*
X25410Y14073D2*
Y12541D1*
Y13343D2*
X25555Y13490D1*
X25702Y13562D1*
X25921D1*
X26066Y13490D1*
X26212Y13343D1*
X26285Y13124D1*
Y12979D1*
X26212Y12760D1*
X26066Y12616D1*
X25921Y12541D1*
X25702D1*
X25555Y12616D1*
X25410Y12760D1*
X23458Y13780D2*
X23312Y13854D1*
X23093Y14071D1*
Y12541D1*
X22550Y12688D2*
X22622Y12614D1*
X22550Y12541D1*
X22476Y12614D1*
X22550Y12688D1*
X22005Y13780D2*
X21859Y13854D1*
X21640Y14071D1*
Y12541D1*
M02*
