M48
METRIC,0000.00
T01C0.406
T02C0.6
T03C0.813
T04C0.9
T05C0.965
T06C1.0
T07C1.2
T08C3.0
%
T01
X+002826Y+003699
X+002826Y+004080
X+002810Y+004255
X+003153Y+004493
X+003270Y+004604
X+003445Y+004604
X+003699Y+004620
X+003794Y+004731
X+003731Y+005128
X+003858Y+005239
X+003270Y+005019
X+003143Y+005191
X+002905Y+005604
X+004032Y+006667
X+004556Y+006509
X+004635Y+006826
X+004366Y+007191
X+004477Y+006017
X+004651Y+006001
X+004858Y+005826
X+005016Y+005842
X+004620Y+005525
X+004825Y+005079
X+005081Y+005049
X+005556Y+004731
X+005652Y+004620
X+005937Y+004953
X+005937Y+005207
X+005937Y+007160
X+005937Y+007366
X+004635Y+008700
X+003111Y+007461
X+000572Y+007366
X+000349Y+003302
X+001714Y+003238
X+003127Y+003366
X+003302Y+004032
X+003937Y+004032
X+005937Y+003048
X+006810Y+003191
X+006795Y+002603
X+006985Y+001460
X+006826Y+001302
X+006826Y+000810
X+006350Y+000191
X+006128Y+000191
X+005747Y+001762
X+004158Y+000984
X+004031Y+000984
X+003540Y+001762
X+002222Y+001746
X+001238Y+001334
X+000508Y+001841
X+006985Y+009271
X+007604Y+009350
X+007842Y+009588
X+008128Y+010382
X+007842Y+010795
X+007461Y+010795
X+006255Y+010296
T02
X+002921Y+008001
X+002921Y+008201
X+002921Y+008401
X+003683Y+008401
X+003683Y+008201
X+003683Y+008001
X+004318Y+007982
X+004318Y+008182
X+004318Y+008382
X+004445Y+008985
X+004445Y+009185
X+004445Y+009385
X+005112Y+009385
X+005112Y+009185
X+005112Y+008985
X+005207Y+008401
X+005207Y+008201
X+005207Y+008001
X+005112Y+010096
X+005112Y+010296
X+005112Y+010496
X+005778Y+010496
X+005778Y+010296
X+005778Y+010096
X+006445Y+010096
X+006445Y+010296
X+006445Y+010496
X+007112Y+010496
X+007112Y+010296
X+007112Y+010096
X+008509Y+008220
X+008509Y+008020
X+008509Y+007820
X+008509Y+007620
X+008509Y+006061
X+008509Y+005861
X+008509Y+005661
X+008509Y+005461
X+008509Y+003902
X+008509Y+003702
X+008509Y+003502
X+008509Y+003302
X+008509Y+001743
X+008509Y+001543
X+008509Y+001343
X+008509Y+001143
X+003747Y+002984
X+003747Y+003184
X+003747Y+003384
X+002921Y+003384
X+002921Y+003184
X+002921Y+002984
X+001016Y+002858
X+000873Y+003001
X+004445Y+010096
X+004445Y+010296
X+004445Y+010496
T03
X+002477Y+004655
X+002477Y+004172
X+005334Y+006058
X+005334Y+006541
T04
X+004445Y+000413
X+004191Y+000413
X+002223Y+000413
X+001968Y+000413
X+001365Y+000413
X+001111Y+000413
X+001746Y+000984
X+001746Y+001238
X+001746Y+001492
X+001746Y+001746
X+001746Y+002000
X+001746Y+002254
X+005001Y+003635
X+005001Y+003889
X+005255Y+003889
X+005255Y+003635
X+005509Y+003635
X+005509Y+003889
X+005763Y+003889
X+005763Y+003635
X+005175Y+005398
X+004921Y+005398
X+003588Y+005905
X+003334Y+005905
X+003080Y+005905
X+002826Y+005905
X+002572Y+005905
X+002318Y+005905
X+002810Y+006382
X+002810Y+006636
X+003064Y+006636
X+003318Y+006636
X+003318Y+006382
X+003064Y+006382
T05
X+007430Y+011367
X+007430Y+011112
X+007175Y+011112
X+007175Y+011367
X+006921Y+011367
X+006667Y+011367
X+006667Y+011112
X+006921Y+011112
X+006414Y+011112
X+006159Y+011112
X+005905Y+011112
X+005651Y+011112
X+005398Y+011112
X+005144Y+011112
X+004890Y+011112
X+004635Y+011112
X+004635Y+011367
X+004890Y+011367
X+005144Y+011367
X+005398Y+011367
X+005651Y+011367
X+005905Y+011367
X+006159Y+011367
X+006414Y+011367
X+007683Y+011367
X+007683Y+011112
T06
X+006604Y+000635
X+006604Y+000889
X+006604Y+001143
X+006604Y+001397
X+006604Y+001651
X+006604Y+001905
X+006604Y+002159
X+006604Y+002413
X+006604Y+002794
X+006604Y+003048
X+006604Y+003302
X+006604Y+003556
X+006604Y+003810
X+006604Y+004064
X+006604Y+004318
X+006604Y+004572
X+006604Y+004953
X+006604Y+005207
X+006604Y+005461
X+006604Y+005715
X+006604Y+005969
X+006604Y+006223
X+006604Y+006477
X+006604Y+006731
X+006604Y+007112
X+006604Y+007366
X+006604Y+007620
X+006604Y+007874
X+006604Y+008128
X+006604Y+008382
X+006604Y+008636
X+006604Y+008890
X+007874Y+008890
X+007874Y+008636
X+007874Y+008382
X+007874Y+008128
X+007874Y+007874
X+007874Y+007620
X+007874Y+007366
X+007874Y+007112
X+007874Y+006731
X+007874Y+006477
X+007874Y+006223
X+007874Y+005969
X+007874Y+005715
X+007874Y+005461
X+007874Y+005207
X+007874Y+004953
X+007874Y+004572
X+007874Y+004318
X+007874Y+004064
X+007874Y+003810
X+007874Y+003556
X+007874Y+003302
X+007874Y+003048
X+007874Y+002794
X+007874Y+002413
X+007874Y+002159
X+007874Y+001905
X+007874Y+001651
X+007874Y+001397
X+007874Y+001143
X+007874Y+000889
X+007874Y+000635
X+001588Y+004064
X+001588Y+005016
X+001588Y+005334
X+001588Y+005652
X+001588Y+006287
X+000318Y+006287
X+000318Y+007684
X+001588Y+007684
X+001588Y+008636
X+001588Y+008954
X+001588Y+009272
X+001588Y+009907
X+000318Y+009907
X+000318Y+004064
T07
X+001206Y+010922
X+001707Y+010922
X+002206Y+010922
X+002706Y+010922
X+003206Y+010922
X+003706Y+010922
T08
X+000445Y+000445
X+008573Y+000413
X+008541Y+011557
X+000508Y+011494
T00
M30
