G04 DipTrace Beta 2.3.5.2*
%INTop.gbr*%
%MOMM*%
%ADD13C,0.6*%
%ADD14C,1.0*%
%ADD15C,1.4*%
%ADD16C,0.4*%
%ADD17C,2.0*%
%ADD18C,1.6*%
%ADD19C,0.8*%
%ADD20C,0.33*%
%ADD23R,1.5X1.3*%
%ADD24R,1.0X1.1*%
%ADD25R,1.4X2.85*%
%ADD26R,1.1X1.0*%
%ADD27R,1.6X2.7*%
%ADD28R,2.7X1.6*%
%ADD29R,1.6X1.8*%
%ADD30R,1.8X1.6*%
%ADD31R,2.85X1.4*%
%ADD32R,1.3X1.5*%
%ADD33C,1.3*%
%ADD34R,2.4X2.4*%
%ADD35R,0.8X1.6*%
%ADD36R,1.4X1.8*%
%ADD37R,3.56X3.0*%
%ADD38R,1.5X1.5*%
%ADD39C,1.5*%
%ADD40R,1.35X0.4*%
%ADD41R,1.4X1.6*%
%ADD42R,1.3X2.3*%
%ADD43R,1.9X1.7*%
%ADD44C,1.2*%
%ADD45C,1.524*%
%ADD46R,1.524X1.524*%
%ADD48R,0.95X2.15*%
%ADD49R,3.25X2.15*%
%ADD50R,1.8X0.5*%
%ADD51R,0.5X1.8*%
%ADD53R,1.7X0.5*%
%ADD54R,0.5X1.7*%
%ADD55R,0.6X2.0*%
%ADD56C,2.5*%
%ADD57C,3.0*%
%ADD58R,1.0X0.7*%
%ADD59R,2.0X0.6*%
%ADD60R,1.6X1.6*%
%ADD61C,0.914*%
%FSLAX53Y53*%
G04*
G71*
G90*
G75*
G01*
%LNTop*%
%LPD*%
X27144Y103198D2*
D13*
Y109141D1*
X27065Y109220D1*
X15875Y62870D2*
D14*
Y56520D1*
X14605Y67310D2*
Y64140D1*
X15875Y62870D1*
X8890Y68580D2*
X11430D1*
X12700Y67310D1*
X14605D1*
X21273Y29840D2*
D16*
Y31900D1*
Y33660D1*
Y31900D2*
X29155D1*
X29210Y31845D1*
X43180Y33660D2*
Y31845D1*
Y30157D1*
X37465Y31845D2*
X43180D1*
X36830Y82010D2*
D14*
X35148D1*
X34925Y82233D1*
Y87635D1*
Y76513D2*
Y82233D1*
Y76513D2*
X33650D1*
X32703Y75565D1*
Y73660D1*
X30480Y71438D1*
X23812D1*
X21907Y69532D1*
Y66358D1*
X18415Y62865D1*
X15880D1*
X15875Y62870D1*
X37146Y103198D2*
D13*
Y109139D1*
X37065Y109220D1*
X5715Y68580D2*
Y71755D1*
X6350Y36830D2*
X9525D1*
Y40005D1*
X10160Y40640D1*
X15875D1*
X5715Y71755D2*
D14*
Y73660D1*
X61913Y5080D2*
Y9585D1*
X60960D1*
X62607D1*
X63183Y10160D1*
Y23177D1*
X61913Y24448D1*
X60325D1*
X38735Y4445D2*
D13*
Y7620D1*
X39052Y7937D1*
Y9840D1*
D14*
X40308D1*
X41593D1*
Y22225D1*
X40322Y23495D1*
X39053D1*
X41593Y9840D2*
D13*
X41581Y9843D1*
X61913Y5080D2*
D14*
Y1905D1*
D18*
X61278D1*
X61913D2*
D14*
X63500D1*
X17146Y103198D2*
D13*
Y109139D1*
X17065Y109220D1*
X20955Y97155D2*
X21590D1*
Y92075D1*
D14*
Y97155D1*
X15875D1*
Y99065D1*
Y92715D1*
X82232Y100645D2*
Y102552D1*
X83820Y104140D1*
Y108585D1*
X78740Y113665D1*
X76835D1*
X78740Y8890D2*
D13*
X77153D1*
X76200Y9843D1*
Y14719D1*
Y30480D1*
Y52070D1*
Y73660D1*
X76312D1*
X78740D1*
Y52070D2*
X76200D1*
X78740Y30480D2*
X76200D1*
Y14719D2*
D14*
X69964D1*
X69850Y14605D1*
X76312Y73660D2*
D13*
Y89171D1*
X81121Y93980D1*
X82867D1*
X84455Y95567D1*
D16*
Y96837D1*
X85090Y97473D1*
X85725D1*
X71120Y104965D2*
D13*
X64453D1*
X57785D1*
X51117D1*
X15875Y99065D2*
D14*
X17140Y100330D1*
X28258D1*
X30480Y98108D1*
X44133D1*
X48578Y93663D1*
X50928D1*
X51117Y93853D1*
X61087D1*
X62230Y92710D1*
X69850D1*
X73184D1*
X78581Y98108D1*
X81280D1*
X82232Y99059D1*
Y100645D1*
X5080Y26035D2*
D16*
Y23495D1*
X13653Y4128D2*
D13*
Y5080D1*
X14288Y5716D1*
Y7302D1*
D15*
X18415D1*
X20320Y9208D1*
Y20003D1*
X17463D1*
X17145Y32385D2*
Y27305D1*
X20320Y24130D1*
Y20003D1*
X29035Y48593D2*
D16*
X35099D1*
X35877Y49371D1*
X40413D1*
X40435Y49393D1*
X29035Y48593D2*
X27305D1*
Y52070D1*
Y54139D1*
Y57309D1*
X25718Y58896D1*
Y59055D1*
X40435Y49393D2*
X42884D1*
X43339Y49847D1*
X44291D1*
X25876Y52070D2*
X27305D1*
X24130Y54139D2*
X27305D1*
X44133Y51911D2*
X44339D1*
X46196D1*
X44339D2*
Y49895D1*
X44291Y49847D1*
X13653Y4128D2*
D13*
Y2699D1*
X13018Y2064D1*
X9684D1*
X8572Y3175D1*
Y6826D1*
X6032Y9366D1*
X5080D1*
X2699Y11748D1*
Y16351D1*
X2064Y16986D1*
Y22701D1*
X2857Y23495D1*
X5080D1*
X40177Y64490D2*
D16*
X42666D1*
X43498Y63659D1*
X46672D1*
X48546D1*
X48577Y63690D1*
Y62090D2*
X46672D1*
Y63659D1*
X38100Y64135D2*
X38576D1*
X38894Y64453D1*
X40139D1*
X40177Y64490D1*
X38100Y64135D2*
X37306D1*
X34290Y61119D1*
X30004D1*
X29210Y61913D1*
X26511D1*
X26353Y62071D1*
Y65722D1*
X26987Y66357D1*
X28099D1*
X46355Y48736D2*
Y49530D1*
X46038Y49847D1*
X44291D1*
X10801Y103198D2*
D13*
Y105585D1*
X12065Y106849D1*
Y109220D1*
X20799Y103199D2*
Y104945D1*
X22065Y106211D1*
Y109220D1*
X30801Y103198D2*
Y105421D1*
X32065Y106685D1*
Y109220D1*
X3175Y99065D2*
Y76835D1*
Y72015D1*
X2915Y71755D1*
Y68580D1*
Y63130D1*
X3175Y62870D1*
Y44033D1*
Y40640D1*
Y37205D1*
X3550Y36830D1*
X8890Y71380D2*
Y76835D1*
X3175D1*
X32065Y109220D2*
Y116522D1*
X22065D1*
X11748D1*
Y109538D1*
X12065Y109220D1*
X22065D2*
Y116522D1*
X25759Y97155D2*
Y95291D1*
X24390Y93922D1*
Y92075D1*
X69215Y113665D2*
X71755D1*
X74295D1*
X69215D2*
Y116522D1*
X32065D1*
X85950Y101973D2*
Y102246D1*
X88123D1*
X88400Y102522D1*
X85950Y101973D2*
Y100297D1*
D16*
X85725Y100072D1*
X85950Y95572D2*
D13*
Y95260D1*
X88163D1*
X88400Y95022D1*
X19685Y87630D2*
Y82343D1*
Y80010D1*
Y72390D1*
X19409Y72114D1*
X14605D1*
X11154D1*
X10477Y71438D1*
X8947D1*
X8890Y71380D1*
X24390Y92075D2*
Y88207D1*
X23812Y87630D1*
X19685D1*
X20479Y51435D2*
X18415D1*
Y44033D1*
X3175D1*
X84772Y70368D2*
D14*
X81413D1*
X80661Y71120D1*
X78740D1*
X84455Y86678D2*
Y86360D1*
X78740D1*
X84772Y48778D2*
X81570D1*
X80817Y49530D1*
X78740D1*
X85090Y27029D2*
X81567D1*
X80656Y27940D1*
X78740D1*
X85950Y101973D2*
D13*
Y109630D1*
X79058Y116522D1*
X74295D1*
Y113665D1*
X70055Y95250D2*
Y97267D1*
X69850Y97473D1*
X63070Y95250D2*
Y97272D1*
X62870Y97473D1*
X69850D2*
Y100965D1*
X71120D1*
X62870Y97473D2*
Y100965D1*
X64453D1*
X56515Y97473D2*
Y100965D1*
X57785D1*
X49735Y97473D2*
Y100965D1*
X51117D1*
X54610Y90057D2*
Y89853D1*
X51117D1*
X44450D2*
X54610D1*
X49735Y97473D2*
Y96315D1*
X50482Y95567D1*
X56515D1*
X62752D1*
X63070Y95250D1*
Y94410D1*
X63500Y93980D1*
X69532D1*
X70168Y94615D1*
Y95138D1*
X70055Y95250D1*
X44450Y100965D2*
X51117D1*
X44450D2*
X30801D1*
Y103198D1*
X19685Y82343D2*
X11637D1*
X10801Y83179D1*
Y103198D1*
X74612Y106045D2*
D16*
Y107950D1*
X56515Y97473D2*
Y95567D1*
X44450Y89853D2*
X43815D1*
X41910Y91757D1*
Y95250D1*
X40958Y96203D1*
X28893D1*
X27940Y97155D1*
X25759D1*
X54565Y24510D2*
X57462D1*
X57525Y24448D1*
X57150Y14985D2*
X51752D1*
X44768D1*
Y26035D1*
X47308D1*
X48260Y26988D1*
X54610D1*
Y24555D1*
X54565Y24510D1*
X53340Y4650D2*
X55245D1*
X53340D2*
X51752D1*
Y14985D1*
X36252Y23495D2*
X34290D1*
X34197D1*
X34290D2*
Y26035D1*
X44768D1*
X35242Y15240D2*
X29845D1*
X24448D1*
X23812Y15875D1*
Y17463D1*
Y23812D1*
X26035Y26035D1*
X33020D1*
X34290D1*
X33020Y4650D2*
X31115D1*
X29845D1*
Y15240D1*
X17463Y17463D2*
X16037D1*
X14605Y18895D1*
Y21907D1*
X13018Y23495D1*
X10480D1*
X12383Y13335D2*
Y10958D1*
X12220Y10795D1*
X3492Y33020D2*
Y34449D1*
Y36773D1*
X3550Y36830D1*
X22225Y17463D2*
X23812D1*
X30420Y39370D2*
X31433D1*
X31750Y39053D1*
Y37782D1*
X32068Y37465D1*
X33015D1*
X33020Y37470D1*
X36770Y39370D2*
X37782D1*
X38100Y39053D1*
Y37782D1*
X38417Y37465D1*
X39365D1*
X39370Y37470D1*
X29035Y47793D2*
X35410D1*
X36195Y48578D1*
X40419D1*
X40435Y48593D1*
X57150Y61590D2*
Y62865D1*
Y64140D1*
X40435Y48593D2*
X42847D1*
X43180Y48260D1*
X44291D1*
Y47466D1*
X44609Y47149D1*
X53181D1*
X54928Y45403D1*
X54292Y46038D1*
Y48741D1*
Y52229D1*
X56269Y54205D1*
X59849Y57785D1*
Y62865D1*
X57150D1*
X48577Y61290D2*
X51276D1*
Y62865D1*
X48602D1*
X48577Y62890D1*
X51276Y61290D2*
Y59198D1*
X56269Y54205D1*
X33020Y37470D2*
Y26035D1*
X39370Y37465D2*
X43974D1*
X44926Y36512D1*
Y31750D1*
Y26035D1*
X44768D1*
X44926Y31750D2*
X62706D1*
Y43974D1*
X56356D1*
X54928Y45403D1*
X44291Y48148D2*
Y48260D1*
X25876Y50370D2*
Y47784D1*
X29026D1*
X29035Y47793D1*
X25876Y50370D2*
X23168D1*
X22225Y51313D1*
X22103Y51435D1*
X20479D1*
X28258Y59055D2*
Y60484D1*
X25082D1*
X21114D1*
X20955Y60325D1*
Y56197D1*
X22225Y54928D1*
Y51313D1*
X12325Y36830D2*
Y35344D1*
X11430Y34449D1*
X4604D1*
X3492D1*
X3380Y26035D2*
Y30209D1*
X4604Y31433D1*
Y34449D1*
X33179Y66357D2*
Y67469D1*
X32544Y68104D1*
X26353D1*
X25082Y66834D1*
Y60484D1*
X40177Y62090D2*
X44749D1*
X45561Y61278D1*
X48565D1*
X48577Y61290D1*
X38100Y62435D2*
X38371D1*
X38735Y62071D1*
X40158D1*
X40177Y62090D1*
X47261Y76359D2*
Y80010D1*
X47308D1*
Y81915D1*
X45403Y83820D1*
X43180D1*
X48002Y70644D2*
X46990D1*
X46672Y70961D1*
Y72231D1*
X46360Y72544D1*
X45403D1*
X52070Y80010D2*
X47308D1*
X29415Y76835D2*
X29210D1*
Y80010D1*
X20320Y42857D2*
Y44090D1*
Y45407D1*
Y44090D2*
X18415Y44033D1*
X29210Y80010D2*
X19685D1*
X88400Y95022D2*
Y93163D1*
X86995Y91757D1*
Y87154D1*
X86519Y86678D1*
X84455D1*
X57626Y36354D2*
X60008D1*
Y40322D1*
X54928Y45403D1*
X32544Y68104D2*
X32465Y68183D1*
Y69691D1*
X48101D1*
Y70545D1*
X48002Y70644D1*
X43180Y83820D2*
Y86995D1*
X44450Y88265D1*
Y89853D1*
X52705Y48741D2*
X54292D1*
X34925Y89535D2*
X37147D1*
X20320Y40958D2*
X22543D1*
X23495Y41910D1*
X24575D1*
X24765Y41720D1*
X24893D1*
X26670Y43498D1*
Y45085D1*
X27778Y46193D1*
X29035D1*
X33135Y42893D2*
Y43931D1*
X33500Y44296D1*
Y45090D1*
X34452Y46042D1*
X50805Y50488D2*
Y48741D1*
X55086Y38894D2*
Y40481D1*
X51276Y44291D1*
X46037D1*
X42545Y47784D1*
X40444D1*
X40435Y47793D1*
X84455Y91481D2*
D14*
X81322D1*
X78740Y88900D1*
X55086Y36354D2*
D16*
X53816Y37624D1*
Y40481D1*
X50800Y43498D1*
X45720D1*
X42227Y46990D1*
X40438D1*
X40435Y46993D1*
X66040Y76200D2*
Y78740D1*
X78740Y83820D2*
D14*
X81597D1*
X83185Y82233D1*
X85058D1*
X85090Y82200D1*
X78740Y81280D2*
X81597D1*
X82550Y80328D1*
X84962D1*
X85090Y80200D1*
X78740Y78740D2*
X80962D1*
X81597Y78105D1*
X84995D1*
X85090Y78200D1*
X84772Y43974D2*
X83026D1*
X81280Y45720D1*
X78740D1*
X85090Y22225D2*
X83185D1*
X81280Y24130D1*
X78740D1*
X20320Y47308D2*
D16*
X23177D1*
X23939Y46546D1*
X24765D1*
X25432D1*
X25876Y46990D1*
X29032D1*
X29035Y46993D1*
X78740Y76200D2*
D14*
X85090D1*
X30798Y59055D2*
D16*
Y58419D1*
X32068Y57150D1*
X33814D1*
X34766Y56197D1*
Y54324D1*
X34735Y54293D1*
X66040Y11430D2*
Y13970D1*
X78740Y19050D2*
D14*
X83470D1*
X85090Y17430D1*
X78740Y16510D2*
X82233D1*
X83185Y15557D1*
X85218D1*
X85090Y15430D1*
X78740Y13970D2*
X82233D1*
X82867Y13335D1*
X84995D1*
X85090Y13430D1*
X78740Y11430D2*
X85090D1*
X33338Y59055D2*
D16*
X35560Y56833D1*
Y54318D1*
X35535Y54293D1*
X66040Y33020D2*
Y35560D1*
X78740Y40640D2*
D14*
X83470D1*
X85090Y39020D1*
X78740Y38100D2*
X81597D1*
X82867Y36830D1*
X84900D1*
X85090Y37020D1*
X78740Y35560D2*
X80962D1*
X81597Y34925D1*
X84995D1*
X85090Y35020D1*
X78740Y33020D2*
X85090D1*
X35878Y59055D2*
D16*
Y58102D1*
X36354Y57626D1*
Y54312D1*
X36335Y54293D1*
X66040Y54610D2*
Y57150D1*
X78740Y62230D2*
D14*
X81915D1*
X83502Y60643D1*
X85058D1*
X85090Y60610D1*
X78740Y59690D2*
X81597D1*
X82867Y58420D1*
X84900D1*
X85090Y58610D1*
X78740Y57150D2*
X81280D1*
X81915Y56515D1*
X84995D1*
X85090Y56610D1*
X29051Y56039D2*
D16*
X33655D1*
X33972Y55721D1*
Y54331D1*
X33935Y54293D1*
X24130Y56039D2*
Y56833D1*
X23178Y57785D1*
Y59055D1*
X52546Y38894D2*
Y40481D1*
X50324Y42704D1*
X45403D1*
X41910Y46196D1*
X40438D1*
X40435Y46193D1*
X52546Y36354D2*
X51276Y37624D1*
Y40481D1*
X49847Y41910D1*
X45085D1*
X41593Y45403D1*
X40444D1*
X40435Y45393D1*
X53340Y65405D2*
X48692D1*
X48577Y65290D1*
X53340Y65405D2*
X54769D1*
X55404Y66040D1*
X57150D1*
X53340Y60579D2*
Y62071D1*
X50959Y64453D1*
X48614D1*
X48577Y64490D1*
X53340Y60579D2*
X54356D1*
X55245Y59690D1*
X57150D1*
X40435Y51793D2*
X39171D1*
X38576Y52387D1*
X44768Y60166D2*
Y58300D1*
X44777Y58290D1*
X48255Y48736D2*
Y50795D1*
X40435Y52593D2*
Y53770D1*
X42386Y55721D1*
Y58281D1*
X42377Y58290D1*
X30639Y63817D2*
Y62547D1*
X30956Y62230D1*
X33972D1*
X36989Y65246D1*
X40133D1*
X40177Y65290D1*
X84772Y65564D2*
D14*
X83344D1*
X81597Y67310D1*
X78740D1*
X40322Y66675D2*
D16*
X41562D1*
X41577Y66690D1*
X30639Y66357D2*
X31909Y65087D1*
X33972D1*
X37148Y68263D1*
X42227D1*
X42386Y68104D1*
Y66699D1*
X42377Y66690D1*
X31115Y76835D2*
Y81280D1*
X30480Y81915D1*
X29305D1*
X29210Y82010D1*
X31115Y76835D2*
Y74612D1*
X46514Y60008D2*
X46672D1*
X47149Y59531D1*
Y58318D1*
X47177Y58290D1*
X48578Y58261D2*
X48577D1*
Y59690D1*
X50165Y58420D2*
Y60490D1*
X48577D1*
X50006Y38894D2*
X47784Y41116D1*
X44768D1*
X41291Y44593D1*
X40435D1*
X50006Y36354D2*
X49847D1*
X45879Y40322D1*
X44450D1*
X41910Y42863D1*
X38766D1*
X38735Y42893D1*
X45561Y76359D2*
Y80804D1*
X44450Y81915D1*
X43275D1*
X43180Y81820D1*
X45561Y65087D2*
Y66674D1*
X45577Y66690D1*
X32335Y42893D2*
Y44083D1*
X32703Y44450D1*
Y46038D1*
X35401Y17621D2*
X36512Y16511D1*
Y15240D1*
X53340Y6350D2*
D13*
Y9208D1*
X56515Y12383D1*
X58738D1*
X59690Y11430D1*
Y9585D1*
Y14985D2*
Y17032D1*
X59260Y17463D1*
X60960D2*
Y14985D1*
X48895Y19685D2*
D14*
Y21273D1*
X50165Y22543D1*
Y24510D1*
X48895Y19685D2*
D19*
X60960D1*
Y17463D1*
X60012Y5080D2*
D13*
Y6345D1*
X58420Y7938D1*
Y9585D1*
X41910Y4128D2*
D14*
Y5080D1*
X43498Y6667D1*
X48833D1*
X48895Y6730D1*
Y10285D1*
X55245Y6350D2*
D13*
X57150D1*
Y9585D1*
X44450Y4128D2*
D14*
X48697D1*
X48895Y3930D1*
D19*
X50045D1*
X51752Y2222D1*
X56197D1*
X57150Y3175D1*
Y9585D1*
X31115Y6350D2*
D13*
Y9843D1*
X33655Y12383D1*
X37148D1*
X37782Y11748D1*
Y9840D1*
Y15240D2*
Y17146D1*
X37465Y17463D1*
Y17984D1*
X37352Y18097D1*
X39052D2*
Y15240D1*
Y18097D2*
D19*
Y20003D1*
X38735Y20320D1*
X30797D1*
X27623D1*
X26988Y19685D1*
X30797Y23495D2*
Y20320D1*
X31535Y42893D2*
D16*
Y44926D1*
X57468Y17621D2*
Y17145D1*
X58420Y16192D1*
Y14985D1*
X36835Y4445D2*
D13*
Y7615D1*
X36512Y7938D1*
Y9840D1*
X26988Y6985D2*
D16*
Y10285D1*
X19685Y4128D2*
D14*
Y5398D1*
X21273Y6985D1*
X26988D1*
X33020Y6350D2*
D13*
X34925D1*
Y7302D1*
X35242Y7619D1*
Y9840D1*
X22225Y4128D2*
D14*
X26930D1*
X26988Y4185D1*
D19*
Y3174D1*
X28258Y1905D1*
X33972D1*
X34925Y2857D1*
Y6985D1*
X35242Y7302D1*
Y9840D1*
X71750Y97473D2*
D16*
Y99055D1*
X72707Y100013D1*
Y102870D1*
X71215D1*
X71120Y102965D1*
X79692Y106045D2*
Y104457D1*
X79058Y103822D1*
X74295D1*
X73343Y102870D1*
X72707D1*
X71755Y95250D2*
Y97468D1*
X71750Y97473D1*
X64770D2*
D13*
Y98425D1*
X66040Y99695D1*
Y102235D1*
X65405Y102870D1*
X64547D1*
X64453Y102965D1*
X64770Y95250D2*
Y97473D1*
X81280Y103822D2*
D16*
X82232Y104775D1*
Y106045D1*
X51752Y53975D2*
Y54928D1*
X49847Y56833D1*
X46672D1*
X46355Y57150D1*
Y58268D1*
X46377Y58290D1*
X49212Y53975D2*
Y54451D1*
X47466Y56197D1*
X46038D1*
X45561Y56674D1*
Y58274D1*
X45577Y58290D1*
X30420Y38420D2*
X29684D1*
X29369Y38735D1*
Y40005D1*
X30639Y41275D1*
X33655D1*
X33972Y41593D1*
Y42855D1*
X33935Y42893D1*
X33020Y38420D2*
X33975D1*
X34290Y38735D1*
Y40799D1*
X34766Y41275D1*
Y42862D1*
X34735Y42893D1*
X45403Y71594D2*
X44611D1*
X44291Y71914D1*
X43656D1*
X46355Y68263D2*
Y66712D1*
X46377Y66690D1*
X48002Y71594D2*
X48910D1*
X49530Y70974D1*
Y67627D1*
X48578Y66675D1*
X47192D1*
X47177Y66690D1*
X20479Y53335D2*
D13*
X15880D1*
X15875Y53340D1*
X19685Y89530D2*
X15880D1*
X15875Y89535D1*
X78740Y54610D2*
D14*
X85090D1*
X23495Y33660D2*
D16*
X29025D1*
X29210Y33845D1*
Y35242D1*
X30480Y36512D1*
Y37410D1*
X30420Y37470D1*
X23495Y29840D2*
X29205D1*
X29210Y29845D1*
X33020Y39370D2*
Y40322D1*
X31274Y33655D2*
Y30797D1*
X30321Y29845D1*
X29210D1*
X37465Y33845D2*
Y35401D1*
X36830Y36036D1*
Y37410D1*
X36770Y37470D1*
X37465Y33845D2*
X39180D1*
X39370Y33655D1*
X40958D1*
X39370Y39370D2*
Y40322D1*
X37465Y29845D2*
X39053D1*
X39370Y30162D1*
X40953D1*
X40958Y30157D1*
X35535Y42893D2*
Y38601D1*
X35719Y38417D1*
X36768D1*
X36770Y38420D1*
X39370D2*
X40166D1*
X40481Y38735D1*
Y40957D1*
X40005Y41434D1*
X36513D1*
X36354Y41593D1*
Y42874D1*
X36335Y42893D1*
X37935D2*
Y47308D1*
X55562D2*
Y51752D1*
X61913Y58102D1*
Y65087D1*
X56674Y70326D1*
Y75089D1*
X61754Y80169D1*
Y88424D1*
X64770Y91440D1*
X75406D1*
X80169Y96203D1*
X81439D1*
X83979Y98743D1*
X85695D1*
X85725Y98772D1*
X37135Y42893D2*
Y46050D1*
X36989Y46196D1*
X56515D2*
Y51594D1*
X62706Y57785D1*
Y65405D1*
X57468Y70644D1*
Y74771D1*
X62547Y79851D1*
Y88106D1*
X65087Y90646D1*
X75724D1*
X80486Y95409D1*
X81756D1*
X84455Y98108D1*
X85710D1*
X85725Y98123D1*
X7620Y10795D2*
X5398D1*
X4445Y11748D1*
Y13023D1*
Y14922D2*
Y16192D1*
X3175Y17463D1*
Y21749D1*
X3651Y22225D1*
X5080D1*
X9920Y10795D2*
D13*
Y9447D1*
X10795Y8572D1*
Y7395D1*
X10888Y7302D1*
X11112D1*
Y4128D1*
X5080Y19685D2*
D16*
Y18415D1*
X17463Y14923D2*
X16827D1*
X13653Y18098D1*
Y20955D1*
X12383Y22225D1*
X10480D1*
X37148Y76513D2*
D13*
Y78422D1*
X36830Y78740D1*
Y80010D1*
X37148Y76513D2*
X39057D1*
X40005Y75565D1*
Y73025D1*
X42386Y70644D1*
X45403D1*
X37147Y87635D2*
Y85724D1*
X36830Y85407D1*
Y84010D1*
X37910D1*
X40005Y81915D1*
Y78581D1*
X44450Y74136D1*
X47308D1*
X47942Y73501D1*
Y72484D1*
X48002Y72544D1*
X32701Y103198D2*
X35246D1*
X22699Y103199D2*
X25244D1*
Y103198D1*
X12701D2*
X15246D1*
X21273Y27940D2*
D16*
X23495D1*
X34925Y74612D2*
X37148D1*
X40958Y35555D2*
X43175D1*
X43180Y35560D1*
X40958Y28258D2*
X43180D1*
Y28257D1*
X23495Y35560D2*
X21273D1*
X59373Y73660D2*
X66040D1*
X59373Y71596D2*
X60484D1*
X60903Y71177D1*
Y71120D1*
X66040D1*
X59373Y30480D2*
X66040D1*
X59373Y52070D2*
X66040D1*
X59373Y49530D2*
X66040D1*
X44450Y104965D2*
D13*
Y105093D1*
X46990Y107632D1*
X52070D1*
X53975Y109538D1*
Y111125D1*
X44450Y102965D2*
X43720D1*
X42863Y103822D1*
Y106045D1*
X45720Y108902D1*
X50482D1*
X51435Y109855D1*
Y111125D1*
X54610Y91757D2*
X51213D1*
X51117Y91853D1*
X46355Y86995D2*
D16*
X54292D1*
X56197Y88900D1*
Y91123D1*
X55563Y91757D1*
X54610D1*
X51435Y97473D2*
D13*
Y98108D1*
X52705Y99377D1*
Y102235D1*
X52070Y102870D1*
X51212D1*
X51117Y102965D1*
D16*
X50070D1*
X49212Y103822D1*
Y105410D1*
X50165Y106362D1*
X64453D1*
X69215Y111125D1*
X58215Y97473D2*
D13*
Y98220D1*
X59373Y99377D1*
Y102870D1*
X57880D1*
X57785Y102965D1*
D16*
X62547D1*
X80962Y106045D2*
Y108268D1*
X80010Y109220D1*
X74930D1*
X74295Y109855D1*
Y111125D1*
X78422Y106045D2*
Y107950D1*
X17463Y12383D2*
X12700Y17146D1*
Y20003D1*
X11748Y20955D1*
X10480D1*
X46196Y53811D2*
Y55245D1*
X45403D1*
X43977Y56671D1*
Y58290D1*
X40435Y50993D2*
X37465D1*
Y51435D1*
X37306Y51276D1*
X28258Y40799D2*
X24924Y37465D1*
X18256D1*
X9872Y29081D1*
X9761Y28970D1*
X8255Y27464D1*
Y21431D1*
X8731Y20955D1*
X10480D1*
X9872Y29081D2*
Y28867D1*
X10161Y28578D1*
X10153D1*
X9761Y28970D1*
X40435Y50193D2*
X42256D1*
X42545Y50482D1*
Y53340D1*
X43016Y53811D1*
X44133D1*
Y55086D1*
X43180Y56039D1*
Y58287D1*
X43177Y58290D1*
X40435Y50193D2*
X32703D1*
X28099Y42545D2*
X23971Y38417D1*
X17939D1*
X9361Y29839D1*
X9097Y29576D1*
X7302Y27781D1*
Y20320D1*
X7938Y19685D1*
X10480D1*
X9361Y29839D2*
X8900D1*
X8732Y30007D1*
Y29941D1*
X9097Y29576D1*
D61*
X5715Y73660D3*
X41581Y9843D3*
X40308Y9840D3*
X61278Y1905D3*
X63500D3*
X69850Y14605D3*
Y92710D3*
X17145Y32385D3*
X69850Y14605D3*
X74612Y107950D3*
X12383Y13335D3*
X3492Y33020D3*
X22225Y17463D3*
X34452Y46042D3*
X50805Y50488D3*
X29051Y56039D3*
X38576Y52387D3*
X44768Y60166D3*
X48255Y50795D3*
X40322Y66675D3*
X31115Y74612D3*
X46514Y60008D3*
X48578Y58261D3*
X50165Y58420D3*
X45561Y65087D3*
X32703Y46038D3*
X35401Y17621D3*
X31535Y44926D3*
X57468Y17621D3*
X81280Y103822D3*
X43656Y71914D3*
X46355Y68263D3*
X33020Y40322D3*
X31274Y33655D3*
X39370Y40322D3*
X37935Y47308D3*
X55562D3*
X36989Y46196D3*
X56515D3*
X5080Y18415D3*
X59373Y73660D3*
Y71596D3*
Y30480D3*
Y52070D3*
Y49530D3*
X46355Y86995D3*
X62547Y102965D3*
X78422Y107950D3*
X37306Y51276D3*
X46196Y55245D3*
X28258Y40799D3*
X37306Y51276D3*
X32703Y50193D3*
X28099Y42545D3*
X28258Y36989D3*
X31433Y51911D3*
X76041Y93504D3*
X78422Y95885D3*
X67945Y26035D3*
X68263Y13018D3*
Y8096D3*
X68104Y31909D3*
X740Y118903D2*
D16*
X89263D1*
X740Y118507D2*
X84088D1*
X86724D2*
X89263D1*
X740Y118110D2*
X4619D1*
X5543D2*
X83413D1*
X87399D2*
X89263D1*
X740Y117713D2*
X3444D1*
X6712D2*
X82988D1*
X87831D2*
X89263D1*
X740Y117317D2*
X2901D1*
X7262D2*
X82682D1*
X88131D2*
X89263D1*
X740Y116920D2*
X2526D1*
X7637D2*
X82463D1*
X88349D2*
X89263D1*
X740Y116523D2*
X2257D1*
X7899D2*
X82307D1*
X88506D2*
X89263D1*
X740Y116127D2*
X2069D1*
X8093D2*
X82213D1*
X88599D2*
X89263D1*
X740Y115730D2*
X1938D1*
X8224D2*
X82169D1*
X88649D2*
X89263D1*
X740Y115333D2*
X1863D1*
X8299D2*
X82176D1*
X88643D2*
X89263D1*
X740Y114937D2*
X1838D1*
X8324D2*
X46013D1*
X46699D2*
X48551D1*
X49237D2*
X51088D1*
X51781D2*
X53632D1*
X54318D2*
X56169D1*
X56862D2*
X58713D1*
X59399D2*
X61251D1*
X61937D2*
X63788D1*
X64481D2*
X66332D1*
X67018D2*
X68869D1*
X69562D2*
X71413D1*
X72099D2*
X73951D1*
X74637D2*
X76488D1*
X77181D2*
X82226D1*
X88587D2*
X89263D1*
X740Y114540D2*
X1863D1*
X8299D2*
X45344D1*
X47368D2*
X47882D1*
X49906D2*
X50426D1*
X52449D2*
X52963D1*
X54987D2*
X55501D1*
X57524D2*
X58044D1*
X60068D2*
X60582D1*
X62606D2*
X63126D1*
X65149D2*
X65663D1*
X67687D2*
X68201D1*
X70224D2*
X70744D1*
X72768D2*
X73282D1*
X75306D2*
X75826D1*
X79356D2*
X82332D1*
X88481D2*
X89263D1*
X740Y114143D2*
X1938D1*
X8224D2*
X45101D1*
X79781D2*
X82501D1*
X88318D2*
X89263D1*
X740Y113747D2*
X2063D1*
X8093D2*
X45007D1*
X80174D2*
X82732D1*
X88081D2*
X89263D1*
X740Y113350D2*
X2257D1*
X7906D2*
X45044D1*
X80574D2*
X83057D1*
X87756D2*
X89263D1*
X740Y112953D2*
X2526D1*
X7637D2*
X45219D1*
X80968D2*
X83519D1*
X87293D2*
X89263D1*
X740Y112557D2*
X2894D1*
X7268D2*
X45619D1*
X81368D2*
X84282D1*
X86531D2*
X89263D1*
X740Y112160D2*
X3438D1*
X6718D2*
X45007D1*
X81762D2*
X89263D1*
X740Y111763D2*
X4594D1*
X5568D2*
X45007D1*
X82162D2*
X89263D1*
X740Y111367D2*
X45007D1*
X82556D2*
X89263D1*
X740Y110970D2*
X10963D1*
X13162D2*
X15963D1*
X18162D2*
X20963D1*
X23162D2*
X25963D1*
X28162D2*
X30963D1*
X33162D2*
X35963D1*
X38162D2*
X45007D1*
X82956D2*
X89263D1*
X740Y110573D2*
X10488D1*
X13637D2*
X15488D1*
X18637D2*
X20488D1*
X23637D2*
X25488D1*
X28637D2*
X30488D1*
X33637D2*
X35488D1*
X38637D2*
X45007D1*
X83349D2*
X89263D1*
X740Y110177D2*
X10219D1*
X13912D2*
X15219D1*
X18912D2*
X20219D1*
X23912D2*
X25219D1*
X28912D2*
X30219D1*
X33912D2*
X35219D1*
X38912D2*
X45007D1*
X47706D2*
X47957D1*
X49837D2*
X50494D1*
X70156D2*
X70813D1*
X72693D2*
X73357D1*
X83749D2*
X89263D1*
X740Y109780D2*
X10057D1*
X14074D2*
X15057D1*
X19074D2*
X20057D1*
X24074D2*
X25057D1*
X29074D2*
X30057D1*
X34074D2*
X35057D1*
X39074D2*
X50126D1*
X68962D2*
X73513D1*
X84143D2*
X89263D1*
X740Y109383D2*
X9988D1*
X14143D2*
X14988D1*
X19143D2*
X19988D1*
X24143D2*
X24988D1*
X29143D2*
X29988D1*
X34143D2*
X34988D1*
X39143D2*
X44963D1*
X68568D2*
X73676D1*
X84543D2*
X89263D1*
X740Y108987D2*
X9994D1*
X14137D2*
X14994D1*
X19137D2*
X19994D1*
X24137D2*
X24994D1*
X29137D2*
X29994D1*
X34137D2*
X34994D1*
X39137D2*
X44569D1*
X68168D2*
X74069D1*
X84824D2*
X89263D1*
X740Y108590D2*
X10082D1*
X14049D2*
X15082D1*
X19049D2*
X20082D1*
X24049D2*
X25082D1*
X29049D2*
X30082D1*
X34049D2*
X35082D1*
X39049D2*
X44169D1*
X67774D2*
X74488D1*
X84906D2*
X89263D1*
X740Y108193D2*
X10257D1*
X13874D2*
X15257D1*
X18874D2*
X20257D1*
X23874D2*
X25257D1*
X28874D2*
X30257D1*
X33874D2*
X35257D1*
X38874D2*
X43776D1*
X67381D2*
X77407D1*
X84906D2*
X89263D1*
X740Y107797D2*
X10557D1*
X13574D2*
X15557D1*
X18574D2*
X20557D1*
X23574D2*
X25557D1*
X28574D2*
X30557D1*
X33574D2*
X35557D1*
X38574D2*
X43376D1*
X66981D2*
X77394D1*
X84906D2*
X89263D1*
X740Y107400D2*
X11088D1*
X13037D2*
X16088D1*
X18037D2*
X21088D1*
X23037D2*
X26088D1*
X28037D2*
X31088D1*
X33037D2*
X36088D1*
X38037D2*
X42982D1*
X66587D2*
X73726D1*
X84906D2*
X89263D1*
X740Y107003D2*
X16263D1*
X18031D2*
X26257D1*
X28031D2*
X36263D1*
X38031D2*
X42582D1*
X66187D2*
X73726D1*
X84906D2*
X89263D1*
X740Y106607D2*
X16263D1*
X18031D2*
X26257D1*
X28031D2*
X36263D1*
X38031D2*
X42188D1*
X47199D2*
X49313D1*
X65793D2*
X73726D1*
X84906D2*
X89263D1*
X740Y106210D2*
X16263D1*
X18031D2*
X26257D1*
X28031D2*
X36263D1*
X38031D2*
X41994D1*
X46806D2*
X48919D1*
X65393D2*
X73726D1*
X84906D2*
X89263D1*
X740Y105813D2*
X16263D1*
X18031D2*
X26257D1*
X28031D2*
X36263D1*
X38031D2*
X41976D1*
X46406D2*
X48544D1*
X65337D2*
X70238D1*
X72006D2*
X73726D1*
X84906D2*
X89263D1*
X740Y105417D2*
X16263D1*
X18031D2*
X26257D1*
X28031D2*
X36263D1*
X38031D2*
X41976D1*
X46012D2*
X48426D1*
X72268D2*
X73726D1*
X84906D2*
X89263D1*
X740Y105020D2*
X16263D1*
X18031D2*
X26257D1*
X28031D2*
X36263D1*
X38031D2*
X41976D1*
X45687D2*
X48426D1*
X72356D2*
X73726D1*
X84906D2*
X89263D1*
X740Y104623D2*
X16263D1*
X18031D2*
X26257D1*
X28031D2*
X36263D1*
X38031D2*
X41976D1*
X45637D2*
X48426D1*
X72306D2*
X73726D1*
X84906D2*
X89263D1*
X740Y104227D2*
X9563D1*
X18381D2*
X19563D1*
X28381D2*
X29563D1*
X38381D2*
X41976D1*
X45431D2*
X48426D1*
X72099D2*
X73607D1*
X84906D2*
X89263D1*
X740Y103830D2*
X9563D1*
X18381D2*
X19563D1*
X28381D2*
X29563D1*
X38381D2*
X41976D1*
X45318D2*
X48426D1*
X51981D2*
X56919D1*
X65318D2*
X70257D1*
X71987D2*
X73207D1*
X84856D2*
X87163D1*
X740Y103433D2*
X9563D1*
X18381D2*
X19563D1*
X28381D2*
X29563D1*
X38381D2*
X42069D1*
X45593D2*
X48538D1*
X52743D2*
X56644D1*
X66081D2*
X69982D1*
X79762D2*
X80313D1*
X84631D2*
X87163D1*
X740Y103037D2*
X9563D1*
X18381D2*
X19563D1*
X28381D2*
X29563D1*
X38381D2*
X42413D1*
X45681D2*
X48907D1*
X53137D2*
X56551D1*
X66474D2*
X69888D1*
X74606D2*
X80619D1*
X84237D2*
X84663D1*
X740Y102640D2*
X9563D1*
X18381D2*
X19563D1*
X28381D2*
X29563D1*
X38381D2*
X42807D1*
X45643D2*
X49301D1*
X53487D2*
X56594D1*
X66824D2*
X69932D1*
X74206D2*
X81151D1*
X83837D2*
X84663D1*
X740Y102243D2*
X9563D1*
X18381D2*
X19563D1*
X28381D2*
X29563D1*
X38381D2*
X43238D1*
X45443D2*
X49844D1*
X53593D2*
X56794D1*
X66924D2*
X70126D1*
X73787D2*
X81144D1*
X83443D2*
X84663D1*
X740Y101847D2*
X43601D1*
X45299D2*
X50269D1*
X53593D2*
X56938D1*
X60256D2*
X63607D1*
X66924D2*
X70269D1*
X73493D2*
X73726D1*
X83318D2*
X84663D1*
X740Y101450D2*
X43319D1*
X45581D2*
X49982D1*
X53593D2*
X56651D1*
X60256D2*
X63319D1*
X66924D2*
X69988D1*
X73493D2*
X73726D1*
X83318D2*
X84663D1*
X740Y101053D2*
X16344D1*
X29056D2*
X43219D1*
X45681D2*
X49888D1*
X53593D2*
X56551D1*
X60256D2*
X63219D1*
X66924D2*
X69888D1*
X73493D2*
X73726D1*
X83318D2*
X84663D1*
X740Y100657D2*
X2301D1*
X4049D2*
X15001D1*
X29449D2*
X43257D1*
X45643D2*
X49919D1*
X53593D2*
X56588D1*
X60256D2*
X63257D1*
X66924D2*
X69926D1*
X73493D2*
X73726D1*
X83318D2*
X84463D1*
X740Y100260D2*
X1794D1*
X4556D2*
X14494D1*
X29849D2*
X43444D1*
X45456D2*
X50113D1*
X53593D2*
X56782D1*
X60256D2*
X63444D1*
X66924D2*
X70113D1*
X73493D2*
X73726D1*
X83318D2*
X84463D1*
X740Y99863D2*
X1526D1*
X4824D2*
X14226D1*
X30243D2*
X43944D1*
X44956D2*
X50613D1*
X53593D2*
X57282D1*
X58287D2*
X58488D1*
X60256D2*
X63951D1*
X66924D2*
X70613D1*
X73481D2*
X73726D1*
X83318D2*
X84463D1*
X740Y99467D2*
X1382D1*
X4968D2*
X14082D1*
X30637D2*
X51557D1*
X53593D2*
X58226D1*
X60256D2*
X64576D1*
X66893D2*
X71088D1*
X73256D2*
X73726D1*
X83318D2*
X83763D1*
X740Y99070D2*
X1338D1*
X5012D2*
X14038D1*
X17712D2*
X28001D1*
X44581D2*
X51163D1*
X53531D2*
X57832D1*
X60199D2*
X64182D1*
X66649D2*
X70963D1*
X72862D2*
X78132D1*
X740Y98673D2*
X1382D1*
X4968D2*
X14082D1*
X17668D2*
X28394D1*
X45087D2*
X50769D1*
X53237D2*
X57463D1*
X59906D2*
X61632D1*
X66256D2*
X68613D1*
X72987D2*
X77626D1*
X740Y98277D2*
X1519D1*
X4831D2*
X14219D1*
X17531D2*
X18944D1*
X22968D2*
X23751D1*
X27768D2*
X28794D1*
X45481D2*
X48601D1*
X52843D2*
X55382D1*
X59506D2*
X61632D1*
X66006D2*
X68613D1*
X72987D2*
X77232D1*
X740Y97880D2*
X1788D1*
X4562D2*
X14488D1*
X22968D2*
X23751D1*
X27768D2*
X29188D1*
X45881D2*
X48601D1*
X52568D2*
X55382D1*
X59349D2*
X61632D1*
X66006D2*
X68613D1*
X72987D2*
X76832D1*
X740Y97483D2*
X2282D1*
X4068D2*
X14788D1*
X22968D2*
X23751D1*
X27768D2*
X29588D1*
X46274D2*
X48601D1*
X52568D2*
X55382D1*
X59349D2*
X61632D1*
X66006D2*
X68613D1*
X72987D2*
X76438D1*
X740Y97087D2*
X14788D1*
X22968D2*
X23751D1*
X27768D2*
X30213D1*
X46674D2*
X48601D1*
X52568D2*
X55382D1*
X59349D2*
X61632D1*
X66006D2*
X68613D1*
X72987D2*
X76044D1*
X740Y96690D2*
X14788D1*
X22968D2*
X23751D1*
X27768D2*
X44032D1*
X47068D2*
X48601D1*
X52568D2*
X55382D1*
X59349D2*
X61632D1*
X66006D2*
X68613D1*
X72987D2*
X75644D1*
X78681D2*
X79563D1*
X740Y96293D2*
X14788D1*
X22968D2*
X23751D1*
X27768D2*
X44426D1*
X47468D2*
X61632D1*
X66006D2*
X68613D1*
X72987D2*
X75251D1*
X78287D2*
X79163D1*
X740Y95897D2*
X14788D1*
X22674D2*
X44826D1*
X47862D2*
X61932D1*
X65906D2*
X68919D1*
X72893D2*
X74851D1*
X77887D2*
X78769D1*
X740Y95500D2*
X14788D1*
X22674D2*
X45219D1*
X48262D2*
X61932D1*
X65906D2*
X68919D1*
X72893D2*
X74457D1*
X77493D2*
X78369D1*
X740Y95103D2*
X14788D1*
X22674D2*
X45619D1*
X48656D2*
X61932D1*
X65906D2*
X68919D1*
X72893D2*
X74057D1*
X77093D2*
X77976D1*
X740Y94707D2*
X14788D1*
X22674D2*
X43576D1*
X45324D2*
X46013D1*
X61731D2*
X61932D1*
X65906D2*
X68919D1*
X72893D2*
X73663D1*
X76699D2*
X77576D1*
X740Y94310D2*
X14788D1*
X22674D2*
X43307D1*
X45593D2*
X46413D1*
X65906D2*
X68919D1*
X72893D2*
X73263D1*
X76306D2*
X77182D1*
X84431D2*
X84663D1*
X740Y93913D2*
X14501D1*
X22674D2*
X43213D1*
X45687D2*
X46807D1*
X62543D2*
X72869D1*
X75906D2*
X76788D1*
X84037D2*
X87163D1*
X740Y93517D2*
X14226D1*
X25774D2*
X43263D1*
X45637D2*
X47207D1*
X75512D2*
X76388D1*
X83643D2*
X87163D1*
X740Y93120D2*
X14088D1*
X25774D2*
X43463D1*
X45437D2*
X47601D1*
X75112D2*
X75994D1*
X85743D2*
X89263D1*
X740Y92723D2*
X14038D1*
X25774D2*
X43588D1*
X45312D2*
X48076D1*
X55693D2*
X60701D1*
X74718D2*
X75594D1*
X85743D2*
X89263D1*
X740Y92327D2*
X14082D1*
X25774D2*
X43313D1*
X45587D2*
X49982D1*
X56087D2*
X61094D1*
X74318D2*
X75201D1*
X85743D2*
X89263D1*
X740Y91930D2*
X14219D1*
X25774D2*
X43219D1*
X45681D2*
X49882D1*
X56487D2*
X61494D1*
X85743D2*
X89263D1*
X740Y91533D2*
X14482D1*
X25774D2*
X43257D1*
X45643D2*
X49926D1*
X56862D2*
X63769D1*
X85743D2*
X89263D1*
X740Y91137D2*
X14976D1*
X25774D2*
X43451D1*
X45449D2*
X50119D1*
X56981D2*
X63369D1*
X85743D2*
X89263D1*
X740Y90740D2*
X14501D1*
X25774D2*
X43607D1*
X45293D2*
X50276D1*
X51956D2*
X53526D1*
X56981D2*
X62976D1*
X85743D2*
X89263D1*
X740Y90343D2*
X14232D1*
X21018D2*
X33588D1*
X38481D2*
X43319D1*
X45581D2*
X49988D1*
X52249D2*
X53526D1*
X56981D2*
X62582D1*
X81699D2*
X83169D1*
X85743D2*
X89263D1*
X740Y89947D2*
X14088D1*
X21018D2*
X33588D1*
X38481D2*
X43219D1*
X45681D2*
X49888D1*
X52349D2*
X53526D1*
X56981D2*
X62182D1*
X81306D2*
X83169D1*
X85743D2*
X89263D1*
X740Y89550D2*
X14038D1*
X21018D2*
X33588D1*
X38481D2*
X43251D1*
X45649D2*
X49919D1*
X52312D2*
X53526D1*
X56981D2*
X61788D1*
X67481D2*
X75519D1*
X80912D2*
X83169D1*
X85743D2*
X89263D1*
X740Y89153D2*
X14082D1*
X21018D2*
X33588D1*
X38481D2*
X43438D1*
X45462D2*
X50107D1*
X52124D2*
X53526D1*
X56981D2*
X61388D1*
X67606D2*
X75426D1*
X80512D2*
X89263D1*
X740Y88757D2*
X14219D1*
X21018D2*
X33588D1*
X38481D2*
X43932D1*
X44968D2*
X50601D1*
X51637D2*
X54957D1*
X56968D2*
X61044D1*
X67618D2*
X75426D1*
X80318D2*
X89263D1*
X740Y88360D2*
X14476D1*
X17274D2*
X18351D1*
X21018D2*
X33588D1*
X38481D2*
X54563D1*
X56749D2*
X60969D1*
X63893D2*
X64551D1*
X67531D2*
X75426D1*
X80231D2*
X83169D1*
X85743D2*
X89263D1*
X740Y87963D2*
X14969D1*
X16781D2*
X18351D1*
X21018D2*
X33588D1*
X38481D2*
X46057D1*
X46656D2*
X54169D1*
X56356D2*
X60969D1*
X63499D2*
X64769D1*
X67312D2*
X75426D1*
X77199D2*
X77469D1*
X80012D2*
X83169D1*
X85743D2*
X89263D1*
X740Y87567D2*
X14507D1*
X17243D2*
X18351D1*
X21018D2*
X33588D1*
X38481D2*
X45494D1*
X55956D2*
X60969D1*
X63331D2*
X65032D1*
X67043D2*
X75426D1*
X77199D2*
X77732D1*
X79743D2*
X83169D1*
X85743D2*
X89263D1*
X740Y87170D2*
X14232D1*
X17518D2*
X18351D1*
X21018D2*
X33588D1*
X38481D2*
X45326D1*
X55562D2*
X60969D1*
X63331D2*
X64682D1*
X67399D2*
X75426D1*
X80099D2*
X83169D1*
X85743D2*
X89263D1*
X740Y86773D2*
X14088D1*
X17662D2*
X18351D1*
X21018D2*
X33588D1*
X38481D2*
X45338D1*
X55168D2*
X60969D1*
X63331D2*
X64513D1*
X67568D2*
X75426D1*
X80268D2*
X83169D1*
X85743D2*
X89263D1*
X740Y86377D2*
X14038D1*
X17712D2*
X33838D1*
X38031D2*
X45526D1*
X54749D2*
X60969D1*
X63331D2*
X64457D1*
X67624D2*
X75426D1*
X80324D2*
X83169D1*
X85743D2*
X89263D1*
X740Y85980D2*
X14082D1*
X17668D2*
X33838D1*
X38031D2*
X60969D1*
X63331D2*
X64501D1*
X67581D2*
X75426D1*
X80281D2*
X83169D1*
X85743D2*
X89263D1*
X740Y85583D2*
X14213D1*
X17537D2*
X33838D1*
X38018D2*
X60969D1*
X63331D2*
X64663D1*
X67418D2*
X75426D1*
X80118D2*
X83169D1*
X85743D2*
X89263D1*
X740Y85187D2*
X14469D1*
X17281D2*
X28957D1*
X29462D2*
X33838D1*
X37837D2*
X51819D1*
X52324D2*
X60969D1*
X63331D2*
X64994D1*
X67087D2*
X75426D1*
X77199D2*
X77694D1*
X79787D2*
X83169D1*
X85743D2*
X89263D1*
X740Y84790D2*
X14957D1*
X16793D2*
X28263D1*
X30156D2*
X33838D1*
X38274D2*
X42438D1*
X43918D2*
X51126D1*
X53018D2*
X60969D1*
X63331D2*
X64794D1*
X67281D2*
X75426D1*
X77199D2*
X77494D1*
X82031D2*
X83169D1*
X85743D2*
X89263D1*
X740Y84393D2*
X28038D1*
X30381D2*
X33838D1*
X38762D2*
X42088D1*
X44268D2*
X50894D1*
X53243D2*
X60969D1*
X63331D2*
X64563D1*
X67518D2*
X75426D1*
X82543D2*
X89263D1*
X740Y83997D2*
X27976D1*
X30443D2*
X33838D1*
X39162D2*
X41957D1*
X44406D2*
X50832D1*
X53306D2*
X60969D1*
X63331D2*
X64463D1*
X67618D2*
X75426D1*
X82937D2*
X89263D1*
X740Y83600D2*
X28044D1*
X30374D2*
X33838D1*
X39556D2*
X41963D1*
X44393D2*
X50907D1*
X53231D2*
X60969D1*
X63331D2*
X64469D1*
X67612D2*
X75426D1*
X83337D2*
X89263D1*
X740Y83203D2*
X28288D1*
X30131D2*
X33838D1*
X39956D2*
X42113D1*
X44243D2*
X51144D1*
X52993D2*
X60969D1*
X63331D2*
X64582D1*
X67499D2*
X75426D1*
X85781D2*
X89263D1*
X740Y82807D2*
X28276D1*
X30143D2*
X33838D1*
X40349D2*
X42463D1*
X43893D2*
X51138D1*
X52999D2*
X60969D1*
X63331D2*
X64832D1*
X67249D2*
X75426D1*
X77199D2*
X77532D1*
X86162D2*
X89263D1*
X740Y82410D2*
X28044D1*
X31081D2*
X33838D1*
X37999D2*
X38276D1*
X40731D2*
X42101D1*
X45049D2*
X50901D1*
X53237D2*
X60969D1*
X63331D2*
X64944D1*
X67137D2*
X75426D1*
X77199D2*
X77644D1*
X86306D2*
X89263D1*
X740Y82013D2*
X27976D1*
X31474D2*
X33838D1*
X38068D2*
X38669D1*
X40887D2*
X41963D1*
X45443D2*
X50832D1*
X53306D2*
X60969D1*
X63331D2*
X64638D1*
X67443D2*
X75426D1*
X86312D2*
X89263D1*
X740Y81617D2*
X28038D1*
X31818D2*
X33838D1*
X37999D2*
X39069D1*
X40893D2*
X41963D1*
X45843D2*
X50901D1*
X53237D2*
X60969D1*
X63331D2*
X64494D1*
X67587D2*
X75426D1*
X86174D2*
X89263D1*
X740Y81220D2*
X28269D1*
X31899D2*
X33838D1*
X37768D2*
X39119D1*
X40893D2*
X42107D1*
X46218D2*
X51132D1*
X53006D2*
X60969D1*
X63331D2*
X64457D1*
X67624D2*
X75426D1*
X85812D2*
X89263D1*
X740Y80823D2*
X28294D1*
X31899D2*
X33838D1*
X37749D2*
X39119D1*
X40893D2*
X42482D1*
X43881D2*
X44444D1*
X46349D2*
X51151D1*
X52987D2*
X60969D1*
X63331D2*
X64526D1*
X67556D2*
X75426D1*
X86149D2*
X89263D1*
X740Y80427D2*
X28051D1*
X31899D2*
X33838D1*
X37993D2*
X39119D1*
X40893D2*
X42107D1*
X44249D2*
X44776D1*
X46349D2*
X50907D1*
X53231D2*
X60919D1*
X63331D2*
X64713D1*
X67368D2*
X75426D1*
X77199D2*
X77412D1*
X86306D2*
X89263D1*
X740Y80030D2*
X27976D1*
X31899D2*
X33838D1*
X38068D2*
X39119D1*
X40893D2*
X41963D1*
X44399D2*
X44776D1*
X46349D2*
X50832D1*
X53306D2*
X60519D1*
X63331D2*
X65088D1*
X66987D2*
X75426D1*
X77199D2*
X77788D1*
X86312D2*
X89263D1*
X740Y79633D2*
X28038D1*
X31899D2*
X33838D1*
X38006D2*
X39119D1*
X40893D2*
X41957D1*
X44399D2*
X44776D1*
X46349D2*
X50894D1*
X53243D2*
X60126D1*
X63299D2*
X64738D1*
X67343D2*
X75426D1*
X77199D2*
X77433D1*
X86181D2*
X89263D1*
X740Y79237D2*
X28257D1*
X31899D2*
X33838D1*
X37781D2*
X39119D1*
X40893D2*
X42094D1*
X44262D2*
X44776D1*
X46349D2*
X51119D1*
X53024D2*
X59726D1*
X63024D2*
X64538D1*
X67543D2*
X75426D1*
X85837D2*
X89263D1*
X740Y78840D2*
X28926D1*
X29499D2*
X30332D1*
X31899D2*
X33838D1*
X37924D2*
X39119D1*
X40981D2*
X42457D1*
X43906D2*
X44776D1*
X46349D2*
X51782D1*
X52356D2*
X59332D1*
X62631D2*
X64457D1*
X67624D2*
X75426D1*
X86137D2*
X89263D1*
X740Y78443D2*
X2338D1*
X4012D2*
X15038D1*
X16712D2*
X30332D1*
X31899D2*
X33838D1*
X38031D2*
X39132D1*
X41381D2*
X44776D1*
X46349D2*
X58932D1*
X62237D2*
X64482D1*
X67599D2*
X75426D1*
X86299D2*
X89263D1*
X740Y78047D2*
X1807D1*
X4543D2*
X14507D1*
X17243D2*
X30332D1*
X31899D2*
X33838D1*
X38031D2*
X39307D1*
X41774D2*
X44776D1*
X46349D2*
X58538D1*
X61837D2*
X64619D1*
X67462D2*
X75426D1*
X86318D2*
X89263D1*
X740Y77650D2*
X1532D1*
X4818D2*
X14232D1*
X17518D2*
X28282D1*
X32249D2*
X33588D1*
X38481D2*
X39701D1*
X42174D2*
X44776D1*
X46349D2*
X58138D1*
X61443D2*
X64907D1*
X67174D2*
X75426D1*
X77199D2*
X77607D1*
X86193D2*
X89263D1*
X740Y77253D2*
X1388D1*
X4962D2*
X14088D1*
X17662D2*
X28282D1*
X32249D2*
X32869D1*
X39506D2*
X40094D1*
X42568D2*
X44426D1*
X48399D2*
X57744D1*
X61043D2*
X64869D1*
X67212D2*
X75426D1*
X77199D2*
X77569D1*
X85862D2*
X89263D1*
X740Y76857D2*
X1338D1*
X5012D2*
X14038D1*
X17712D2*
X28282D1*
X32249D2*
X32476D1*
X39949D2*
X40494D1*
X42968D2*
X44426D1*
X48399D2*
X57344D1*
X60649D2*
X64601D1*
X67481D2*
X75426D1*
X86131D2*
X89263D1*
X740Y76460D2*
X1382D1*
X4968D2*
X14082D1*
X17668D2*
X28282D1*
X40343D2*
X40888D1*
X43362D2*
X44426D1*
X48399D2*
X56951D1*
X60249D2*
X64476D1*
X67606D2*
X75426D1*
X86299D2*
X89263D1*
X740Y76063D2*
X1513D1*
X4837D2*
X14213D1*
X17537D2*
X28282D1*
X40731D2*
X41288D1*
X43762D2*
X44426D1*
X48399D2*
X56557D1*
X59856D2*
X64463D1*
X67618D2*
X75426D1*
X86318D2*
X89263D1*
X740Y75667D2*
X1769D1*
X4581D2*
X14469D1*
X17281D2*
X30332D1*
X40887D2*
X41682D1*
X44156D2*
X44430D1*
X48399D2*
X56157D1*
X59456D2*
X64551D1*
X67531D2*
X75426D1*
X86199D2*
X89263D1*
X740Y75270D2*
X2257D1*
X4093D2*
X14957D1*
X16793D2*
X30319D1*
X38481D2*
X39063D1*
X40893D2*
X42082D1*
X44549D2*
X55913D1*
X59062D2*
X64763D1*
X67312D2*
X75426D1*
X77199D2*
X77463D1*
X85881D2*
X89263D1*
X740Y74873D2*
X30107D1*
X38481D2*
X39119D1*
X40893D2*
X42476D1*
X47762D2*
X55888D1*
X58662D2*
X65044D1*
X67037D2*
X75426D1*
X77199D2*
X77744D1*
X79737D2*
X89263D1*
X740Y74477D2*
X5019D1*
X6406D2*
X30082D1*
X38481D2*
X39119D1*
X40893D2*
X42876D1*
X48206D2*
X55888D1*
X58268D2*
X58751D1*
X59993D2*
X64688D1*
X67393D2*
X75426D1*
X80093D2*
X89263D1*
X740Y74080D2*
X4719D1*
X6712D2*
X13319D1*
X15893D2*
X30226D1*
X38481D2*
X39119D1*
X40893D2*
X43269D1*
X48599D2*
X55888D1*
X67568D2*
X75426D1*
X80268D2*
X89263D1*
X740Y73683D2*
X4632D1*
X6799D2*
X13319D1*
X15893D2*
X30701D1*
X38481D2*
X39119D1*
X40893D2*
X43669D1*
X48806D2*
X55888D1*
X67624D2*
X75313D1*
X80324D2*
X89263D1*
X740Y73287D2*
X4632D1*
X6799D2*
X13319D1*
X15893D2*
X30813D1*
X33718D2*
X39119D1*
X40981D2*
X44319D1*
X46487D2*
X46919D1*
X49087D2*
X55888D1*
X67581D2*
X75313D1*
X80281D2*
X89263D1*
X740Y72890D2*
X1532D1*
X7099D2*
X13319D1*
X15893D2*
X30413D1*
X33449D2*
X39132D1*
X41374D2*
X43388D1*
X43924D2*
X44319D1*
X46487D2*
X46919D1*
X49087D2*
X55888D1*
X58256D2*
X58688D1*
X60056D2*
X64657D1*
X67418D2*
X75313D1*
X80118D2*
X89263D1*
X740Y72493D2*
X1532D1*
X7099D2*
X7407D1*
X10374D2*
X13319D1*
X15893D2*
X30019D1*
X33056D2*
X39307D1*
X41774D2*
X42801D1*
X46487D2*
X46919D1*
X49087D2*
X55888D1*
X58256D2*
X58882D1*
X59862D2*
X64988D1*
X67093D2*
X75313D1*
X77087D2*
X77688D1*
X79793D2*
X89263D1*
X740Y72097D2*
X1532D1*
X7099D2*
X7407D1*
X10374D2*
X13319D1*
X15893D2*
X22951D1*
X32656D2*
X39694D1*
X42168D2*
X42632D1*
X46487D2*
X46919D1*
X49499D2*
X55888D1*
X58256D2*
X58463D1*
X61081D2*
X64801D1*
X67281D2*
X75313D1*
X77087D2*
X77501D1*
X79981D2*
X83488D1*
X86056D2*
X89263D1*
X740Y71700D2*
X1532D1*
X7099D2*
X7407D1*
X10374D2*
X13319D1*
X15893D2*
X22557D1*
X32262D2*
X40094D1*
X46487D2*
X46919D1*
X49899D2*
X55888D1*
X67512D2*
X75313D1*
X80212D2*
X83488D1*
X86056D2*
X89263D1*
X740Y71303D2*
X1532D1*
X7099D2*
X7407D1*
X10374D2*
X13319D1*
X15893D2*
X22157D1*
X31862D2*
X40488D1*
X46487D2*
X46919D1*
X50237D2*
X55888D1*
X67612D2*
X75313D1*
X80312D2*
X83488D1*
X86056D2*
X89263D1*
X740Y70907D2*
X1532D1*
X7099D2*
X7407D1*
X10374D2*
X13319D1*
X15893D2*
X21763D1*
X31468D2*
X40888D1*
X46487D2*
X46919D1*
X50318D2*
X55888D1*
X58299D2*
X58607D1*
X67612D2*
X75313D1*
X80312D2*
X83488D1*
X86056D2*
X89263D1*
X740Y70510D2*
X1532D1*
X7099D2*
X7407D1*
X10374D2*
X13319D1*
X15893D2*
X21363D1*
X31006D2*
X41282D1*
X46487D2*
X46919D1*
X50318D2*
X55888D1*
X58693D2*
X60432D1*
X67499D2*
X75313D1*
X80199D2*
X83488D1*
X86056D2*
X89263D1*
X740Y70113D2*
X4832D1*
X6599D2*
X7407D1*
X10374D2*
X21001D1*
X24006D2*
X41682D1*
X46487D2*
X46919D1*
X50318D2*
X55919D1*
X59093D2*
X64826D1*
X67256D2*
X75313D1*
X77087D2*
X77526D1*
X79956D2*
X83488D1*
X86056D2*
X89263D1*
X740Y69717D2*
X1532D1*
X7099D2*
X7407D1*
X10374D2*
X20838D1*
X23612D2*
X48744D1*
X50318D2*
X56188D1*
X59487D2*
X65351D1*
X66731D2*
X75313D1*
X77087D2*
X78051D1*
X79431D2*
X83488D1*
X86056D2*
X89263D1*
X740Y69320D2*
X1532D1*
X7099D2*
X7407D1*
X12212D2*
X20819D1*
X23212D2*
X48744D1*
X50318D2*
X56588D1*
X59887D2*
X75313D1*
X77087D2*
X83488D1*
X86056D2*
X89263D1*
X740Y68923D2*
X1532D1*
X7099D2*
X7407D1*
X12606D2*
X13319D1*
X15893D2*
X20819D1*
X22993D2*
X36763D1*
X42612D2*
X45563D1*
X47149D2*
X48744D1*
X50318D2*
X56982D1*
X60281D2*
X75313D1*
X77087D2*
X83488D1*
X86056D2*
X89263D1*
X740Y68527D2*
X1532D1*
X7099D2*
X7407D1*
X12999D2*
X13319D1*
X15893D2*
X20819D1*
X22993D2*
X36319D1*
X43043D2*
X45351D1*
X47362D2*
X48744D1*
X50318D2*
X57382D1*
X60681D2*
X65044D1*
X67031D2*
X75313D1*
X77087D2*
X77744D1*
X79731D2*
X83488D1*
X86056D2*
X89263D1*
X740Y68130D2*
X1532D1*
X7099D2*
X7407D1*
X15893D2*
X20819D1*
X22993D2*
X35919D1*
X43174D2*
X45319D1*
X47387D2*
X48744D1*
X50318D2*
X57776D1*
X61074D2*
X64688D1*
X67393D2*
X75313D1*
X77087D2*
X77388D1*
X82287D2*
X89263D1*
X740Y67733D2*
X1532D1*
X7099D2*
X7407D1*
X15893D2*
X20819D1*
X22993D2*
X35526D1*
X48012D2*
X48544D1*
X50318D2*
X58169D1*
X61474D2*
X64513D1*
X67568D2*
X75313D1*
X82693D2*
X89263D1*
X740Y67337D2*
X1532D1*
X7099D2*
X7407D1*
X10374D2*
X11157D1*
X15893D2*
X20819D1*
X22993D2*
X27213D1*
X28987D2*
X29751D1*
X31524D2*
X32288D1*
X34068D2*
X35126D1*
X50256D2*
X58569D1*
X61868D2*
X64457D1*
X67624D2*
X75313D1*
X83087D2*
X83488D1*
X86056D2*
X89263D1*
X740Y66940D2*
X11551D1*
X15893D2*
X20819D1*
X22993D2*
X26482D1*
X34374D2*
X34732D1*
X49937D2*
X55813D1*
X58487D2*
X58963D1*
X62268D2*
X64501D1*
X67581D2*
X75313D1*
X86056D2*
X89263D1*
X740Y66543D2*
X11951D1*
X15893D2*
X20576D1*
X22993D2*
X26082D1*
X49543D2*
X52682D1*
X53999D2*
X54813D1*
X58487D2*
X59363D1*
X62662D2*
X64657D1*
X67424D2*
X75313D1*
X77087D2*
X77357D1*
X86056D2*
X89263D1*
X740Y66147D2*
X13319D1*
X15893D2*
X20176D1*
X22974D2*
X25701D1*
X58487D2*
X59757D1*
X63062D2*
X64982D1*
X67099D2*
X75313D1*
X77087D2*
X77682D1*
X79799D2*
X81244D1*
X86056D2*
X89263D1*
X740Y65750D2*
X13319D1*
X15893D2*
X19782D1*
X22799D2*
X25569D1*
X58487D2*
X60157D1*
X63406D2*
X64807D1*
X67274D2*
X75313D1*
X77087D2*
X77507D1*
X79974D2*
X81638D1*
X86056D2*
X89263D1*
X740Y65353D2*
X13319D1*
X15893D2*
X19382D1*
X22424D2*
X25569D1*
X58487D2*
X60551D1*
X63493D2*
X64569D1*
X67512D2*
X75313D1*
X80212D2*
X82038D1*
X86056D2*
X89263D1*
X740Y64957D2*
X13519D1*
X15693D2*
X18988D1*
X22024D2*
X25569D1*
X55412D2*
X55813D1*
X58487D2*
X60951D1*
X63493D2*
X64463D1*
X67612D2*
X75313D1*
X80312D2*
X82432D1*
X86056D2*
X89263D1*
X740Y64560D2*
X2526D1*
X3824D2*
X13519D1*
X16524D2*
X18588D1*
X21631D2*
X25569D1*
X51943D2*
X52319D1*
X54362D2*
X55813D1*
X58487D2*
X61126D1*
X63493D2*
X64469D1*
X67612D2*
X75313D1*
X80312D2*
X83013D1*
X86056D2*
X89263D1*
X740Y64163D2*
X1888D1*
X4462D2*
X13519D1*
X17162D2*
X18194D1*
X21231D2*
X25569D1*
X52343D2*
X52932D1*
X53749D2*
X55813D1*
X58487D2*
X61126D1*
X63493D2*
X64576D1*
X67499D2*
X75313D1*
X80199D2*
X83488D1*
X86056D2*
X89263D1*
X740Y63767D2*
X1582D1*
X4768D2*
X13588D1*
X20837D2*
X25569D1*
X52737D2*
X55813D1*
X58487D2*
X61126D1*
X63493D2*
X64826D1*
X67256D2*
X75313D1*
X77087D2*
X77526D1*
X79956D2*
X83488D1*
X86056D2*
X89263D1*
X740Y63370D2*
X1413D1*
X4937D2*
X13857D1*
X20437D2*
X25569D1*
X41612D2*
X42694D1*
X50012D2*
X50944D1*
X53137D2*
X55813D1*
X58487D2*
X61126D1*
X63493D2*
X64957D1*
X67124D2*
X75313D1*
X77087D2*
X77657D1*
X79824D2*
X89263D1*
X740Y62973D2*
X1344D1*
X5006D2*
X14044D1*
X20043D2*
X25569D1*
X41612D2*
X43163D1*
X50012D2*
X51344D1*
X53531D2*
X55813D1*
X58487D2*
X61126D1*
X63493D2*
X64644D1*
X67437D2*
X75313D1*
X77087D2*
X77344D1*
X82693D2*
X89263D1*
X740Y62577D2*
X1363D1*
X4987D2*
X14063D1*
X19643D2*
X25569D1*
X41612D2*
X45888D1*
X50012D2*
X51738D1*
X53931D2*
X55813D1*
X58487D2*
X61126D1*
X63493D2*
X64494D1*
X67587D2*
X75313D1*
X83087D2*
X89263D1*
X740Y62180D2*
X1476D1*
X4874D2*
X14176D1*
X19249D2*
X25569D1*
X36443D2*
X37013D1*
X41612D2*
X45888D1*
X50012D2*
X52138D1*
X54118D2*
X55813D1*
X58487D2*
X61126D1*
X63493D2*
X64457D1*
X67624D2*
X75313D1*
X83487D2*
X89263D1*
X740Y61783D2*
X1707D1*
X4643D2*
X14407D1*
X17343D2*
X25626D1*
X36049D2*
X37013D1*
X41612D2*
X45951D1*
X50012D2*
X52532D1*
X54124D2*
X55813D1*
X58487D2*
X61126D1*
X63493D2*
X64519D1*
X67562D2*
X75313D1*
X83881D2*
X84819D1*
X85362D2*
X89263D1*
X740Y61387D2*
X2126D1*
X4224D2*
X14788D1*
X16962D2*
X25944D1*
X35649D2*
X37013D1*
X41612D2*
X46382D1*
X50012D2*
X52288D1*
X54393D2*
X55813D1*
X58487D2*
X61126D1*
X63493D2*
X64707D1*
X67374D2*
X75313D1*
X77087D2*
X77407D1*
X86037D2*
X89263D1*
X740Y60990D2*
X14788D1*
X16962D2*
X29038D1*
X35256D2*
X38744D1*
X41612D2*
X44157D1*
X45381D2*
X46276D1*
X46756D2*
X47144D1*
X50756D2*
X52069D1*
X55037D2*
X55813D1*
X58487D2*
X61126D1*
X63493D2*
X65076D1*
X67006D2*
X75313D1*
X77087D2*
X77776D1*
X86262D2*
X89263D1*
X740Y60593D2*
X14788D1*
X16962D2*
X29432D1*
X34862D2*
X38744D1*
X41612D2*
X43819D1*
X50943D2*
X52007D1*
X55437D2*
X55813D1*
X58487D2*
X61126D1*
X63493D2*
X64744D1*
X67337D2*
X75313D1*
X77087D2*
X77444D1*
X86324D2*
X89263D1*
X740Y60197D2*
X14788D1*
X16962D2*
X21844D1*
X24512D2*
X25063D1*
X26368D2*
X27607D1*
X28912D2*
X30144D1*
X31449D2*
X32688D1*
X33993D2*
X35226D1*
X36531D2*
X38744D1*
X41612D2*
X43726D1*
X50949D2*
X52063D1*
X58487D2*
X61126D1*
X63493D2*
X64538D1*
X67543D2*
X75313D1*
X86249D2*
X89263D1*
X740Y59800D2*
X14788D1*
X16962D2*
X21844D1*
X26818D2*
X27157D1*
X29356D2*
X29701D1*
X31899D2*
X32238D1*
X34437D2*
X34776D1*
X36981D2*
X38744D1*
X41612D2*
X43794D1*
X50949D2*
X52263D1*
X58487D2*
X61126D1*
X63493D2*
X64457D1*
X67624D2*
X75313D1*
X86012D2*
X89263D1*
X740Y59403D2*
X14788D1*
X16962D2*
X21844D1*
X37168D2*
X38744D1*
X50949D2*
X52757D1*
X53924D2*
X54438D1*
X58487D2*
X61126D1*
X63493D2*
X64482D1*
X67599D2*
X75313D1*
X86024D2*
X89263D1*
X740Y59007D2*
X14788D1*
X16962D2*
X21844D1*
X37212D2*
X38744D1*
X51018D2*
X54907D1*
X58487D2*
X61126D1*
X63493D2*
X64613D1*
X67468D2*
X75313D1*
X77087D2*
X77313D1*
X86256D2*
X89263D1*
X740Y58610D2*
X14788D1*
X16962D2*
X21844D1*
X37137D2*
X40744D1*
X51187D2*
X55813D1*
X58487D2*
X61126D1*
X63493D2*
X64894D1*
X67187D2*
X75313D1*
X77087D2*
X77594D1*
X86324D2*
X89263D1*
X740Y58213D2*
X14788D1*
X16962D2*
X21844D1*
X29281D2*
X29776D1*
X36906D2*
X40744D1*
X51187D2*
X60932D1*
X63493D2*
X64876D1*
X67199D2*
X75313D1*
X77087D2*
X77576D1*
X86256D2*
X89263D1*
X740Y57817D2*
X14594D1*
X17156D2*
X21844D1*
X28681D2*
X30307D1*
X37112D2*
X40744D1*
X51006D2*
X60532D1*
X63493D2*
X64607D1*
X67474D2*
X75313D1*
X77087D2*
X77307D1*
X86024D2*
X89263D1*
X740Y57420D2*
X14282D1*
X17468D2*
X22488D1*
X28081D2*
X30701D1*
X37137D2*
X40744D1*
X50349D2*
X60138D1*
X63399D2*
X64476D1*
X67599D2*
X75313D1*
X86012D2*
X89263D1*
X740Y57023D2*
X14113D1*
X17637D2*
X22794D1*
X28093D2*
X28819D1*
X29281D2*
X31101D1*
X37137D2*
X40744D1*
X50749D2*
X59738D1*
X63037D2*
X64457D1*
X67618D2*
X75313D1*
X86249D2*
X89263D1*
X740Y56627D2*
X14044D1*
X17706D2*
X22794D1*
X37137D2*
X41601D1*
X51149D2*
X59344D1*
X62643D2*
X64544D1*
X67537D2*
X75313D1*
X86324D2*
X89263D1*
X740Y56230D2*
X14063D1*
X17687D2*
X22794D1*
X37137D2*
X41601D1*
X51543D2*
X58944D1*
X62243D2*
X64757D1*
X67324D2*
X75313D1*
X77087D2*
X77457D1*
X86262D2*
X89263D1*
X740Y55833D2*
X14176D1*
X17574D2*
X22794D1*
X37137D2*
X41407D1*
X51943D2*
X58551D1*
X61849D2*
X65057D1*
X67024D2*
X75313D1*
X77087D2*
X77757D1*
X86037D2*
X89263D1*
X740Y55437D2*
X14401D1*
X17349D2*
X22794D1*
X39568D2*
X41007D1*
X52337D2*
X58151D1*
X61449D2*
X64694D1*
X67387D2*
X75313D1*
X77087D2*
X77394D1*
X85993D2*
X89263D1*
X740Y55040D2*
X14819D1*
X16931D2*
X22794D1*
X28093D2*
X28926D1*
X29178D2*
X29901D1*
X39568D2*
X40613D1*
X47218D2*
X47532D1*
X53087D2*
X57757D1*
X61056D2*
X64513D1*
X67562D2*
X75313D1*
X86243D2*
X89263D1*
X740Y54643D2*
X14601D1*
X17149D2*
X22794D1*
X28093D2*
X29901D1*
X39568D2*
X40213D1*
X47531D2*
X47926D1*
X53087D2*
X57357D1*
X60662D2*
X64457D1*
X67624D2*
X75313D1*
X86324D2*
X89263D1*
X740Y54247D2*
X14288D1*
X17462D2*
X19144D1*
X21812D2*
X22794D1*
X28093D2*
X29901D1*
X39568D2*
X39819D1*
X47531D2*
X47907D1*
X53087D2*
X56963D1*
X60262D2*
X64501D1*
X67581D2*
X75313D1*
X86268D2*
X89263D1*
X740Y53850D2*
X14113D1*
X21812D2*
X22794D1*
X28093D2*
X29901D1*
X47531D2*
X47882D1*
X53087D2*
X56563D1*
X59868D2*
X64657D1*
X67424D2*
X75313D1*
X77087D2*
X77357D1*
X86056D2*
X89263D1*
X740Y53453D2*
X14044D1*
X21812D2*
X22794D1*
X28093D2*
X29901D1*
X47531D2*
X47988D1*
X53087D2*
X56169D1*
X59468D2*
X64976D1*
X67106D2*
X75313D1*
X77087D2*
X77676D1*
X79806D2*
X84744D1*
X85431D2*
X89263D1*
X740Y53057D2*
X14063D1*
X21812D2*
X22794D1*
X47531D2*
X48257D1*
X50168D2*
X50419D1*
X53087D2*
X55769D1*
X59593D2*
X64813D1*
X67268D2*
X75313D1*
X77087D2*
X77513D1*
X79968D2*
X89263D1*
X740Y52660D2*
X14176D1*
X21812D2*
X24788D1*
X30518D2*
X37569D1*
X47531D2*
X55376D1*
X67506D2*
X75313D1*
X80206D2*
X89263D1*
X740Y52263D2*
X14401D1*
X17349D2*
X19144D1*
X21812D2*
X24788D1*
X30518D2*
X37088D1*
X47531D2*
X54982D1*
X67612D2*
X75313D1*
X80312D2*
X89263D1*
X740Y51867D2*
X14807D1*
X16943D2*
X19144D1*
X21812D2*
X24788D1*
X30518D2*
X36457D1*
X47531D2*
X54788D1*
X57881D2*
X58351D1*
X67612D2*
X75313D1*
X80312D2*
X89263D1*
X740Y51470D2*
X14607D1*
X17143D2*
X19144D1*
X21812D2*
X24788D1*
X30518D2*
X36282D1*
X49037D2*
X50563D1*
X51049D2*
X54776D1*
X57487D2*
X58532D1*
X67506D2*
X75313D1*
X80206D2*
X89263D1*
X740Y51073D2*
X14288D1*
X17462D2*
X19144D1*
X21812D2*
X24788D1*
X30518D2*
X32182D1*
X33224D2*
X36282D1*
X49256D2*
X49951D1*
X51662D2*
X54776D1*
X57299D2*
X59226D1*
X59522D2*
X64819D1*
X67262D2*
X75313D1*
X77087D2*
X77519D1*
X79962D2*
X89263D1*
X740Y50677D2*
X14113D1*
X17637D2*
X19144D1*
X21812D2*
X24788D1*
X30518D2*
X31782D1*
X49293D2*
X49782D1*
X51831D2*
X54776D1*
X57299D2*
X64963D1*
X67118D2*
X75313D1*
X77087D2*
X77663D1*
X79818D2*
X83488D1*
X86056D2*
X89263D1*
X740Y50280D2*
X14044D1*
X17706D2*
X19144D1*
X21812D2*
X24788D1*
X30518D2*
X31663D1*
X49156D2*
X49782D1*
X51824D2*
X54776D1*
X57299D2*
X58669D1*
X60081D2*
X64651D1*
X67431D2*
X75313D1*
X77087D2*
X77351D1*
X80131D2*
X83488D1*
X86056D2*
X89263D1*
X740Y49883D2*
X14063D1*
X17687D2*
X24788D1*
X30518D2*
X31707D1*
X53943D2*
X54776D1*
X57299D2*
X58394D1*
X67587D2*
X75313D1*
X80287D2*
X83488D1*
X86056D2*
X89263D1*
X740Y49487D2*
X14169D1*
X17581D2*
X24788D1*
X30518D2*
X31951D1*
X53943D2*
X54776D1*
X57299D2*
X58332D1*
X67624D2*
X75313D1*
X80324D2*
X83488D1*
X86056D2*
X89263D1*
X740Y49090D2*
X14394D1*
X17356D2*
X26519D1*
X53943D2*
X54776D1*
X57299D2*
X58432D1*
X67562D2*
X75313D1*
X80262D2*
X83488D1*
X86056D2*
X89263D1*
X740Y48693D2*
X14801D1*
X16949D2*
X26519D1*
X53943D2*
X54776D1*
X57299D2*
X58782D1*
X59968D2*
X64701D1*
X67381D2*
X75313D1*
X77087D2*
X77401D1*
X80081D2*
X83488D1*
X86056D2*
X89263D1*
X740Y48297D2*
X18982D1*
X21656D2*
X26582D1*
X35899D2*
X37732D1*
X38135D2*
X38951D1*
X53943D2*
X54776D1*
X57299D2*
X65069D1*
X67012D2*
X75313D1*
X77087D2*
X77769D1*
X79712D2*
X83488D1*
X86056D2*
X89263D1*
X740Y47900D2*
X18982D1*
X23668D2*
X26988D1*
X35412D2*
X37088D1*
X53943D2*
X54713D1*
X57299D2*
X75313D1*
X77087D2*
X83488D1*
X86056D2*
X89263D1*
X740Y47503D2*
X18982D1*
X30518D2*
X36913D1*
X53943D2*
X54538D1*
X57299D2*
X75313D1*
X77087D2*
X83488D1*
X86056D2*
X89263D1*
X740Y47107D2*
X18982D1*
X30518D2*
X36526D1*
X45374D2*
X54538D1*
X57299D2*
X65319D1*
X66762D2*
X75313D1*
X77087D2*
X78019D1*
X79462D2*
X83488D1*
X86056D2*
X89263D1*
X740Y46710D2*
X18982D1*
X30518D2*
X31919D1*
X35243D2*
X36088D1*
X44712D2*
X54719D1*
X57418D2*
X64813D1*
X67268D2*
X75313D1*
X77087D2*
X77513D1*
X81656D2*
X89263D1*
X740Y46313D2*
X18982D1*
X21656D2*
X23076D1*
X30518D2*
X31701D1*
X35456D2*
X35951D1*
X38718D2*
X38951D1*
X45112D2*
X55394D1*
X57549D2*
X64576D1*
X67506D2*
X75313D1*
X82206D2*
X89263D1*
X740Y45917D2*
X18982D1*
X21656D2*
X23501D1*
X25937D2*
X26407D1*
X30518D2*
X31338D1*
X35487D2*
X35988D1*
X38718D2*
X38951D1*
X45506D2*
X55513D1*
X57518D2*
X64469D1*
X67612D2*
X75313D1*
X82599D2*
X83488D1*
X86056D2*
X89263D1*
X740Y45520D2*
X18982D1*
X21656D2*
X23932D1*
X25599D2*
X26026D1*
X35349D2*
X36207D1*
X38718D2*
X38951D1*
X45906D2*
X55732D1*
X57293D2*
X64469D1*
X67612D2*
X75313D1*
X82999D2*
X83488D1*
X86056D2*
X89263D1*
X740Y45123D2*
X18982D1*
X21656D2*
X25888D1*
X34893D2*
X36351D1*
X38718D2*
X38951D1*
X46299D2*
X64576D1*
X67506D2*
X75313D1*
X86056D2*
X89263D1*
X740Y44727D2*
X18982D1*
X21656D2*
X25882D1*
X34287D2*
X36351D1*
X38718D2*
X38951D1*
X51937D2*
X64813D1*
X67262D2*
X75313D1*
X77087D2*
X77513D1*
X86056D2*
X89263D1*
X740Y44330D2*
X18982D1*
X21656D2*
X25882D1*
X52331D2*
X64969D1*
X67112D2*
X75313D1*
X77087D2*
X77669D1*
X79812D2*
X81151D1*
X86056D2*
X89263D1*
X740Y43933D2*
X18982D1*
X21656D2*
X25882D1*
X52731D2*
X64651D1*
X67431D2*
X75313D1*
X77087D2*
X77351D1*
X80131D2*
X81551D1*
X86056D2*
X89263D1*
X740Y43537D2*
X18982D1*
X21656D2*
X25613D1*
X53124D2*
X64494D1*
X67587D2*
X75313D1*
X80287D2*
X81944D1*
X86056D2*
X89263D1*
X740Y43140D2*
X18982D1*
X21656D2*
X25219D1*
X53524D2*
X64457D1*
X67624D2*
X75313D1*
X80324D2*
X82357D1*
X86056D2*
X89263D1*
X740Y42743D2*
X18982D1*
X21656D2*
X23932D1*
X53918D2*
X64519D1*
X67562D2*
X75313D1*
X80262D2*
X83488D1*
X86056D2*
X89263D1*
X740Y42347D2*
X2576D1*
X3774D2*
X15276D1*
X16474D2*
X18982D1*
X21656D2*
X22838D1*
X54318D2*
X64701D1*
X67381D2*
X75313D1*
X77087D2*
X77401D1*
X80081D2*
X83488D1*
X86056D2*
X89263D1*
X740Y41950D2*
X1907D1*
X4443D2*
X14607D1*
X17143D2*
X18982D1*
X21656D2*
X22438D1*
X40581D2*
X41726D1*
X54712D2*
X65063D1*
X67018D2*
X75313D1*
X77087D2*
X77763D1*
X79718D2*
X89263D1*
X740Y41553D2*
X1588D1*
X4762D2*
X14288D1*
X17462D2*
X18982D1*
X40981D2*
X42126D1*
X55106D2*
X64751D1*
X67324D2*
X75313D1*
X77087D2*
X77451D1*
X84018D2*
X89263D1*
X740Y41157D2*
X1413D1*
X4937D2*
X9438D1*
X17637D2*
X18982D1*
X41237D2*
X42519D1*
X55506D2*
X64544D1*
X67537D2*
X75313D1*
X84474D2*
X89263D1*
X740Y40760D2*
X1344D1*
X5006D2*
X9044D1*
X17706D2*
X18982D1*
X23437D2*
X23857D1*
X41268D2*
X42919D1*
X55818D2*
X64457D1*
X67618D2*
X75313D1*
X84868D2*
X89263D1*
X740Y40363D2*
X1363D1*
X4987D2*
X8719D1*
X17687D2*
X18982D1*
X23031D2*
X24826D1*
X30824D2*
X31976D1*
X36318D2*
X38326D1*
X41268D2*
X43313D1*
X55874D2*
X64482D1*
X67599D2*
X75313D1*
X85268D2*
X89263D1*
X740Y39967D2*
X1469D1*
X4881D2*
X8638D1*
X17581D2*
X18982D1*
X21656D2*
X24426D1*
X31506D2*
X31932D1*
X37856D2*
X38282D1*
X41268D2*
X43713D1*
X55937D2*
X56238D1*
X59012D2*
X64607D1*
X67474D2*
X75313D1*
X77087D2*
X77307D1*
X85862D2*
X89263D1*
X740Y39570D2*
X1694D1*
X4656D2*
X8638D1*
X10412D2*
X14394D1*
X17356D2*
X24032D1*
X28124D2*
X28582D1*
X31506D2*
X31932D1*
X37856D2*
X38282D1*
X41268D2*
X45538D1*
X59012D2*
X64882D1*
X67193D2*
X75313D1*
X77087D2*
X77582D1*
X86193D2*
X89263D1*
X740Y39173D2*
X2101D1*
X4249D2*
X8638D1*
X10412D2*
X14801D1*
X16949D2*
X23632D1*
X27724D2*
X28582D1*
X31506D2*
X31932D1*
X37856D2*
X38282D1*
X41268D2*
X45932D1*
X59012D2*
X64888D1*
X67193D2*
X75313D1*
X77087D2*
X77588D1*
X86318D2*
X89263D1*
X740Y38777D2*
X8638D1*
X10412D2*
X17201D1*
X27331D2*
X28582D1*
X31506D2*
X31932D1*
X37856D2*
X38282D1*
X41268D2*
X46332D1*
X59012D2*
X64613D1*
X67468D2*
X75313D1*
X77087D2*
X77313D1*
X86299D2*
X89263D1*
X740Y38380D2*
X8638D1*
X10412D2*
X16807D1*
X26931D2*
X28676D1*
X31506D2*
X31932D1*
X37856D2*
X38282D1*
X41174D2*
X46726D1*
X59012D2*
X64482D1*
X67599D2*
X75313D1*
X86137D2*
X89263D1*
X740Y37983D2*
X2163D1*
X7737D2*
X8138D1*
X13712D2*
X16413D1*
X26537D2*
X29026D1*
X31506D2*
X31932D1*
X34631D2*
X35057D1*
X37856D2*
X38282D1*
X40824D2*
X47126D1*
X59012D2*
X64457D1*
X67624D2*
X75313D1*
X85837D2*
X89263D1*
X740Y37587D2*
X2163D1*
X13712D2*
X16013D1*
X26137D2*
X29332D1*
X31506D2*
X31932D1*
X34106D2*
X35682D1*
X37856D2*
X38282D1*
X40456D2*
X47519D1*
X59012D2*
X64544D1*
X67537D2*
X75313D1*
X86181D2*
X89263D1*
X740Y37190D2*
X2163D1*
X13712D2*
X15619D1*
X25743D2*
X29332D1*
X31506D2*
X31932D1*
X34106D2*
X35682D1*
X37856D2*
X38282D1*
X40456D2*
X47919D1*
X58718D2*
X64751D1*
X67331D2*
X75313D1*
X77087D2*
X77451D1*
X86312D2*
X89263D1*
X740Y36793D2*
X2163D1*
X13712D2*
X15219D1*
X25287D2*
X29332D1*
X31506D2*
X31932D1*
X34106D2*
X35682D1*
X37856D2*
X38282D1*
X40456D2*
X48313D1*
X58937D2*
X65069D1*
X67012D2*
X75313D1*
X77087D2*
X77769D1*
X86306D2*
X89263D1*
X740Y36397D2*
X2163D1*
X13712D2*
X14826D1*
X18281D2*
X19938D1*
X24831D2*
X29269D1*
X31256D2*
X36044D1*
X37618D2*
X39619D1*
X44518D2*
X48619D1*
X59012D2*
X64701D1*
X67381D2*
X75313D1*
X77087D2*
X77401D1*
X86149D2*
X89263D1*
X740Y36000D2*
X2163D1*
X13712D2*
X14426D1*
X17887D2*
X19938D1*
X24831D2*
X28876D1*
X31062D2*
X36044D1*
X37962D2*
X39619D1*
X44518D2*
X48669D1*
X58962D2*
X64519D1*
X67562D2*
X75313D1*
X85812D2*
X89263D1*
X740Y35603D2*
X2163D1*
X7737D2*
X8138D1*
X13712D2*
X14032D1*
X17487D2*
X19938D1*
X24831D2*
X28519D1*
X30668D2*
X36182D1*
X38224D2*
X39619D1*
X44518D2*
X48851D1*
X51162D2*
X51395D1*
X53706D2*
X53932D1*
X56243D2*
X56469D1*
X58781D2*
X64457D1*
X67624D2*
X75313D1*
X86174D2*
X89263D1*
X740Y35207D2*
X13632D1*
X17093D2*
X19938D1*
X24831D2*
X28426D1*
X30268D2*
X36563D1*
X38249D2*
X39619D1*
X44518D2*
X49263D1*
X50749D2*
X51801D1*
X53287D2*
X54344D1*
X55831D2*
X56882D1*
X58368D2*
X64494D1*
X67587D2*
X75313D1*
X86312D2*
X89263D1*
X740Y34810D2*
X13238D1*
X16693D2*
X19938D1*
X24831D2*
X28426D1*
X29993D2*
X36682D1*
X38249D2*
X39619D1*
X44518D2*
X64651D1*
X67431D2*
X75313D1*
X77087D2*
X77351D1*
X86306D2*
X89263D1*
X740Y34413D2*
X12838D1*
X16299D2*
X19938D1*
X24831D2*
X28119D1*
X30299D2*
X30576D1*
X31968D2*
X36376D1*
X44518D2*
X64963D1*
X67118D2*
X75313D1*
X77087D2*
X77663D1*
X86162D2*
X89263D1*
X740Y34017D2*
X12444D1*
X15899D2*
X19938D1*
X32249D2*
X36244D1*
X44518D2*
X64819D1*
X67262D2*
X75313D1*
X77087D2*
X77519D1*
X85793D2*
X89263D1*
X740Y33620D2*
X12044D1*
X15506D2*
X16944D1*
X17349D2*
X19938D1*
X32318D2*
X36251D1*
X44518D2*
X64576D1*
X67506D2*
X75313D1*
X86162D2*
X89263D1*
X740Y33223D2*
X11651D1*
X15112D2*
X16182D1*
X18106D2*
X19938D1*
X32218D2*
X36401D1*
X44518D2*
X64469D1*
X67612D2*
X75313D1*
X86306D2*
X89263D1*
X740Y32827D2*
X11251D1*
X14712D2*
X15938D1*
X18349D2*
X19938D1*
X32062D2*
X36744D1*
X44518D2*
X64469D1*
X67612D2*
X75313D1*
X86312D2*
X89263D1*
X740Y32430D2*
X10857D1*
X14318D2*
X15863D1*
X18431D2*
X20488D1*
X32062D2*
X36382D1*
X43968D2*
X64569D1*
X67506D2*
X75313D1*
X86168D2*
X89263D1*
X740Y32033D2*
X10463D1*
X13918D2*
X15857D1*
X18431D2*
X20488D1*
X32062D2*
X36244D1*
X43968D2*
X64813D1*
X67268D2*
X75313D1*
X77087D2*
X77513D1*
X85806D2*
X89263D1*
X740Y31637D2*
X10063D1*
X13524D2*
X15857D1*
X18431D2*
X20488D1*
X32062D2*
X36251D1*
X43968D2*
X64976D1*
X67106D2*
X75313D1*
X77087D2*
X77676D1*
X79806D2*
X89263D1*
X740Y31240D2*
X9669D1*
X13124D2*
X15857D1*
X18431D2*
X20488D1*
X32062D2*
X36394D1*
X44518D2*
X58676D1*
X60068D2*
X64657D1*
X67424D2*
X75313D1*
X80124D2*
X89263D1*
X740Y30843D2*
X7907D1*
X12731D2*
X15857D1*
X18431D2*
X19938D1*
X32062D2*
X36769D1*
X44518D2*
X58401D1*
X67581D2*
X75313D1*
X80281D2*
X89263D1*
X740Y30447D2*
X7632D1*
X12331D2*
X15857D1*
X18431D2*
X19938D1*
X31974D2*
X36394D1*
X44518D2*
X58332D1*
X67624D2*
X75313D1*
X80324D2*
X89263D1*
X740Y30050D2*
X7544D1*
X11937D2*
X15857D1*
X18431D2*
X19938D1*
X31618D2*
X36244D1*
X44518D2*
X58426D1*
X67562D2*
X75313D1*
X80262D2*
X89263D1*
X740Y29653D2*
X7601D1*
X11537D2*
X15857D1*
X18431D2*
X19938D1*
X31224D2*
X36244D1*
X44518D2*
X58763D1*
X59981D2*
X64694D1*
X67387D2*
X75313D1*
X80087D2*
X89263D1*
X740Y29257D2*
X7682D1*
X11143D2*
X15857D1*
X18431D2*
X19938D1*
X30818D2*
X36382D1*
X44518D2*
X65057D1*
X67024D2*
X75313D1*
X77087D2*
X77757D1*
X79724D2*
X89263D1*
X740Y28860D2*
X7288D1*
X11312D2*
X15857D1*
X18431D2*
X19938D1*
X24831D2*
X28494D1*
X29931D2*
X36744D1*
X38181D2*
X39619D1*
X44518D2*
X64757D1*
X67324D2*
X75313D1*
X77087D2*
X77457D1*
X80024D2*
X83807D1*
X86374D2*
X89263D1*
X740Y28463D2*
X6888D1*
X11343D2*
X15857D1*
X18431D2*
X19938D1*
X24831D2*
X39619D1*
X44518D2*
X64544D1*
X67537D2*
X75313D1*
X80237D2*
X83807D1*
X86374D2*
X89263D1*
X740Y28067D2*
X6576D1*
X11224D2*
X15857D1*
X18431D2*
X19938D1*
X24831D2*
X39619D1*
X44518D2*
X64457D1*
X67618D2*
X75313D1*
X80318D2*
X83807D1*
X86374D2*
X89263D1*
X740Y27670D2*
X6519D1*
X10899D2*
X15857D1*
X18581D2*
X19938D1*
X24831D2*
X39619D1*
X44518D2*
X64476D1*
X67599D2*
X75313D1*
X80299D2*
X83807D1*
X86374D2*
X89263D1*
X740Y27273D2*
X6519D1*
X9162D2*
X15857D1*
X18981D2*
X19938D1*
X24831D2*
X39619D1*
X44518D2*
X64607D1*
X67474D2*
X75313D1*
X77087D2*
X77307D1*
X80174D2*
X83807D1*
X86374D2*
X89263D1*
X740Y26877D2*
X2244D1*
X6218D2*
X6519D1*
X9043D2*
X15938D1*
X19374D2*
X19938D1*
X24831D2*
X64876D1*
X67199D2*
X75313D1*
X77087D2*
X77576D1*
X79899D2*
X83807D1*
X86374D2*
X89263D1*
X740Y26480D2*
X2244D1*
X6218D2*
X6519D1*
X9043D2*
X16169D1*
X19774D2*
X65494D1*
X66587D2*
X75313D1*
X77087D2*
X78194D1*
X79287D2*
X83807D1*
X86374D2*
X89263D1*
X740Y26083D2*
X2244D1*
X6218D2*
X6519D1*
X9043D2*
X16563D1*
X20168D2*
X48382D1*
X51949D2*
X52782D1*
X61712D2*
X75313D1*
X77087D2*
X83807D1*
X86374D2*
X89263D1*
X740Y25687D2*
X2244D1*
X6218D2*
X6519D1*
X9043D2*
X16963D1*
X20562D2*
X48382D1*
X51949D2*
X52782D1*
X61712D2*
X75313D1*
X77087D2*
X83807D1*
X86374D2*
X89263D1*
X740Y25290D2*
X2244D1*
X6218D2*
X6519D1*
X9043D2*
X17357D1*
X20962D2*
X34869D1*
X40437D2*
X48382D1*
X51949D2*
X52782D1*
X62574D2*
X64976D1*
X67099D2*
X75313D1*
X77087D2*
X77676D1*
X79799D2*
X83807D1*
X86374D2*
X89263D1*
X740Y24893D2*
X4294D1*
X5868D2*
X6519D1*
X9043D2*
X17757D1*
X21343D2*
X34869D1*
X40437D2*
X48382D1*
X51949D2*
X52782D1*
X62987D2*
X64657D1*
X67424D2*
X75313D1*
X77087D2*
X77357D1*
X82037D2*
X89263D1*
X740Y24497D2*
X4294D1*
X5868D2*
X6519D1*
X9043D2*
X18151D1*
X21549D2*
X29813D1*
X31781D2*
X33213D1*
X40662D2*
X48382D1*
X51949D2*
X52782D1*
X63381D2*
X64501D1*
X67581D2*
X75313D1*
X82431D2*
X89263D1*
X740Y24100D2*
X2226D1*
X12068D2*
X18551D1*
X21606D2*
X29813D1*
X31781D2*
X33213D1*
X41237D2*
X48382D1*
X51949D2*
X52782D1*
X63781D2*
X64457D1*
X67624D2*
X75313D1*
X82831D2*
X83807D1*
X86374D2*
X89263D1*
X740Y23703D2*
X1832D1*
X12068D2*
X16126D1*
X21606D2*
X29813D1*
X31781D2*
X33213D1*
X41631D2*
X48382D1*
X51949D2*
X52782D1*
X64124D2*
X64513D1*
X67568D2*
X75313D1*
X83224D2*
X83807D1*
X86374D2*
X89263D1*
X740Y23307D2*
X1432D1*
X12068D2*
X16126D1*
X18799D2*
X19033D1*
X21606D2*
X29813D1*
X31781D2*
X33213D1*
X42031D2*
X48382D1*
X51949D2*
X52782D1*
X64262D2*
X64694D1*
X67387D2*
X75313D1*
X77087D2*
X77394D1*
X86374D2*
X89263D1*
X740Y22910D2*
X1207D1*
X12718D2*
X16126D1*
X18799D2*
X19033D1*
X21606D2*
X29813D1*
X31781D2*
X33213D1*
X42424D2*
X48382D1*
X51949D2*
X52782D1*
X61712D2*
X61932D1*
X64268D2*
X65051D1*
X67031D2*
X75313D1*
X77087D2*
X77751D1*
X79731D2*
X80982D1*
X86374D2*
X89263D1*
X740Y22513D2*
X1176D1*
X13187D2*
X16126D1*
X18799D2*
X19033D1*
X21606D2*
X29813D1*
X31781D2*
X33213D1*
X42637D2*
X48619D1*
X51249D2*
X62094D1*
X64268D2*
X64763D1*
X67318D2*
X75313D1*
X77087D2*
X77463D1*
X80018D2*
X81376D1*
X86374D2*
X89263D1*
X740Y22117D2*
X1176D1*
X13587D2*
X16126D1*
X18799D2*
X19033D1*
X21606D2*
X29813D1*
X31781D2*
X34869D1*
X42681D2*
X48219D1*
X51162D2*
X62094D1*
X64268D2*
X64544D1*
X67531D2*
X75313D1*
X80231D2*
X81776D1*
X86374D2*
X89263D1*
X740Y21720D2*
X1176D1*
X13981D2*
X16126D1*
X18799D2*
X19033D1*
X21606D2*
X24619D1*
X29356D2*
X29813D1*
X31781D2*
X34869D1*
X42681D2*
X46532D1*
X51262D2*
X62094D1*
X67618D2*
X75313D1*
X80318D2*
X82169D1*
X86374D2*
X89263D1*
X740Y21323D2*
X1176D1*
X14343D2*
X16126D1*
X18799D2*
X19033D1*
X21606D2*
X24619D1*
X29356D2*
X29813D1*
X31781D2*
X40507D1*
X42681D2*
X46532D1*
X51262D2*
X62094D1*
X64268D2*
X64476D1*
X67599D2*
X75313D1*
X80299D2*
X82613D1*
X86374D2*
X89263D1*
X740Y20927D2*
X1176D1*
X14437D2*
X16513D1*
X21606D2*
X24619D1*
X39506D2*
X40507D1*
X42681D2*
X46532D1*
X51262D2*
X62094D1*
X64268D2*
X64607D1*
X67474D2*
X75313D1*
X77087D2*
X77307D1*
X80174D2*
X83807D1*
X86374D2*
X89263D1*
X740Y20530D2*
X1176D1*
X14437D2*
X16238D1*
X21606D2*
X24619D1*
X39874D2*
X40507D1*
X42681D2*
X46532D1*
X61424D2*
X62094D1*
X64268D2*
X64876D1*
X67206D2*
X75313D1*
X77087D2*
X77576D1*
X79906D2*
X83807D1*
X86374D2*
X89263D1*
X740Y20133D2*
X1176D1*
X14437D2*
X16132D1*
X21606D2*
X24619D1*
X40031D2*
X40507D1*
X42681D2*
X46532D1*
X61831D2*
X62094D1*
X64268D2*
X64901D1*
X67181D2*
X75313D1*
X77087D2*
X77601D1*
X79881D2*
X89263D1*
X740Y19737D2*
X1176D1*
X14437D2*
X16157D1*
X21606D2*
X24619D1*
X40037D2*
X40507D1*
X42681D2*
X46532D1*
X64268D2*
X64613D1*
X67462D2*
X75313D1*
X77087D2*
X77313D1*
X84299D2*
X89263D1*
X740Y19340D2*
X1176D1*
X6668D2*
X7188D1*
X14437D2*
X16307D1*
X21606D2*
X24619D1*
X29356D2*
X38069D1*
X40037D2*
X40507D1*
X42681D2*
X46532D1*
X64268D2*
X64482D1*
X67599D2*
X75313D1*
X84699D2*
X89263D1*
X740Y18943D2*
X1176D1*
X6668D2*
X7819D1*
X14437D2*
X16676D1*
X21606D2*
X24619D1*
X29356D2*
X36219D1*
X40187D2*
X40507D1*
X42681D2*
X46532D1*
X67624D2*
X75313D1*
X85093D2*
X89263D1*
X740Y18547D2*
X1176D1*
X6112D2*
X11913D1*
X14437D2*
X16713D1*
X18212D2*
X19032D1*
X21606D2*
X24619D1*
X29356D2*
X34976D1*
X35824D2*
X36219D1*
X40187D2*
X40507D1*
X42681D2*
X46532D1*
X51262D2*
X57044D1*
X57893D2*
X59976D1*
X64268D2*
X64538D1*
X67543D2*
X75313D1*
X85556D2*
X89263D1*
X740Y18150D2*
X1176D1*
X6087D2*
X7707D1*
X14693D2*
X16326D1*
X18599D2*
X19032D1*
X21606D2*
X24619D1*
X29356D2*
X34507D1*
X40187D2*
X40507D1*
X42681D2*
X46532D1*
X51262D2*
X56576D1*
X64268D2*
X64744D1*
X67337D2*
X75313D1*
X77087D2*
X77444D1*
X86087D2*
X89263D1*
X740Y17753D2*
X1176D1*
X3981D2*
X4288D1*
X5874D2*
X7707D1*
X15093D2*
X16163D1*
X18768D2*
X19031D1*
X21606D2*
X24619D1*
X29356D2*
X34369D1*
X40187D2*
X40507D1*
X42681D2*
X46532D1*
X51262D2*
X56432D1*
X64268D2*
X65082D1*
X66999D2*
X75313D1*
X77087D2*
X77782D1*
X86281D2*
X89263D1*
X740Y17357D2*
X1176D1*
X4374D2*
X7707D1*
X15487D2*
X16132D1*
X18793D2*
X19033D1*
X21606D2*
X34394D1*
X40187D2*
X40507D1*
X42681D2*
X56463D1*
X64268D2*
X64707D1*
X67374D2*
X75313D1*
X77087D2*
X77407D1*
X86324D2*
X89263D1*
X740Y16960D2*
X1176D1*
X4774D2*
X7707D1*
X15887D2*
X16232D1*
X18699D2*
X19032D1*
X21606D2*
X34607D1*
X39937D2*
X40507D1*
X42681D2*
X56676D1*
X64268D2*
X64519D1*
X67556D2*
X75313D1*
X86231D2*
X89263D1*
X740Y16563D2*
X1294D1*
X5131D2*
X7707D1*
X16281D2*
X16488D1*
X18437D2*
X19032D1*
X21606D2*
X34357D1*
X39937D2*
X40507D1*
X42681D2*
X56957D1*
X67624D2*
X75313D1*
X85956D2*
X89263D1*
X740Y16167D2*
X1644D1*
X5231D2*
X7707D1*
X12131D2*
X12582D1*
X16681D2*
X17057D1*
X17868D2*
X19032D1*
X21606D2*
X34357D1*
X39937D2*
X40507D1*
X42681D2*
X56263D1*
X61843D2*
X62094D1*
X64268D2*
X64494D1*
X67587D2*
X75313D1*
X86106D2*
X89263D1*
X740Y15770D2*
X1813D1*
X5781D2*
X7707D1*
X12131D2*
X12982D1*
X18481D2*
X19032D1*
X21606D2*
X34357D1*
X39937D2*
X40507D1*
X42681D2*
X56263D1*
X61843D2*
X62094D1*
X64268D2*
X64644D1*
X67437D2*
X75313D1*
X77087D2*
X77344D1*
X86281D2*
X89263D1*
X740Y15373D2*
X1813D1*
X5781D2*
X7707D1*
X12131D2*
X13376D1*
X18718D2*
X19032D1*
X21606D2*
X34357D1*
X39937D2*
X40507D1*
X42681D2*
X56263D1*
X61843D2*
X62094D1*
X64268D2*
X64951D1*
X67124D2*
X69101D1*
X77087D2*
X77651D1*
X86324D2*
X89263D1*
X740Y14977D2*
X1813D1*
X5781D2*
X7707D1*
X12131D2*
X13776D1*
X18799D2*
X19033D1*
X21606D2*
X34357D1*
X39937D2*
X40507D1*
X42681D2*
X56263D1*
X61843D2*
X62094D1*
X64268D2*
X64826D1*
X67256D2*
X68832D1*
X77256D2*
X77526D1*
X86237D2*
X89263D1*
X740Y14580D2*
X1813D1*
X5781D2*
X14169D1*
X18749D2*
X19029D1*
X21606D2*
X34357D1*
X39937D2*
X40507D1*
X42681D2*
X56263D1*
X61843D2*
X62094D1*
X64268D2*
X64582D1*
X67499D2*
X68763D1*
X85968D2*
X89263D1*
X740Y14183D2*
X1813D1*
X5781D2*
X14569D1*
X18568D2*
X19032D1*
X21606D2*
X34357D1*
X39937D2*
X40507D1*
X42681D2*
X56263D1*
X61843D2*
X62094D1*
X64268D2*
X64469D1*
X67612D2*
X68851D1*
X86056D2*
X89263D1*
X740Y13787D2*
X1813D1*
X5781D2*
X14963D1*
X18124D2*
X19032D1*
X21606D2*
X34357D1*
X39937D2*
X40507D1*
X42681D2*
X56263D1*
X61843D2*
X62094D1*
X67612D2*
X69157D1*
X86268D2*
X89263D1*
X740Y13390D2*
X1813D1*
X5781D2*
X15363D1*
X18318D2*
X19032D1*
X21606D2*
X40507D1*
X42681D2*
X62094D1*
X64268D2*
X64569D1*
X67512D2*
X75313D1*
X86324D2*
X89263D1*
X740Y12993D2*
X1813D1*
X5781D2*
X15757D1*
X18643D2*
X19032D1*
X21606D2*
X33032D1*
X37774D2*
X40507D1*
X42681D2*
X55888D1*
X59362D2*
X62094D1*
X64268D2*
X64801D1*
X67281D2*
X75313D1*
X77087D2*
X77501D1*
X86243D2*
X89263D1*
X740Y12597D2*
X1813D1*
X5781D2*
X16144D1*
X18781D2*
X19032D1*
X21606D2*
X32632D1*
X38168D2*
X40507D1*
X42681D2*
X55494D1*
X59762D2*
X62094D1*
X64268D2*
X64988D1*
X67093D2*
X75313D1*
X77087D2*
X77688D1*
X85987D2*
X89263D1*
X740Y12200D2*
X1813D1*
X5781D2*
X6557D1*
X13281D2*
X16138D1*
X18787D2*
X19032D1*
X21606D2*
X24619D1*
X29356D2*
X32238D1*
X38537D2*
X40507D1*
X42681D2*
X46532D1*
X51262D2*
X55094D1*
X60156D2*
X62094D1*
X64268D2*
X64657D1*
X67418D2*
X75313D1*
X77087D2*
X77357D1*
X86043D2*
X89263D1*
X740Y11803D2*
X1813D1*
X5481D2*
X6557D1*
X13281D2*
X16263D1*
X18662D2*
X19032D1*
X21606D2*
X24619D1*
X29356D2*
X31838D1*
X38668D2*
X40507D1*
X42681D2*
X46532D1*
X51262D2*
X54701D1*
X60487D2*
X62094D1*
X64268D2*
X64501D1*
X67581D2*
X75313D1*
X86268D2*
X89263D1*
X740Y11407D2*
X1882D1*
X13281D2*
X16569D1*
X18356D2*
X19032D1*
X21606D2*
X24619D1*
X29356D2*
X31444D1*
X38668D2*
X40507D1*
X42681D2*
X46532D1*
X51262D2*
X54301D1*
X60574D2*
X62094D1*
X67624D2*
X75313D1*
X86324D2*
X89263D1*
X740Y11010D2*
X2201D1*
X13281D2*
X16863D1*
X18068D2*
X19032D1*
X21606D2*
X24619D1*
X29356D2*
X31044D1*
X39937D2*
X40507D1*
X42681D2*
X46532D1*
X51262D2*
X53907D1*
X61843D2*
X62094D1*
X64268D2*
X64513D1*
X67568D2*
X75313D1*
X86249D2*
X89263D1*
X740Y10613D2*
X2594D1*
X13281D2*
X16382D1*
X18543D2*
X19032D1*
X21606D2*
X24619D1*
X29356D2*
X30651D1*
X42681D2*
X46532D1*
X51262D2*
X53507D1*
X64268D2*
X64688D1*
X67393D2*
X75313D1*
X77087D2*
X77388D1*
X86006D2*
X89263D1*
X740Y10217D2*
X2994D1*
X13281D2*
X16182D1*
X18743D2*
X19029D1*
X21606D2*
X24619D1*
X29356D2*
X30319D1*
X42681D2*
X46532D1*
X51262D2*
X53113D1*
X64268D2*
X65044D1*
X67037D2*
X75313D1*
X77087D2*
X77744D1*
X79737D2*
X89263D1*
X740Y9820D2*
X3388D1*
X13281D2*
X16126D1*
X18799D2*
X19033D1*
X21606D2*
X24619D1*
X29356D2*
X30232D1*
X42681D2*
X46532D1*
X51262D2*
X52719D1*
X64212D2*
X64763D1*
X67312D2*
X75313D1*
X80012D2*
X89263D1*
X740Y9423D2*
X3788D1*
X13281D2*
X16194D1*
X21606D2*
X24619D1*
X29356D2*
X30232D1*
X42593D2*
X46532D1*
X51262D2*
X52482D1*
X63962D2*
X64551D1*
X67531D2*
X75426D1*
X80231D2*
X89263D1*
X740Y9027D2*
X4182D1*
X7606D2*
X9144D1*
X11549D2*
X16419D1*
X21593D2*
X24619D1*
X29356D2*
X30232D1*
X42287D2*
X46532D1*
X51262D2*
X52457D1*
X63568D2*
X64463D1*
X67618D2*
X75782D1*
X80318D2*
X89263D1*
X740Y8630D2*
X4626D1*
X8006D2*
X9501D1*
X12174D2*
X13001D1*
X15574D2*
X16969D1*
X21462D2*
X24619D1*
X29356D2*
X30232D1*
X39937D2*
X46532D1*
X51262D2*
X52457D1*
X63074D2*
X64476D1*
X67606D2*
X76176D1*
X80306D2*
X89263D1*
X740Y8233D2*
X5932D1*
X8399D2*
X9601D1*
X12174D2*
X13001D1*
X21149D2*
X25051D1*
X28924D2*
X30232D1*
X39937D2*
X47807D1*
X49981D2*
X52457D1*
X62999D2*
X64601D1*
X67481D2*
X76582D1*
X80181D2*
X89263D1*
X740Y7837D2*
X6326D1*
X8799D2*
X9601D1*
X12174D2*
X13001D1*
X28924D2*
X30232D1*
X39931D2*
X46957D1*
X50831D2*
X52457D1*
X62999D2*
X64869D1*
X67212D2*
X77569D1*
X79912D2*
X89263D1*
X740Y7440D2*
X3269D1*
X5618D2*
X6726D1*
X9193D2*
X9601D1*
X12174D2*
X13001D1*
X28924D2*
X30032D1*
X39774D2*
X42751D1*
X50831D2*
X52257D1*
X62999D2*
X64907D1*
X67174D2*
X77607D1*
X79874D2*
X89263D1*
X740Y7043D2*
X2532D1*
X6356D2*
X7119D1*
X12174D2*
X13001D1*
X28924D2*
X30032D1*
X39618D2*
X42357D1*
X50831D2*
X52257D1*
X62999D2*
X64619D1*
X67462D2*
X77319D1*
X80162D2*
X84357D1*
X87093D2*
X89263D1*
X740Y6647D2*
X2076D1*
X6812D2*
X7513D1*
X12174D2*
X13001D1*
X28924D2*
X30032D1*
X39618D2*
X41957D1*
X50831D2*
X52257D1*
X58137D2*
X58476D1*
X62999D2*
X64482D1*
X67599D2*
X77182D1*
X80299D2*
X83707D1*
X87743D2*
X89263D1*
X740Y6250D2*
X1757D1*
X7131D2*
X7688D1*
X12174D2*
X13001D1*
X28924D2*
X30032D1*
X39618D2*
X41563D1*
X50831D2*
X52257D1*
X58137D2*
X58776D1*
X63149D2*
X64457D1*
X67624D2*
X77157D1*
X80324D2*
X83288D1*
X88162D2*
X89263D1*
X740Y5853D2*
X1526D1*
X7362D2*
X7688D1*
X9456D2*
X10226D1*
X11999D2*
X13188D1*
X15174D2*
X18707D1*
X21662D2*
X25051D1*
X28924D2*
X30032D1*
X39618D2*
X41163D1*
X50831D2*
X52257D1*
X58137D2*
X58776D1*
X63149D2*
X64538D1*
X67543D2*
X77238D1*
X80243D2*
X82988D1*
X88462D2*
X89263D1*
X740Y5457D2*
X1363D1*
X9456D2*
X10226D1*
X11999D2*
X12857D1*
X15131D2*
X18601D1*
X21262D2*
X25051D1*
X28924D2*
X30032D1*
X39968D2*
X40894D1*
X43806D2*
X46957D1*
X50831D2*
X52257D1*
X58137D2*
X58776D1*
X63149D2*
X64738D1*
X67343D2*
X77438D1*
X80043D2*
X82769D1*
X88681D2*
X89263D1*
X740Y5060D2*
X1263D1*
X9456D2*
X10176D1*
X12049D2*
X12319D1*
X14987D2*
X18601D1*
X28924D2*
X30032D1*
X39968D2*
X40826D1*
X50831D2*
X52257D1*
X58137D2*
X58776D1*
X63149D2*
X65151D1*
X66931D2*
X77851D1*
X79631D2*
X82619D1*
X88831D2*
X89263D1*
X740Y4663D2*
X1207D1*
X9456D2*
X9894D1*
X14987D2*
X18463D1*
X28924D2*
X30032D1*
X39968D2*
X40688D1*
X50831D2*
X52257D1*
X58137D2*
X58776D1*
X63149D2*
X82526D1*
X88924D2*
X89263D1*
X740Y4267D2*
X1207D1*
X9456D2*
X9782D1*
X14987D2*
X18357D1*
X28924D2*
X30032D1*
X39968D2*
X40582D1*
X51087D2*
X52257D1*
X58137D2*
X58776D1*
X63149D2*
X82488D1*
X88962D2*
X89263D1*
X740Y3870D2*
X1257D1*
X9456D2*
X9801D1*
X14987D2*
X18376D1*
X28924D2*
X30032D1*
X39968D2*
X40601D1*
X51481D2*
X52257D1*
X58137D2*
X58776D1*
X63149D2*
X82494D1*
X88956D2*
X89263D1*
X740Y3473D2*
X1351D1*
X9512D2*
X9957D1*
X14987D2*
X18526D1*
X28924D2*
X33938D1*
X39968D2*
X40751D1*
X51881D2*
X56069D1*
X58137D2*
X60826D1*
X62999D2*
X82551D1*
X88899D2*
X89263D1*
X740Y3077D2*
X1507D1*
X7381D2*
X7694D1*
X9906D2*
X10313D1*
X14987D2*
X18888D1*
X20481D2*
X20888D1*
X23562D2*
X25051D1*
X28924D2*
X33769D1*
X35912D2*
X41113D1*
X42706D2*
X43113D1*
X45787D2*
X46957D1*
X58131D2*
X60576D1*
X62999D2*
X82657D1*
X88793D2*
X89263D1*
X740Y2680D2*
X1732D1*
X7156D2*
X7844D1*
X14537D2*
X26144D1*
X35893D2*
X46957D1*
X57993D2*
X60138D1*
X64243D2*
X82826D1*
X88624D2*
X89263D1*
X740Y2283D2*
X2044D1*
X6849D2*
X8226D1*
X14431D2*
X26501D1*
X35718D2*
X50313D1*
X57637D2*
X59944D1*
X64512D2*
X83063D1*
X88387D2*
X89263D1*
X740Y1887D2*
X2476D1*
X6412D2*
X8626D1*
X14074D2*
X26901D1*
X35331D2*
X50713D1*
X57237D2*
X59894D1*
X64587D2*
X83394D1*
X88056D2*
X89263D1*
X740Y1490D2*
X3169D1*
X5718D2*
X9019D1*
X13681D2*
X27294D1*
X34937D2*
X51113D1*
X56837D2*
X59957D1*
X64499D2*
X83869D1*
X87581D2*
X89263D1*
X740Y1093D2*
X27732D1*
X34499D2*
X60163D1*
X64199D2*
X84657D1*
X86793D2*
X89263D1*
X21610Y42154D2*
X21616Y41697D1*
X21920Y41703D1*
X22239D1*
X22968Y42438D1*
X23126Y42558D1*
X23311Y42633D1*
X23495Y42656D1*
X23864D1*
X24092Y42828D1*
X24271Y42918D1*
X24461Y42980D1*
X24658Y43012D1*
X24858Y43013D1*
X25085Y42974D1*
X25925Y43808D1*
X25924Y45085D1*
X25951Y45283D1*
X26029Y45466D1*
X26143Y45613D1*
X26774Y46244D1*
X26188D1*
X25955Y46015D1*
X25822Y45796D1*
X25694Y45642D1*
X25544Y45510D1*
X25376Y45403D1*
X25193Y45323D1*
X24999Y45271D1*
X24801Y45250D1*
X24601Y45260D1*
X24406Y45301D1*
X24218Y45371D1*
X24044Y45469D1*
X23887Y45592D1*
X23751Y45739D1*
X23678Y45847D1*
X23558Y45905D1*
X23412Y46018D1*
X22868Y46562D1*
X21621D1*
X21616Y46203D1*
Y44212D1*
X19024D1*
Y48504D1*
X21616D1*
Y48047D1*
X22520Y48054D1*
X23177D1*
X23375Y48027D1*
X23559Y47949D1*
X23705Y47835D1*
X23975Y47565D1*
X24092Y47654D1*
X24271Y47744D1*
X24461Y47806D1*
X24658Y47838D1*
X24858Y47839D1*
X25055Y47809D1*
X25246Y47749D1*
X25481Y47622D1*
X25692Y47713D1*
X25876Y47736D1*
X27595D1*
X27589Y47848D1*
X27595Y47789D1*
X27435Y47847D1*
X27305D1*
X27107Y47874D1*
X26924Y47952D1*
X26768Y48076D1*
X26650Y48236D1*
X26573Y48450D1*
X26559Y48793D1*
Y49274D1*
X24830D1*
X24826Y52943D1*
X22834D1*
X22840Y55335D1*
X22834Y55243D1*
Y57073D1*
X22651Y57257D1*
X22530Y57416D1*
X22445Y57646D1*
X22274Y57759D1*
X21882D1*
Y60351D1*
X24474D1*
Y59420D1*
X24528Y59569D1*
X24621Y59746D1*
X24741Y59906D1*
X24883Y60046D1*
X25045Y60163D1*
X25224Y60253D1*
X25414Y60315D1*
X25611Y60347D1*
X25811Y60348D1*
X26008Y60318D1*
X26199Y60258D1*
X26378Y60170D1*
X26542Y60055D1*
X26686Y59917D1*
X26807Y59758D1*
X26902Y59582D1*
X26986Y59302D1*
X27039Y59495D1*
X27141Y59712D1*
X27281Y59906D1*
X27454Y60071D1*
X27655Y60202D1*
X27876Y60294D1*
X28111Y60343D1*
X28351Y60348D1*
X28587Y60309D1*
X28812Y60226D1*
X29018Y60104D1*
X29199Y59946D1*
X29347Y59758D1*
X29458Y59545D1*
X29528Y59313D1*
X29608Y59569D1*
X29701Y59746D1*
X29821Y59906D1*
X29963Y60046D1*
X30125Y60163D1*
X30304Y60253D1*
X30494Y60315D1*
X30691Y60347D1*
X30891Y60348D1*
X31088Y60318D1*
X31279Y60258D1*
X31458Y60170D1*
X31622Y60055D1*
X31766Y59917D1*
X31887Y59758D1*
X31982Y59582D1*
X32066Y59302D1*
X32148Y59569D1*
X32241Y59746D1*
X32361Y59906D1*
X32503Y60046D1*
X32665Y60163D1*
X32844Y60253D1*
X33034Y60315D1*
X33231Y60347D1*
X33431Y60348D1*
X33628Y60318D1*
X33819Y60258D1*
X33998Y60170D1*
X34162Y60055D1*
X34306Y59917D1*
X34427Y59758D1*
X34522Y59582D1*
X34606Y59302D1*
X34688Y59569D1*
X34781Y59746D1*
X34901Y59906D1*
X35043Y60046D1*
X35205Y60163D1*
X35384Y60253D1*
X35574Y60315D1*
X35771Y60347D1*
X35971Y60348D1*
X36168Y60318D1*
X36359Y60258D1*
X36538Y60170D1*
X36702Y60055D1*
X36846Y59917D1*
X36967Y59758D1*
X37062Y59582D1*
X37129Y59394D1*
X37166Y59198D1*
X37174Y59055D1*
X37159Y58856D1*
X37113Y58661D1*
X37038Y58476D1*
X36935Y58305D1*
X36843Y58195D1*
X37002Y57995D1*
X37077Y57810D1*
X37100Y57626D1*
Y55733D1*
X37131D1*
X37539Y55739D1*
X37931Y55733D1*
X38339Y55739D1*
X38731Y55733D1*
X39139Y55739D1*
X39531D1*
Y53383D1*
X39689Y53393D1*
Y53770D1*
X39716Y53968D1*
X39794Y54151D1*
X39907Y54297D1*
X41644Y56034D1*
X41640Y56890D1*
X41581Y56900D1*
X41173Y56894D1*
X40781D1*
X40773Y58894D1*
X38781D1*
X38787Y60486D1*
X38781Y60894D1*
X38787Y61286D1*
X38781Y61340D1*
X37054Y61339D1*
Y62828D1*
X34818Y60591D1*
X34659Y60470D1*
X34474Y60396D1*
X34290Y60373D1*
X30004D1*
X29806Y60399D1*
X29623Y60477D1*
X29476Y60591D1*
X28897Y61170D1*
X26511Y61167D1*
X26314Y61193D1*
X26130Y61271D1*
X25984Y61385D1*
X25730Y61660D1*
X25661Y61792D1*
X25619Y61935D1*
X25607Y62071D1*
Y65722D1*
X25633Y65920D1*
X25711Y66104D1*
X25825Y66250D1*
X26460Y66885D1*
X26618Y67005D1*
X26803Y67080D1*
X26987Y67103D1*
X27043D1*
X27122Y67208D1*
X27264Y67348D1*
X27426Y67465D1*
X27605Y67555D1*
X27795Y67617D1*
X27992Y67649D1*
X28192Y67650D1*
X28389Y67620D1*
X28580Y67560D1*
X28759Y67472D1*
X28923Y67358D1*
X29067Y67219D1*
X29188Y67060D1*
X29283Y66884D1*
X29367Y66604D1*
X29449Y66871D1*
X29542Y67048D1*
X29662Y67208D1*
X29804Y67348D1*
X29966Y67465D1*
X30145Y67555D1*
X30335Y67617D1*
X30532Y67649D1*
X30732Y67650D1*
X30929Y67620D1*
X31120Y67560D1*
X31299Y67472D1*
X31463Y67358D1*
X31607Y67219D1*
X31728Y67060D1*
X31823Y66884D1*
X31907Y66604D1*
X31960Y66797D1*
X32062Y67014D1*
X32202Y67208D1*
X32375Y67373D1*
X32576Y67504D1*
X32797Y67596D1*
X33032Y67645D1*
X33272Y67650D1*
X33508Y67611D1*
X33733Y67528D1*
X33940Y67406D1*
X34120Y67248D1*
X34268Y67060D1*
X34379Y66847D1*
X34449Y66617D1*
X36620Y68790D1*
X36779Y68911D1*
X36964Y68985D1*
X37148Y69008D1*
X42227D1*
X42425Y68982D1*
X42609Y68904D1*
X42755Y68790D1*
X43008Y68516D1*
X43078Y68383D1*
X43120Y68240D1*
X43132Y68085D1*
X43173Y68080D1*
X43581Y68086D1*
X43973Y68080D1*
X44381Y68086D1*
X44773Y68080D1*
X45181Y68086D1*
X45362D1*
X45353Y68311D1*
X45383Y68509D1*
X45451Y68697D1*
X45555Y68867D1*
X45690Y69014D1*
X45852Y69130D1*
X46034Y69213D1*
X46229Y69258D1*
X46428Y69263D1*
X46625Y69228D1*
X46811Y69156D1*
X46979Y69048D1*
X47122Y68909D1*
X47235Y68744D1*
X47313Y68560D1*
X47353Y68364D1*
X47340Y68082D1*
X47973Y68086D1*
Y67417D1*
X48273Y67421D1*
X48788Y67941D1*
X48784Y69746D1*
X46957Y69748D1*
X46963Y72490D1*
X46957Y72648D1*
Y73290D1*
X46451D1*
X46449Y72120D1*
X46442Y70698D1*
X46449Y70540D1*
Y69748D1*
X44357D1*
Y69804D1*
X43203Y69798D1*
X42386D1*
X42188Y69821D1*
X42001Y69891D1*
X41788Y70046D1*
X39407Y72427D1*
X39283Y72584D1*
X39200Y72765D1*
X39159Y73025D1*
Y75219D1*
X38704Y75669D1*
X38439Y75666D1*
X38444Y74409D1*
Y73416D1*
X35851Y73423D1*
X35421Y73416D1*
X33719D1*
X33614Y73148D1*
X33442Y72920D1*
X31220Y70698D1*
X31066Y70571D1*
X30890Y70475D1*
X30700Y70415D1*
X30480Y70391D1*
X24249D1*
X22957Y69102D1*
X22954Y66358D1*
X22934Y66159D1*
X22878Y65967D1*
X22786Y65790D1*
X22647Y65618D1*
X19155Y62125D1*
X19001Y61998D1*
X18825Y61903D1*
X18635Y61842D1*
X18415Y61819D1*
X17334D1*
X17152Y61608D1*
X16918Y61411D1*
X16921Y57976D1*
X17092Y57841D1*
X17231Y57698D1*
X17353Y57540D1*
X17458Y57369D1*
X17542Y57188D1*
X17606Y56999D1*
X17649Y56803D1*
X17671Y56520D1*
X17660Y56320D1*
X17627Y56123D1*
X17572Y55931D1*
X17496Y55746D1*
X17400Y55571D1*
X17285Y55407D1*
X17152Y55258D1*
X17004Y55123D1*
X16706Y54930D1*
X16937Y54788D1*
X17092Y54661D1*
X17231Y54518D1*
X17353Y54360D1*
X17460Y54184D1*
X19186Y54181D1*
X19183Y54531D1*
X21775D1*
X21769Y52139D1*
X21775Y52111D1*
Y50239D1*
X19183D1*
Y52490D1*
X17460Y52489D1*
X17285Y52227D1*
X17152Y52078D1*
X17004Y51943D1*
X16706Y51750D1*
X16937Y51608D1*
X17092Y51481D1*
X17231Y51338D1*
X17353Y51180D1*
X17458Y51009D1*
X17542Y50828D1*
X17606Y50639D1*
X17649Y50443D1*
X17671Y50160D1*
X17660Y49960D1*
X17627Y49763D1*
X17572Y49571D1*
X17496Y49386D1*
X17400Y49211D1*
X17285Y49047D1*
X17152Y48898D1*
X17004Y48763D1*
X16842Y48647D1*
X16668Y48548D1*
X16484Y48470D1*
X16292Y48413D1*
X16096Y48378D1*
X15896Y48364D1*
X15696Y48373D1*
X15499Y48404D1*
X15306Y48456D1*
X15120Y48530D1*
X14944Y48624D1*
X14779Y48737D1*
X14628Y48868D1*
X14492Y49014D1*
X14373Y49175D1*
X14273Y49348D1*
X14193Y49531D1*
X14133Y49722D1*
X14095Y49918D1*
X14080Y50118D1*
X14086Y50317D1*
X14114Y50515D1*
X14165Y50709D1*
X14236Y50895D1*
X14328Y51073D1*
X14439Y51239D1*
X14568Y51392D1*
X14713Y51530D1*
X14873Y51650D1*
X15039Y51749D1*
X14779Y51917D1*
X14628Y52048D1*
X14492Y52194D1*
X14373Y52355D1*
X14273Y52528D1*
X14193Y52711D1*
X14133Y52902D1*
X14095Y53098D1*
X14080Y53298D1*
X14086Y53498D1*
X14114Y53695D1*
X14165Y53889D1*
X14236Y54075D1*
X14328Y54253D1*
X14439Y54419D1*
X14568Y54572D1*
X14713Y54710D1*
X14873Y54830D1*
X15039Y54929D1*
X14779Y55097D1*
X14628Y55228D1*
X14492Y55374D1*
X14373Y55535D1*
X14273Y55708D1*
X14193Y55891D1*
X14133Y56082D1*
X14095Y56278D1*
X14080Y56478D1*
X14086Y56678D1*
X14114Y56875D1*
X14165Y57069D1*
X14236Y57255D1*
X14328Y57433D1*
X14439Y57599D1*
X14568Y57752D1*
X14828Y57976D1*
X14829Y61414D1*
X14628Y61578D1*
X14492Y61724D1*
X14373Y61885D1*
X14273Y62058D1*
X14193Y62241D1*
X14133Y62432D1*
X14095Y62628D1*
X14080Y62828D1*
X14105Y63157D1*
X13865Y63400D1*
X13738Y63554D1*
X13643Y63730D1*
X13582Y63920D1*
X13559Y64140D1*
Y65334D1*
X13359Y65339D1*
Y66270D1*
X12700Y66264D1*
X12501Y66283D1*
X12310Y66340D1*
X12132Y66431D1*
X11960Y66570D1*
X10992Y67538D1*
X10336Y67534D1*
Y67234D1*
X7444D1*
Y69926D1*
X10336D1*
Y69620D1*
X11430Y69626D1*
X11629Y69607D1*
X11820Y69550D1*
X11998Y69459D1*
X12170Y69320D1*
X13138Y68352D1*
X13356Y68356D1*
X13359Y69281D1*
X15851D1*
Y65339D1*
X15645D1*
X15651Y64910D1*
Y64654D1*
X16011Y64661D1*
X16210Y64635D1*
X16404Y64586D1*
X16591Y64517D1*
X16770Y64427D1*
X16937Y64318D1*
X17092Y64191D1*
X17231Y64048D1*
X17334Y63915D1*
X17986Y63911D1*
X20862Y66791D1*
X20861Y69532D1*
X20881Y69731D1*
X20937Y69923D1*
X21029Y70100D1*
X21168Y70272D1*
X23073Y72177D1*
X23227Y72304D1*
X23402Y72400D1*
X23593Y72460D1*
X23812Y72484D1*
X30044D1*
X31177Y73613D1*
X31091Y73610D1*
X30892Y73635D1*
X30703Y73698D1*
X30530Y73798D1*
X30380Y73930D1*
X30260Y74089D1*
X30173Y74269D1*
X30123Y74462D1*
X30113Y74661D1*
X30143Y74859D1*
X30211Y75047D1*
X30315Y75217D1*
X30370Y75277D1*
X30369Y75794D1*
X30071Y75789D1*
X28319D1*
Y77881D1*
X30375D1*
X30369Y79035D1*
X30363Y79694D1*
X30295Y79506D1*
X30196Y79333D1*
X30069Y79178D1*
X29919Y79047D1*
X29749Y78942D1*
X29563Y78867D1*
X29368Y78825D1*
X29169Y78815D1*
X28970Y78838D1*
X28779Y78895D1*
X28599Y78982D1*
X28436Y79098D1*
X28295Y79239D1*
X28180Y79402D1*
X28093Y79582D1*
X28037Y79774D1*
X28015Y79973D1*
X28025Y80172D1*
X28069Y80367D1*
X28144Y80552D1*
X28249Y80722D1*
X28381Y80872D1*
X28554Y81010D1*
X28377Y81152D1*
X28246Y81302D1*
X28142Y81473D1*
X28067Y81658D1*
X28024Y81853D1*
X28015Y82053D1*
X28039Y82251D1*
X28095Y82443D1*
X28183Y82622D1*
X28299Y82785D1*
X28440Y82925D1*
X28558Y83008D1*
X28377Y83152D1*
X28246Y83302D1*
X28142Y83473D1*
X28067Y83658D1*
X28024Y83853D1*
X28015Y84053D1*
X28039Y84251D1*
X28095Y84443D1*
X28183Y84622D1*
X28299Y84785D1*
X28440Y84925D1*
X28604Y85041D1*
X28784Y85127D1*
X28976Y85183D1*
X29174Y85205D1*
X29373Y85195D1*
X29568Y85151D1*
X29753Y85075D1*
X29923Y84970D1*
X30073Y84838D1*
X30199Y84683D1*
X30297Y84509D1*
X30365Y84321D1*
X30406Y84010D1*
X30389Y83811D1*
X30340Y83617D1*
X30259Y83435D1*
X30148Y83268D1*
X30012Y83123D1*
X29868Y83013D1*
X30073Y82838D1*
X30214Y82656D1*
X30480Y82661D1*
X30678Y82634D1*
X30861Y82556D1*
X31008Y82442D1*
X31643Y81808D1*
X31763Y81649D1*
X31838Y81464D1*
X31861Y81280D1*
Y77886D1*
X32211Y77881D1*
Y76550D1*
X32910Y77252D1*
X33064Y77379D1*
X33240Y77475D1*
X33430Y77535D1*
X33572Y77555D1*
X33629Y77709D1*
X33879Y77712D1*
Y86439D1*
X33629D1*
X33635Y88831D1*
X33629Y88739D1*
Y90731D1*
X36221Y90725D1*
X36651Y90731D1*
X38443D1*
X38437Y88339D1*
X38443Y88431D1*
Y86439D1*
X37993Y86435D1*
Y85724D1*
X37969Y85526D1*
X37900Y85339D1*
X37745Y85126D1*
X37679Y85060D1*
X37676Y84851D1*
X37910Y84856D1*
X38108Y84832D1*
X38295Y84763D1*
X38508Y84608D1*
X40603Y82513D1*
X40727Y82356D1*
X40810Y82175D1*
X40851Y81915D1*
Y78934D1*
X44797Y74985D1*
X47308Y74982D1*
X47506Y74959D1*
X47693Y74889D1*
X47906Y74734D1*
X48541Y74099D1*
X48664Y73943D1*
X48748Y73761D1*
X48788Y73501D1*
Y73445D1*
X49048Y73440D1*
Y72321D1*
X49108Y72313D1*
X49291Y72235D1*
X49438Y72121D1*
X50058Y71501D1*
X50178Y71343D1*
X50253Y71158D1*
X50276Y70974D1*
Y67627D1*
X50249Y67430D1*
X50171Y67246D1*
X50058Y67100D1*
X49108Y66151D1*
X52286D1*
X52363Y66256D1*
X52505Y66396D1*
X52667Y66513D1*
X52846Y66603D1*
X53036Y66665D1*
X53233Y66697D1*
X53433Y66698D1*
X53630Y66668D1*
X53821Y66608D1*
X54000Y66520D1*
X54164Y66406D1*
X54308Y66267D1*
X54395Y66153D1*
X54524Y66215D1*
X54876Y66567D1*
X55035Y66688D1*
X55220Y66763D1*
X55404Y66786D1*
X55860D1*
X55854Y67236D1*
X58446D1*
X58440Y64844D1*
X58446Y64816D1*
Y62944D1*
X55854D1*
Y65300D1*
X55706Y65294D1*
X55296Y64877D1*
X55138Y64757D1*
X54953Y64682D1*
X54769Y64659D1*
X54397Y64655D1*
X54269Y64501D1*
X54119Y64369D1*
X53951Y64262D1*
X53768Y64182D1*
X53574Y64130D1*
X53376Y64109D1*
X53176Y64119D1*
X52981Y64160D1*
X52793Y64230D1*
X52619Y64328D1*
X52462Y64451D1*
X52288Y64655D1*
X51809Y64659D1*
X53867Y62599D1*
X53988Y62440D1*
X54063Y62255D1*
X54086Y62071D1*
Y61640D1*
X54308Y61441D1*
X54395Y61327D1*
X54554Y61298D1*
X54737Y61220D1*
X54883Y61107D1*
X55551Y60439D1*
X55851Y60436D1*
X55854Y62634D1*
Y62786D1*
X58446D1*
Y58494D1*
X55854D1*
Y58950D1*
X55245Y58944D1*
X55047Y58971D1*
X54864Y59049D1*
X54718Y59163D1*
X54236Y59644D1*
X54119Y59543D1*
X53951Y59436D1*
X53768Y59356D1*
X53574Y59304D1*
X53376Y59284D1*
X53176Y59293D1*
X52981Y59334D1*
X52793Y59404D1*
X52619Y59502D1*
X52462Y59625D1*
X52326Y59772D1*
X52214Y59937D1*
X52129Y60118D1*
X52072Y60309D1*
X52046Y60508D1*
X52050Y60707D1*
X52085Y60904D1*
X52150Y61093D1*
X52243Y61270D1*
X52363Y61430D1*
X52505Y61570D1*
X52591Y61632D1*
X52530Y61827D1*
X50651Y63705D1*
X49977Y63707D1*
X49967Y63694D1*
X49973Y63566D1*
X49967Y61294D1*
X49973Y61230D1*
X50165Y61236D1*
X50363Y61209D1*
X50546Y61131D1*
X50702Y61007D1*
X50820Y60847D1*
X50897Y60633D1*
X50911Y60290D1*
Y59084D1*
X51045Y58901D1*
X51123Y58718D1*
X51163Y58522D1*
X51168Y58420D1*
X51148Y58221D1*
X51089Y58031D1*
X50994Y57855D1*
X50865Y57702D1*
X50709Y57578D1*
X50532Y57486D1*
X50296Y57429D1*
X50799Y56936D1*
X52280Y55455D1*
X52403Y55291D1*
X52457Y55271D1*
X53048D1*
Y52679D1*
X50457D1*
X50447Y53581D1*
X50372Y53396D1*
X50269Y53225D1*
X50141Y53071D1*
X49992Y52939D1*
X49823Y52832D1*
X49640Y52752D1*
X49447Y52700D1*
X49248Y52679D1*
X49049Y52689D1*
X48853Y52730D1*
X48666Y52800D1*
X48492Y52898D1*
X48335Y53021D1*
X48199Y53168D1*
X48087Y53333D1*
X48001Y53514D1*
X47945Y53705D1*
X47918Y53904D1*
X47923Y54103D1*
X47958Y54300D1*
X48055Y54550D1*
X47178Y55431D1*
X47199Y55245D1*
X47166Y55005D1*
X47492Y55007D1*
X47486Y52615D1*
X47492Y52707D1*
Y51451D1*
X47590Y51546D1*
X47752Y51663D1*
X47934Y51745D1*
X48129Y51790D1*
X48328Y51795D1*
X48525Y51761D1*
X48711Y51688D1*
X48879Y51580D1*
X49022Y51441D1*
X49135Y51276D1*
X49213Y51093D1*
X49253Y50897D1*
X49258Y50795D1*
X49238Y50596D1*
X49179Y50406D1*
X49084Y50230D1*
X49000Y50130D1*
X49059Y50032D1*
X49451D1*
Y47440D1*
X47059Y47446D1*
X47151Y47440D1*
X45333D1*
X45337Y47051D1*
X44331D1*
X46347Y45036D1*
X51276Y45037D1*
X51474Y45011D1*
X51657Y44933D1*
X51804Y44819D1*
X55614Y41009D1*
X55735Y40850D1*
X55809Y40665D1*
X55832Y40481D1*
Y40013D1*
X56038Y39846D1*
X56168Y39694D1*
X56282Y39508D1*
X56280Y40240D1*
X58972D1*
Y37548D1*
X58258Y37543D1*
X58458Y37412D1*
X58633Y37247D1*
X58775Y37055D1*
X58881Y36840D1*
X58948Y36609D1*
X58972Y36371D1*
X58957Y36155D1*
X58901Y35922D1*
X58804Y35702D1*
X58670Y35504D1*
X58503Y35332D1*
X58307Y35193D1*
X58091Y35090D1*
X57859Y35028D1*
X57621Y35008D1*
X57382Y35030D1*
X57151Y35094D1*
X56935Y35199D1*
X56741Y35340D1*
X56575Y35513D1*
X56443Y35712D1*
X56356Y35908D1*
X56301Y35773D1*
X56201Y35600D1*
X56078Y35443D1*
X55932Y35307D1*
X55767Y35193D1*
X55588Y35105D1*
X55398Y35044D1*
X55200Y35013D1*
X55001Y35011D1*
X54803Y35038D1*
X54611Y35094D1*
X54430Y35179D1*
X54263Y35289D1*
X54114Y35422D1*
X53987Y35577D1*
X53884Y35748D1*
X53815Y35915D1*
X53761Y35773D1*
X53661Y35600D1*
X53538Y35443D1*
X53392Y35307D1*
X53227Y35193D1*
X53048Y35105D1*
X52858Y35044D1*
X52660Y35013D1*
X52461Y35011D1*
X52263Y35038D1*
X52071Y35094D1*
X51890Y35179D1*
X51723Y35289D1*
X51575Y35422D1*
X51447Y35577D1*
X51344Y35748D1*
X51275Y35915D1*
X51221Y35773D1*
X51121Y35600D1*
X50998Y35443D1*
X50852Y35307D1*
X50687Y35193D1*
X50508Y35105D1*
X50318Y35044D1*
X50120Y35013D1*
X49921Y35011D1*
X49723Y35038D1*
X49531Y35094D1*
X49350Y35179D1*
X49183Y35289D1*
X49035Y35422D1*
X48907Y35577D1*
X48804Y35748D1*
X48728Y35932D1*
X48680Y36126D1*
X48661Y36325D1*
X48669Y36481D1*
X45568Y39578D1*
X44450Y39577D1*
X44252Y39603D1*
X44069Y39681D1*
X43922Y39795D1*
X41602Y42115D1*
X40304Y42117D1*
X40386Y42075D1*
X40532Y41961D1*
X41009Y41485D1*
X41130Y41326D1*
X41204Y41141D1*
X41227Y40957D1*
Y38735D1*
X41201Y38537D1*
X41123Y38354D1*
X41009Y38208D1*
X40694Y37893D1*
X40492Y37750D1*
X40416Y37716D1*
X40410Y37524D1*
X40416Y37446D1*
Y36750D1*
X42484Y36756D1*
X44476D1*
X44470Y34364D1*
X44476Y34456D1*
Y32464D1*
X43926Y32460D1*
Y31351D1*
X44476Y31353D1*
X44470Y28961D1*
X44476Y29053D1*
Y27061D1*
X41884Y27067D1*
X41254Y27061D1*
X39661D1*
Y29405D1*
X39580Y29317D1*
X39421Y29197D1*
X39236Y29122D1*
X39053Y29099D1*
X38396D1*
X38267Y28957D1*
X38108Y28836D1*
X37931Y28744D1*
X37741Y28681D1*
X37544Y28652D1*
X37344Y28655D1*
X37148Y28692D1*
X36960Y28761D1*
X36787Y28860D1*
X36632Y28987D1*
X36501Y29137D1*
X36397Y29308D1*
X36322Y29493D1*
X36279Y29688D1*
X36270Y29888D1*
X36294Y30086D1*
X36350Y30278D1*
X36438Y30457D1*
X36554Y30620D1*
X36695Y30760D1*
X36813Y30843D1*
X36632Y30987D1*
X36501Y31137D1*
X36397Y31308D1*
X36322Y31493D1*
X36279Y31688D1*
X36270Y31888D1*
X36294Y32086D1*
X36350Y32278D1*
X36438Y32457D1*
X36554Y32620D1*
X36695Y32761D1*
X36813Y32843D1*
X36632Y32987D1*
X36501Y33137D1*
X36397Y33308D1*
X36322Y33493D1*
X36279Y33688D1*
X36270Y33888D1*
X36294Y34086D1*
X36350Y34278D1*
X36438Y34457D1*
X36554Y34620D1*
X36721Y34779D1*
X36719Y35089D1*
X36303Y35509D1*
X36182Y35667D1*
X36107Y35852D1*
X36084Y36036D1*
Y36580D1*
X35724Y36574D1*
X35719Y37672D1*
X35521Y37698D1*
X35338Y37776D1*
X35191Y37890D1*
X35008Y38074D1*
X34898Y38214D1*
X34818Y38208D1*
X34502Y37893D1*
X34344Y37772D1*
X34113Y37687D1*
X34066Y37646D1*
Y36574D1*
X31974D1*
X31980Y39316D1*
X31974Y39474D1*
Y40266D1*
X32018D1*
X32041Y40526D1*
X30949Y40529D1*
X30694Y40266D1*
X31466D1*
X31460Y37524D1*
X31466Y37366D1*
Y36574D1*
X31222D1*
X31199Y36315D1*
X31121Y36131D1*
X31008Y35985D1*
X29951Y34929D1*
X29956Y34774D1*
X30073Y34673D1*
X30199Y34518D1*
X30297Y34344D1*
X30375Y34101D1*
X30474Y34260D1*
X30609Y34406D1*
X30771Y34523D1*
X30953Y34605D1*
X31148Y34650D1*
X31347Y34655D1*
X31544Y34621D1*
X31730Y34548D1*
X31898Y34440D1*
X32041Y34301D1*
X32154Y34136D1*
X32232Y33953D1*
X32272Y33757D1*
X32277Y33655D1*
X32257Y33456D1*
X32198Y33266D1*
X32103Y33090D1*
X32018Y32990D1*
X32020Y30797D1*
X31993Y30600D1*
X31915Y30416D1*
X31801Y30270D1*
X30849Y29317D1*
X30690Y29197D1*
X30505Y29122D1*
X30321Y29099D1*
X30140D1*
X30012Y28957D1*
X29853Y28836D1*
X29676Y28744D1*
X29486Y28681D1*
X29289Y28652D1*
X29089Y28655D1*
X28893Y28692D1*
X28705Y28761D1*
X28532Y28860D1*
X28377Y28987D1*
X28283Y29095D1*
X24786Y29094D1*
X24791Y28644D1*
Y26744D1*
X22199Y26750D1*
X21768Y26744D1*
X19976D1*
X19983Y29136D1*
X19976Y29044D1*
Y31036D1*
X20527Y31040D1*
Y32469D1*
X19977Y32464D1*
X19983Y34856D1*
X19977Y34764D1*
Y36714D1*
X19124Y36719D1*
X18568D1*
X11090Y29243D1*
X11153Y29151D1*
X11238Y28970D1*
X11290Y28778D1*
X11307Y28578D1*
X11290Y28379D1*
X11238Y28186D1*
X11154Y28005D1*
X11039Y27841D1*
X10898Y27700D1*
X10734Y27586D1*
X10553Y27501D1*
X10360Y27449D1*
X10161Y27432D1*
X9962Y27449D1*
X9769Y27501D1*
X9588Y27585D1*
X9491Y27653D1*
X9003Y27157D1*
X9001Y24345D1*
X9374Y24341D1*
X12026D1*
Y22970D1*
X12383Y22971D1*
X12580Y22944D1*
X12764Y22866D1*
X12910Y22752D1*
X14180Y21482D1*
X14301Y21324D1*
X14375Y21139D1*
X14399Y20955D1*
Y18411D1*
X16783Y16022D1*
X16969Y16121D1*
X17214Y16192D1*
X16990Y16256D1*
X16776Y16364D1*
X16585Y16509D1*
X16425Y16687D1*
X16300Y16892D1*
X16214Y17116D1*
X16172Y17352D1*
X16173Y17591D1*
X16219Y17827D1*
X16307Y18049D1*
X16435Y18252D1*
X16598Y18428D1*
X16790Y18571D1*
X17006Y18676D1*
X17206Y18733D1*
X16916Y18828D1*
X16742Y18926D1*
X16585Y19049D1*
X16449Y19196D1*
X16337Y19361D1*
X16252Y19542D1*
X16195Y19733D1*
X16169Y19932D1*
X16173Y20131D1*
X16208Y20328D1*
X16273Y20517D1*
X16366Y20694D1*
X16486Y20854D1*
X16628Y20994D1*
X16790Y21111D1*
X16969Y21201D1*
X17117Y21249D1*
X16167Y21247D1*
Y23839D1*
X18759D1*
Y21253D1*
X19069Y21249D1*
X19074Y23203D1*
Y23609D1*
X16264Y26424D1*
X16134Y26576D1*
X16031Y26747D1*
X15956Y26932D1*
X15912Y27127D1*
X15899Y27305D1*
Y32385D1*
X15915Y32584D1*
X15963Y32778D1*
X16041Y32962D1*
X16147Y33131D1*
X16279Y33281D1*
X16434Y33408D1*
X16606Y33508D1*
X16793Y33580D1*
X16988Y33621D1*
X17188Y33630D1*
X17386Y33607D1*
X17579Y33553D1*
X17760Y33469D1*
X17925Y33357D1*
X18070Y33220D1*
X18192Y33061D1*
X18286Y32885D1*
X18352Y32696D1*
X18391Y32385D1*
Y27816D1*
X20713Y25499D1*
X21201Y25011D1*
X21331Y24859D1*
X21434Y24688D1*
X21509Y24503D1*
X21553Y24308D1*
X21566Y24130D1*
Y9208D1*
X21550Y9008D1*
X21502Y8814D1*
X21424Y8630D1*
X21318Y8461D1*
X21201Y8326D1*
X20804Y7920D1*
X20990Y7992D1*
X21273Y8031D1*
X25092Y8039D1*
Y8242D1*
X24662Y8239D1*
Y12331D1*
X29314D1*
Y8239D1*
X28882D1*
X28884Y5639D1*
X25092D1*
Y5945D1*
X24188Y5939D1*
X21707D1*
X21186Y5419D1*
X23129Y5423D1*
X23521D1*
Y5167D1*
X24425Y5173D1*
X25094D1*
X25092Y5531D1*
X28884D1*
Y2853D1*
X33576Y2851D1*
X33980Y3250D1*
X33979Y3551D1*
X31974Y3554D1*
X30069D1*
Y7446D1*
X30275D1*
X30269Y8350D1*
Y9843D1*
X30293Y10041D1*
X30362Y10228D1*
X30517Y10441D1*
X33057Y12981D1*
X33214Y13104D1*
X33395Y13188D1*
X33655Y13228D1*
X37148D1*
X37346Y13205D1*
X37533Y13136D1*
X37746Y12981D1*
X38380Y12346D1*
X38504Y12189D1*
X38587Y12008D1*
X38628Y11748D1*
Y11380D1*
X39898Y11386D1*
Y10880D1*
X40552Y10886D1*
X40547Y12440D1*
Y21796D1*
X40399Y21791D1*
Y21599D1*
X37706D1*
Y25391D1*
X40399D1*
Y24535D1*
X40652Y24488D1*
X40835Y24407D1*
X41062Y24235D1*
X42332Y22965D1*
X42459Y22811D1*
X42555Y22635D1*
X42615Y22445D1*
X42639Y22225D1*
Y9840D1*
X42619Y9641D1*
X42563Y9450D1*
X42471Y9272D1*
X42347Y9116D1*
X42196Y8986D1*
X42022Y8886D1*
X41833Y8822D1*
X41593Y8794D1*
X39898Y8786D1*
X39892Y8294D1*
X39898Y7937D1*
X39874Y7739D1*
X39805Y7552D1*
X39650Y7339D1*
X39584Y7273D1*
X39581Y5739D1*
X39931Y5741D1*
Y3149D1*
X37539Y3155D1*
X37631Y3149D1*
X35875D1*
X35871Y2857D1*
X35850Y2659D1*
X35788Y2469D1*
X35704Y2321D1*
X35453Y2047D1*
X34641Y1236D1*
X34486Y1111D1*
X34308Y1021D1*
X34143Y975D1*
X33773Y959D1*
X28258D1*
X28059Y980D1*
X27869Y1042D1*
X27720Y1126D1*
X27447Y1378D1*
X26319Y2506D1*
X26194Y2661D1*
X26102Y2845D1*
X25684Y2839D1*
X25092D1*
Y3083D1*
X23524Y3082D1*
X23521Y2832D1*
X20929D1*
X20920Y3734D1*
X20845Y3549D1*
X20742Y3377D1*
X20614Y3224D1*
X20464Y3092D1*
X20296Y2984D1*
X20113Y2904D1*
X19919Y2853D1*
X19721Y2832D1*
X19521Y2842D1*
X19326Y2882D1*
X19138Y2952D1*
X18964Y3050D1*
X18807Y3174D1*
X18671Y3320D1*
X18559Y3486D1*
X18474Y3666D1*
X18417Y3858D1*
X18391Y4056D1*
X18395Y4256D1*
X18430Y4453D1*
X18495Y4641D1*
X18637Y4883D1*
X18639Y5398D1*
X18658Y5596D1*
X18715Y5788D1*
X18806Y5965D1*
X19021Y6212D1*
X18787Y6113D1*
X18593Y6069D1*
X18415Y6056D1*
X15533D1*
X15534Y5856D1*
X15128D1*
X15134Y5716D1*
X15110Y5517D1*
X15035Y5319D1*
X14949Y5192D1*
Y2832D1*
X14492D1*
X14498Y2699D1*
X14475Y2501D1*
X14406Y2313D1*
X14251Y2101D1*
X13616Y1466D1*
X13459Y1342D1*
X13278Y1259D1*
X13018Y1218D1*
X9684D1*
X9486Y1241D1*
X9298Y1311D1*
X9086Y1466D1*
X7974Y2577D1*
X7851Y2734D1*
X7768Y2915D1*
X7726Y3175D1*
Y6481D1*
X6419Y7784D1*
X5681Y8522D1*
X5080Y8520D1*
X4882Y8544D1*
X4695Y8613D1*
X4482Y8768D1*
X2101Y11149D1*
X1977Y11306D1*
X1894Y11487D1*
X1853Y11748D1*
Y16004D1*
X1466Y16388D1*
X1342Y16545D1*
X1259Y16726D1*
X1218Y16986D1*
Y22701D1*
X1241Y22899D1*
X1311Y23087D1*
X1466Y23299D1*
X2259Y24093D1*
X2416Y24217D1*
X2597Y24300D1*
X2857Y24341D1*
X4340D1*
X4335Y24989D1*
X3984Y24995D1*
X3956Y24989D1*
X2284D1*
Y27081D1*
X6176D1*
Y24989D1*
X5820D1*
X5826Y24341D1*
X6554D1*
X6556Y27781D1*
X6583Y27979D1*
X6661Y28162D1*
X6775Y28309D1*
X7805Y29338D1*
X7740Y29434D1*
X7655Y29615D1*
X7604Y29808D1*
X7586Y30007D1*
X7604Y30206D1*
X7655Y30399D1*
X7740Y30580D1*
X7854Y30743D1*
X7995Y30885D1*
X8159Y30999D1*
X8340Y31084D1*
X8533Y31135D1*
X8732Y31153D1*
X8931Y31136D1*
X9124Y31084D1*
X9305Y31000D1*
X9402Y30932D1*
X15904Y37438D1*
X17411Y38945D1*
X17570Y39066D1*
X17755Y39140D1*
X17939Y39163D1*
X23657D1*
X24933Y40434D1*
X24601D1*
X24406Y40475D1*
X24218Y40545D1*
X24044Y40643D1*
X23887Y40766D1*
X23751Y40913D1*
X23671Y41032D1*
X23070Y40430D1*
X22911Y40309D1*
X22726Y40235D1*
X22543Y40212D1*
X21616Y40210D1*
Y39762D1*
X19024D1*
X19030Y42154D1*
X19024Y42181D1*
Y44054D1*
X21616D1*
Y41733D1*
X43245Y48138D2*
Y48740D1*
X43027Y48661D1*
X42684Y48647D1*
X41878D1*
X41881Y48533D1*
X41875Y48597D1*
X42044Y48530D1*
X42545D1*
X42743Y48503D1*
X42926Y48425D1*
X43072Y48311D1*
X43245Y48139D1*
X52297Y5254D2*
X52294Y7446D1*
X52500D1*
X52494Y8350D1*
Y9208D1*
X52518Y9406D1*
X52587Y9593D1*
X52742Y9806D1*
X55917Y12981D1*
X56074Y13104D1*
X56255Y13188D1*
X56515Y13228D1*
X58738D1*
X58936Y13205D1*
X59123Y13136D1*
X59336Y12981D1*
X60288Y12028D1*
X60412Y11871D1*
X60495Y11690D1*
X60536Y11430D1*
Y11125D1*
X61806Y11131D1*
Y10625D1*
X62141Y10631D1*
X62137Y12360D1*
Y22741D1*
X61669Y23211D1*
X61671Y22552D1*
X58979D1*
Y26344D1*
X61671D1*
Y25487D1*
X61913Y25494D1*
X62111Y25474D1*
X62303Y25418D1*
X62480Y25326D1*
X62652Y25187D1*
X63922Y23917D1*
X64049Y23763D1*
X64145Y23588D1*
X64205Y23397D1*
X64228Y23177D1*
Y10160D1*
X64209Y9961D1*
X64153Y9770D1*
X64061Y9592D1*
X63922Y9420D1*
X63347Y8845D1*
X63193Y8718D1*
X62958Y8585D1*
Y6379D1*
X63108Y6376D1*
Y3784D1*
X62952D1*
X62958Y2949D1*
X63500Y2951D1*
X63699Y2932D1*
X63890Y2875D1*
X64068Y2784D1*
X64224Y2660D1*
X64354Y2508D1*
X64454Y2335D1*
X64518Y2146D1*
X64545Y1948D1*
X64534Y1749D1*
X64486Y1555D1*
X64401Y1374D1*
X64284Y1212D1*
X64138Y1076D1*
X63969Y970D1*
X63783Y898D1*
X63500Y859D1*
X62756D1*
X62513Y701D1*
X89300Y700D1*
Y93331D1*
X88956Y93327D1*
X87204D1*
X87196Y95558D1*
Y94227D1*
X84704D1*
Y94620D1*
X83537Y93453D1*
X85701D1*
Y89510D1*
X83209D1*
Y90442D1*
X82055Y90436D1*
X81749D1*
X80280Y88961D1*
X80273Y88701D1*
X80235Y88504D1*
X80171Y88315D1*
X80084Y88135D1*
X79974Y87968D1*
X79843Y87817D1*
X79617Y87631D1*
X79761Y87521D1*
X79928Y87350D1*
X80067Y87154D1*
X80173Y86939D1*
X80246Y86711D1*
X80282Y86474D1*
X80281Y86240D1*
X80244Y86003D1*
X80171Y85775D1*
X80063Y85561D1*
X79924Y85366D1*
X79756Y85195D1*
X79621Y85090D1*
X79761Y84981D1*
X79880Y84862D1*
X81597Y84866D1*
X81796Y84847D1*
X81988Y84790D1*
X82165Y84699D1*
X82337Y84560D1*
X83614Y83282D1*
X84579Y83278D1*
X84855Y83373D1*
X85054Y83395D1*
X85253Y83385D1*
X85448Y83341D1*
X85633Y83265D1*
X85803Y83160D1*
X85953Y83028D1*
X86079Y82873D1*
X86177Y82699D1*
X86245Y82511D1*
X86286Y82200D1*
X86269Y82001D1*
X86220Y81807D1*
X86139Y81625D1*
X86028Y81458D1*
X85892Y81312D1*
X85748Y81203D1*
X85953Y81028D1*
X86079Y80873D1*
X86177Y80699D1*
X86245Y80511D1*
X86286Y80200D1*
X86269Y80001D1*
X86220Y79807D1*
X86139Y79625D1*
X86028Y79458D1*
X85892Y79312D1*
X85748Y79203D1*
X85953Y79028D1*
X86079Y78873D1*
X86177Y78699D1*
X86245Y78511D1*
X86286Y78200D1*
X86269Y78001D1*
X86220Y77807D1*
X86139Y77625D1*
X86028Y77458D1*
X85892Y77312D1*
X85748Y77203D1*
X85953Y77028D1*
X86079Y76873D1*
X86177Y76699D1*
X86245Y76511D1*
X86286Y76200D1*
X86269Y76001D1*
X86220Y75807D1*
X86139Y75625D1*
X86028Y75458D1*
X85892Y75312D1*
X85733Y75191D1*
X85556Y75099D1*
X85366Y75036D1*
X85169Y75007D1*
X84969Y75010D1*
X84773Y75047D1*
X84515Y75156D1*
X79884Y75154D1*
X79617Y74931D1*
X79761Y74821D1*
X79902Y74680D1*
X80024Y74522D1*
X80124Y74349D1*
X80201Y74164D1*
X80254Y73972D1*
X80286Y73660D1*
X80273Y73461D1*
X80235Y73264D1*
X80171Y73075D1*
X80084Y72895D1*
X79974Y72728D1*
X79843Y72577D1*
X79617Y72391D1*
X79761Y72281D1*
X79928Y72110D1*
X80067Y71914D1*
X80173Y71699D1*
X80246Y71471D1*
X80282Y71234D1*
X80281Y71000D1*
X80244Y70763D1*
X80171Y70535D1*
X80063Y70321D1*
X79924Y70126D1*
X79756Y69955D1*
X79563Y69812D1*
X79351Y69700D1*
X79124Y69623D1*
X78888Y69581D1*
X78648Y69577D1*
X78411Y69609D1*
X78181Y69678D1*
X77965Y69782D1*
X77768Y69918D1*
X77594Y70083D1*
X77447Y70273D1*
X77331Y70483D1*
X77250Y70708D1*
X77204Y70943D1*
X77195Y71183D1*
X77224Y71421D1*
X77288Y71652D1*
X77388Y71870D1*
X77520Y72070D1*
X77682Y72247D1*
X77860Y72391D1*
X77677Y72537D1*
X77541Y72684D1*
X77451Y72811D1*
X77046Y72814D1*
Y52916D1*
X77444D1*
X77598Y53112D1*
X77742Y53250D1*
X77857Y53336D1*
X77677Y53487D1*
X77541Y53634D1*
X77425Y53796D1*
X77331Y53973D1*
X77261Y54160D1*
X77215Y54354D1*
X77195Y54553D1*
X77201Y54753D1*
X77232Y54950D1*
X77288Y55142D1*
X77369Y55325D1*
X77473Y55496D1*
X77598Y55652D1*
X77742Y55790D1*
X77857Y55876D1*
X77677Y56027D1*
X77541Y56174D1*
X77425Y56336D1*
X77331Y56513D1*
X77261Y56700D1*
X77215Y56894D1*
X77195Y57093D1*
X77201Y57293D1*
X77232Y57490D1*
X77288Y57682D1*
X77369Y57865D1*
X77473Y58036D1*
X77598Y58192D1*
X77742Y58330D1*
X77857Y58416D1*
X77677Y58567D1*
X77541Y58714D1*
X77425Y58876D1*
X77331Y59053D1*
X77261Y59240D1*
X77215Y59434D1*
X77195Y59633D1*
X77201Y59833D1*
X77232Y60030D1*
X77288Y60222D1*
X77369Y60405D1*
X77473Y60576D1*
X77598Y60732D1*
X77742Y60870D1*
X77857Y60956D1*
X77677Y61107D1*
X77541Y61254D1*
X77425Y61416D1*
X77331Y61593D1*
X77261Y61780D1*
X77215Y61974D1*
X77195Y62173D1*
X77201Y62373D1*
X77232Y62570D1*
X77288Y62762D1*
X77369Y62945D1*
X77473Y63116D1*
X77598Y63272D1*
X77742Y63410D1*
X77857Y63496D1*
X77649Y63675D1*
X77492Y63857D1*
X77366Y64061D1*
X77273Y64282D1*
X77215Y64514D1*
X77194Y64753D1*
X77210Y64992D1*
X77263Y65226D1*
X77351Y65449D1*
X77473Y65656D1*
X77625Y65841D1*
X77804Y66000D1*
X77860Y66041D1*
X77677Y66187D1*
X77541Y66334D1*
X77425Y66496D1*
X77331Y66673D1*
X77261Y66860D1*
X77215Y67054D1*
X77195Y67253D1*
X77201Y67453D1*
X77232Y67650D1*
X77288Y67842D1*
X77369Y68025D1*
X77473Y68196D1*
X77598Y68352D1*
X77742Y68490D1*
X77902Y68609D1*
X78077Y68707D1*
X78263Y68780D1*
X78456Y68830D1*
X78655Y68854D1*
X78855Y68852D1*
X79052Y68824D1*
X79245Y68771D1*
X79429Y68694D1*
X79602Y68593D1*
X79761Y68471D1*
X79880Y68352D1*
X81597Y68356D1*
X81796Y68337D1*
X81988Y68280D1*
X82165Y68189D1*
X82337Y68050D1*
X83526Y66861D1*
Y67535D1*
X86019D1*
Y63593D1*
X83526D1*
Y64524D1*
X83344Y64518D1*
X83145Y64537D1*
X82953Y64593D1*
X82776Y64685D1*
X82604Y64824D1*
X81168Y66260D1*
X79879Y66264D1*
X79694Y66094D1*
X79617Y66041D1*
X79761Y65931D1*
X79928Y65760D1*
X80067Y65564D1*
X80173Y65349D1*
X80246Y65121D1*
X80282Y64884D1*
X80281Y64650D1*
X80244Y64413D1*
X80171Y64185D1*
X80063Y63971D1*
X79924Y63776D1*
X79756Y63605D1*
X79621Y63500D1*
X79761Y63391D1*
X79880Y63272D1*
X81740Y63276D1*
X82114Y63257D1*
X82305Y63200D1*
X82483Y63109D1*
X82655Y62970D1*
X83932Y61692D1*
X84571Y61688D1*
X84855Y61783D1*
X85054Y61805D1*
X85253Y61795D1*
X85448Y61751D1*
X85633Y61675D1*
X85803Y61570D1*
X85953Y61438D1*
X86079Y61283D1*
X86177Y61109D1*
X86245Y60921D1*
X86286Y60610D1*
X86269Y60411D1*
X86220Y60217D1*
X86139Y60035D1*
X86028Y59868D1*
X85892Y59722D1*
X85748Y59613D1*
X85953Y59438D1*
X86079Y59283D1*
X86177Y59109D1*
X86245Y58921D1*
X86286Y58610D1*
X86269Y58411D1*
X86220Y58217D1*
X86139Y58035D1*
X86028Y57868D1*
X85892Y57722D1*
X85748Y57613D1*
X85953Y57438D1*
X86079Y57283D1*
X86177Y57109D1*
X86245Y56921D1*
X86286Y56610D1*
X86269Y56411D1*
X86220Y56217D1*
X86139Y56035D1*
X86028Y55868D1*
X85892Y55722D1*
X85748Y55613D1*
X85953Y55438D1*
X86079Y55283D1*
X86177Y55109D1*
X86245Y54921D1*
X86286Y54610D1*
X86269Y54411D1*
X86220Y54217D1*
X86139Y54035D1*
X86028Y53868D1*
X85892Y53722D1*
X85733Y53601D1*
X85556Y53509D1*
X85366Y53446D1*
X85169Y53417D1*
X84969Y53420D1*
X84773Y53457D1*
X84515Y53566D1*
X79884Y53564D1*
X79617Y53341D1*
X79761Y53231D1*
X79902Y53090D1*
X80024Y52932D1*
X80124Y52759D1*
X80201Y52574D1*
X80254Y52382D1*
X80286Y52070D1*
X80273Y51871D1*
X80235Y51674D1*
X80171Y51485D1*
X80084Y51305D1*
X79974Y51138D1*
X79843Y50987D1*
X79617Y50801D1*
X79761Y50691D1*
X79928Y50520D1*
X80067Y50324D1*
X80173Y50109D1*
X80246Y49881D1*
X80282Y49644D1*
X80281Y49410D1*
X80244Y49173D1*
X80171Y48945D1*
X80063Y48731D1*
X79924Y48536D1*
X79756Y48365D1*
X79563Y48222D1*
X79351Y48110D1*
X79124Y48033D1*
X78888Y47991D1*
X78648Y47987D1*
X78411Y48019D1*
X78181Y48088D1*
X77965Y48192D1*
X77768Y48328D1*
X77594Y48493D1*
X77447Y48683D1*
X77331Y48893D1*
X77250Y49118D1*
X77204Y49353D1*
X77195Y49593D1*
X77224Y49831D1*
X77288Y50062D1*
X77388Y50280D1*
X77520Y50480D1*
X77682Y50657D1*
X77860Y50801D1*
X77677Y50947D1*
X77541Y51094D1*
X77451Y51221D1*
X77046Y51224D1*
Y31326D1*
X77444D1*
X77598Y31522D1*
X77742Y31660D1*
X77857Y31746D1*
X77677Y31897D1*
X77541Y32044D1*
X77425Y32206D1*
X77331Y32383D1*
X77261Y32570D1*
X77215Y32764D1*
X77195Y32963D1*
X77201Y33163D1*
X77232Y33360D1*
X77288Y33552D1*
X77369Y33735D1*
X77473Y33906D1*
X77598Y34062D1*
X77742Y34200D1*
X77857Y34286D1*
X77677Y34437D1*
X77541Y34584D1*
X77425Y34746D1*
X77331Y34923D1*
X77261Y35110D1*
X77215Y35304D1*
X77195Y35503D1*
X77201Y35703D1*
X77232Y35900D1*
X77288Y36092D1*
X77369Y36275D1*
X77473Y36446D1*
X77598Y36602D1*
X77742Y36740D1*
X77857Y36826D1*
X77677Y36977D1*
X77541Y37124D1*
X77425Y37286D1*
X77331Y37463D1*
X77261Y37650D1*
X77215Y37844D1*
X77195Y38043D1*
X77201Y38243D1*
X77232Y38440D1*
X77288Y38632D1*
X77369Y38815D1*
X77473Y38986D1*
X77598Y39142D1*
X77742Y39280D1*
X77857Y39366D1*
X77677Y39517D1*
X77541Y39664D1*
X77425Y39826D1*
X77331Y40003D1*
X77261Y40190D1*
X77215Y40384D1*
X77195Y40583D1*
X77201Y40783D1*
X77232Y40980D1*
X77288Y41172D1*
X77369Y41355D1*
X77473Y41526D1*
X77598Y41682D1*
X77742Y41820D1*
X77857Y41906D1*
X77649Y42085D1*
X77492Y42267D1*
X77366Y42471D1*
X77273Y42692D1*
X77215Y42924D1*
X77194Y43163D1*
X77210Y43402D1*
X77263Y43636D1*
X77351Y43859D1*
X77473Y44066D1*
X77625Y44251D1*
X77804Y44410D1*
X77860Y44451D1*
X77677Y44597D1*
X77541Y44744D1*
X77425Y44906D1*
X77331Y45083D1*
X77261Y45270D1*
X77215Y45464D1*
X77195Y45663D1*
X77201Y45863D1*
X77232Y46060D1*
X77288Y46252D1*
X77369Y46435D1*
X77473Y46606D1*
X77598Y46762D1*
X77742Y46900D1*
X77902Y47019D1*
X78077Y47117D1*
X78263Y47190D1*
X78456Y47240D1*
X78655Y47264D1*
X78855Y47262D1*
X79052Y47234D1*
X79245Y47181D1*
X79429Y47104D1*
X79602Y47003D1*
X79761Y46881D1*
X79880Y46762D1*
X81280Y46766D1*
X81479Y46747D1*
X81670Y46690D1*
X81848Y46599D1*
X82020Y46460D1*
X83456Y45023D1*
X83526Y45203D1*
Y45945D1*
X86019D1*
Y42003D1*
X83526D1*
Y42934D1*
X83026Y42928D1*
X82827Y42947D1*
X82636Y43003D1*
X82459Y43095D1*
X82287Y43234D1*
X80850Y44670D1*
X79874Y44674D1*
X79694Y44504D1*
X79617Y44451D1*
X79761Y44341D1*
X79928Y44170D1*
X80067Y43974D1*
X80173Y43759D1*
X80246Y43531D1*
X80282Y43294D1*
X80281Y43060D1*
X80244Y42823D1*
X80171Y42595D1*
X80063Y42381D1*
X79924Y42186D1*
X79756Y42015D1*
X79621Y41910D1*
X79761Y41801D1*
X79880Y41682D1*
X81740Y41686D1*
X83470D1*
X83669Y41667D1*
X83860Y41610D1*
X84038Y41519D1*
X84210Y41380D1*
X85416Y40173D1*
X85633Y40085D1*
X85803Y39980D1*
X85953Y39848D1*
X86079Y39693D1*
X86177Y39519D1*
X86245Y39331D1*
X86286Y39020D1*
X86269Y38821D1*
X86220Y38627D1*
X86139Y38445D1*
X86028Y38278D1*
X85892Y38133D1*
X85748Y38023D1*
X85953Y37848D1*
X86079Y37693D1*
X86177Y37519D1*
X86245Y37331D1*
X86286Y37020D1*
X86269Y36821D1*
X86220Y36627D1*
X86139Y36445D1*
X86028Y36278D1*
X85892Y36133D1*
X85748Y36023D1*
X85953Y35848D1*
X86079Y35693D1*
X86177Y35519D1*
X86245Y35331D1*
X86286Y35020D1*
X86269Y34821D1*
X86220Y34627D1*
X86139Y34445D1*
X86028Y34278D1*
X85892Y34133D1*
X85748Y34023D1*
X85953Y33848D1*
X86079Y33693D1*
X86177Y33519D1*
X86245Y33331D1*
X86286Y33020D1*
X86269Y32821D1*
X86220Y32627D1*
X86139Y32445D1*
X86028Y32278D1*
X85892Y32133D1*
X85733Y32011D1*
X85556Y31919D1*
X85366Y31856D1*
X85169Y31827D1*
X84969Y31830D1*
X84773Y31867D1*
X84515Y31976D1*
X79884Y31974D1*
X79617Y31751D1*
X79761Y31641D1*
X79902Y31500D1*
X80024Y31342D1*
X80124Y31169D1*
X80201Y30984D1*
X80254Y30792D1*
X80286Y30480D1*
X80273Y30281D1*
X80235Y30084D1*
X80171Y29895D1*
X80084Y29715D1*
X79974Y29548D1*
X79843Y29397D1*
X79617Y29211D1*
X79761Y29101D1*
X79928Y28930D1*
X80067Y28734D1*
X80173Y28519D1*
X80246Y28291D1*
X80282Y28054D1*
X80281Y27820D1*
X80244Y27583D1*
X80171Y27355D1*
X80063Y27141D1*
X79924Y26946D1*
X79756Y26775D1*
X79563Y26632D1*
X79351Y26520D1*
X79124Y26443D1*
X78888Y26401D1*
X78648Y26397D1*
X78411Y26429D1*
X78181Y26498D1*
X77965Y26602D1*
X77768Y26738D1*
X77594Y26903D1*
X77447Y27093D1*
X77331Y27303D1*
X77250Y27528D1*
X77204Y27763D1*
X77195Y28003D1*
X77224Y28241D1*
X77288Y28472D1*
X77388Y28690D1*
X77520Y28890D1*
X77682Y29067D1*
X77860Y29211D1*
X77677Y29357D1*
X77541Y29504D1*
X77451Y29631D1*
X77046Y29634D1*
X77054Y15322D1*
X77154Y15149D1*
X77218Y14960D1*
X77245Y14762D1*
X77234Y14562D1*
X77186Y14369D1*
X77101Y14188D1*
X77046Y14112D1*
X77201Y14113D1*
X77232Y14310D1*
X77288Y14502D1*
X77369Y14685D1*
X77473Y14856D1*
X77598Y15012D1*
X77742Y15150D1*
X77857Y15236D1*
X77677Y15387D1*
X77541Y15534D1*
X77425Y15696D1*
X77331Y15873D1*
X77261Y16060D1*
X77215Y16254D1*
X77195Y16453D1*
X77201Y16653D1*
X77232Y16850D1*
X77288Y17042D1*
X77369Y17225D1*
X77473Y17396D1*
X77598Y17552D1*
X77742Y17690D1*
X77857Y17776D1*
X77677Y17927D1*
X77541Y18074D1*
X77425Y18236D1*
X77331Y18413D1*
X77261Y18600D1*
X77215Y18794D1*
X77195Y18993D1*
X77201Y19193D1*
X77232Y19390D1*
X77288Y19582D1*
X77369Y19765D1*
X77473Y19936D1*
X77598Y20092D1*
X77742Y20230D1*
X77857Y20316D1*
X77649Y20495D1*
X77492Y20677D1*
X77366Y20881D1*
X77273Y21102D1*
X77215Y21334D1*
X77194Y21573D1*
X77210Y21812D1*
X77263Y22046D1*
X77351Y22269D1*
X77473Y22476D1*
X77625Y22661D1*
X77804Y22820D1*
X77860Y22861D1*
X77677Y23007D1*
X77541Y23154D1*
X77425Y23316D1*
X77331Y23493D1*
X77261Y23680D1*
X77215Y23874D1*
X77195Y24073D1*
X77201Y24273D1*
X77232Y24470D1*
X77288Y24662D1*
X77369Y24845D1*
X77473Y25016D1*
X77598Y25172D1*
X77742Y25310D1*
X77902Y25429D1*
X78077Y25527D1*
X78263Y25600D1*
X78456Y25650D1*
X78655Y25674D1*
X78855Y25672D1*
X79052Y25644D1*
X79245Y25591D1*
X79429Y25514D1*
X79602Y25413D1*
X79761Y25291D1*
X79880Y25172D1*
X81280Y25176D1*
X81479Y25157D1*
X81670Y25100D1*
X81848Y25009D1*
X82020Y24870D1*
X83615Y23274D1*
X83841Y23271D1*
X83844Y24196D1*
X86336D1*
Y20254D1*
X83844D1*
Y21185D1*
X83185Y21179D1*
X82986Y21198D1*
X82795Y21255D1*
X82617Y21346D1*
X82445Y21485D1*
X80850Y23081D1*
X79874Y23084D1*
X79694Y22914D1*
X79617Y22861D1*
X79761Y22751D1*
X79928Y22580D1*
X80067Y22384D1*
X80173Y22169D1*
X80246Y21941D1*
X80282Y21704D1*
X80281Y21470D1*
X80244Y21233D1*
X80171Y21005D1*
X80063Y20791D1*
X79924Y20596D1*
X79756Y20425D1*
X79621Y20320D1*
X79761Y20211D1*
X79880Y20092D1*
X81740Y20096D1*
X83470D1*
X83669Y20077D1*
X83860Y20020D1*
X84038Y19929D1*
X84210Y19790D1*
X85416Y18583D1*
X85633Y18495D1*
X85803Y18390D1*
X85953Y18258D1*
X86079Y18103D1*
X86177Y17929D1*
X86245Y17741D1*
X86286Y17430D1*
X86269Y17231D1*
X86220Y17037D1*
X86139Y16855D1*
X86028Y16688D1*
X85892Y16543D1*
X85768Y16448D1*
X85942Y16312D1*
X86072Y16161D1*
X86171Y15987D1*
X86248Y15733D1*
X86286Y15430D1*
X86269Y15231D1*
X86220Y15037D1*
X86139Y14855D1*
X86028Y14688D1*
X85892Y14542D1*
X85748Y14433D1*
X85953Y14258D1*
X86079Y14103D1*
X86177Y13929D1*
X86245Y13741D1*
X86286Y13430D1*
X86269Y13231D1*
X86220Y13037D1*
X86139Y12855D1*
X86028Y12688D1*
X85892Y12542D1*
X85748Y12433D1*
X85953Y12258D1*
X86079Y12103D1*
X86177Y11929D1*
X86245Y11741D1*
X86286Y11430D1*
X86269Y11231D1*
X86220Y11037D1*
X86139Y10855D1*
X86028Y10688D1*
X85892Y10542D1*
X85733Y10421D1*
X85556Y10329D1*
X85366Y10266D1*
X85169Y10237D1*
X84969Y10240D1*
X84773Y10277D1*
X84515Y10386D1*
X79884Y10384D1*
X79617Y10161D1*
X79761Y10051D1*
X79902Y9910D1*
X80024Y9752D1*
X80124Y9579D1*
X80201Y9394D1*
X80254Y9202D1*
X80286Y8890D1*
X80273Y8691D1*
X80235Y8494D1*
X80171Y8305D1*
X80084Y8125D1*
X79974Y7958D1*
X79843Y7807D1*
X79617Y7621D1*
X79761Y7511D1*
X79928Y7340D1*
X80067Y7144D1*
X80173Y6929D1*
X80246Y6701D1*
X80282Y6464D1*
X80281Y6230D1*
X80244Y5993D1*
X80171Y5765D1*
X80063Y5551D1*
X79924Y5356D1*
X79756Y5185D1*
X79563Y5042D1*
X79351Y4930D1*
X79124Y4853D1*
X78888Y4811D1*
X78648Y4807D1*
X78411Y4839D1*
X78181Y4908D1*
X77965Y5012D1*
X77768Y5148D1*
X77594Y5313D1*
X77447Y5503D1*
X77331Y5713D1*
X77250Y5938D1*
X77204Y6173D1*
X77195Y6413D1*
X77224Y6651D1*
X77288Y6882D1*
X77388Y7100D1*
X77520Y7300D1*
X77682Y7477D1*
X77860Y7621D1*
X77677Y7767D1*
X77541Y7914D1*
X77451Y8041D1*
X77153Y8044D1*
X76954Y8068D1*
X76767Y8137D1*
X76554Y8292D1*
X75602Y9244D1*
X75478Y9401D1*
X75395Y9582D1*
X75354Y9843D1*
Y13674D1*
X70319Y13673D1*
X70131Y13598D1*
X69920Y13561D1*
X69706Y13569D1*
X69498Y13620D1*
X69304Y13713D1*
X69134Y13843D1*
X68993Y14005D1*
X68889Y14192D1*
X68825Y14396D1*
X68804Y14610D1*
X68827Y14823D1*
X68893Y15027D1*
X68999Y15213D1*
X69186Y15421D1*
X69391Y15594D1*
X69581Y15692D1*
X69787Y15750D1*
X69964Y15765D1*
X75358D1*
X75354Y19719D1*
Y73660D1*
X75378Y73858D1*
X75447Y74045D1*
X75466Y74460D1*
Y89171D1*
X75490Y89369D1*
X75559Y89556D1*
X75714Y89769D1*
X75860Y89915D1*
X75524Y89900D1*
X67218D1*
X67324Y89762D1*
X67424Y89589D1*
X67501Y89404D1*
X67554Y89212D1*
X67586Y88900D1*
X67573Y88701D1*
X67535Y88504D1*
X67471Y88315D1*
X67384Y88135D1*
X67274Y87968D1*
X67143Y87817D1*
X66917Y87631D1*
X67061Y87521D1*
X67202Y87380D1*
X67324Y87222D1*
X67424Y87049D1*
X67501Y86864D1*
X67554Y86672D1*
X67586Y86360D1*
X67573Y86161D1*
X67535Y85964D1*
X67471Y85775D1*
X67384Y85595D1*
X67274Y85428D1*
X67143Y85277D1*
X66917Y85091D1*
X67061Y84981D1*
X67202Y84840D1*
X67324Y84682D1*
X67424Y84509D1*
X67501Y84324D1*
X67554Y84132D1*
X67586Y83820D1*
X67573Y83621D1*
X67535Y83424D1*
X67471Y83235D1*
X67384Y83055D1*
X67274Y82888D1*
X67143Y82737D1*
X66917Y82551D1*
X67061Y82441D1*
X67202Y82300D1*
X67324Y82142D1*
X67424Y81969D1*
X67501Y81784D1*
X67554Y81592D1*
X67586Y81280D1*
X67573Y81081D1*
X67535Y80884D1*
X67471Y80695D1*
X67384Y80515D1*
X67274Y80348D1*
X67143Y80197D1*
X66917Y80011D1*
X67061Y79901D1*
X67202Y79760D1*
X67324Y79602D1*
X67424Y79429D1*
X67501Y79244D1*
X67554Y79052D1*
X67586Y78740D1*
X67573Y78541D1*
X67535Y78344D1*
X67471Y78155D1*
X67384Y77975D1*
X67274Y77808D1*
X67143Y77657D1*
X66917Y77471D1*
X67061Y77361D1*
X67202Y77220D1*
X67324Y77062D1*
X67424Y76889D1*
X67501Y76704D1*
X67554Y76512D1*
X67586Y76200D1*
X67573Y76001D1*
X67535Y75804D1*
X67471Y75615D1*
X67384Y75435D1*
X67274Y75268D1*
X67143Y75117D1*
X66917Y74931D1*
X67061Y74821D1*
X67202Y74680D1*
X67324Y74522D1*
X67424Y74349D1*
X67501Y74164D1*
X67554Y73972D1*
X67586Y73660D1*
X67573Y73461D1*
X67535Y73264D1*
X67471Y73075D1*
X67384Y72895D1*
X67274Y72728D1*
X67143Y72577D1*
X66917Y72391D1*
X67061Y72281D1*
X67202Y72140D1*
X67324Y71982D1*
X67424Y71809D1*
X67501Y71624D1*
X67554Y71432D1*
X67586Y71120D1*
X67573Y70921D1*
X67535Y70724D1*
X67471Y70535D1*
X67384Y70355D1*
X67274Y70188D1*
X67143Y70037D1*
X66994Y69904D1*
X66829Y69791D1*
X66651Y69700D1*
X66463Y69633D1*
X66268Y69591D1*
X66068Y69574D1*
X65869Y69584D1*
X65672Y69618D1*
X65481Y69678D1*
X65300Y69763D1*
X65131Y69869D1*
X64977Y69997D1*
X64841Y70144D1*
X64687Y70378D1*
X62840Y70374D1*
X60903D1*
X60706Y70401D1*
X60522Y70479D1*
X60366Y70603D1*
X60233Y70793D1*
X60084Y70850D1*
X60040D1*
X59917Y70754D1*
X59739Y70663D1*
X59547Y70609D1*
X59348Y70594D1*
X59150Y70618D1*
X58961Y70682D1*
X58788Y70781D1*
X58638Y70913D1*
X58517Y71073D1*
X58430Y71252D1*
X58381Y71446D1*
X58371Y71645D1*
X58400Y71843D1*
X58468Y72030D1*
X58572Y72201D1*
X58708Y72347D1*
X58870Y72464D1*
X59052Y72547D1*
X59246Y72591D1*
X59446Y72597D1*
X59643Y72562D1*
X59829Y72490D1*
X60037Y72342D1*
X60484D1*
X60681Y72316D1*
X60865Y72238D1*
X61011Y72124D1*
X61272Y71863D1*
X64685Y71866D1*
X64773Y72006D1*
X64898Y72162D1*
X65042Y72300D1*
X65157Y72386D1*
X64977Y72537D1*
X64841Y72684D1*
X64687Y72918D1*
X62840Y72914D1*
X60046D1*
X59917Y72818D1*
X59739Y72726D1*
X59547Y72672D1*
X59348Y72657D1*
X59150Y72682D1*
X58961Y72746D1*
X58788Y72845D1*
X58638Y72977D1*
X58517Y73136D1*
X58430Y73316D1*
X58381Y73510D1*
X58371Y73709D1*
X58400Y73906D1*
X58468Y74094D1*
X58572Y74265D1*
X58708Y74411D1*
X58870Y74528D1*
X59052Y74610D1*
X59246Y74655D1*
X59446Y74660D1*
X59643Y74626D1*
X59829Y74553D1*
X60037Y74406D1*
X64691D1*
X64773Y74546D1*
X64898Y74702D1*
X65042Y74840D1*
X65157Y74926D1*
X64977Y75077D1*
X64841Y75224D1*
X64725Y75386D1*
X64631Y75563D1*
X64561Y75750D1*
X64515Y75944D1*
X64495Y76143D1*
X64501Y76343D1*
X64532Y76540D1*
X64588Y76732D1*
X64669Y76915D1*
X64773Y77086D1*
X64898Y77242D1*
X65042Y77380D1*
X65157Y77466D1*
X64977Y77617D1*
X64841Y77764D1*
X64725Y77926D1*
X64631Y78103D1*
X64561Y78290D1*
X64515Y78484D1*
X64495Y78683D1*
X64501Y78883D1*
X64532Y79080D1*
X64588Y79272D1*
X64669Y79455D1*
X64773Y79626D1*
X64898Y79782D1*
X65042Y79920D1*
X65157Y80006D1*
X64977Y80157D1*
X64841Y80304D1*
X64725Y80466D1*
X64631Y80643D1*
X64561Y80830D1*
X64515Y81024D1*
X64495Y81223D1*
X64501Y81423D1*
X64532Y81620D1*
X64588Y81812D1*
X64669Y81995D1*
X64773Y82166D1*
X64898Y82322D1*
X65042Y82460D1*
X65157Y82546D1*
X64977Y82697D1*
X64841Y82844D1*
X64725Y83006D1*
X64631Y83183D1*
X64561Y83370D1*
X64515Y83564D1*
X64495Y83763D1*
X64501Y83963D1*
X64532Y84160D1*
X64588Y84352D1*
X64669Y84535D1*
X64773Y84706D1*
X64898Y84862D1*
X65042Y85000D1*
X65157Y85086D1*
X64977Y85237D1*
X64841Y85384D1*
X64725Y85546D1*
X64631Y85723D1*
X64561Y85910D1*
X64515Y86104D1*
X64495Y86303D1*
X64501Y86503D1*
X64532Y86700D1*
X64588Y86892D1*
X64669Y87075D1*
X64773Y87246D1*
X64898Y87402D1*
X65042Y87540D1*
X65157Y87626D1*
X64977Y87777D1*
X64841Y87924D1*
X64725Y88086D1*
X64631Y88263D1*
X64561Y88450D1*
X64515Y88644D1*
X64495Y88843D1*
X64499Y88999D1*
X63295Y87799D1*
X63293Y79851D1*
X63267Y79654D1*
X63189Y79470D1*
X63075Y79324D1*
X58209Y74458D1*
X58214Y72571D1*
Y70953D1*
X63234Y65933D1*
X63355Y65774D1*
X63429Y65589D1*
X63452Y65405D1*
Y57785D1*
X63426Y57587D1*
X63348Y57404D1*
X63234Y57258D1*
X58960Y52984D1*
X59052Y53020D1*
X59246Y53065D1*
X59446Y53070D1*
X59643Y53036D1*
X59829Y52963D1*
X60037Y52816D1*
X64691D1*
X64773Y52956D1*
X64898Y53112D1*
X65042Y53250D1*
X65157Y53336D1*
X64977Y53487D1*
X64841Y53634D1*
X64725Y53796D1*
X64631Y53973D1*
X64561Y54160D1*
X64515Y54354D1*
X64495Y54553D1*
X64501Y54753D1*
X64532Y54950D1*
X64588Y55142D1*
X64669Y55325D1*
X64773Y55496D1*
X64898Y55652D1*
X65042Y55790D1*
X65157Y55876D1*
X64977Y56027D1*
X64841Y56174D1*
X64725Y56336D1*
X64631Y56513D1*
X64561Y56700D1*
X64515Y56894D1*
X64495Y57093D1*
X64501Y57293D1*
X64532Y57490D1*
X64588Y57682D1*
X64669Y57865D1*
X64773Y58036D1*
X64898Y58192D1*
X65042Y58330D1*
X65157Y58416D1*
X64977Y58567D1*
X64841Y58714D1*
X64725Y58876D1*
X64631Y59053D1*
X64561Y59240D1*
X64515Y59434D1*
X64495Y59633D1*
X64501Y59833D1*
X64532Y60030D1*
X64588Y60222D1*
X64669Y60405D1*
X64773Y60576D1*
X64898Y60732D1*
X65042Y60870D1*
X65157Y60956D1*
X64977Y61107D1*
X64841Y61254D1*
X64725Y61416D1*
X64631Y61593D1*
X64561Y61780D1*
X64515Y61974D1*
X64495Y62173D1*
X64501Y62373D1*
X64532Y62570D1*
X64588Y62762D1*
X64669Y62945D1*
X64773Y63116D1*
X64898Y63272D1*
X65042Y63410D1*
X65157Y63496D1*
X64977Y63647D1*
X64841Y63794D1*
X64725Y63956D1*
X64631Y64133D1*
X64561Y64320D1*
X64515Y64514D1*
X64495Y64713D1*
X64501Y64913D1*
X64532Y65110D1*
X64588Y65302D1*
X64669Y65485D1*
X64773Y65656D1*
X64898Y65812D1*
X65042Y65950D1*
X65157Y66036D1*
X64977Y66187D1*
X64841Y66334D1*
X64725Y66496D1*
X64631Y66673D1*
X64561Y66860D1*
X64515Y67054D1*
X64495Y67253D1*
X64501Y67453D1*
X64532Y67650D1*
X64588Y67842D1*
X64669Y68025D1*
X64773Y68196D1*
X64898Y68352D1*
X65042Y68490D1*
X65202Y68609D1*
X65377Y68707D1*
X65563Y68780D1*
X65756Y68830D1*
X65955Y68854D1*
X66155Y68852D1*
X66352Y68824D1*
X66545Y68771D1*
X66729Y68694D1*
X66902Y68593D1*
X67061Y68471D1*
X67202Y68330D1*
X67324Y68172D1*
X67424Y67999D1*
X67501Y67814D1*
X67554Y67622D1*
X67586Y67310D1*
X67573Y67111D1*
X67535Y66914D1*
X67471Y66725D1*
X67384Y66545D1*
X67274Y66378D1*
X67143Y66227D1*
X66917Y66041D1*
X67061Y65931D1*
X67202Y65790D1*
X67324Y65632D1*
X67424Y65459D1*
X67501Y65274D1*
X67554Y65082D1*
X67586Y64770D1*
X67573Y64571D1*
X67535Y64374D1*
X67471Y64185D1*
X67384Y64005D1*
X67274Y63838D1*
X67143Y63687D1*
X66917Y63501D1*
X67061Y63391D1*
X67202Y63250D1*
X67324Y63092D1*
X67424Y62919D1*
X67501Y62734D1*
X67554Y62542D1*
X67586Y62230D1*
X67573Y62031D1*
X67535Y61834D1*
X67471Y61645D1*
X67384Y61465D1*
X67274Y61298D1*
X67143Y61147D1*
X66917Y60961D1*
X67061Y60851D1*
X67202Y60710D1*
X67324Y60552D1*
X67424Y60379D1*
X67501Y60194D1*
X67554Y60002D1*
X67586Y59690D1*
X67573Y59491D1*
X67535Y59294D1*
X67471Y59105D1*
X67384Y58925D1*
X67274Y58758D1*
X67143Y58607D1*
X66917Y58421D1*
X67061Y58311D1*
X67202Y58170D1*
X67324Y58012D1*
X67424Y57839D1*
X67501Y57654D1*
X67554Y57462D1*
X67586Y57150D1*
X67573Y56951D1*
X67535Y56754D1*
X67471Y56565D1*
X67384Y56385D1*
X67274Y56218D1*
X67143Y56067D1*
X66917Y55881D1*
X67061Y55771D1*
X67202Y55630D1*
X67324Y55472D1*
X67424Y55299D1*
X67501Y55114D1*
X67554Y54922D1*
X67586Y54610D1*
X67573Y54411D1*
X67535Y54214D1*
X67471Y54025D1*
X67384Y53845D1*
X67274Y53678D1*
X67143Y53527D1*
X66917Y53341D1*
X67061Y53231D1*
X67202Y53090D1*
X67324Y52932D1*
X67424Y52759D1*
X67501Y52574D1*
X67554Y52382D1*
X67586Y52070D1*
X67573Y51871D1*
X67535Y51674D1*
X67471Y51485D1*
X67384Y51305D1*
X67274Y51138D1*
X67143Y50987D1*
X66917Y50801D1*
X67061Y50691D1*
X67202Y50550D1*
X67324Y50392D1*
X67424Y50219D1*
X67501Y50034D1*
X67554Y49842D1*
X67586Y49530D1*
X67573Y49331D1*
X67535Y49134D1*
X67471Y48945D1*
X67384Y48765D1*
X67274Y48598D1*
X67143Y48447D1*
X66994Y48314D1*
X66829Y48201D1*
X66651Y48110D1*
X66463Y48043D1*
X66268Y48001D1*
X66068Y47984D1*
X65869Y47994D1*
X65672Y48028D1*
X65481Y48088D1*
X65300Y48173D1*
X65131Y48279D1*
X64977Y48407D1*
X64841Y48554D1*
X64687Y48788D1*
X62840Y48784D1*
X60046D1*
X59917Y48688D1*
X59739Y48596D1*
X59547Y48542D1*
X59348Y48527D1*
X59150Y48552D1*
X58961Y48615D1*
X58788Y48715D1*
X58638Y48847D1*
X58517Y49006D1*
X58430Y49186D1*
X58381Y49380D1*
X58371Y49579D1*
X58400Y49776D1*
X58468Y49964D1*
X58572Y50135D1*
X58708Y50281D1*
X58870Y50398D1*
X59052Y50480D1*
X59246Y50525D1*
X59446Y50530D1*
X59643Y50496D1*
X59829Y50423D1*
X60037Y50276D1*
X64691D1*
X64773Y50416D1*
X64898Y50572D1*
X65042Y50710D1*
X65157Y50796D1*
X64977Y50947D1*
X64841Y51094D1*
X64687Y51328D1*
X62840Y51324D1*
X60046D1*
X59917Y51228D1*
X59739Y51136D1*
X59547Y51082D1*
X59348Y51067D1*
X59150Y51092D1*
X58961Y51155D1*
X58788Y51255D1*
X58638Y51387D1*
X58517Y51546D1*
X58430Y51726D1*
X58381Y51920D1*
X58371Y52119D1*
X58400Y52316D1*
X58462Y52487D1*
X57263Y51287D1*
X57261Y46863D1*
X57395Y46678D1*
X57473Y46494D1*
X57513Y46298D1*
X57518Y46196D1*
X57498Y45998D1*
X57439Y45807D1*
X57344Y45631D1*
X57215Y45478D1*
X57059Y45354D1*
X56882Y45263D1*
X56690Y45209D1*
X56490Y45194D1*
X56292Y45218D1*
X56103Y45282D1*
X55930Y45381D1*
X55780Y45514D1*
X55660Y45673D1*
X55573Y45852D1*
X55523Y46046D1*
X55522Y46301D1*
X55340Y46330D1*
X55151Y46393D1*
X54978Y46493D1*
X54828Y46625D1*
X54707Y46784D1*
X54620Y46964D1*
X54571Y47157D1*
X54561Y47356D1*
X54590Y47554D1*
X54658Y47742D1*
X54762Y47912D1*
X54817Y47972D1*
X54816Y51752D1*
X54843Y51950D1*
X54921Y52134D1*
X55035Y52280D1*
X61165Y58410D1*
X61167Y64784D1*
X59264Y66681D1*
X56146Y69799D1*
X56025Y69957D1*
X55951Y70142D1*
X55928Y70326D1*
Y75089D1*
X55954Y75286D1*
X56032Y75470D1*
X56146Y75616D1*
X61012Y80482D1*
X61008Y82169D1*
Y88424D1*
X61034Y88621D1*
X61112Y88805D1*
X61226Y88951D1*
X63935Y91660D1*
X62230Y91664D1*
X62031Y91683D1*
X61840Y91740D1*
X61662Y91831D1*
X61490Y91970D1*
X60655Y92806D1*
X55656D1*
Y92497D1*
X55761Y92476D1*
X55944Y92398D1*
X56090Y92284D1*
X56725Y91650D1*
X56846Y91491D1*
X56920Y91306D1*
X56944Y91123D1*
Y88900D1*
X56917Y88702D1*
X56839Y88519D1*
X56725Y88373D1*
X54820Y86468D1*
X54661Y86347D1*
X54476Y86272D1*
X54292Y86249D1*
X47024D1*
X46899Y86153D1*
X46722Y86061D1*
X46530Y86007D1*
X46331Y85992D1*
X46132Y86017D1*
X45943Y86080D1*
X45770Y86180D1*
X45620Y86312D1*
X45500Y86471D1*
X45413Y86651D1*
X45363Y86845D1*
X45353Y87044D1*
X45383Y87241D1*
X45451Y87429D1*
X45555Y87600D1*
X45690Y87746D1*
X45852Y87863D1*
X46034Y87945D1*
X46229Y87990D1*
X46428Y87995D1*
X46625Y87961D1*
X46811Y87888D1*
X47019Y87741D1*
X53986D1*
X55201Y88959D1*
X53564Y88961D1*
Y90917D1*
X52410Y90911D1*
X51854D1*
X51798Y90836D1*
X51952Y90709D1*
X52083Y90558D1*
X52187Y90388D1*
X52261Y90202D1*
X52304Y90007D1*
X52311Y89773D1*
X52281Y89575D1*
X52218Y89385D1*
X52125Y89209D1*
X52004Y89050D1*
X51858Y88913D1*
X51691Y88803D1*
X51509Y88722D1*
X51315Y88673D1*
X51116Y88656D1*
X50917Y88673D1*
X50724Y88723D1*
X50541Y88805D1*
X50375Y88915D1*
X50229Y89052D1*
X50108Y89211D1*
X50016Y89388D1*
X49953Y89578D1*
X49924Y89775D1*
X49928Y89975D1*
X49965Y90171D1*
X50034Y90359D1*
X50133Y90532D1*
X50260Y90686D1*
X50411Y90817D1*
X50461Y90852D1*
X50285Y90994D1*
X50153Y91145D1*
X50049Y91315D1*
X49974Y91500D1*
X49932Y91696D1*
X49922Y91895D1*
X49946Y92094D1*
X50002Y92285D1*
X50090Y92465D1*
X50195Y92612D1*
X48928Y92616D1*
X48578D1*
X48379Y92636D1*
X48187Y92692D1*
X48010Y92784D1*
X47838Y92923D1*
X43697Y97064D1*
X30480Y97062D1*
X30281Y97081D1*
X30090Y97137D1*
X29912Y97229D1*
X29740Y97368D1*
X27827Y99281D1*
X17651Y99284D1*
X17671Y99065D1*
X17660Y98865D1*
X17627Y98668D1*
X17572Y98476D1*
X17445Y98198D1*
X18981Y98201D1*
X18984Y98401D1*
X22926D1*
Y95909D1*
X22632D1*
X22636Y93524D1*
X22936Y93521D1*
Y90629D1*
X20980D1*
X20975Y88334D1*
X20981Y88306D1*
Y86434D1*
X18389D1*
Y88685D1*
X17454Y88684D1*
X17285Y88422D1*
X17152Y88273D1*
X17004Y88138D1*
X16706Y87945D1*
X16937Y87803D1*
X17092Y87676D1*
X17231Y87533D1*
X17353Y87375D1*
X17458Y87204D1*
X17542Y87023D1*
X17606Y86834D1*
X17649Y86638D1*
X17671Y86355D1*
X17660Y86155D1*
X17627Y85958D1*
X17572Y85766D1*
X17496Y85581D1*
X17400Y85406D1*
X17285Y85242D1*
X17152Y85093D1*
X17004Y84958D1*
X16842Y84842D1*
X16668Y84743D1*
X16484Y84665D1*
X16292Y84608D1*
X16096Y84573D1*
X15896Y84559D1*
X15696Y84568D1*
X15499Y84599D1*
X15306Y84651D1*
X15120Y84725D1*
X14944Y84819D1*
X14779Y84932D1*
X14628Y85063D1*
X14492Y85209D1*
X14373Y85370D1*
X14273Y85543D1*
X14193Y85726D1*
X14133Y85917D1*
X14095Y86113D1*
X14080Y86313D1*
X14086Y86513D1*
X14114Y86710D1*
X14165Y86904D1*
X14236Y87090D1*
X14328Y87268D1*
X14439Y87434D1*
X14568Y87587D1*
X14713Y87725D1*
X14873Y87845D1*
X15039Y87944D1*
X14779Y88112D1*
X14628Y88243D1*
X14492Y88389D1*
X14373Y88550D1*
X14273Y88723D1*
X14193Y88906D1*
X14133Y89097D1*
X14095Y89293D1*
X14080Y89493D1*
X14086Y89692D1*
X14114Y89890D1*
X14165Y90084D1*
X14236Y90270D1*
X14328Y90448D1*
X14439Y90614D1*
X14568Y90767D1*
X14713Y90905D1*
X14873Y91025D1*
X15039Y91124D1*
X14779Y91292D1*
X14628Y91423D1*
X14492Y91569D1*
X14373Y91730D1*
X14273Y91903D1*
X14193Y92086D1*
X14133Y92277D1*
X14095Y92473D1*
X14080Y92673D1*
X14086Y92873D1*
X14114Y93070D1*
X14165Y93264D1*
X14236Y93450D1*
X14328Y93628D1*
X14439Y93794D1*
X14568Y93947D1*
X14828Y94171D1*
X14829Y97611D1*
X14628Y97773D1*
X14492Y97919D1*
X14373Y98080D1*
X14273Y98253D1*
X14193Y98436D1*
X14133Y98627D1*
X14095Y98823D1*
X14080Y99023D1*
X14086Y99223D1*
X14114Y99420D1*
X14165Y99614D1*
X14236Y99800D1*
X14328Y99978D1*
X14439Y100144D1*
X14568Y100297D1*
X14713Y100435D1*
X14873Y100555D1*
X15044Y100657D1*
X15227Y100740D1*
X15417Y100802D1*
X15612Y100842D1*
X15812Y100860D1*
X16166Y100835D1*
X16400Y101070D1*
X16554Y101197D1*
X16730Y101292D1*
X16920Y101353D1*
X17140Y101376D1*
X28258D1*
X28456Y101357D1*
X28648Y101300D1*
X28825Y101209D1*
X28997Y101070D1*
X30911Y99156D1*
X44133Y99154D1*
X44331Y99134D1*
X44523Y99078D1*
X44700Y98986D1*
X44872Y98847D1*
X49013Y94706D1*
X50284Y94709D1*
X50511Y94883D1*
X50691Y94970D1*
X50883Y95025D1*
X51082Y95048D1*
X51281Y95037D1*
X51476Y94994D1*
X51698Y94895D1*
X53718Y94898D1*
X61087D1*
X61286Y94879D1*
X61478Y94823D1*
X61655Y94731D1*
X61827Y94592D1*
X61973Y94446D1*
X61974Y96178D1*
X61674Y96176D1*
Y98769D1*
X63993D1*
X64132Y98981D1*
X65122Y99973D1*
X64918Y99864D1*
X64729Y99801D1*
X64531Y99772D1*
X64331Y99775D1*
X64135Y99812D1*
X63948Y99881D1*
X63774Y99980D1*
X63620Y100107D1*
X63488Y100257D1*
X63384Y100428D1*
X63309Y100613D1*
X63267Y100808D1*
X63257Y101008D1*
X63281Y101206D1*
X63337Y101398D1*
X63425Y101577D1*
X63541Y101740D1*
X63683Y101880D1*
X63796Y101965D1*
X63620Y102107D1*
X63488Y102257D1*
X63387Y102422D1*
X63248Y102247D1*
X63092Y102123D1*
X62914Y102031D1*
X62722Y101977D1*
X62523Y101962D1*
X62325Y101987D1*
X62136Y102050D1*
X61963Y102150D1*
X61883Y102220D1*
X60216Y102219D1*
X60219Y99377D1*
X60195Y99179D1*
X60126Y98992D1*
X59971Y98779D1*
X59311Y98118D1*
Y96426D1*
X57119Y96433D1*
X57091Y96426D1*
X55419D1*
Y98519D1*
X57423D1*
X57462Y98605D1*
X57617Y98818D1*
X58523Y99724D1*
X58526Y100026D1*
X58359Y99916D1*
X58176Y99835D1*
X57983Y99785D1*
X57784Y99769D1*
X57585Y99786D1*
X57391Y99836D1*
X57209Y99917D1*
X57042Y100028D1*
X56897Y100164D1*
X56776Y100323D1*
X56683Y100500D1*
X56621Y100690D1*
X56591Y100888D1*
X56595Y101087D1*
X56632Y101284D1*
X56701Y101471D1*
X56801Y101644D1*
X56928Y101799D1*
X57078Y101930D1*
X57129Y101965D1*
X56952Y102107D1*
X56821Y102257D1*
X56717Y102428D1*
X56642Y102613D1*
X56599Y102808D1*
X56590Y103008D1*
X56614Y103206D1*
X56670Y103398D1*
X56758Y103577D1*
X56874Y103740D1*
X57015Y103880D1*
X57133Y103963D1*
X56940Y104121D1*
X51966Y104119D1*
X51775Y103968D1*
X51980Y103793D1*
X52039Y103720D1*
X52268Y103692D1*
X52455Y103623D1*
X52668Y103468D1*
X53303Y102833D1*
X53427Y102676D1*
X53510Y102495D1*
X53551Y102235D1*
Y99377D1*
X53527Y99179D1*
X53458Y98992D1*
X53303Y98779D1*
X52530Y98006D1*
X52531Y96426D1*
X50339Y96433D1*
X50311Y96426D1*
X48639D1*
Y98519D1*
X50695D1*
X50837Y98706D1*
X51858Y99727D1*
Y100026D1*
X51691Y99916D1*
X51509Y99835D1*
X51315Y99785D1*
X51116Y99769D1*
X50917Y99786D1*
X50724Y99836D1*
X50541Y99917D1*
X50375Y100028D1*
X50229Y100164D1*
X50108Y100323D1*
X50016Y100500D1*
X49953Y100690D1*
X49924Y100888D1*
X49928Y101087D1*
X49965Y101284D1*
X50034Y101471D1*
X50133Y101644D1*
X50260Y101799D1*
X50411Y101930D1*
X50461Y101965D1*
X50285Y102107D1*
X50190Y102215D1*
X49872Y102246D1*
X49689Y102324D1*
X49542Y102438D1*
X48685Y103295D1*
X48564Y103454D1*
X48490Y103639D1*
X48466Y103822D1*
Y105410D1*
X48493Y105608D1*
X48571Y105791D1*
X48685Y105938D1*
X49537Y106789D1*
X47339Y106787D1*
X45641Y105079D1*
X45629Y104766D1*
X45580Y104572D1*
X45499Y104390D1*
X45388Y104223D1*
X45252Y104078D1*
X45108Y103968D1*
X45313Y103793D1*
X45439Y103638D1*
X45537Y103464D1*
X45605Y103276D1*
X45646Y102965D1*
X45629Y102766D1*
X45580Y102572D1*
X45499Y102390D1*
X45388Y102223D1*
X45252Y102078D1*
X45108Y101968D1*
X45285Y101822D1*
X45416Y101671D1*
X45520Y101500D1*
X45594Y101314D1*
X45636Y101119D1*
X45643Y100885D1*
X45613Y100688D1*
X45551Y100498D1*
X45458Y100321D1*
X45337Y100162D1*
X45191Y100026D1*
X45024Y99916D1*
X44841Y99835D1*
X44648Y99785D1*
X44449Y99769D1*
X44250Y99786D1*
X44056Y99836D1*
X43874Y99917D1*
X43707Y100028D1*
X43562Y100164D1*
X43441Y100323D1*
X43348Y100500D1*
X43286Y100690D1*
X43256Y100888D1*
X43260Y101087D1*
X43297Y101284D1*
X43366Y101471D1*
X43466Y101644D1*
X43593Y101799D1*
X43743Y101930D1*
X43794Y101965D1*
X43597Y102130D1*
X43522Y102143D1*
X43335Y102212D1*
X43122Y102367D1*
X42264Y103224D1*
X42141Y103381D1*
X42057Y103562D1*
X42017Y103822D1*
Y106045D1*
X42040Y106243D1*
X42109Y106430D1*
X42264Y106643D1*
X45122Y109501D1*
X45279Y109624D1*
X45460Y109707D1*
X45720Y109748D1*
X50139D1*
X50552Y110168D1*
X50430Y110287D1*
X50315Y110450D1*
X50225Y110629D1*
X50165Y110813D1*
X50068Y110546D1*
X49966Y110374D1*
X49839Y110220D1*
X49690Y110086D1*
X49523Y109977D1*
X49340Y109895D1*
X49148Y109842D1*
X48950Y109818D1*
X48750Y109825D1*
X48554Y109862D1*
X48365Y109929D1*
X48189Y110024D1*
X48030Y110144D1*
X47890Y110287D1*
X47775Y110450D1*
X47664Y110694D1*
X47663Y109817D1*
X45047D1*
Y112433D1*
X45916D1*
X45649Y112564D1*
X45490Y112684D1*
X45350Y112827D1*
X45235Y112990D1*
X45145Y113169D1*
X45083Y113359D1*
X45052Y113556D1*
X45050Y113756D1*
X45079Y113953D1*
X45138Y114144D1*
X45225Y114324D1*
X45339Y114489D1*
X45476Y114634D1*
X45634Y114756D1*
X45809Y114853D1*
X45996Y114923D1*
X46192Y114963D1*
X46391Y114973D1*
X46590Y114952D1*
X46783Y114901D1*
X46966Y114821D1*
X47135Y114715D1*
X47286Y114584D1*
X47415Y114431D1*
X47520Y114261D1*
X47597Y114076D1*
X47622Y113973D1*
X47678Y114144D1*
X47765Y114324D1*
X47879Y114489D1*
X48016Y114634D1*
X48174Y114756D1*
X48349Y114853D1*
X48536Y114923D1*
X48732Y114963D1*
X48931Y114973D1*
X49130Y114952D1*
X49323Y114901D1*
X49506Y114821D1*
X49675Y114715D1*
X49826Y114584D1*
X49955Y114431D1*
X50059Y114261D1*
X50137Y114076D1*
X50162Y113973D1*
X50218Y114144D1*
X50305Y114324D1*
X50419Y114489D1*
X50556Y114634D1*
X50714Y114756D1*
X50889Y114853D1*
X51076Y114923D1*
X51272Y114963D1*
X51471Y114973D1*
X51670Y114952D1*
X51863Y114901D1*
X52046Y114821D1*
X52215Y114715D1*
X52366Y114584D1*
X52495Y114431D1*
X52599Y114261D1*
X52677Y114076D1*
X52702Y113973D1*
X52758Y114144D1*
X52845Y114324D1*
X52959Y114489D1*
X53096Y114634D1*
X53254Y114756D1*
X53429Y114853D1*
X53616Y114923D1*
X53812Y114963D1*
X54011Y114973D1*
X54210Y114952D1*
X54403Y114901D1*
X54586Y114821D1*
X54755Y114715D1*
X54906Y114584D1*
X55035Y114431D1*
X55139Y114261D1*
X55217Y114076D1*
X55242Y113973D1*
X55298Y114144D1*
X55385Y114324D1*
X55499Y114489D1*
X55636Y114634D1*
X55794Y114756D1*
X55969Y114853D1*
X56156Y114923D1*
X56352Y114963D1*
X56551Y114973D1*
X56750Y114952D1*
X56943Y114901D1*
X57126Y114821D1*
X57295Y114715D1*
X57446Y114584D1*
X57575Y114431D1*
X57679Y114261D1*
X57757Y114076D1*
X57782Y113973D1*
X57838Y114144D1*
X57925Y114324D1*
X58039Y114489D1*
X58176Y114634D1*
X58334Y114756D1*
X58508Y114853D1*
X58696Y114923D1*
X58892Y114963D1*
X59091Y114973D1*
X59290Y114952D1*
X59483Y114901D1*
X59666Y114821D1*
X59835Y114715D1*
X59986Y114584D1*
X60115Y114431D1*
X60220Y114261D1*
X60297Y114076D1*
X60322Y113973D1*
X60378Y114144D1*
X60465Y114324D1*
X60579Y114489D1*
X60716Y114634D1*
X60874Y114756D1*
X61048Y114853D1*
X61236Y114923D1*
X61432Y114963D1*
X61631Y114973D1*
X61830Y114952D1*
X62023Y114901D1*
X62206Y114821D1*
X62375Y114715D1*
X62526Y114584D1*
X62655Y114431D1*
X62760Y114261D1*
X62837Y114076D1*
X62862Y113973D1*
X62918Y114144D1*
X63005Y114324D1*
X63119Y114489D1*
X63256Y114634D1*
X63414Y114756D1*
X63589Y114853D1*
X63776Y114923D1*
X63972Y114963D1*
X64171Y114973D1*
X64370Y114952D1*
X64563Y114901D1*
X64746Y114821D1*
X64915Y114715D1*
X65066Y114584D1*
X65195Y114431D1*
X65300Y114261D1*
X65377Y114076D1*
X65402Y113973D1*
X65458Y114144D1*
X65545Y114324D1*
X65659Y114489D1*
X65796Y114634D1*
X65954Y114756D1*
X66129Y114853D1*
X66316Y114923D1*
X66512Y114963D1*
X66711Y114973D1*
X66910Y114952D1*
X67103Y114901D1*
X67286Y114821D1*
X67455Y114715D1*
X67606Y114584D1*
X67735Y114431D1*
X67840Y114261D1*
X67917Y114076D1*
X67942Y113973D1*
X68030Y114218D1*
X68150Y114425D1*
X68307Y114606D1*
X68494Y114756D1*
X68705Y114870D1*
X68933Y114942D1*
X69171Y114972D1*
X69410Y114958D1*
X69643Y114901D1*
X69861Y114802D1*
X70058Y114665D1*
X70226Y114494D1*
X70361Y114296D1*
X70457Y114076D1*
X70485Y113977D1*
X70553Y114181D1*
X70668Y114392D1*
X70819Y114578D1*
X71001Y114734D1*
X71209Y114853D1*
X71434Y114933D1*
X71671Y114970D1*
X71911Y114964D1*
X72145Y114913D1*
X72366Y114821D1*
X72567Y114690D1*
X72741Y114525D1*
X72881Y114331D1*
X72984Y114114D1*
X73025Y113977D1*
X73093Y114181D1*
X73208Y114392D1*
X73359Y114578D1*
X73541Y114734D1*
X73748Y114853D1*
X73974Y114933D1*
X74211Y114970D1*
X74451Y114964D1*
X74685Y114913D1*
X74906Y114821D1*
X75107Y114690D1*
X75281Y114525D1*
X75421Y114331D1*
X75523Y114114D1*
X75565Y113977D1*
X75618Y114144D1*
X75705Y114324D1*
X75819Y114489D1*
X75956Y114634D1*
X76114Y114756D1*
X76288Y114853D1*
X76476Y114923D1*
X76672Y114963D1*
X76871Y114973D1*
X77070Y114952D1*
X77263Y114901D1*
X77446Y114821D1*
X77635Y114711D1*
X78740D1*
X78939Y114692D1*
X79130Y114635D1*
X79308Y114544D1*
X79480Y114405D1*
X84560Y109325D1*
X84687Y109171D1*
X84782Y108995D1*
X84843Y108805D1*
X84866Y108585D1*
Y104140D1*
X84847Y103941D1*
X84790Y103750D1*
X84699Y103572D1*
X84560Y103400D1*
X83274Y102114D1*
X83278Y100445D1*
Y99100D1*
X83451Y99270D1*
X83610Y99391D1*
X83795Y99465D1*
X83979Y99489D1*
X84510D1*
Y99519D1*
X84504Y99647D1*
Y100819D1*
X84704Y100827D1*
Y103319D1*
X87196D1*
X87204Y101787D1*
Y104219D1*
X89300D1*
Y119300D1*
X700D1*
Y700D1*
X60681D1*
X60524Y790D1*
X60367Y914D1*
X60230Y1059D1*
X60117Y1224D1*
X60029Y1403D1*
X59968Y1594D1*
X59936Y1791D1*
X59934Y1991D1*
X59962Y2189D1*
X60018Y2380D1*
X60102Y2561D1*
X60213Y2728D1*
X60346Y2877D1*
X60500Y3004D1*
X60672Y3107D1*
X60862Y3185D1*
X60867Y3786D1*
X58816Y3784D1*
Y6346D1*
X58093Y7068D1*
X58096Y3175D1*
X58075Y2976D1*
X58013Y2787D1*
X57929Y2638D1*
X57678Y2365D1*
X56866Y1554D1*
X56711Y1428D1*
X56533Y1338D1*
X56369Y1292D1*
X55998Y1277D1*
X51752D1*
X51554Y1298D1*
X51364Y1360D1*
X51215Y1444D1*
X50942Y1695D1*
X50054Y2583D1*
X46999Y2584D1*
Y3078D1*
X45741Y3082D1*
X45746Y2832D1*
X43154D1*
X43145Y3734D1*
X43070Y3549D1*
X42967Y3378D1*
X42839Y3224D1*
X42689Y3092D1*
X42521Y2985D1*
X42338Y2905D1*
X42144Y2853D1*
X41946Y2833D1*
X41746Y2842D1*
X41551Y2883D1*
X41363Y2953D1*
X41189Y3051D1*
X41032Y3174D1*
X40896Y3321D1*
X40784Y3486D1*
X40699Y3667D1*
X40642Y3858D1*
X40616Y4057D1*
X40620Y4256D1*
X40655Y4453D1*
X40720Y4642D1*
X40862Y4884D1*
X40864Y5080D1*
X40883Y5279D1*
X40940Y5470D1*
X41031Y5648D1*
X41170Y5820D1*
X42758Y7407D1*
X42912Y7534D1*
X43087Y7630D1*
X43278Y7690D1*
X43498Y7714D1*
X47004D1*
X46999Y8076D1*
X47855D1*
X47849Y8236D1*
X46569Y8239D1*
Y12331D1*
X51221D1*
Y8239D1*
X49940D1*
X49941Y8079D1*
X50791Y8076D1*
Y5384D1*
X46999D1*
Y5628D1*
X45833Y5622D1*
X43926D1*
X43729Y5420D1*
X44954Y5424D1*
X45746D1*
Y5168D1*
X46650Y5174D1*
X46999Y5184D1*
Y5276D1*
X50791D1*
Y4520D1*
X52153Y3168D1*
X55811Y3174D1*
X56187Y3550D1*
X55771Y3554D1*
X52294D1*
X52295Y5746D1*
X83249Y88648D2*
X85701D1*
Y84707D1*
X83209D1*
Y88648D1*
X83249D1*
X83884Y29000D2*
X86336D1*
Y25058D1*
X83844D1*
Y29000D1*
X83884D1*
X83567Y50749D2*
X86019D1*
Y46807D1*
X83526D1*
Y50749D1*
X83567D1*
Y72339D2*
X86019D1*
Y68397D1*
X83526D1*
Y72339D1*
X83567D1*
X61906Y18509D2*
X62056D1*
Y16416D1*
X61800D1*
X61806Y15731D1*
Y13439D1*
X60114Y13445D1*
X59936Y13439D1*
X58844Y13445D1*
X58666Y13439D1*
X57574Y13445D1*
X57436Y13439D1*
X56304D1*
Y16531D1*
X57028D1*
X56940Y16617D1*
X56797Y16819D1*
X56733Y16939D1*
X56612Y17098D1*
X56525Y17277D1*
X56476Y17471D1*
X56466Y17670D1*
X56495Y17868D1*
X56563Y18055D1*
X56667Y18226D1*
X56803Y18372D1*
X56965Y18489D1*
X57147Y18572D1*
X57341Y18616D1*
X57541Y18622D1*
X57738Y18587D1*
X57924Y18515D1*
X58091Y18407D1*
X58168Y18333D1*
X58164Y18509D1*
X60020D1*
X60014Y18744D1*
X58960Y18739D1*
X51221Y18731D1*
Y17639D1*
X46569D1*
Y21731D1*
X47950D1*
X48097Y21949D1*
X48911Y22768D1*
X48419Y22764D1*
Y26256D1*
X51911D1*
Y22764D1*
X51205D1*
X51211Y22543D1*
X51192Y22344D1*
X51135Y22152D1*
X51044Y21975D1*
X50829Y21728D1*
X51221Y21731D1*
Y20625D1*
X51895Y20631D1*
X60960D1*
X61159Y20610D1*
X61348Y20548D1*
X61521Y20447D1*
X61668Y20312D1*
X61784Y20150D1*
X61863Y19967D1*
X61906Y19685D1*
Y18504D1*
X56219Y26344D2*
X58871D1*
Y22552D1*
X56179D1*
Y22765D1*
X52819Y22764D1*
Y26256D1*
X56180D1*
X56179Y26344D1*
X56219D1*
X39998Y19143D2*
X40148D1*
Y17051D1*
X39892D1*
X39898Y15897D1*
Y13694D1*
X38206Y13700D1*
X38028Y13694D1*
X36936Y13700D1*
X36758Y13694D1*
X35666Y13700D1*
X35528Y13694D1*
X34396D1*
Y16786D1*
X34847D1*
X34666Y16939D1*
X34546Y17098D1*
X34459Y17277D1*
X34410Y17471D1*
X34399Y17670D1*
X34429Y17868D1*
X34497Y18055D1*
X34601Y18226D1*
X34737Y18372D1*
X34899Y18489D1*
X35080Y18572D1*
X35275Y18616D1*
X35475Y18622D1*
X35671Y18587D1*
X35857Y18515D1*
X36025Y18407D1*
X36168Y18267D1*
X36257Y18139D1*
X36256Y19143D1*
X38113D1*
X38106Y19378D1*
X35335Y19374D1*
X29316D1*
X29314Y17639D1*
X24662D1*
Y21731D1*
X29314D1*
Y21262D1*
X29854Y21266D1*
X29851Y24841D1*
X31744D1*
X31737Y22149D1*
X31744Y21495D1*
Y21264D1*
X38735Y21266D1*
X38934Y21245D1*
X39123Y21183D1*
X39272Y21099D1*
X39545Y20848D1*
X39721Y20671D1*
X39847Y20516D1*
X39937Y20338D1*
X39983Y20174D1*
X39998Y19803D1*
Y19146D1*
X34947Y25391D2*
X37599D1*
Y21599D1*
X34907D1*
X34904Y22149D1*
X33252D1*
Y24841D1*
X34908D1*
X34907Y25391D1*
X34947D1*
X5204Y38276D2*
X7696D1*
Y37670D1*
X8181Y37676D1*
X8179Y38276D1*
X8685D1*
X8679Y39430D1*
Y40005D1*
X8703Y40203D1*
X8772Y40390D1*
X8927Y40603D1*
X9562Y41238D1*
X9719Y41362D1*
X9900Y41445D1*
X10160Y41486D1*
X14291D1*
X14439Y41719D1*
X14568Y41872D1*
X14713Y42010D1*
X14873Y42130D1*
X15044Y42232D1*
X15227Y42315D1*
X15417Y42377D1*
X15612Y42417D1*
X15812Y42435D1*
X16011Y42431D1*
X16210Y42405D1*
X16404Y42356D1*
X16591Y42287D1*
X16770Y42197D1*
X16937Y42088D1*
X17092Y41961D1*
X17231Y41818D1*
X17353Y41660D1*
X17458Y41489D1*
X17542Y41308D1*
X17606Y41119D1*
X17649Y40923D1*
X17671Y40640D1*
X17660Y40440D1*
X17627Y40243D1*
X17572Y40051D1*
X17496Y39866D1*
X17400Y39691D1*
X17285Y39527D1*
X17152Y39378D1*
X17004Y39243D1*
X16842Y39127D1*
X16668Y39028D1*
X16484Y38950D1*
X16292Y38893D1*
X16096Y38858D1*
X15896Y38844D1*
X15696Y38853D1*
X15499Y38884D1*
X15306Y38936D1*
X15120Y39010D1*
X14944Y39104D1*
X14779Y39217D1*
X14628Y39348D1*
X14492Y39494D1*
X14295Y39790D1*
X12475Y39794D1*
X10506D1*
X10374Y39657D1*
X10371Y38274D1*
X10871Y38276D1*
Y35384D1*
X8179D1*
Y35990D1*
X7694Y35984D1*
X7696Y35384D1*
X5004D1*
Y38276D1*
X5204D1*
X2244D2*
X4896D1*
Y35384D1*
X2204D1*
Y38276D1*
X2244D1*
X11019D2*
X13671D1*
Y35384D1*
X10979D1*
Y38276D1*
X11019D1*
X13399Y74085D2*
X15851D1*
Y70143D1*
X13359D1*
Y74085D1*
X13399D1*
X7484Y72726D2*
X10336D1*
Y70034D1*
X7444D1*
Y72726D1*
X7484D1*
X4569Y73201D2*
X4675D1*
X4669Y73660D1*
X4688Y73859D1*
X4745Y74050D1*
X4836Y74228D1*
X4960Y74384D1*
X5112Y74514D1*
X5285Y74614D1*
X5474Y74678D1*
X5672Y74705D1*
X5871Y74694D1*
X6065Y74646D1*
X6246Y74561D1*
X6408Y74444D1*
X6544Y74298D1*
X6650Y74129D1*
X6722Y73943D1*
X6761Y73660D1*
X6769Y73201D1*
X7061D1*
Y70309D1*
X6555D1*
X6561Y70024D1*
X7061Y70026D1*
Y67134D1*
X4369D1*
Y70026D1*
X4875D1*
X4869Y70311D1*
X4369Y70309D1*
Y73201D1*
X4569D1*
X1609D2*
X4261D1*
Y70309D1*
X1569D1*
Y73201D1*
X1609D1*
Y70026D2*
X4261D1*
Y67134D1*
X1569D1*
Y70026D1*
X1609D1*
X23828Y98401D2*
X27730D1*
Y95909D1*
X23788D1*
Y98401D1*
X23828D1*
X23084Y93521D2*
X25736D1*
Y90629D1*
X23044D1*
Y93521D1*
X23084D1*
X44665Y77405D2*
X44821D1*
X44815Y78559D1*
Y80490D1*
X44163Y81147D1*
X44118Y81078D1*
X43982Y80933D1*
X43838Y80823D1*
X44043Y80648D1*
X44169Y80493D1*
X44267Y80319D1*
X44335Y80131D1*
X44376Y79820D1*
X44359Y79621D1*
X44310Y79427D1*
X44229Y79245D1*
X44118Y79078D1*
X43982Y78933D1*
X43823Y78811D1*
X43646Y78719D1*
X43456Y78656D1*
X43259Y78627D1*
X43059Y78630D1*
X42863Y78667D1*
X42675Y78736D1*
X42502Y78835D1*
X42347Y78962D1*
X42216Y79112D1*
X42112Y79283D1*
X42037Y79468D1*
X41994Y79663D1*
X41985Y79863D1*
X42009Y80061D1*
X42065Y80253D1*
X42153Y80432D1*
X42269Y80595D1*
X42410Y80736D1*
X42528Y80818D1*
X42347Y80962D1*
X42216Y81112D1*
X42112Y81283D1*
X42037Y81468D1*
X41994Y81663D1*
X41985Y81863D1*
X42009Y82061D1*
X42065Y82253D1*
X42153Y82432D1*
X42269Y82595D1*
X42410Y82736D1*
X42528Y82818D1*
X42376Y82934D1*
X42240Y83080D1*
X42130Y83247D1*
X42049Y83430D1*
X42000Y83624D1*
X41984Y83823D1*
X42001Y84022D1*
X42051Y84215D1*
X42133Y84397D1*
X42243Y84564D1*
X42380Y84709D1*
X42539Y84830D1*
X42716Y84922D1*
X42906Y84984D1*
X43104Y85014D1*
X43304Y85010D1*
X43500Y84972D1*
X43687Y84903D1*
X43861Y84803D1*
X44015Y84676D1*
X44146Y84526D1*
X44250Y84355D1*
X44324Y84169D1*
X44366Y83974D1*
X44373Y83740D1*
X44343Y83543D1*
X44281Y83353D1*
X44188Y83176D1*
X44067Y83017D1*
X43921Y82881D1*
X43836Y82820D1*
X44029Y82660D1*
X44450Y82661D1*
X44648Y82634D1*
X44831Y82556D1*
X44977Y82442D1*
X46089Y81331D1*
X46210Y81173D1*
X46284Y80988D1*
X46307Y80804D1*
Y77410D1*
X46525Y77405D1*
X48357D1*
Y75313D1*
X44465Y75319D1*
Y77405D1*
X44665D1*
X65866Y96177D2*
Y94204D1*
X63674Y94210D1*
X63646Y94204D1*
X62215D1*
X62662Y93757D1*
X72756Y93756D1*
X74848Y95854D1*
X77842Y98847D1*
X77996Y98974D1*
X78118Y99045D1*
X78068Y99099D1*
X77576Y99105D1*
X77398Y99099D1*
X76306Y99105D1*
X76128Y99099D1*
X75036Y99105D1*
X74858Y99099D1*
X73766D1*
Y102191D1*
X75458Y102185D1*
X75636Y102191D1*
X76728Y102185D1*
X76906Y102191D1*
X77998Y102185D1*
X78176Y102191D1*
X79268Y102185D1*
X79446Y102191D1*
X80538Y102185D1*
X80716Y102191D1*
X81185D1*
X81186Y102552D1*
X81196Y102693D1*
X81057Y102845D1*
X80868Y102908D1*
X80695Y103008D1*
X80545Y103140D1*
X80425Y103299D1*
X80338Y103479D1*
X80288Y103672D1*
X80278Y103871D1*
X80301Y104026D1*
X80078Y103788D1*
X79585Y103295D1*
X79426Y103174D1*
X79242Y103100D1*
X79058Y103077D1*
X74601D1*
X73870Y102343D1*
X73711Y102222D1*
X73481Y102137D1*
X73454Y102070D1*
Y100013D1*
X73427Y99815D1*
X73349Y99631D1*
X73235Y99485D1*
X72515Y98765D1*
X72946Y98769D1*
Y96176D1*
X72852D1*
X72851Y94204D1*
X70659Y94210D1*
X70631Y94204D1*
X68959D1*
Y96178D1*
X68654Y96176D1*
Y98769D1*
X71010D1*
X71004Y99055D1*
X71031Y99253D1*
X71109Y99436D1*
X71222Y99582D1*
X71457Y99817D1*
X71238Y99775D1*
X71039Y99772D1*
X70841Y99802D1*
X70652Y99865D1*
X70475Y99958D1*
X70316Y100079D1*
X70180Y100225D1*
X70070Y100392D1*
X69989Y100575D1*
X69940Y100769D1*
X69924Y100968D1*
X69941Y101167D1*
X69991Y101360D1*
X70073Y101542D1*
X70183Y101709D1*
X70320Y101854D1*
X70464Y101965D1*
X70287Y102107D1*
X70156Y102257D1*
X70052Y102428D1*
X69977Y102613D1*
X69934Y102808D1*
X69925Y103008D1*
X69949Y103206D1*
X70005Y103398D1*
X70093Y103577D1*
X70209Y103740D1*
X70350Y103880D1*
X70468Y103963D1*
X70275Y104121D1*
X65301Y104119D1*
X65110Y103968D1*
X65315Y103793D1*
X65374Y103720D1*
X65603Y103692D1*
X65790Y103623D1*
X66003Y103468D1*
X66638Y102833D1*
X66762Y102676D1*
X66845Y102495D1*
X66886Y102235D1*
Y99695D1*
X66862Y99497D1*
X66793Y99310D1*
X66638Y99097D1*
X65962Y98421D1*
X65966Y96569D1*
Y96176D1*
X65860D1*
X53265Y79970D2*
X53242Y79772D1*
X53186Y79580D1*
X53099Y79400D1*
X52983Y79237D1*
X52842Y79096D1*
X52679Y78980D1*
X52499Y78894D1*
X52307Y78838D1*
X52109Y78815D1*
X51909Y78825D1*
X51714Y78868D1*
X51529Y78943D1*
X51359Y79048D1*
X51209Y79180D1*
X51083Y79335D1*
X50984Y79509D1*
X50916Y79696D1*
X50880Y79893D1*
X50877Y80093D1*
X50907Y80290D1*
X50970Y80480D1*
X51064Y80656D1*
X51185Y80815D1*
X51331Y80951D1*
X51414Y81010D1*
X51237Y81152D1*
X51106Y81302D1*
X51002Y81473D1*
X50927Y81658D1*
X50884Y81853D1*
X50875Y82053D1*
X50899Y82251D1*
X50955Y82443D1*
X51043Y82622D1*
X51159Y82785D1*
X51300Y82925D1*
X51418Y83008D1*
X51237Y83152D1*
X51106Y83302D1*
X51002Y83473D1*
X50927Y83658D1*
X50884Y83853D1*
X50875Y84053D1*
X50899Y84251D1*
X50955Y84443D1*
X51043Y84622D1*
X51159Y84785D1*
X51300Y84925D1*
X51464Y85041D1*
X51644Y85127D1*
X51836Y85183D1*
X52034Y85205D1*
X52233Y85195D1*
X52428Y85151D1*
X52613Y85075D1*
X52783Y84970D1*
X52933Y84838D1*
X53059Y84683D1*
X53157Y84509D1*
X53225Y84321D1*
X53266Y84010D1*
X53249Y83811D1*
X53200Y83617D1*
X53119Y83435D1*
X53008Y83268D1*
X52872Y83123D1*
X52728Y83013D1*
X52933Y82838D1*
X53059Y82683D1*
X53157Y82509D1*
X53225Y82321D1*
X53266Y82010D1*
X53249Y81811D1*
X53200Y81617D1*
X53119Y81435D1*
X53008Y81268D1*
X52872Y81123D1*
X52728Y81013D1*
X52905Y80867D1*
X53036Y80716D1*
X53140Y80545D1*
X53214Y80359D1*
X53256Y80164D1*
X53265Y79970D1*
X38009Y79811D2*
X37960Y79617D1*
X37879Y79435D1*
X37768Y79268D1*
X37679Y79173D1*
X37711Y79055D1*
X37869Y78864D1*
X37953Y78683D1*
X37994Y78422D1*
Y77704D1*
X38444Y77709D1*
Y77352D1*
X39057Y77359D1*
X39256Y77335D1*
X39443Y77266D1*
X39656Y77111D1*
X40603Y76163D1*
X40727Y76006D1*
X40810Y75825D1*
X40851Y75565D1*
Y73371D1*
X42738Y71489D1*
X42665Y71763D1*
X42654Y71963D1*
X42684Y72160D1*
X42752Y72348D1*
X42856Y72518D1*
X42992Y72665D1*
X43154Y72782D1*
X43335Y72864D1*
X43530Y72909D1*
X43730Y72914D1*
X43926Y72880D1*
X44112Y72807D1*
X44321Y72660D1*
X44340Y72657D1*
X44357Y72728D1*
Y73297D1*
X44252Y73314D1*
X44065Y73383D1*
X43852Y73538D1*
X39407Y77983D1*
X39283Y78140D1*
X39200Y78321D1*
X39159Y78581D1*
Y81562D1*
X37617Y83107D1*
X37543Y82970D1*
X37693Y82838D1*
X37819Y82683D1*
X37917Y82509D1*
X37985Y82321D1*
X38026Y82010D1*
X38009Y81811D1*
X37960Y81617D1*
X37879Y81435D1*
X37768Y81268D1*
X37632Y81123D1*
X37488Y81013D1*
X37693Y80838D1*
X37819Y80683D1*
X37917Y80509D1*
X37985Y80321D1*
X38026Y80010D1*
X38009Y79811D1*
X28158Y34407D2*
X28299Y34620D1*
X28466Y34779D1*
X28464Y35242D1*
X28491Y35440D1*
X28569Y35624D1*
X28683Y35770D1*
X29482Y36570D1*
X29374Y36574D1*
Y37743D1*
X29303Y37779D1*
X29156Y37893D1*
X28841Y38208D1*
X28720Y38366D1*
X28646Y38551D1*
X28623Y38735D1*
Y39866D1*
X28432Y39811D1*
X28314Y39802D1*
X25451Y36938D1*
X25293Y36817D1*
X25108Y36742D1*
X24924Y36719D1*
X24793D1*
X24791Y34400D1*
X25695Y34406D1*
X28151D1*
X38211Y34776D2*
X38328Y34673D1*
X38395Y34591D1*
X39180D1*
X39378Y34564D1*
X39559Y34487D1*
X39661Y34459D1*
X39668Y34851D1*
X39661Y34759D1*
X39656Y36574D1*
X38324D1*
X38330Y39316D1*
X38324Y39474D1*
Y40266D1*
X38368D1*
X38398Y40569D1*
X38442Y40692D1*
X37205Y40688D1*
X36513D1*
X36322Y40713D1*
X36281Y40693D1*
X36284Y40266D1*
X37816D1*
X37810Y37524D1*
X37816Y37366D1*
Y36574D1*
X37572D1*
X37576Y36341D1*
X37992Y35929D1*
X38113Y35770D1*
X38188Y35585D1*
X38211Y35401D1*
Y34782D1*
X13242Y8748D2*
X15534D1*
Y8542D1*
X16688Y8548D1*
X17419D1*
X17104Y8598D1*
X16916Y8668D1*
X16742Y8766D1*
X16585Y8889D1*
X16449Y9036D1*
X16337Y9201D1*
X16252Y9382D1*
X16195Y9573D1*
X16169Y9772D1*
X16173Y9971D1*
X16208Y10168D1*
X16273Y10357D1*
X16366Y10534D1*
X16486Y10694D1*
X16628Y10834D1*
X16790Y10951D1*
X16969Y11041D1*
X17214Y11112D1*
X16916Y11208D1*
X16742Y11306D1*
X16585Y11429D1*
X16449Y11576D1*
X16337Y11741D1*
X16252Y11922D1*
X16195Y12113D1*
X16169Y12312D1*
X16190Y12603D1*
X12140Y16654D1*
X12091Y16616D1*
Y14974D1*
X7749D1*
Y18216D1*
X11953D1*
X11954Y18840D1*
X8934Y18839D1*
Y18945D1*
X8280Y18939D1*
X7938D1*
X7740Y18966D1*
X7556Y19044D1*
X7410Y19157D1*
X6775Y19793D1*
X6632Y19994D1*
X6626Y19331D1*
Y18839D1*
X5995D1*
X6038Y18713D1*
X6078Y18517D1*
X6083Y18415D1*
X6063Y18216D1*
X6004Y18026D1*
X5909Y17850D1*
X5781Y17697D1*
X5624Y17573D1*
X5447Y17481D1*
X5255Y17427D1*
X5055Y17412D1*
X4857Y17437D1*
X4668Y17500D1*
X4495Y17600D1*
X4345Y17732D1*
X4225Y17891D1*
X4138Y18071D1*
X4088Y18265D1*
X4078Y18464D1*
X4108Y18661D1*
X4174Y18843D1*
X3920Y18839D1*
X3921Y17768D1*
X4972Y16720D1*
X5093Y16561D1*
X5168Y16377D1*
X5191Y16192D1*
Y16124D1*
X5741Y16119D1*
X5735Y13726D1*
X5741Y13819D1*
Y11827D1*
X5422D1*
X5711Y11537D1*
X6604Y11541D1*
X6599Y12416D1*
X8641D1*
Y9174D1*
X7422D1*
X9171Y7424D1*
X9294Y7268D1*
X9377Y7086D1*
X9418Y6826D1*
Y3520D1*
X10032Y2911D1*
X10665Y2910D1*
X10392Y3050D1*
X10235Y3174D1*
X10099Y3320D1*
X9987Y3486D1*
X9901Y3666D1*
X9845Y3858D1*
X9818Y4056D1*
X9823Y4256D1*
X9858Y4453D1*
X9923Y4641D1*
X10016Y4818D1*
X10135Y4979D1*
X10264Y5106D1*
X10267Y5859D1*
X9642Y5856D1*
Y8525D1*
X9322Y8849D1*
X9192Y9017D1*
X8941Y9174D1*
X8899D1*
Y12416D1*
X10941D1*
X10942Y9621D1*
X11199Y9374D1*
Y12416D1*
X13241D1*
Y9174D1*
X11393Y9171D1*
X11517Y9014D1*
X11642Y8748D1*
X12134D1*
Y5856D1*
X11953D1*
X11959Y5108D1*
X12080Y4989D1*
X12201Y4830D1*
X12296Y4655D1*
X12357Y4484D1*
X12356Y5423D1*
X12875D1*
X13015Y5636D1*
X13236Y5859D1*
X13042Y5856D1*
Y8748D1*
X13242D1*
X34250Y104494D2*
X36304D1*
X36300Y106798D1*
X36298Y107323D1*
X35944Y107508D1*
X35633Y107759D1*
X35376Y108065D1*
X35184Y108415D1*
X35064Y108795D1*
X35019Y109192D1*
X35053Y109590D1*
X35163Y109974D1*
X35346Y110329D1*
X35594Y110642D1*
X35898Y110901D1*
X36247Y111095D1*
X36627Y111219D1*
X37023Y111266D1*
X37422Y111235D1*
X37806Y111127D1*
X38163Y110947D1*
X38477Y110701D1*
X38738Y110398D1*
X38935Y110051D1*
X39061Y109672D1*
X39110Y109275D1*
X39101Y109020D1*
X39024Y108629D1*
X38871Y108259D1*
X38650Y107927D1*
X38369Y107643D1*
X38038Y107420D1*
X37987Y107396D1*
X37992Y106339D1*
Y104495D1*
X38342Y104494D1*
Y101902D1*
X35950Y101909D1*
X36042Y101902D1*
X34050D1*
X34046Y102352D1*
X33902D1*
X33897Y101902D1*
X31505Y101909D1*
X31477Y101902D1*
X29605D1*
Y104494D1*
X33897D1*
X33901Y104044D1*
X34045D1*
X34050Y104494D1*
X34250D1*
X24248D2*
X26302D1*
X26298Y106798D1*
Y107323D1*
X25944Y107508D1*
X25633Y107759D1*
X25376Y108065D1*
X25184Y108415D1*
X25064Y108795D1*
X25019Y109192D1*
X25053Y109590D1*
X25163Y109974D1*
X25346Y110329D1*
X25594Y110642D1*
X25898Y110901D1*
X26247Y111095D1*
X26627Y111219D1*
X27023Y111266D1*
X27422Y111235D1*
X27806Y111127D1*
X28163Y110947D1*
X28477Y110701D1*
X28738Y110398D1*
X28935Y110051D1*
X29061Y109672D1*
X29110Y109275D1*
X29101Y109020D1*
X29024Y108629D1*
X28871Y108259D1*
X28650Y107927D1*
X28369Y107643D1*
X28038Y107420D1*
X27987Y107396D1*
X27990Y104497D1*
X28340Y104494D1*
Y101902D1*
X25948Y101909D1*
X26040Y101902D1*
X24048D1*
X24044Y102353D1*
X23900D1*
X23895Y101903D1*
X21503Y101909D1*
X21475Y101903D1*
X19603D1*
Y104495D1*
X23895D1*
X23899Y104045D1*
X24043D1*
X24048Y104494D1*
X24248D1*
X14251D2*
X16305D1*
X16300Y106798D1*
X16298Y107323D1*
X15944Y107508D1*
X15633Y107759D1*
X15376Y108065D1*
X15184Y108415D1*
X15064Y108795D1*
X15019Y109192D1*
X15053Y109590D1*
X15163Y109974D1*
X15346Y110329D1*
X15594Y110642D1*
X15898Y110901D1*
X16247Y111095D1*
X16627Y111219D1*
X17023Y111266D1*
X17422Y111235D1*
X17806Y111127D1*
X18163Y110947D1*
X18477Y110701D1*
X18738Y110398D1*
X18935Y110051D1*
X19061Y109672D1*
X19110Y109275D1*
X19101Y109020D1*
X19024Y108629D1*
X18871Y108259D1*
X18650Y107927D1*
X18369Y107643D1*
X18038Y107420D1*
X17987Y107396D1*
X17992Y106538D1*
Y104495D1*
X18343Y104494D1*
Y101902D1*
X15950Y101909D1*
X16043Y101902D1*
X14050D1*
X14046Y102352D1*
X13903D1*
X13897Y101902D1*
X11505Y101909D1*
X11477Y101902D1*
X9605D1*
Y104494D1*
X13897D1*
X13901Y104044D1*
X14045D1*
X14050Y104494D1*
X14251D1*
X7642Y4245D2*
X7592Y3848D1*
X7494Y3461D1*
X7347Y3089D1*
X7156Y2738D1*
X6922Y2414D1*
X6650Y2121D1*
X6343Y1865D1*
X6007Y1648D1*
X5647Y1476D1*
X5267Y1349D1*
X4875Y1271D1*
X4477Y1242D1*
X4078Y1263D1*
X3684Y1333D1*
X3302Y1452D1*
X2939Y1618D1*
X2598Y1828D1*
X2287Y2078D1*
X2009Y2365D1*
X1769Y2685D1*
X1570Y3032D1*
X1417Y3401D1*
X1310Y3786D1*
X1253Y4182D1*
X1245Y4581D1*
X1286Y4979D1*
X1378Y5368D1*
X1516Y5743D1*
X1701Y6098D1*
X1928Y6427D1*
X2194Y6725D1*
X2496Y6987D1*
X2828Y7210D1*
X3185Y7390D1*
X3561Y7524D1*
X3952Y7610D1*
X4350Y7647D1*
X4749Y7634D1*
X5144Y7571D1*
X5528Y7460D1*
X5895Y7301D1*
X6239Y7099D1*
X6556Y6854D1*
X6840Y6573D1*
X7086Y6258D1*
X7291Y5915D1*
X7452Y5549D1*
X7566Y5166D1*
X7632Y4772D1*
X7648Y4445D1*
X7642Y4245D1*
X8277Y114735D2*
X8227Y114338D1*
X8129Y113951D1*
X7982Y113579D1*
X7791Y113228D1*
X7557Y112904D1*
X7285Y112611D1*
X6978Y112355D1*
X6642Y112138D1*
X6282Y111966D1*
X5902Y111839D1*
X5510Y111761D1*
X5112Y111732D1*
X4713Y111753D1*
X4319Y111823D1*
X3938Y111942D1*
X3574Y112108D1*
X3233Y112318D1*
X2922Y112568D1*
X2644Y112855D1*
X2404Y113175D1*
X2205Y113522D1*
X2052Y113891D1*
X1945Y114276D1*
X1888Y114672D1*
X1880Y115071D1*
X1921Y115469D1*
X2013Y115858D1*
X2151Y116233D1*
X2336Y116588D1*
X2563Y116917D1*
X2829Y117215D1*
X3131Y117477D1*
X3463Y117700D1*
X3820Y117880D1*
X4196Y118014D1*
X4587Y118100D1*
X4985Y118137D1*
X5384Y118124D1*
X5779Y118061D1*
X6163Y117950D1*
X6530Y117791D1*
X6874Y117589D1*
X7191Y117344D1*
X7475Y117063D1*
X7721Y116748D1*
X7926Y116405D1*
X8087Y116039D1*
X8201Y115656D1*
X8267Y115262D1*
X8283Y114935D1*
X8277Y114735D1*
X88922Y3928D2*
X88872Y3531D1*
X88773Y3144D1*
X88627Y2772D1*
X88436Y2421D1*
X88202Y2096D1*
X87930Y1804D1*
X87623Y1547D1*
X87287Y1331D1*
X86927Y1158D1*
X86547Y1032D1*
X86155Y953D1*
X85757Y924D1*
X85358Y945D1*
X84964Y1016D1*
X84582Y1135D1*
X84219Y1300D1*
X83878Y1510D1*
X83567Y1760D1*
X83289Y2048D1*
X83049Y2367D1*
X82850Y2714D1*
X82697Y3083D1*
X82590Y3469D1*
X82532Y3864D1*
X82525Y4264D1*
X82566Y4661D1*
X82658Y5051D1*
X82796Y5425D1*
X82981Y5780D1*
X83208Y6109D1*
X83474Y6407D1*
X83776Y6670D1*
X84108Y6893D1*
X84465Y7072D1*
X84841Y7207D1*
X85232Y7293D1*
X85630Y7329D1*
X86029Y7316D1*
X86424Y7254D1*
X86808Y7142D1*
X87175Y6984D1*
X87519Y6781D1*
X87836Y6537D1*
X88120Y6255D1*
X88366Y5940D1*
X88571Y5597D1*
X88732Y5232D1*
X88846Y4848D1*
X88912Y4454D1*
X88928Y4128D1*
X88922Y3928D1*
X88605Y115370D2*
X88555Y114974D1*
X88456Y114586D1*
X88310Y114214D1*
X88118Y113863D1*
X87885Y113539D1*
X87612Y113246D1*
X87306Y112990D1*
X86970Y112773D1*
X86609Y112601D1*
X86230Y112474D1*
X85838Y112396D1*
X85439Y112367D1*
X85040Y112388D1*
X84647Y112458D1*
X84265Y112577D1*
X83901Y112743D1*
X83561Y112953D1*
X83249Y113203D1*
X82971Y113490D1*
X82731Y113810D1*
X82533Y114157D1*
X82379Y114526D1*
X82273Y114911D1*
X82215Y115307D1*
X82207Y115706D1*
X82249Y116104D1*
X82340Y116493D1*
X82479Y116868D1*
X82663Y117223D1*
X82891Y117552D1*
X83157Y117850D1*
X83458Y118112D1*
X83790Y118335D1*
X84147Y118515D1*
X84524Y118649D1*
X84914Y118735D1*
X85312Y118772D1*
X85712Y118759D1*
X86106Y118696D1*
X86490Y118585D1*
X86857Y118426D1*
X87202Y118224D1*
X87518Y117979D1*
X87802Y117698D1*
X88048Y117383D1*
X88254Y117040D1*
X88415Y116674D1*
X88529Y116291D1*
X88594Y115897D1*
X88611Y115570D1*
X88605Y115370D1*
X65107Y105961D2*
X65292Y105814D1*
X70271Y105811D1*
X70514Y105996D1*
X70694Y106082D1*
X70885Y106138D1*
X71084Y106160D1*
X71283Y106150D1*
X71478Y106106D1*
X71663Y106030D1*
X71833Y105925D1*
X71983Y105793D1*
X72109Y105638D1*
X72207Y105464D1*
X72275Y105276D1*
X72316Y104965D1*
X72299Y104766D1*
X72250Y104572D1*
X72169Y104390D1*
X72058Y104223D1*
X71922Y104078D1*
X71778Y103968D1*
X71983Y103793D1*
X72124Y103611D1*
X72907Y103616D1*
X73039D1*
X73767Y104350D1*
X73932Y104473D1*
X73938Y104499D1*
X73766D1*
Y107591D1*
X76728Y107585D1*
X76906Y107591D1*
X77487D1*
X77431Y107800D1*
X77421Y107999D1*
X77450Y108196D1*
X77518Y108384D1*
X77574Y108475D1*
X74930Y108474D1*
X74732Y108501D1*
X74549Y108579D1*
X74403Y108692D1*
X73767Y109328D1*
X73647Y109486D1*
X73572Y109671D1*
X73549Y109855D1*
Y110049D1*
X73430Y110144D1*
X73290Y110287D1*
X73175Y110450D1*
X73085Y110629D1*
X73025Y110813D1*
X72928Y110546D1*
X72826Y110374D1*
X72699Y110220D1*
X72550Y110086D1*
X72383Y109977D1*
X72200Y109895D1*
X72008Y109842D1*
X71810Y109818D1*
X71610Y109825D1*
X71414Y109862D1*
X71225Y109929D1*
X71049Y110024D1*
X70890Y110144D1*
X70750Y110287D1*
X70635Y110450D1*
X70545Y110629D1*
X70485Y110813D1*
X70388Y110546D1*
X70286Y110374D1*
X70159Y110220D1*
X70010Y110086D1*
X69843Y109977D1*
X69660Y109895D1*
X69468Y109842D1*
X69270Y109818D1*
X68990Y109840D1*
X66207Y107062D1*
X65107Y105962D1*
X38989Y44341D2*
X38995Y45389D1*
X38989Y45797D1*
X38995Y46189D1*
X38989Y46597D1*
X38995Y47789D1*
X38989Y48197D1*
X38995Y48589D1*
X38989Y48628D1*
X36182Y48625D1*
X35627Y48066D1*
X35468Y47945D1*
X35283Y47870D1*
X35099Y47847D1*
X30480D1*
X30481Y46197D1*
Y45397D1*
Y44597D1*
Y44333D1*
X30720Y44339D1*
X30593Y44582D1*
X30543Y44776D1*
X30533Y44975D1*
X30563Y45173D1*
X30631Y45360D1*
X30735Y45531D1*
X30870Y45677D1*
X31032Y45794D1*
X31214Y45877D1*
X31409Y45921D1*
X31608Y45927D1*
X31713Y45908D1*
X31701Y46086D1*
X31730Y46284D1*
X31798Y46472D1*
X31902Y46642D1*
X32038Y46789D1*
X32200Y46905D1*
X32382Y46988D1*
X32576Y47033D1*
X32776Y47038D1*
X32973Y47003D1*
X33159Y46931D1*
X33327Y46823D1*
X33470Y46684D1*
X33579Y46524D1*
X33652Y46647D1*
X33788Y46793D1*
X33950Y46910D1*
X34132Y46993D1*
X34326Y47037D1*
X34526Y47043D1*
X34722Y47008D1*
X34908Y46936D1*
X35076Y46828D1*
X35220Y46688D1*
X35332Y46524D1*
X35410Y46340D1*
X35450Y46144D1*
X35455Y46042D1*
X35435Y45844D1*
X35377Y45653D1*
X35281Y45477D1*
X35153Y45325D1*
X34997Y45200D1*
X34819Y45109D1*
X34627Y45055D1*
X34509Y45046D1*
X34242Y44777D1*
X34246Y44338D1*
X34731Y44333D1*
X35139Y44339D1*
X35531Y44333D1*
X35939Y44339D1*
X36331Y44333D1*
X36395Y44339D1*
X36389Y45387D1*
X36254Y45514D1*
X36133Y45673D1*
X36047Y45852D1*
X35997Y46046D1*
X35987Y46245D1*
X36017Y46443D1*
X36085Y46630D1*
X36188Y46801D1*
X36324Y46947D1*
X36486Y47064D1*
X36668Y47147D1*
X36863Y47191D1*
X36944Y47193D1*
X36933Y47356D1*
X36963Y47554D1*
X37031Y47742D1*
X37135Y47912D1*
X37270Y48059D1*
X37432Y48175D1*
X37614Y48258D1*
X37809Y48303D1*
X38008Y48308D1*
X38205Y48273D1*
X38391Y48201D1*
X38559Y48093D1*
X38702Y47954D1*
X38815Y47789D1*
X38893Y47605D1*
X38933Y47409D1*
X38938Y47308D1*
X38918Y47109D1*
X38859Y46918D1*
X38764Y46743D1*
X38680Y46642D1*
X38681Y44339D1*
X38731Y44333D1*
X38995Y44339D1*
X38989Y45397D1*
X38995Y46989D1*
X38989Y47397D1*
Y48597D1*
X37687Y52847D2*
X37139Y52853D1*
X36731Y52847D1*
X36339Y52853D1*
X35931Y52847D1*
X35539Y52853D1*
X35131Y52847D1*
X34739Y52853D1*
X34331Y52847D1*
X33939Y52853D1*
X33531Y52847D1*
X33139Y52853D1*
X32731Y52847D1*
X32339Y52853D1*
X31931Y52847D1*
X31539Y52853D1*
X31131Y52847D1*
X30739Y52853D1*
X30475Y52847D1*
X30481Y52189D1*
X30475Y51797D1*
X30481Y51389D1*
X30475Y50997D1*
X30481Y50589D1*
X30475Y50197D1*
X30481Y49789D1*
X30475Y49397D1*
X30481Y49333D1*
X31635Y49339D1*
X32179D1*
X31968Y49510D1*
X31847Y49669D1*
X31760Y49849D1*
X31711Y50043D1*
X31701Y50242D1*
X31730Y50439D1*
X31798Y50627D1*
X31902Y50798D1*
X32038Y50944D1*
X32200Y51061D1*
X32382Y51143D1*
X32576Y51188D1*
X32776Y51193D1*
X32973Y51159D1*
X33159Y51086D1*
X33367Y50939D1*
X36359D1*
X36315Y51126D1*
X36304Y51325D1*
X36334Y51523D1*
X36402Y51710D1*
X36506Y51881D1*
X36642Y52027D1*
X36804Y52144D1*
X36985Y52227D1*
X37180Y52271D1*
X37380Y52277D1*
X37582Y52240D1*
X37574Y52436D1*
X37604Y52634D1*
X37688Y52848D1*
X36331Y52847D1*
X34731D1*
X33131D1*
X31531D1*
X30731D1*
X29939Y53391D2*
Y55291D1*
X29724Y55293D1*
X29596Y55196D1*
X29418Y55105D1*
X29226Y55051D1*
X29027Y55036D1*
X28829Y55061D1*
X28639Y55124D1*
X28466Y55224D1*
X28317Y55356D1*
X28196Y55515D1*
X28109Y55695D1*
X28060Y55888D1*
X28051Y56109D1*
Y53383D1*
X28989Y53389D1*
X29945D1*
X67573Y6151D2*
X67535Y5954D1*
X67471Y5765D1*
X67384Y5585D1*
X67274Y5418D1*
X67143Y5267D1*
X66994Y5134D1*
X66829Y5021D1*
X66651Y4930D1*
X66463Y4863D1*
X66268Y4821D1*
X66068Y4804D1*
X65869Y4814D1*
X65672Y4848D1*
X65481Y4908D1*
X65300Y4993D1*
X65131Y5099D1*
X64977Y5227D1*
X64841Y5374D1*
X64725Y5536D1*
X64631Y5713D1*
X64561Y5900D1*
X64515Y6094D1*
X64495Y6293D1*
X64501Y6493D1*
X64532Y6690D1*
X64588Y6882D1*
X64669Y7065D1*
X64773Y7236D1*
X64898Y7392D1*
X65042Y7530D1*
X65157Y7616D1*
X64977Y7767D1*
X64841Y7914D1*
X64725Y8076D1*
X64631Y8253D1*
X64561Y8440D1*
X64515Y8634D1*
X64495Y8833D1*
X64501Y9033D1*
X64532Y9230D1*
X64588Y9422D1*
X64669Y9605D1*
X64773Y9776D1*
X64898Y9932D1*
X65042Y10070D1*
X65157Y10156D1*
X64977Y10307D1*
X64841Y10454D1*
X64725Y10616D1*
X64631Y10793D1*
X64561Y10980D1*
X64515Y11174D1*
X64495Y11373D1*
X64501Y11573D1*
X64532Y11770D1*
X64588Y11962D1*
X64669Y12145D1*
X64773Y12316D1*
X64898Y12472D1*
X65042Y12610D1*
X65157Y12696D1*
X64977Y12847D1*
X64841Y12994D1*
X64725Y13156D1*
X64631Y13333D1*
X64561Y13520D1*
X64515Y13714D1*
X64495Y13913D1*
X64501Y14113D1*
X64532Y14310D1*
X64588Y14502D1*
X64669Y14685D1*
X64773Y14856D1*
X64898Y15012D1*
X65042Y15150D1*
X65157Y15236D1*
X64977Y15387D1*
X64841Y15534D1*
X64725Y15696D1*
X64631Y15873D1*
X64561Y16060D1*
X64515Y16254D1*
X64495Y16453D1*
X64501Y16653D1*
X64532Y16850D1*
X64588Y17042D1*
X64669Y17225D1*
X64773Y17396D1*
X64898Y17552D1*
X65042Y17690D1*
X65157Y17776D1*
X64977Y17927D1*
X64841Y18074D1*
X64725Y18236D1*
X64631Y18413D1*
X64561Y18600D1*
X64515Y18794D1*
X64495Y18993D1*
X64501Y19193D1*
X64532Y19390D1*
X64588Y19582D1*
X64669Y19765D1*
X64773Y19936D1*
X64898Y20092D1*
X65042Y20230D1*
X65157Y20316D1*
X64977Y20467D1*
X64841Y20614D1*
X64725Y20776D1*
X64631Y20953D1*
X64561Y21140D1*
X64515Y21334D1*
X64495Y21533D1*
X64501Y21733D1*
X64532Y21930D1*
X64588Y22122D1*
X64669Y22305D1*
X64773Y22476D1*
X64898Y22632D1*
X65042Y22770D1*
X65157Y22856D1*
X64977Y23007D1*
X64841Y23154D1*
X64725Y23316D1*
X64631Y23493D1*
X64561Y23680D1*
X64515Y23874D1*
X64495Y24073D1*
X64501Y24273D1*
X64532Y24470D1*
X64588Y24662D1*
X64669Y24845D1*
X64773Y25016D1*
X64898Y25172D1*
X65042Y25310D1*
X65202Y25429D1*
X65377Y25527D1*
X65563Y25600D1*
X65756Y25650D1*
X65955Y25674D1*
X66155Y25672D1*
X66352Y25644D1*
X66545Y25591D1*
X66729Y25514D1*
X66902Y25413D1*
X67061Y25291D1*
X67202Y25150D1*
X67324Y24992D1*
X67424Y24819D1*
X67501Y24634D1*
X67554Y24442D1*
X67586Y24130D1*
X67573Y23931D1*
X67535Y23734D1*
X67471Y23545D1*
X67384Y23365D1*
X67274Y23198D1*
X67143Y23047D1*
X66917Y22861D1*
X67061Y22751D1*
X67202Y22610D1*
X67324Y22452D1*
X67424Y22279D1*
X67501Y22094D1*
X67554Y21902D1*
X67586Y21590D1*
X67573Y21391D1*
X67535Y21194D1*
X67471Y21005D1*
X67384Y20825D1*
X67274Y20658D1*
X67143Y20507D1*
X66917Y20321D1*
X67061Y20211D1*
X67202Y20070D1*
X67324Y19912D1*
X67424Y19739D1*
X67501Y19554D1*
X67554Y19362D1*
X67586Y19050D1*
X67573Y18851D1*
X67535Y18654D1*
X67471Y18465D1*
X67384Y18285D1*
X67274Y18118D1*
X67143Y17967D1*
X66917Y17781D1*
X67061Y17671D1*
X67202Y17530D1*
X67324Y17372D1*
X67424Y17199D1*
X67501Y17014D1*
X67554Y16822D1*
X67586Y16510D1*
X67573Y16311D1*
X67535Y16114D1*
X67471Y15925D1*
X67384Y15745D1*
X67274Y15578D1*
X67143Y15427D1*
X66917Y15241D1*
X67061Y15131D1*
X67202Y14990D1*
X67324Y14832D1*
X67424Y14659D1*
X67501Y14474D1*
X67554Y14282D1*
X67586Y13970D1*
X67573Y13771D1*
X67535Y13574D1*
X67471Y13385D1*
X67384Y13205D1*
X67274Y13038D1*
X67143Y12887D1*
X66917Y12701D1*
X67061Y12591D1*
X67202Y12450D1*
X67324Y12292D1*
X67424Y12119D1*
X67501Y11934D1*
X67554Y11742D1*
X67586Y11430D1*
X67573Y11231D1*
X67535Y11034D1*
X67471Y10845D1*
X67384Y10665D1*
X67274Y10498D1*
X67143Y10347D1*
X66917Y10161D1*
X67061Y10051D1*
X67202Y9910D1*
X67324Y9752D1*
X67424Y9579D1*
X67501Y9394D1*
X67554Y9202D1*
X67586Y8890D1*
X67573Y8691D1*
X67535Y8494D1*
X67471Y8305D1*
X67384Y8125D1*
X67274Y7958D1*
X67143Y7807D1*
X66917Y7621D1*
X67061Y7511D1*
X67202Y7370D1*
X67324Y7212D1*
X67424Y7039D1*
X67501Y6854D1*
X67554Y6662D1*
X67586Y6350D1*
X67573Y6151D1*
X47181Y60750D2*
X47187Y61286D1*
X47181Y61350D1*
X46777Y61344D1*
X46475Y61371D1*
X46291Y61449D1*
X46135Y61573D1*
X46017Y61733D1*
X45940Y61947D1*
X45926Y62290D1*
Y62909D1*
X44072Y62913D1*
X43498D1*
X43300Y62939D1*
X43116Y63017D1*
X42970Y63131D1*
X42356Y63746D1*
X41572Y63744D1*
X41567Y63694D1*
X41573Y63286D1*
X41567Y62894D1*
X41573Y62486D1*
X41567Y62094D1*
X41573Y61686D1*
X41567Y60494D1*
X41573Y60086D1*
X41567Y59694D1*
X41573Y59680D1*
X41981Y59686D1*
X42373Y59680D1*
X42781Y59686D1*
X43173Y59680D1*
X43581Y59686D1*
X43887D1*
X43825Y59822D1*
X43776Y60016D1*
X43766Y60215D1*
X43795Y60413D1*
X43863Y60600D1*
X43967Y60771D1*
X44103Y60917D1*
X44265Y61034D1*
X44447Y61117D1*
X44641Y61161D1*
X44841Y61167D1*
X45038Y61132D1*
X45224Y61060D1*
X45392Y60952D1*
X45535Y60812D1*
X45647Y60648D1*
X45684Y60561D1*
X45849Y60759D1*
X46011Y60875D1*
X46193Y60958D1*
X46388Y61003D1*
X46587Y61008D1*
X46784Y60973D1*
X46970Y60901D1*
X47178Y60754D1*
X47181Y61345D1*
X49973Y63705D2*
X49967Y62886D1*
X49973Y62486D1*
Y61235D1*
X50193D1*
X50390Y61201D1*
X50570Y61116D1*
X50722Y60987D1*
X50833Y60822D1*
X50897Y60633D1*
X41567Y63686D2*
X41573Y63286D1*
Y60486D1*
Y59686D1*
X42381D1*
X43181D1*
X43781D1*
X4971Y40600D2*
X4943Y40322D1*
X4872Y40051D1*
X4760Y39795D1*
X4609Y39559D1*
X4424Y39349D1*
X4208Y39171D1*
X3968Y39028D1*
X3708Y38925D1*
X3435Y38863D1*
X3156Y38844D1*
X2878Y38869D1*
X2606Y38936D1*
X2348Y39045D1*
X2111Y39193D1*
X1899Y39376D1*
X1718Y39589D1*
X1573Y39828D1*
X1466Y40087D1*
X1401Y40359D1*
X1379Y40638D1*
X1400Y40917D1*
X1465Y41189D1*
X1571Y41448D1*
X1716Y41687D1*
X1896Y41901D1*
X2107Y42084D1*
X2344Y42232D1*
X2602Y42342D1*
X2873Y42410D1*
X3152Y42436D1*
X3431Y42418D1*
X3704Y42356D1*
X3964Y42254D1*
X4205Y42112D1*
X4421Y41934D1*
X4606Y41725D1*
X4758Y41489D1*
X4870Y41233D1*
X4942Y40963D1*
X4970Y40685D1*
X4971Y40600D1*
Y62830D2*
X4943Y62552D1*
X4872Y62281D1*
X4760Y62025D1*
X4609Y61789D1*
X4424Y61579D1*
X4208Y61401D1*
X3968Y61258D1*
X3708Y61155D1*
X3435Y61093D1*
X3156Y61074D1*
X2878Y61099D1*
X2606Y61166D1*
X2348Y61275D1*
X2111Y61423D1*
X1899Y61606D1*
X1718Y61819D1*
X1573Y62058D1*
X1466Y62317D1*
X1401Y62589D1*
X1379Y62868D1*
X1400Y63147D1*
X1465Y63419D1*
X1571Y63678D1*
X1716Y63917D1*
X1896Y64131D1*
X2107Y64314D1*
X2344Y64462D1*
X2602Y64572D1*
X2873Y64640D1*
X3152Y64666D1*
X3431Y64648D1*
X3704Y64586D1*
X3964Y64484D1*
X4205Y64342D1*
X4421Y64164D1*
X4606Y63955D1*
X4758Y63719D1*
X4870Y63463D1*
X4942Y63193D1*
X4970Y62915D1*
X4971Y62830D1*
X17660Y76635D2*
X17627Y76438D1*
X17572Y76246D1*
X17496Y76061D1*
X17400Y75886D1*
X17285Y75722D1*
X17152Y75573D1*
X17004Y75438D1*
X16842Y75322D1*
X16668Y75223D1*
X16484Y75145D1*
X16292Y75088D1*
X16096Y75053D1*
X15896Y75039D1*
X15696Y75048D1*
X15499Y75079D1*
X15306Y75131D1*
X15120Y75205D1*
X14944Y75299D1*
X14779Y75412D1*
X14628Y75543D1*
X14492Y75689D1*
X14373Y75850D1*
X14273Y76023D1*
X14193Y76206D1*
X14133Y76397D1*
X14095Y76593D1*
X14080Y76793D1*
X14086Y76992D1*
X14114Y77190D1*
X14165Y77384D1*
X14236Y77570D1*
X14328Y77748D1*
X14439Y77914D1*
X14568Y78067D1*
X14713Y78205D1*
X14873Y78325D1*
X15044Y78427D1*
X15227Y78510D1*
X15417Y78572D1*
X15612Y78612D1*
X15812Y78630D1*
X16011Y78626D1*
X16210Y78600D1*
X16404Y78551D1*
X16591Y78482D1*
X16770Y78392D1*
X16937Y78283D1*
X17092Y78156D1*
X17231Y78013D1*
X17353Y77855D1*
X17458Y77684D1*
X17542Y77503D1*
X17606Y77314D1*
X17649Y77118D1*
X17671Y76835D1*
X17660Y76635D1*
X4971Y76795D2*
X4943Y76517D1*
X4872Y76246D1*
X4760Y75990D1*
X4609Y75754D1*
X4424Y75544D1*
X4208Y75366D1*
X3968Y75223D1*
X3708Y75120D1*
X3435Y75058D1*
X3156Y75039D1*
X2878Y75064D1*
X2606Y75131D1*
X2348Y75240D1*
X2111Y75388D1*
X1899Y75571D1*
X1718Y75784D1*
X1573Y76023D1*
X1466Y76282D1*
X1401Y76554D1*
X1379Y76833D1*
X1400Y77112D1*
X1465Y77384D1*
X1571Y77643D1*
X1716Y77882D1*
X1896Y78096D1*
X2107Y78279D1*
X2344Y78427D1*
X2602Y78537D1*
X2873Y78605D1*
X3152Y78631D1*
X3431Y78613D1*
X3704Y78551D1*
X3964Y78449D1*
X4205Y78307D1*
X4421Y78129D1*
X4606Y77920D1*
X4758Y77684D1*
X4870Y77428D1*
X4942Y77158D1*
X4970Y76880D1*
X4971Y76795D1*
Y99025D2*
X4943Y98747D1*
X4872Y98476D1*
X4760Y98220D1*
X4609Y97984D1*
X4424Y97774D1*
X4208Y97596D1*
X3968Y97453D1*
X3708Y97350D1*
X3435Y97288D1*
X3156Y97269D1*
X2878Y97294D1*
X2606Y97361D1*
X2348Y97470D1*
X2111Y97618D1*
X1899Y97801D1*
X1718Y98014D1*
X1573Y98253D1*
X1466Y98512D1*
X1401Y98784D1*
X1379Y99063D1*
X1400Y99342D1*
X1465Y99614D1*
X1571Y99873D1*
X1716Y100112D1*
X1896Y100326D1*
X2107Y100509D1*
X2344Y100657D1*
X2602Y100767D1*
X2873Y100835D1*
X3152Y100861D1*
X3431Y100843D1*
X3704Y100781D1*
X3964Y100679D1*
X4205Y100537D1*
X4421Y100359D1*
X4606Y100150D1*
X4758Y99914D1*
X4870Y99658D1*
X4942Y99388D1*
X4970Y99110D1*
X4971Y99025D1*
X14111Y109180D2*
X14086Y108901D1*
X14024Y108629D1*
X13925Y108367D1*
X13791Y108121D1*
X13625Y107896D1*
X13430Y107696D1*
X13209Y107524D1*
X12967Y107383D1*
X12708Y107278D1*
X12437Y107208D1*
X12159Y107176D1*
X11879Y107182D1*
X11603Y107227D1*
X11335Y107309D1*
X11081Y107426D1*
X10846Y107577D1*
X10633Y107759D1*
X10447Y107968D1*
X10291Y108200D1*
X10169Y108452D1*
X10082Y108718D1*
X10032Y108993D1*
X10020Y109272D1*
X10046Y109551D1*
X10110Y109823D1*
X10211Y110084D1*
X10346Y110329D1*
X10513Y110553D1*
X10710Y110753D1*
X10931Y110923D1*
X11174Y111062D1*
X11434Y111166D1*
X11705Y111234D1*
X11983Y111264D1*
X12263Y111256D1*
X12539Y111210D1*
X12806Y111127D1*
X13059Y111008D1*
X13294Y110856D1*
X13506Y110673D1*
X13690Y110463D1*
X13845Y110229D1*
X13966Y109977D1*
X14051Y109711D1*
X14100Y109435D1*
X14111Y109180D1*
X24111D2*
X24086Y108901D1*
X24024Y108629D1*
X23925Y108367D1*
X23791Y108121D1*
X23625Y107896D1*
X23430Y107696D1*
X23209Y107524D1*
X22967Y107383D1*
X22708Y107278D1*
X22437Y107208D1*
X22159Y107176D1*
X21879Y107182D1*
X21603Y107227D1*
X21335Y107309D1*
X21081Y107426D1*
X20846Y107577D1*
X20633Y107759D1*
X20447Y107968D1*
X20291Y108200D1*
X20169Y108452D1*
X20082Y108718D1*
X20032Y108993D1*
X20020Y109272D1*
X20046Y109551D1*
X20110Y109823D1*
X20210Y110084D1*
X20346Y110329D1*
X20513Y110553D1*
X20710Y110753D1*
X20931Y110923D1*
X21174Y111062D1*
X21434Y111166D1*
X21705Y111234D1*
X21983Y111264D1*
X22263Y111256D1*
X22539Y111210D1*
X22806Y111127D1*
X23059Y111008D1*
X23294Y110856D1*
X23506Y110673D1*
X23690Y110463D1*
X23845Y110229D1*
X23966Y109977D1*
X24051Y109711D1*
X24100Y109435D1*
X24111Y109180D1*
X34111D2*
X34086Y108901D1*
X34024Y108629D1*
X33925Y108367D1*
X33791Y108121D1*
X33625Y107896D1*
X33430Y107696D1*
X33209Y107524D1*
X32967Y107383D1*
X32708Y107278D1*
X32437Y107208D1*
X32159Y107176D1*
X31879Y107182D1*
X31603Y107227D1*
X31335Y107309D1*
X31081Y107426D1*
X30846Y107577D1*
X30633Y107759D1*
X30447Y107968D1*
X30291Y108200D1*
X30169Y108452D1*
X30082Y108718D1*
X30032Y108993D1*
X30020Y109272D1*
X30046Y109551D1*
X30110Y109823D1*
X30210Y110084D1*
X30346Y110329D1*
X30513Y110553D1*
X30710Y110753D1*
X30931Y110923D1*
X31174Y111062D1*
X31434Y111166D1*
X31705Y111234D1*
X31983Y111264D1*
X32263Y111256D1*
X32539Y111210D1*
X32806Y111127D1*
X33059Y111008D1*
X33294Y110856D1*
X33506Y110673D1*
X33690Y110463D1*
X33845Y110229D1*
X33966Y109977D1*
X34051Y109711D1*
X34100Y109435D1*
X34111Y109180D1*
X18758Y17423D2*
X18729Y17185D1*
X18656Y16957D1*
X18542Y16746D1*
X18392Y16559D1*
X18210Y16404D1*
X18002Y16284D1*
X17776Y16205D1*
X17721Y16193D1*
X17944Y16126D1*
X18123Y16038D1*
X18287Y15923D1*
X18431Y15785D1*
X18552Y15626D1*
X18647Y15450D1*
X18714Y15262D1*
X18751Y15066D1*
X18759Y14923D1*
X18744Y14724D1*
X18698Y14529D1*
X18623Y14344D1*
X18520Y14173D1*
X18392Y14019D1*
X18242Y13887D1*
X18074Y13780D1*
X17891Y13700D1*
X17716Y13653D1*
X17944Y13586D1*
X18123Y13498D1*
X18287Y13383D1*
X18431Y13245D1*
X18552Y13086D1*
X18647Y12910D1*
X18714Y12722D1*
X18751Y12526D1*
X18759Y12383D1*
X18744Y12184D1*
X18698Y11989D1*
X18623Y11804D1*
X18520Y11633D1*
X18392Y11479D1*
X18242Y11347D1*
X18074Y11240D1*
X17891Y11160D1*
X17716Y11113D1*
X17944Y11046D1*
X18123Y10958D1*
X18287Y10844D1*
X18431Y10705D1*
X18552Y10546D1*
X18647Y10370D1*
X18714Y10182D1*
X18751Y9986D1*
X18759Y9843D1*
X18744Y9644D1*
X18698Y9449D1*
X18630Y9282D1*
X19076Y9725D1*
X19074Y18751D1*
X17814Y18757D1*
X17792Y18717D1*
X18017Y18634D1*
X18223Y18512D1*
X18404Y18354D1*
X18552Y18166D1*
X18663Y17953D1*
X18732Y17724D1*
X18759Y17486D1*
X18758Y17423D1*
X77450Y74508D2*
X77598Y74702D1*
X77742Y74840D1*
X77857Y74926D1*
X77677Y75077D1*
X77541Y75224D1*
X77425Y75386D1*
X77331Y75563D1*
X77261Y75750D1*
X77215Y75944D1*
X77195Y76143D1*
X77201Y76343D1*
X77232Y76540D1*
X77288Y76732D1*
X77369Y76915D1*
X77473Y77086D1*
X77598Y77242D1*
X77742Y77380D1*
X77857Y77466D1*
X77677Y77617D1*
X77541Y77764D1*
X77425Y77926D1*
X77331Y78103D1*
X77261Y78290D1*
X77215Y78484D1*
X77195Y78683D1*
X77201Y78883D1*
X77232Y79080D1*
X77288Y79272D1*
X77369Y79455D1*
X77473Y79626D1*
X77598Y79782D1*
X77742Y79920D1*
X77857Y80006D1*
X77677Y80157D1*
X77541Y80304D1*
X77425Y80466D1*
X77331Y80643D1*
X77261Y80830D1*
X77215Y81024D1*
X77195Y81223D1*
X77201Y81423D1*
X77232Y81620D1*
X77288Y81812D1*
X77369Y81995D1*
X77473Y82166D1*
X77598Y82322D1*
X77742Y82460D1*
X77857Y82546D1*
X77677Y82697D1*
X77541Y82844D1*
X77425Y83006D1*
X77331Y83183D1*
X77261Y83370D1*
X77215Y83564D1*
X77195Y83763D1*
X77201Y83963D1*
X77232Y84160D1*
X77288Y84352D1*
X77369Y84535D1*
X77473Y84706D1*
X77598Y84862D1*
X77742Y85000D1*
X77857Y85086D1*
X77649Y85265D1*
X77492Y85447D1*
X77366Y85651D1*
X77273Y85872D1*
X77215Y86104D1*
X77194Y86343D1*
X77210Y86582D1*
X77263Y86816D1*
X77351Y87039D1*
X77473Y87246D1*
X77625Y87431D1*
X77804Y87590D1*
X77860Y87631D1*
X77677Y87777D1*
X77541Y87924D1*
X77425Y88086D1*
X77331Y88263D1*
X77261Y88450D1*
X77215Y88644D1*
X77194Y88856D1*
X77154Y88817D1*
X77158Y87171D1*
Y74502D1*
X77444Y74506D1*
X67573Y27741D2*
X67535Y27544D1*
X67471Y27355D1*
X67384Y27175D1*
X67274Y27008D1*
X67143Y26857D1*
X66994Y26724D1*
X66829Y26611D1*
X66651Y26520D1*
X66463Y26453D1*
X66268Y26411D1*
X66068Y26394D1*
X65869Y26403D1*
X65672Y26438D1*
X65481Y26498D1*
X65300Y26583D1*
X65131Y26689D1*
X64977Y26817D1*
X64841Y26964D1*
X64725Y27126D1*
X64631Y27303D1*
X64561Y27490D1*
X64515Y27684D1*
X64495Y27883D1*
X64501Y28083D1*
X64532Y28280D1*
X64588Y28472D1*
X64669Y28655D1*
X64773Y28826D1*
X64898Y28982D1*
X65042Y29120D1*
X65157Y29206D1*
X64977Y29357D1*
X64841Y29504D1*
X64687Y29738D1*
X62840Y29734D1*
X60046D1*
X59917Y29638D1*
X59739Y29546D1*
X59547Y29492D1*
X59348Y29477D1*
X59150Y29502D1*
X58961Y29566D1*
X58788Y29665D1*
X58638Y29797D1*
X58517Y29956D1*
X58430Y30136D1*
X58381Y30330D1*
X58371Y30529D1*
X58400Y30726D1*
X58468Y30914D1*
X58572Y31085D1*
X58708Y31231D1*
X58870Y31348D1*
X59052Y31430D1*
X59246Y31475D1*
X59446Y31480D1*
X59643Y31446D1*
X59829Y31373D1*
X60037Y31226D1*
X64691D1*
X64773Y31366D1*
X64898Y31522D1*
X65042Y31660D1*
X65157Y31746D1*
X64977Y31897D1*
X64841Y32044D1*
X64725Y32206D1*
X64631Y32383D1*
X64561Y32570D1*
X64515Y32764D1*
X64495Y32963D1*
X64501Y33163D1*
X64532Y33360D1*
X64588Y33552D1*
X64669Y33735D1*
X64773Y33906D1*
X64898Y34062D1*
X65042Y34200D1*
X65157Y34286D1*
X64977Y34437D1*
X64841Y34584D1*
X64725Y34746D1*
X64631Y34923D1*
X64561Y35110D1*
X64515Y35304D1*
X64495Y35503D1*
X64501Y35703D1*
X64532Y35900D1*
X64588Y36092D1*
X64669Y36275D1*
X64773Y36446D1*
X64898Y36602D1*
X65042Y36740D1*
X65157Y36826D1*
X64977Y36977D1*
X64841Y37124D1*
X64725Y37286D1*
X64631Y37463D1*
X64561Y37650D1*
X64515Y37844D1*
X64495Y38043D1*
X64501Y38243D1*
X64532Y38440D1*
X64588Y38632D1*
X64669Y38815D1*
X64773Y38986D1*
X64898Y39142D1*
X65042Y39280D1*
X65157Y39366D1*
X64977Y39517D1*
X64841Y39664D1*
X64725Y39826D1*
X64631Y40003D1*
X64561Y40190D1*
X64515Y40384D1*
X64495Y40583D1*
X64501Y40783D1*
X64532Y40980D1*
X64588Y41172D1*
X64669Y41355D1*
X64773Y41526D1*
X64898Y41682D1*
X65042Y41820D1*
X65157Y41906D1*
X64977Y42057D1*
X64841Y42204D1*
X64725Y42366D1*
X64631Y42543D1*
X64561Y42730D1*
X64515Y42924D1*
X64495Y43123D1*
X64501Y43323D1*
X64532Y43520D1*
X64588Y43712D1*
X64669Y43895D1*
X64773Y44066D1*
X64898Y44222D1*
X65042Y44360D1*
X65157Y44446D1*
X64977Y44597D1*
X64841Y44744D1*
X64725Y44906D1*
X64631Y45083D1*
X64561Y45270D1*
X64515Y45464D1*
X64495Y45663D1*
X64501Y45863D1*
X64532Y46060D1*
X64588Y46252D1*
X64669Y46435D1*
X64773Y46606D1*
X64898Y46762D1*
X65042Y46900D1*
X65202Y47019D1*
X65377Y47117D1*
X65563Y47190D1*
X65756Y47240D1*
X65955Y47264D1*
X66155Y47262D1*
X66352Y47234D1*
X66545Y47181D1*
X66729Y47104D1*
X66902Y47003D1*
X67061Y46881D1*
X67202Y46740D1*
X67324Y46582D1*
X67424Y46409D1*
X67501Y46224D1*
X67554Y46032D1*
X67586Y45720D1*
X67573Y45521D1*
X67535Y45324D1*
X67471Y45135D1*
X67384Y44955D1*
X67274Y44788D1*
X67143Y44637D1*
X66917Y44451D1*
X67061Y44341D1*
X67202Y44200D1*
X67324Y44042D1*
X67424Y43869D1*
X67501Y43684D1*
X67554Y43492D1*
X67586Y43180D1*
X67573Y42981D1*
X67535Y42784D1*
X67471Y42595D1*
X67384Y42415D1*
X67274Y42248D1*
X67143Y42097D1*
X66917Y41911D1*
X67061Y41801D1*
X67202Y41660D1*
X67324Y41502D1*
X67424Y41329D1*
X67501Y41144D1*
X67554Y40952D1*
X67586Y40640D1*
X67573Y40441D1*
X67535Y40244D1*
X67471Y40055D1*
X67384Y39875D1*
X67274Y39708D1*
X67143Y39557D1*
X66917Y39371D1*
X67061Y39261D1*
X67202Y39120D1*
X67324Y38962D1*
X67424Y38789D1*
X67501Y38604D1*
X67554Y38412D1*
X67586Y38100D1*
X67573Y37901D1*
X67535Y37704D1*
X67471Y37515D1*
X67384Y37335D1*
X67274Y37168D1*
X67143Y37017D1*
X66917Y36831D1*
X67061Y36721D1*
X67202Y36580D1*
X67324Y36422D1*
X67424Y36249D1*
X67501Y36064D1*
X67554Y35872D1*
X67586Y35560D1*
X67573Y35361D1*
X67535Y35164D1*
X67471Y34975D1*
X67384Y34795D1*
X67274Y34628D1*
X67143Y34477D1*
X66917Y34291D1*
X67061Y34181D1*
X67202Y34040D1*
X67324Y33882D1*
X67424Y33709D1*
X67501Y33524D1*
X67554Y33332D1*
X67586Y33020D1*
X67573Y32821D1*
X67535Y32624D1*
X67471Y32435D1*
X67384Y32255D1*
X67274Y32088D1*
X67143Y31937D1*
X66917Y31751D1*
X67061Y31641D1*
X67202Y31500D1*
X67324Y31342D1*
X67424Y31169D1*
X67501Y30984D1*
X67554Y30792D1*
X67586Y30480D1*
X67573Y30281D1*
X67535Y30084D1*
X67471Y29895D1*
X67384Y29715D1*
X67274Y29548D1*
X67143Y29397D1*
X66917Y29211D1*
X67061Y29101D1*
X67202Y28960D1*
X67324Y28802D1*
X67424Y28629D1*
X67501Y28444D1*
X67554Y28252D1*
X67586Y27940D1*
X67573Y27741D1*
X45645Y89812D2*
X45622Y89614D1*
X45566Y89422D1*
X45479Y89243D1*
X45363Y89080D1*
X45222Y88939D1*
X45059Y88823D1*
X44879Y88736D1*
X44687Y88680D1*
X44489Y88657D1*
X44289Y88667D1*
X44094Y88711D1*
X43909Y88786D1*
X43739Y88891D1*
X43589Y89022D1*
X43463Y89177D1*
X43364Y89351D1*
X43296Y89539D1*
X43260Y89735D1*
X43257Y89935D1*
X43287Y90133D1*
X43350Y90322D1*
X43444Y90499D1*
X43565Y90657D1*
X43711Y90793D1*
X43794Y90852D1*
X43617Y90994D1*
X43486Y91145D1*
X43382Y91315D1*
X43307Y91500D1*
X43264Y91696D1*
X43255Y91895D1*
X43279Y92094D1*
X43335Y92285D1*
X43423Y92465D1*
X43539Y92627D1*
X43680Y92768D1*
X43798Y92851D1*
X43617Y92994D1*
X43486Y93145D1*
X43382Y93315D1*
X43307Y93500D1*
X43264Y93696D1*
X43255Y93895D1*
X43279Y94094D1*
X43335Y94285D1*
X43423Y94465D1*
X43539Y94627D1*
X43680Y94768D1*
X43844Y94883D1*
X44024Y94970D1*
X44215Y95025D1*
X44414Y95048D1*
X44613Y95037D1*
X44808Y94994D1*
X44993Y94918D1*
X45163Y94813D1*
X45313Y94681D1*
X45439Y94525D1*
X45537Y94351D1*
X45605Y94164D1*
X45646Y93853D1*
X45629Y93653D1*
X45580Y93460D1*
X45499Y93277D1*
X45388Y93111D1*
X45252Y92965D1*
X45108Y92855D1*
X45313Y92681D1*
X45439Y92525D1*
X45537Y92351D1*
X45605Y92164D1*
X45646Y91853D1*
X45629Y91653D1*
X45580Y91460D1*
X45499Y91277D1*
X45388Y91111D1*
X45252Y90965D1*
X45108Y90855D1*
X45285Y90709D1*
X45416Y90558D1*
X45520Y90388D1*
X45594Y90202D1*
X45636Y90007D1*
X45645Y89812D1*
X49809Y50037D2*
X49916D1*
X49863Y50144D1*
X49814Y50337D1*
X49804Y50537D1*
X49833Y50734D1*
X49901Y50922D1*
X50005Y51092D1*
X50141Y51239D1*
X50303Y51356D1*
X50485Y51438D1*
X50679Y51483D1*
X50879Y51488D1*
X51075Y51454D1*
X51261Y51381D1*
X51429Y51273D1*
X51572Y51134D1*
X51685Y50969D1*
X51763Y50785D1*
X51803Y50590D1*
X51808Y50488D1*
X51788Y50289D1*
X51730Y50098D1*
X51697Y50038D1*
X53901Y50037D1*
Y47445D1*
X49609D1*
Y50037D1*
X49809D1*
X77041Y10198D2*
X77473Y9776D1*
X77598Y9932D1*
X77742Y10070D1*
X77857Y10156D1*
X77677Y10307D1*
X77541Y10454D1*
X77425Y10616D1*
X77331Y10793D1*
X77261Y10980D1*
X77215Y11174D1*
X77195Y11373D1*
X77201Y11573D1*
X77232Y11770D1*
X77288Y11962D1*
X77369Y12145D1*
X77473Y12316D1*
X77598Y12472D1*
X77742Y12610D1*
X77857Y12696D1*
X77677Y12847D1*
X77541Y12994D1*
X77425Y13156D1*
X77331Y13333D1*
X77261Y13520D1*
X77215Y13714D1*
X77195Y13913D1*
X77201Y14113D1*
X77046Y14100D1*
Y10188D1*
X79016Y97063D2*
X74137Y92184D1*
X75101Y92186D1*
X79641Y96730D1*
X79800Y96851D1*
X79985Y96925D1*
X80169Y96949D1*
X81125D1*
X81243Y97061D1*
X79011Y97062D1*
X29720Y56785D2*
X31376Y56786D1*
X30304Y57860D1*
X30077Y57978D1*
X29920Y58101D1*
X29784Y58248D1*
X29672Y58413D1*
X29587Y58594D1*
X29528Y58798D1*
X29466Y58586D1*
X29359Y58371D1*
X29214Y58180D1*
X29037Y58019D1*
X28833Y57894D1*
X28609Y57808D1*
X28374Y57764D1*
X28134Y57765D1*
X27899Y57810D1*
X27840Y57828D1*
X27973Y57640D1*
X28037Y57451D1*
X28051Y57109D1*
X28050Y56094D1*
X28079Y56285D1*
X28147Y56473D1*
X28251Y56643D1*
X28387Y56790D1*
X28549Y56907D1*
X28730Y56989D1*
X28925Y57034D1*
X29125Y57039D1*
X29321Y57005D1*
X29507Y56932D1*
X29716Y56785D1*
X36363Y50938D2*
X36315Y51126D1*
X36304Y51325D1*
X36334Y51523D1*
X36402Y51710D1*
X36506Y51881D1*
X36642Y52027D1*
X36804Y52144D1*
X36985Y52227D1*
X37180Y52271D1*
X37380Y52277D1*
X37582Y52240D1*
X20320Y44053D2*
D20*
Y42857D1*
X19025D2*
X21615D1*
X38100Y62435D2*
Y61340D1*
X37055Y62435D2*
X38100D1*
X44291Y48148D2*
Y47052D1*
X43246Y48148D2*
X44291D1*
X25876Y50370D2*
Y49275D1*
X24831Y50370D2*
X25876D1*
X20320Y45407D2*
Y44212D1*
X19025Y45407D2*
X21615D1*
X57150Y62785D2*
Y61590D1*
X55855D2*
X58445D1*
X57150Y64140D2*
Y62945D1*
X55855Y64140D2*
X58445D1*
X53340Y4650D2*
Y3555D1*
X52295Y4650D2*
X53340D1*
X84455Y88648D2*
Y84707D1*
X83210Y86678D2*
X85700D1*
X85090Y28999D2*
Y25059D1*
X83845Y27029D2*
X86335D1*
X84772Y50748D2*
Y46808D1*
X83527Y48778D2*
X86018D1*
X84772Y72338D2*
Y68398D1*
X83527Y70368D2*
X86018D1*
X57525Y26343D2*
Y22552D1*
Y24448D2*
X58870D1*
X31115Y4650D2*
Y3555D1*
X30070Y4650D2*
X31115D1*
X36252Y25390D2*
Y21600D1*
Y23495D2*
X37598D1*
X3550Y38275D2*
Y35385D1*
X2205Y36830D2*
X4895D1*
X12325Y38275D2*
Y35385D1*
X10980Y36830D2*
X13670D1*
X14605Y74084D2*
Y70144D1*
X13360Y72114D2*
X15850D1*
X8890Y72725D2*
Y70035D1*
X7445Y71380D2*
X10335D1*
X2915Y73200D2*
Y70310D1*
X1570Y71755D2*
X4260D1*
X2915Y70025D2*
Y67135D1*
X1570Y68580D2*
X4260D1*
X25759Y98400D2*
Y95910D1*
X23789Y97155D2*
X27729D1*
X24390Y93520D2*
Y90630D1*
X23045Y92075D2*
X25735D1*
X3380Y27080D2*
Y24990D1*
X2285Y26035D2*
X3380D1*
X29415Y77880D2*
Y75790D1*
X28320Y76835D2*
X29415D1*
X47261Y77404D2*
Y75314D1*
Y76359D2*
X48356D1*
X49735Y98518D2*
Y96427D1*
X48640Y97473D2*
X49735D1*
X56515Y98518D2*
Y96427D1*
X55420Y97473D2*
X56515D1*
X54610Y90057D2*
Y88962D1*
X53565Y90057D2*
X54610D1*
X63070Y95250D2*
Y94205D1*
X61975Y95250D2*
X63070D1*
X70055D2*
Y94205D1*
X68960Y95250D2*
X70055D1*
X29210Y80010D2*
Y78815D1*
X28015Y80010D2*
X29210D1*
X52070D2*
Y78815D1*
X50875Y80010D2*
X53265D1*
X43180Y85015D2*
Y83820D1*
X41985D2*
X44375D1*
X54565Y26255D2*
Y22765D1*
X52820Y24510D2*
X54565D1*
X34197Y24840D2*
Y22150D1*
X33252Y23495D2*
X34197D1*
X51117Y89853D2*
Y88657D1*
X49922Y89853D2*
X52313D1*
X51117Y100965D2*
Y99770D1*
X49922Y100965D2*
X51117D1*
X57785D2*
Y99770D1*
X56590Y100965D2*
X57785D1*
X64453D2*
Y99770D1*
X63257Y100965D2*
X64453D1*
X71120D2*
Y99770D1*
X69925Y100965D2*
X71120D1*
X84505Y100072D2*
X85725D1*
X85950Y95572D2*
Y94227D1*
Y95572D2*
X87195D1*
X85950Y103318D2*
Y101973D1*
X84705D2*
X87195D1*
X88400Y95022D2*
Y93327D1*
X87205Y95022D2*
X88400D1*
Y104218D2*
Y102522D1*
X87205D2*
X88400D1*
X74295Y114972D2*
Y113665D1*
X71755Y114972D2*
Y113665D1*
X69215Y114972D2*
Y113665D1*
X12220Y12415D2*
Y9175D1*
X11200Y10795D2*
X13240D1*
X55245Y4650D2*
Y3555D1*
X33020Y4650D2*
Y3555D1*
X69850Y98768D2*
Y97473D1*
X68655D2*
X69850D1*
X62870Y98768D2*
Y97473D1*
X61675D2*
X62870D1*
X20479Y51435D2*
Y50240D1*
X19184Y51435D2*
X21774D1*
X19685Y87630D2*
Y86435D1*
X18390Y87630D2*
X20980D1*
X30801Y104494D2*
Y101903D1*
X29606Y103198D2*
X30801D1*
X20799Y104494D2*
Y101904D1*
X19604Y103199D2*
X20799D1*
X10801Y104494D2*
Y101903D1*
X9606Y103198D2*
X10801D1*
X38990Y48593D2*
X41880D1*
X27590Y47793D2*
X30480D1*
X78740Y6350D2*
Y4805D1*
X77195Y6350D2*
X80285D1*
X77195Y21590D2*
X80285D1*
X28258Y60350D2*
Y57760D1*
X47182Y61290D2*
X49972D1*
X48577Y62890D2*
X49972D1*
X40177Y62090D2*
X41572D1*
X33179Y67652D2*
Y66357D1*
X57150Y16530D2*
Y13440D1*
X56305Y14985D2*
X57150D1*
X3175Y42435D2*
Y38845D1*
X1380Y40640D2*
X4970D1*
X3175Y64665D2*
Y61075D1*
X1380Y62870D2*
X4970D1*
X35242Y15240D2*
Y13695D1*
X34397Y15240D2*
X35242D1*
X3175Y78630D2*
Y75040D1*
X1380Y76835D2*
X4970D1*
X3175Y100860D2*
Y97270D1*
X1380Y99065D2*
X4970D1*
X12065Y111265D2*
Y107175D1*
X10020Y109220D2*
X14110D1*
X22065Y111265D2*
Y107175D1*
X20020Y109220D2*
X24110D1*
X32065Y111265D2*
Y107175D1*
X30020Y109220D2*
X34110D1*
X74612Y107590D2*
Y106045D1*
X73767D2*
X74612D1*
X33020Y37470D2*
Y36575D1*
X31975Y37470D2*
X34065D1*
X30420Y39370D2*
X31465D1*
X39370Y37470D2*
Y36575D1*
X38325Y37470D2*
X40415D1*
X36770Y40265D2*
Y39370D1*
X37815D1*
X10480Y24340D2*
Y23495D1*
X12025D1*
X16168Y17463D2*
X18758D1*
X44357Y72544D2*
X46448D1*
X48002Y70644D2*
Y69749D1*
X46957Y70644D2*
X48002D1*
X57626Y36354D2*
Y35009D1*
Y36354D2*
X58971D1*
X78740Y71120D2*
Y69575D1*
X77195Y71120D2*
X80285D1*
X77195Y86360D2*
X80285D1*
X78740Y27940D2*
Y26395D1*
X77195Y27940D2*
X80285D1*
X77195Y43180D2*
X80285D1*
X78740Y49530D2*
Y47985D1*
X77195Y49530D2*
X80285D1*
X77195Y64770D2*
X80285D1*
X44450Y89853D2*
Y88657D1*
X43255Y89853D2*
X45645D1*
X44450Y100965D2*
Y99770D1*
X43255Y100965D2*
X45645D1*
X52705Y50037D2*
Y47446D1*
Y48741D2*
X53901D1*
D23*
X20320Y40958D3*
Y42857D3*
D24*
X38100Y64135D3*
Y62435D3*
X44291Y49848D3*
Y48148D3*
X25876Y52070D3*
Y50370D3*
D23*
X20320Y47307D3*
Y45407D3*
X57150Y59690D3*
Y61590D3*
Y66040D3*
Y64140D3*
D24*
X53340Y6350D3*
Y4650D3*
D25*
X84455Y91481D3*
Y86678D3*
X85090Y22225D3*
Y27029D3*
X84772Y43974D3*
Y48778D3*
Y65564D3*
Y70368D3*
D26*
X60960Y17463D3*
X59260D3*
D27*
X60325Y24448D3*
X57525D3*
D28*
X48895Y6730D3*
Y3930D3*
D24*
X31115Y6350D3*
Y4650D3*
D26*
X39052Y18097D3*
X37352D3*
D27*
X39053Y23495D3*
X36253D3*
D28*
X26988Y6985D3*
Y4185D3*
D29*
X6350Y36830D3*
X3550D3*
X9525D3*
X12325D3*
D25*
X14605Y67310D3*
Y72114D3*
D30*
X8890Y68580D3*
Y71380D3*
D29*
X5715Y71755D3*
X2915D3*
X5715Y68580D3*
X2915D3*
D31*
X20955Y97155D3*
X25759D3*
D29*
X21590Y92075D3*
X24390D3*
D26*
X5080Y26035D3*
X3380D3*
X31115Y76835D3*
X29415D3*
X45561Y76359D3*
X47261D3*
X51435Y97473D3*
X49735D3*
X58215D3*
X56515D3*
D24*
X54610Y91757D3*
Y90057D3*
D26*
X64770Y95250D3*
X63070D3*
X71755D3*
X70055D3*
D32*
X50805Y48741D3*
X52705D3*
D33*
X29210Y80010D3*
Y82010D3*
Y84010D3*
X52070Y80010D3*
Y82010D3*
Y84010D3*
X36830Y80010D3*
Y82010D3*
Y84010D3*
X43180Y83820D3*
Y81820D3*
Y79820D3*
X29210Y29845D3*
Y31845D3*
Y33845D3*
X37465Y29845D3*
Y31845D3*
Y33845D3*
D34*
X50165Y24510D3*
X54565D3*
D35*
X30798Y23495D3*
X34197D3*
D36*
X14288Y7302D3*
X10888D3*
D32*
X35246Y103198D3*
X37146D3*
X25244D3*
X27144D3*
X15246D3*
X17146D3*
D23*
X34925Y74612D3*
Y76512D3*
X21273Y35560D3*
Y33660D3*
X43180Y28257D3*
Y30157D3*
Y35560D3*
Y33660D3*
X21273Y27940D3*
Y29840D3*
X34925Y89535D3*
Y87635D3*
D33*
X51117Y89853D3*
Y91853D3*
Y93853D3*
D37*
X48895Y19685D3*
Y10285D3*
X26988Y19685D3*
Y10285D3*
D38*
X44450Y4128D3*
D39*
X41910D3*
D38*
X22225D3*
D39*
X19685D3*
D38*
X13653D3*
D39*
X11112D3*
D33*
X51117Y100965D3*
Y102965D3*
Y104965D3*
X57785Y100965D3*
Y102965D3*
Y104965D3*
X64453Y100965D3*
Y102965D3*
Y104965D3*
X71120Y100965D3*
Y102965D3*
Y104965D3*
D40*
X85725Y97473D3*
Y98123D3*
Y98772D3*
Y99422D3*
Y100072D3*
D41*
X85950Y95572D3*
Y101973D3*
D42*
X88400Y95022D3*
Y102522D3*
D43*
Y97572D3*
Y99973D3*
D44*
X8732Y30007D3*
X10161Y28578D3*
D45*
X74295Y113665D3*
Y111125D3*
X71755Y113665D3*
Y111125D3*
D46*
X46355D3*
D45*
X48895D3*
X51435D3*
X53975D3*
X56515D3*
X59055D3*
X61595D3*
X64135D3*
X66675D3*
X69215D3*
Y113665D3*
X66675D3*
X64135D3*
X61595D3*
X59055D3*
X56515D3*
X53975D3*
X51435D3*
X48895D3*
X46355D3*
X76835Y111125D3*
Y113665D3*
D48*
X7620Y10795D3*
X9920D3*
X12220D3*
D49*
X9920Y16595D3*
D23*
X24130Y56039D3*
Y54139D3*
X46196Y51911D3*
Y53811D3*
X44133Y51911D3*
Y53811D3*
D32*
X46355Y48736D3*
X48255D3*
X61912Y5080D3*
X60012D3*
D24*
X55245Y6350D3*
Y4650D3*
D32*
X38735Y4445D3*
X36835D3*
D24*
X33020Y6350D3*
Y4650D3*
D32*
X69850Y97473D3*
X71750D3*
X64770D3*
X62870D3*
D23*
X20479Y51435D3*
Y53335D3*
X19685Y87630D3*
Y89530D3*
X4445Y14922D3*
Y13022D3*
D32*
X32701Y103198D3*
X30801D3*
X22699Y103199D3*
X20799D3*
X12701Y103198D3*
X10801D3*
D23*
X37148Y74612D3*
Y76513D3*
X23495Y35560D3*
Y33660D3*
X40958Y28258D3*
Y30157D3*
Y35555D3*
Y33655D3*
X23495Y27940D3*
Y29840D3*
X37147Y89535D3*
Y87635D3*
D33*
X85090Y76200D3*
Y78200D3*
Y80200D3*
Y82200D3*
D50*
X40435Y44593D3*
Y45393D3*
Y46193D3*
Y46993D3*
Y47793D3*
Y48593D3*
Y49393D3*
Y50193D3*
Y50993D3*
Y51793D3*
Y52593D3*
D51*
X38735Y54293D3*
X37935D3*
X37135D3*
X36335D3*
X35535D3*
X34735D3*
X33935D3*
X33135D3*
X32335D3*
X31535D3*
X30735D3*
D50*
X29035Y52593D3*
Y51793D3*
Y50993D3*
Y50193D3*
Y49393D3*
Y48593D3*
Y47793D3*
Y46993D3*
Y46193D3*
Y45393D3*
Y44593D3*
D51*
X30735Y42893D3*
X31535D3*
X32335D3*
X33135D3*
X33935D3*
X34735D3*
X35535D3*
X36335D3*
X37135D3*
X37935D3*
X38735D3*
D17*
X66040Y6350D3*
Y8890D3*
Y11430D3*
Y13970D3*
Y16510D3*
Y19050D3*
Y21590D3*
Y24130D3*
X78740Y6350D3*
Y8890D3*
Y11430D3*
Y13970D3*
Y16510D3*
Y19050D3*
Y21590D3*
Y24130D3*
D38*
X23178Y59055D3*
D39*
X25718D3*
X28258D3*
X30798D3*
X33338D3*
X35878D3*
D53*
X48577Y59690D3*
Y60490D3*
Y61290D3*
Y62090D3*
Y62890D3*
Y63690D3*
Y64490D3*
Y65290D3*
D54*
X47177Y66690D3*
X46377D3*
X45577D3*
X44777D3*
X43977D3*
X43177D3*
X42377D3*
X41577D3*
D53*
X40177Y65290D3*
Y64490D3*
Y63690D3*
Y62890D3*
Y62090D3*
Y61290D3*
Y60490D3*
Y59690D3*
D54*
X41577Y58290D3*
X42377D3*
X43177D3*
X43977D3*
X44777D3*
X45577D3*
X46377D3*
X47177D3*
D38*
X28099Y63817D3*
D39*
Y66357D3*
X30639Y63817D3*
Y66357D3*
X33179Y63817D3*
Y66357D3*
D55*
X60960Y14985D3*
X59690D3*
X58420D3*
X57150D3*
Y9585D3*
X58420D3*
X59690D3*
X60960D3*
D56*
X15875Y40640D3*
Y50160D3*
Y53340D3*
Y56520D3*
Y62870D3*
X3175Y40640D3*
Y62870D3*
D55*
X39052Y15240D3*
X37782D3*
X36512D3*
X35242D3*
Y9840D3*
X36512D3*
X37782D3*
X39052D3*
D56*
X15875Y76835D3*
Y86355D3*
Y89535D3*
Y92715D3*
Y99065D3*
X3175Y76835D3*
Y99065D3*
D38*
X51752Y53975D3*
D39*
X49212D3*
D57*
X12065Y109220D3*
X17065D3*
X22065D3*
X27065D3*
X32065D3*
X37065D3*
D55*
X82232Y106045D3*
X80962D3*
X79692D3*
X78422D3*
X77152D3*
X75882D3*
X74612D3*
Y100645D3*
X75882D3*
X77152D3*
X78422D3*
X79692D3*
X80962D3*
X82232D3*
D58*
X33020Y39370D3*
Y37470D3*
Y38420D3*
X30420Y39370D3*
Y37470D3*
Y38420D3*
X39370Y39370D3*
Y37470D3*
Y38420D3*
X36770Y39370D3*
Y37470D3*
Y38420D3*
D59*
X5080Y23495D3*
Y22225D3*
Y20955D3*
Y19685D3*
X10480D3*
Y20955D3*
Y22225D3*
Y23495D3*
D38*
X17463Y22543D3*
D39*
Y20003D3*
Y17463D3*
Y14923D3*
Y12383D3*
Y9843D3*
D58*
X45403Y70644D3*
Y72544D3*
Y71594D3*
X48003Y70644D3*
Y72544D3*
Y71594D3*
D60*
X57626Y38894D3*
D18*
X55086D3*
X52546D3*
X50006D3*
X57626Y36354D3*
X55086D3*
X52546D3*
X50006D3*
D17*
X66040Y71120D3*
Y73660D3*
Y76200D3*
Y78740D3*
Y81280D3*
Y83820D3*
Y86360D3*
Y88900D3*
X78740Y71120D3*
Y73660D3*
Y76200D3*
Y78740D3*
Y81280D3*
Y83820D3*
Y86360D3*
Y88900D3*
D33*
X85090Y11430D3*
Y13430D3*
Y15430D3*
Y17430D3*
D17*
X66040Y27940D3*
Y30480D3*
Y33020D3*
Y35560D3*
Y38100D3*
Y40640D3*
Y43180D3*
Y45720D3*
X78740Y27940D3*
Y30480D3*
Y33020D3*
Y35560D3*
Y38100D3*
Y40640D3*
Y43180D3*
Y45720D3*
D33*
X85090Y33020D3*
Y35020D3*
Y37020D3*
Y39020D3*
D17*
X66040Y49530D3*
Y52070D3*
Y54610D3*
Y57150D3*
Y59690D3*
Y62230D3*
Y64770D3*
Y67310D3*
X78740Y49530D3*
Y52070D3*
Y54610D3*
Y57150D3*
Y59690D3*
Y62230D3*
Y64770D3*
Y67310D3*
D33*
X85090Y54610D3*
Y56610D3*
Y58610D3*
Y60610D3*
X44450Y89853D3*
Y91853D3*
Y93853D3*
D39*
X24765Y46546D3*
Y41720D3*
X53340Y65405D3*
Y60579D3*
D33*
X44450Y100965D3*
Y102965D3*
Y104965D3*
M02*
