G04 DipTrace Beta 2.3.5.2*
%INTopMask.gbr*%
%MOMM*%
%ADD17C,2.0*%
%ADD18C,1.6*%
%ADD23R,1.5X1.3*%
%ADD24R,1.0X1.1*%
%ADD25R,1.4X2.85*%
%ADD26R,1.1X1.0*%
%ADD27R,1.6X2.7*%
%ADD28R,2.7X1.6*%
%ADD29R,1.6X1.8*%
%ADD30R,1.8X1.6*%
%ADD31R,2.85X1.4*%
%ADD32R,1.3X1.5*%
%ADD33C,1.3*%
%ADD34R,2.4X2.4*%
%ADD35R,0.8X1.6*%
%ADD36R,1.4X1.8*%
%ADD37R,3.56X3.0*%
%ADD38R,1.5X1.5*%
%ADD39C,1.5*%
%ADD40R,1.35X0.4*%
%ADD41R,1.4X1.6*%
%ADD42R,1.3X2.3*%
%ADD43R,1.9X1.7*%
%ADD44C,1.2*%
%ADD45C,1.524*%
%ADD46R,1.524X1.524*%
%ADD48R,0.95X2.15*%
%ADD49R,3.25X2.15*%
%ADD50R,1.8X0.5*%
%ADD51R,0.5X1.8*%
%ADD53R,1.7X0.5*%
%ADD54R,0.5X1.7*%
%ADD55R,0.6X2.0*%
%ADD56C,2.5*%
%ADD57C,3.0*%
%ADD58R,1.0X0.7*%
%ADD59R,2.0X0.6*%
%ADD60R,1.6X1.6*%
%FSLAX53Y53*%
G04*
G71*
G90*
G75*
G01*
%LNTopMask*%
%LPD*%
D23*
X20320Y40958D3*
Y42857D3*
D24*
X38100Y64135D3*
Y62435D3*
X44291Y49848D3*
Y48148D3*
X25876Y52070D3*
Y50370D3*
D23*
X20320Y47307D3*
Y45407D3*
X57150Y59690D3*
Y61590D3*
Y66040D3*
Y64140D3*
D24*
X53340Y6350D3*
Y4650D3*
D25*
X84455Y91481D3*
Y86678D3*
X85090Y22225D3*
Y27029D3*
X84772Y43974D3*
Y48778D3*
Y65564D3*
Y70368D3*
D26*
X60960Y17463D3*
X59260D3*
D27*
X60325Y24448D3*
X57525D3*
D28*
X48895Y6730D3*
Y3930D3*
D24*
X31115Y6350D3*
Y4650D3*
D26*
X39052Y18097D3*
X37352D3*
D27*
X39053Y23495D3*
X36253D3*
D28*
X26988Y6985D3*
Y4185D3*
D29*
X6350Y36830D3*
X3550D3*
X9525D3*
X12325D3*
D25*
X14605Y67310D3*
Y72114D3*
D30*
X8890Y68580D3*
Y71380D3*
D29*
X5715Y71755D3*
X2915D3*
X5715Y68580D3*
X2915D3*
D31*
X20955Y97155D3*
X25759D3*
D29*
X21590Y92075D3*
X24390D3*
D26*
X5080Y26035D3*
X3380D3*
X31115Y76835D3*
X29415D3*
X45561Y76359D3*
X47261D3*
X51435Y97473D3*
X49735D3*
X58215D3*
X56515D3*
D24*
X54610Y91757D3*
Y90057D3*
D26*
X64770Y95250D3*
X63070D3*
X71755D3*
X70055D3*
D32*
X50805Y48741D3*
X52705D3*
D33*
X29210Y80010D3*
Y82010D3*
Y84010D3*
X52070Y80010D3*
Y82010D3*
Y84010D3*
X36830Y80010D3*
Y82010D3*
Y84010D3*
X43180Y83820D3*
Y81820D3*
Y79820D3*
X29210Y29845D3*
Y31845D3*
Y33845D3*
X37465Y29845D3*
Y31845D3*
Y33845D3*
D34*
X50165Y24510D3*
X54565D3*
D35*
X30798Y23495D3*
X34197D3*
D36*
X14288Y7302D3*
X10888D3*
D32*
X35246Y103198D3*
X37146D3*
X25244D3*
X27144D3*
X15246D3*
X17146D3*
D23*
X34925Y74612D3*
Y76512D3*
X21273Y35560D3*
Y33660D3*
X43180Y28257D3*
Y30157D3*
Y35560D3*
Y33660D3*
X21273Y27940D3*
Y29840D3*
X34925Y89535D3*
Y87635D3*
D33*
X51117Y89853D3*
Y91853D3*
Y93853D3*
D57*
X4445Y4445D3*
X5080Y114935D3*
X85725Y4128D3*
X85407Y115570D3*
D37*
X48895Y19685D3*
Y10285D3*
X26988Y19685D3*
Y10285D3*
D38*
X44450Y4128D3*
D39*
X41910D3*
D38*
X22225D3*
D39*
X19685D3*
D38*
X13653D3*
D39*
X11112D3*
D33*
X51117Y100965D3*
Y102965D3*
Y104965D3*
X57785Y100965D3*
Y102965D3*
Y104965D3*
X64453Y100965D3*
Y102965D3*
Y104965D3*
X71120Y100965D3*
Y102965D3*
Y104965D3*
D40*
X85725Y97473D3*
Y98123D3*
Y98772D3*
Y99422D3*
Y100072D3*
D41*
X85950Y95572D3*
Y101973D3*
D42*
X88400Y95022D3*
Y102522D3*
D43*
Y97572D3*
Y99973D3*
D44*
X8732Y30007D3*
X10161Y28578D3*
D45*
X74295Y113665D3*
Y111125D3*
X71755Y113665D3*
Y111125D3*
D46*
X46355D3*
D45*
X48895D3*
X51435D3*
X53975D3*
X56515D3*
X59055D3*
X61595D3*
X64135D3*
X66675D3*
X69215D3*
Y113665D3*
X66675D3*
X64135D3*
X61595D3*
X59055D3*
X56515D3*
X53975D3*
X51435D3*
X48895D3*
X46355D3*
X76835Y111125D3*
Y113665D3*
D48*
X7620Y10795D3*
X9920D3*
X12220D3*
D49*
X9920Y16595D3*
D23*
X24130Y56039D3*
Y54139D3*
X46196Y51911D3*
Y53811D3*
X44133Y51911D3*
Y53811D3*
D32*
X46355Y48736D3*
X48255D3*
X61912Y5080D3*
X60012D3*
D24*
X55245Y6350D3*
Y4650D3*
D32*
X38735Y4445D3*
X36835D3*
D24*
X33020Y6350D3*
Y4650D3*
D32*
X69850Y97473D3*
X71750D3*
X64770D3*
X62870D3*
D23*
X20479Y51435D3*
Y53335D3*
X19685Y87630D3*
Y89530D3*
X4445Y14922D3*
Y13022D3*
D32*
X32701Y103198D3*
X30801D3*
X22699Y103199D3*
X20799D3*
X12701Y103198D3*
X10801D3*
D23*
X37148Y74612D3*
Y76513D3*
X23495Y35560D3*
Y33660D3*
X40958Y28258D3*
Y30157D3*
Y35555D3*
Y33655D3*
X23495Y27940D3*
Y29840D3*
X37147Y89535D3*
Y87635D3*
D33*
X85090Y76200D3*
Y78200D3*
Y80200D3*
Y82200D3*
D50*
X40435Y44593D3*
Y45393D3*
Y46193D3*
Y46993D3*
Y47793D3*
Y48593D3*
Y49393D3*
Y50193D3*
Y50993D3*
Y51793D3*
Y52593D3*
D51*
X38735Y54293D3*
X37935D3*
X37135D3*
X36335D3*
X35535D3*
X34735D3*
X33935D3*
X33135D3*
X32335D3*
X31535D3*
X30735D3*
D50*
X29035Y52593D3*
Y51793D3*
Y50993D3*
Y50193D3*
Y49393D3*
Y48593D3*
Y47793D3*
Y46993D3*
Y46193D3*
Y45393D3*
Y44593D3*
D51*
X30735Y42893D3*
X31535D3*
X32335D3*
X33135D3*
X33935D3*
X34735D3*
X35535D3*
X36335D3*
X37135D3*
X37935D3*
X38735D3*
D17*
X66040Y6350D3*
Y8890D3*
Y11430D3*
Y13970D3*
Y16510D3*
Y19050D3*
Y21590D3*
Y24130D3*
X78740Y6350D3*
Y8890D3*
Y11430D3*
Y13970D3*
Y16510D3*
Y19050D3*
Y21590D3*
Y24130D3*
D38*
X23178Y59055D3*
D39*
X25718D3*
X28258D3*
X30798D3*
X33338D3*
X35878D3*
D53*
X48577Y59690D3*
Y60490D3*
Y61290D3*
Y62090D3*
Y62890D3*
Y63690D3*
Y64490D3*
Y65290D3*
D54*
X47177Y66690D3*
X46377D3*
X45577D3*
X44777D3*
X43977D3*
X43177D3*
X42377D3*
X41577D3*
D53*
X40177Y65290D3*
Y64490D3*
Y63690D3*
Y62890D3*
Y62090D3*
Y61290D3*
Y60490D3*
Y59690D3*
D54*
X41577Y58290D3*
X42377D3*
X43177D3*
X43977D3*
X44777D3*
X45577D3*
X46377D3*
X47177D3*
D38*
X28099Y63817D3*
D39*
Y66357D3*
X30639Y63817D3*
Y66357D3*
X33179Y63817D3*
Y66357D3*
D55*
X60960Y14985D3*
X59690D3*
X58420D3*
X57150D3*
Y9585D3*
X58420D3*
X59690D3*
X60960D3*
D56*
X15875Y40640D3*
Y50160D3*
Y53340D3*
Y56520D3*
Y62870D3*
X3175Y40640D3*
Y62870D3*
D55*
X39052Y15240D3*
X37782D3*
X36512D3*
X35242D3*
Y9840D3*
X36512D3*
X37782D3*
X39052D3*
D56*
X15875Y76835D3*
Y86355D3*
Y89535D3*
Y92715D3*
Y99065D3*
X3175Y76835D3*
Y99065D3*
D38*
X51752Y53975D3*
D39*
X49212D3*
D57*
X12065Y109220D3*
X17065D3*
X22065D3*
X27065D3*
X32065D3*
X37065D3*
D55*
X82232Y106045D3*
X80962D3*
X79692D3*
X78422D3*
X77152D3*
X75882D3*
X74612D3*
Y100645D3*
X75882D3*
X77152D3*
X78422D3*
X79692D3*
X80962D3*
X82232D3*
D58*
X33020Y39370D3*
Y37470D3*
Y38420D3*
X30420Y39370D3*
Y37470D3*
Y38420D3*
X39370Y39370D3*
Y37470D3*
Y38420D3*
X36770Y39370D3*
Y37470D3*
Y38420D3*
D59*
X5080Y23495D3*
Y22225D3*
Y20955D3*
Y19685D3*
X10480D3*
Y20955D3*
Y22225D3*
Y23495D3*
D38*
X17463Y22543D3*
D39*
Y20003D3*
Y17463D3*
Y14923D3*
Y12383D3*
Y9843D3*
D58*
X45403Y70644D3*
Y72544D3*
Y71594D3*
X48003Y70644D3*
Y72544D3*
Y71594D3*
D60*
X57626Y38894D3*
D18*
X55086D3*
X52546D3*
X50006D3*
X57626Y36354D3*
X55086D3*
X52546D3*
X50006D3*
D17*
X66040Y71120D3*
Y73660D3*
Y76200D3*
Y78740D3*
Y81280D3*
Y83820D3*
Y86360D3*
Y88900D3*
X78740Y71120D3*
Y73660D3*
Y76200D3*
Y78740D3*
Y81280D3*
Y83820D3*
Y86360D3*
Y88900D3*
D33*
X85090Y11430D3*
Y13430D3*
Y15430D3*
Y17430D3*
D17*
X66040Y27940D3*
Y30480D3*
Y33020D3*
Y35560D3*
Y38100D3*
Y40640D3*
Y43180D3*
Y45720D3*
X78740Y27940D3*
Y30480D3*
Y33020D3*
Y35560D3*
Y38100D3*
Y40640D3*
Y43180D3*
Y45720D3*
D33*
X85090Y33020D3*
Y35020D3*
Y37020D3*
Y39020D3*
D17*
X66040Y49530D3*
Y52070D3*
Y54610D3*
Y57150D3*
Y59690D3*
Y62230D3*
Y64770D3*
Y67310D3*
X78740Y49530D3*
Y52070D3*
Y54610D3*
Y57150D3*
Y59690D3*
Y62230D3*
Y64770D3*
Y67310D3*
D33*
X85090Y54610D3*
Y56610D3*
Y58610D3*
Y60610D3*
X44450Y89853D3*
Y91853D3*
Y93853D3*
D39*
X24765Y46546D3*
Y41720D3*
X53340Y65405D3*
Y60579D3*
D33*
X44450Y100965D3*
Y102965D3*
Y104965D3*
M02*
