G04 DipTrace Beta 2.3.5.2*
%INTopSilk.gbr*%
%MOMM*%
%ADD10C,0.25*%
%ADD13C,0.6*%
%ADD16C,0.4*%
%ADD21C,1.27*%
%ADD22O,0.3X0.301*%
%ADD47O,0.391X0.392*%
%ADD52O,0.42X0.417*%
%ADD67C,0.157*%
%ADD69C,0.196*%
%FSLAX53Y53*%
G04*
G71*
G90*
G75*
G01*
%LNTopSilk*%
%LPD*%
X20970Y39907D2*
D10*
X19671D1*
Y48358D2*
X20970D1*
X57799Y58639D2*
X56500D1*
Y67090D2*
X57799D1*
X87755Y85780D2*
X85555D1*
X87755D2*
Y91279D1*
X86655Y92379D2*
X87755Y91279D1*
X86655Y92379D2*
X85555D1*
X83355Y85780D2*
X81155D1*
Y91279D1*
X82255Y92379D2*
X81155Y91279D1*
X83355Y92379D2*
X82255D1*
D13*
X85755Y92980D3*
X81790Y27927D2*
D10*
X83990D1*
X81790D2*
Y22427D1*
X82890Y21328D2*
X81790Y22427D1*
X82890Y21328D2*
X83990D1*
X86190Y27927D2*
X88390D1*
Y22427D1*
X87290Y21328D2*
X88390Y22427D1*
X86190Y21328D2*
X87290D1*
D13*
X83790Y20727D3*
X81472Y49675D2*
D10*
X83672D1*
X81472D2*
Y44176D1*
X82573Y43076D2*
X81472Y44176D1*
X82573Y43076D2*
X83672D1*
X85873Y49675D2*
X88072D1*
Y44176D1*
X86972Y43076D2*
X88072Y44176D1*
X85873Y43076D2*
X86972D1*
D13*
X83473Y42476D3*
X81472Y71265D2*
D10*
X83672D1*
X81472D2*
Y65766D1*
X82573Y64666D2*
X81472Y65766D1*
X82573Y64666D2*
X83672D1*
X85873Y71265D2*
X88072D1*
Y65766D1*
X86972Y64666D2*
X88072Y65766D1*
X85873Y64666D2*
X86972D1*
D13*
X83473Y64066D3*
X61909Y17863D2*
D10*
Y17063D1*
X59035Y25698D2*
Y23197D1*
X59224Y25698D2*
Y23197D1*
Y25698D2*
X58626D1*
X59224Y23197D2*
X58626D1*
X47645Y5440D2*
X50145D1*
X47645Y5629D2*
X50145D1*
X47645D2*
Y5031D1*
X50145Y5629D2*
Y5031D1*
X40001Y18497D2*
Y17697D1*
X37762Y24745D2*
Y22245D1*
X37952Y24745D2*
Y22245D1*
Y24745D2*
X37353D1*
X37952Y22245D2*
X37353D1*
X25738Y5695D2*
X28238D1*
X25738Y5884D2*
X28238D1*
X25738D2*
Y5286D1*
X28238Y5884D2*
Y5286D1*
X5060Y37629D2*
Y36031D1*
X5249Y37629D2*
Y36031D1*
Y37629D2*
X4651D1*
X5249Y36031D2*
X4651D1*
X10815D2*
Y37629D1*
X10626Y36031D2*
Y37629D1*
Y36031D2*
X11224D1*
X10626Y37629D2*
X11224D1*
X11305Y73012D2*
X13505D1*
X11305D2*
Y67512D1*
X12405Y66413D2*
X11305Y67512D1*
X12405Y66413D2*
X13505D1*
X15705Y73012D2*
X17905D1*
Y67512D1*
X16805Y66413D2*
X17905Y67512D1*
X15705Y66413D2*
X16805D1*
D13*
X13305Y65812D3*
X9689Y69870D2*
D10*
X8091D1*
X9689Y69681D2*
X8091D1*
X9689D2*
Y70279D1*
X8091Y69681D2*
Y70279D1*
X4425Y72554D2*
Y70956D1*
X4614Y72554D2*
Y70956D1*
Y72554D2*
X4016D1*
X4614Y70956D2*
X4016D1*
X4425Y69379D2*
Y67781D1*
X4614Y69379D2*
Y67781D1*
Y69379D2*
X4016D1*
X4614Y67781D2*
X4016D1*
X26657Y100455D2*
Y98255D1*
Y100455D2*
X21157D1*
X20058Y99355D2*
X21157Y100455D1*
X20058Y99355D2*
Y98255D1*
X26657Y96055D2*
Y93855D1*
X21157D1*
X20058Y94955D2*
X21157Y93855D1*
X20058Y96055D2*
Y94955D1*
D13*
X19457Y98455D3*
X22880Y91276D2*
D10*
Y92874D1*
X22691Y91276D2*
Y92874D1*
Y91276D2*
X23289D1*
X22691Y92874D2*
X23289D1*
X49755Y48092D2*
Y49391D1*
X26410Y78010D2*
X30910D1*
Y86010D1*
X26410D1*
Y78010D1*
X49270D2*
X53770D1*
Y86010D1*
X49270D1*
Y78010D1*
X34030D2*
X38530D1*
Y86010D1*
X34030D1*
Y78010D1*
X45980Y85820D2*
X41480D1*
Y77820D1*
X45980D1*
Y85820D1*
X26410Y27845D2*
X30910D1*
Y35845D1*
X26410D1*
Y27845D1*
X34665D2*
X39165D1*
Y35845D1*
X34665D1*
Y27845D1*
X50115Y26310D2*
X54615D1*
X50115Y22710D2*
X54615D1*
Y26310D2*
Y26060D1*
X50115Y26310D2*
Y26060D1*
X54615Y22960D2*
Y22710D1*
X50115Y22960D2*
Y22710D1*
D13*
X48290Y24510D3*
X31597Y24295D2*
D10*
X33398D1*
X31597Y22695D2*
X33398D1*
D16*
X29847Y23495D3*
X13188Y6452D2*
D10*
X11988D1*
X13188Y8152D2*
X11988D1*
D13*
X15638Y7302D3*
X34196Y102549D2*
D10*
Y103848D1*
X24193Y102549D2*
Y103848D1*
X14196Y102549D2*
Y103848D1*
X35575Y73562D2*
X34276D1*
X20624Y36610D2*
X21922D1*
X43829Y27207D2*
X42530D1*
Y36610D2*
X43829D1*
X21922Y26890D2*
X20623D1*
X34276Y90585D2*
X35575D1*
X48317Y87853D2*
X52817D1*
Y95853D1*
X48317D1*
Y87853D1*
X55295Y8585D2*
X42495D1*
Y21385D1*
X55295D1*
Y8585D1*
X33388D2*
X20588D1*
Y21385D1*
X33388D1*
Y8585D1*
X40640Y5398D2*
Y2858D1*
X45720Y5398D2*
X40640D1*
X45720D2*
Y2858D1*
X40640D1*
X18415Y5397D2*
Y2858D1*
X23495Y5397D2*
X18415D1*
X23495D2*
Y2858D1*
X18415D1*
X9842Y5397D2*
Y2858D1*
X14922Y5397D2*
X9842D1*
X14922D2*
Y2858D1*
X9842D1*
X48317Y98965D2*
X52817D1*
Y106965D1*
X48317D1*
Y98965D1*
X54985D2*
X59485D1*
Y106965D1*
X54985D1*
Y98965D1*
X61653D2*
X66153D1*
Y106965D1*
X61653D1*
Y98965D1*
X68320D2*
X72820D1*
Y106965D1*
X68320D1*
Y98965D1*
X63627Y108715D2*
Y107950D1*
Y108715D2*
X59563D1*
Y107950D1*
X41275Y116840D2*
Y107950D1*
X81915Y116840D2*
X41275D1*
X81915D2*
Y107950D1*
X63627D1*
X59563D2*
X41275D1*
X41925Y113666D2*
X41275D1*
X41925D2*
Y111124D1*
X41275D1*
X81915Y113666D2*
X81265D1*
Y111124D1*
X81915D2*
X81265D1*
D47*
X6646Y10028D3*
X6620Y12295D2*
D10*
X13220D1*
X6620Y15095D2*
X13220D1*
Y12295D2*
Y15095D1*
X6620Y12295D2*
Y15095D1*
X82290Y74200D2*
X86790D1*
Y84200D1*
X82290D1*
Y74200D1*
X39084Y44244D2*
X30386D1*
Y52942D1*
X39084D1*
Y44244D1*
D13*
X40735Y43793D3*
G36*
X39065Y44283D2*
X38116Y44303D1*
X39065Y44283D1*
G37*
G36*
X38935Y44193D2*
X37735D1*
X39135Y45593D1*
X38935Y44193D1*
G37*
X64770Y25400D2*
D10*
X80010D1*
Y5080D1*
X64770D1*
Y25400D1*
X21908Y57785D2*
X37148D1*
X21908Y60325D2*
X37148D1*
X21908Y57785D2*
Y60325D1*
X37148Y57785D2*
Y60325D1*
X47277Y59640D2*
X41477D1*
Y65440D1*
X47277D1*
Y59640D1*
D52*
X48589Y58849D3*
G36*
X47277Y59640D2*
Y60440D1*
X46477Y59640D1*
X47277D1*
G37*
X29580Y62547D2*
D10*
X34449D1*
X26829D2*
X34449D1*
X26829Y67627D2*
X34449D1*
X26829Y62547D2*
Y67627D1*
X34449Y62547D2*
Y67627D1*
X61555Y13585D2*
X56555D1*
X61555Y10985D2*
X56555D1*
Y13585D2*
Y10985D1*
X61555Y12785D2*
Y13585D1*
Y11785D2*
Y10985D1*
Y12785D2*
G03X61555Y11785I0J-500D01*
G01*
X1020Y38735D2*
X17780D1*
Y65025D1*
X1020D1*
Y38735D1*
X39647Y13840D2*
X34647D1*
X39647Y11240D2*
X34647D1*
Y13840D2*
Y11240D1*
X39647Y13040D2*
Y13840D1*
Y12040D2*
Y11240D1*
Y13040D2*
G03X39647Y12040I0J-500D01*
G01*
X1020Y74930D2*
X17780D1*
Y101220D1*
X1020D1*
Y74930D1*
X47942Y55245D2*
Y52705D1*
X53023Y55245D2*
X47942D1*
X53023D2*
Y52705D1*
X47942D1*
X40208Y113030D2*
X9208D1*
Y105030D1*
X40208D1*
Y113030D1*
X40164D2*
Y116523D1*
X34448Y113030D2*
Y116523D1*
X29370Y113030D2*
Y116523D1*
X24605Y113030D2*
Y116523D1*
X19050Y113030D2*
Y116523D1*
X14763Y113030D2*
Y116523D1*
X9208Y113030D2*
Y116523D1*
X82722Y104645D2*
X74122D1*
X82722Y102045D2*
X74122D1*
Y104645D2*
Y102045D1*
X82722Y104645D2*
Y103845D1*
Y102845D2*
Y102045D1*
Y103845D2*
G03X82722Y102845I0J-500D01*
G01*
X30798Y36835D2*
X32702D1*
X37148D2*
X39052D1*
X6480Y24090D2*
Y19090D1*
X9080Y24090D2*
Y19090D1*
X6480D2*
X9080D1*
X7280Y24090D2*
X6480D1*
X8280D2*
X9080D1*
X7280D2*
G03X8280Y24090I500J0D01*
G01*
X16193Y23813D2*
Y8573D1*
X18733Y23813D2*
Y8573D1*
X16193Y23813D2*
X18733D1*
X16193Y8573D2*
X18733D1*
X47625Y73179D2*
X45720D1*
X59214Y40481D2*
X48419D1*
Y34767D1*
X59214D1*
Y40481D1*
X64770Y90170D2*
X80010D1*
Y69850D1*
X64770D1*
Y90170D1*
X82290Y9430D2*
X86790D1*
Y19430D1*
X82290D1*
Y9430D1*
X64770Y46990D2*
X80010D1*
Y26670D1*
X64770D1*
Y46990D1*
X82290Y31020D2*
X86790D1*
Y41020D1*
X82290D1*
Y31020D1*
X64770Y68580D2*
X80010D1*
Y48260D1*
X64770D1*
Y68580D1*
X82290Y52610D2*
X86790D1*
Y62610D1*
X82290D1*
Y52610D1*
X41650Y87853D2*
X46150D1*
Y95853D1*
X41650D1*
Y87853D1*
X22606Y47181D2*
Y41085D1*
X26924Y47181D2*
Y41085D1*
X23114Y47181D2*
Y41085D1*
X26416D2*
Y47181D1*
X25527Y44387D2*
Y43879D1*
X24003D1*
Y44387D1*
X25527D1*
Y43498D2*
X24765D1*
X24003D1*
X25527Y44768D2*
X24765D1*
X24003D1*
X24765Y43498D2*
Y42862D1*
Y44768D2*
Y45404D1*
X26924Y47181D2*
G03X22606Y47181I-2159J0D01*
G01*
Y41085D2*
G03X26924Y41085I2159J0D01*
G01*
X26416Y47181D2*
G03X23114Y47181I-1651J-1D01*
G01*
Y41085D2*
G03X26416Y41085I1651J1D01*
G01*
X51181Y66040D2*
Y59944D1*
X55499Y66040D2*
Y59944D1*
X51689Y66040D2*
Y59944D1*
X54991D2*
Y66040D1*
X54102Y63246D2*
Y62738D1*
X52578D1*
Y63246D1*
X54102D1*
Y62357D2*
X53340D1*
X52578D1*
X54102Y63627D2*
X53340D1*
X52578D1*
X53340Y62357D2*
Y61721D1*
Y63627D2*
Y64263D1*
X55499Y66040D2*
G03X51181Y66040I-2159J0D01*
G01*
Y59944D2*
G03X55499Y59944I2159J0D01*
G01*
X54991Y66040D2*
G03X51689Y66040I-1651J-1D01*
G01*
Y59944D2*
G03X54991Y59944I1651J1D01*
G01*
X41650Y98965D2*
X46150D1*
Y106965D1*
X41650D1*
Y98965D1*
D21*
X20479Y59055D3*
X25559Y63659D3*
X17463Y24924D3*
X22225Y6350D3*
X44450D3*
D22*
X84750Y97473D3*
X86850Y94972D2*
D10*
X87550D1*
X86950Y102573D2*
X87550D1*
X18325Y41793D2*
D67*
X18228Y41745D1*
X18130Y41647D1*
X18082Y41550D1*
Y41356D1*
X18130Y41258D1*
X18228Y41162D1*
X18325Y41112D1*
X18471Y41064D1*
X18714D1*
X18859Y41112D1*
X18957Y41162D1*
X19054Y41258D1*
X19103Y41356D1*
Y41550D1*
X19054Y41647D1*
X18957Y41745D1*
X18859Y41793D1*
X18278Y42107D2*
X18228Y42204D1*
X18083Y42350D1*
X19103D1*
X36355Y63152D2*
X36258Y63104D1*
X36160Y63006D1*
X36112Y62910D1*
Y62715D1*
X36160Y62618D1*
X36258Y62521D1*
X36355Y62472D1*
X36501Y62423D1*
X36744D1*
X36889Y62472D1*
X36987Y62521D1*
X37084Y62618D1*
X37133Y62715D1*
Y62910D1*
X37084Y63006D1*
X36987Y63104D1*
X36889Y63152D1*
X36356Y63515D2*
X36308D1*
X36210Y63564D1*
X36162Y63612D1*
X36113Y63710D1*
Y63904D1*
X36162Y64001D1*
X36210Y64049D1*
X36308Y64098D1*
X36404D1*
X36502Y64049D1*
X36647Y63952D1*
X37133Y63466D1*
Y64147D1*
X42546Y48865D2*
X42449Y48816D1*
X42352Y48719D1*
X42303Y48622D1*
Y48428D1*
X42352Y48330D1*
X42449Y48234D1*
X42546Y48184D1*
X42692Y48136D1*
X42936D1*
X43081Y48184D1*
X43178Y48234D1*
X43275Y48330D1*
X43324Y48428D1*
Y48622D1*
X43275Y48719D1*
X43178Y48816D1*
X43081Y48865D1*
X42304Y49276D2*
Y49810D1*
X42693Y49519D1*
Y49665D1*
X42741Y49761D1*
X42790Y49810D1*
X42936Y49859D1*
X43032D1*
X43178Y49810D1*
X43276Y49713D1*
X43324Y49567D1*
Y49421D1*
X43276Y49276D1*
X43227Y49228D1*
X43130Y49179D1*
X24131Y51063D2*
X24034Y51015D1*
X23937Y50917D1*
X23888Y50821D1*
Y50626D1*
X23937Y50529D1*
X24034Y50432D1*
X24131Y50383D1*
X24277Y50334D1*
X24521D1*
X24666Y50383D1*
X24763Y50432D1*
X24860Y50529D1*
X24909Y50626D1*
Y50821D1*
X24860Y50917D1*
X24763Y51015D1*
X24666Y51063D1*
X24909Y51863D2*
X23889D1*
X24569Y51377D1*
Y52106D1*
X18325Y46425D2*
X18228Y46377D1*
X18130Y46279D1*
X18082Y46182D1*
Y45988D1*
X18130Y45890D1*
X18228Y45794D1*
X18325Y45744D1*
X18471Y45696D1*
X18714D1*
X18859Y45744D1*
X18957Y45794D1*
X19054Y45890D1*
X19103Y45988D1*
Y46182D1*
X19054Y46279D1*
X18957Y46377D1*
X18859Y46425D1*
X18083Y47322D2*
Y46836D1*
X18520Y46788D1*
X18472Y46836D1*
X18422Y46982D1*
Y47127D1*
X18472Y47273D1*
X18568Y47371D1*
X18714Y47419D1*
X18811D1*
X18957Y47371D1*
X19055Y47273D1*
X19103Y47127D1*
Y46982D1*
X19055Y46836D1*
X19005Y46788D1*
X18909Y46739D1*
X58487Y60332D2*
X58391Y60283D1*
X58293Y60186D1*
X58245Y60089D1*
Y59895D1*
X58293Y59797D1*
X58391Y59701D1*
X58487Y59651D1*
X58633Y59603D1*
X58877D1*
X59022Y59651D1*
X59119Y59701D1*
X59216Y59797D1*
X59265Y59895D1*
Y60089D1*
X59216Y60186D1*
X59119Y60283D1*
X59022Y60332D1*
X58391Y61228D2*
X58294Y61180D1*
X58246Y61034D1*
Y60937D1*
X58294Y60791D1*
X58440Y60694D1*
X58683Y60645D1*
X58925D1*
X59119Y60694D1*
X59217Y60791D1*
X59265Y60937D1*
Y60986D1*
X59217Y61131D1*
X59119Y61228D1*
X58973Y61277D1*
X58925D1*
X58779Y61228D1*
X58683Y61131D1*
X58634Y60986D1*
Y60937D1*
X58683Y60791D1*
X58779Y60694D1*
X58925Y60645D1*
X58487Y65157D2*
X58391Y65109D1*
X58293Y65011D1*
X58245Y64915D1*
Y64720D1*
X58293Y64623D1*
X58391Y64526D1*
X58487Y64477D1*
X58633Y64428D1*
X58877D1*
X59022Y64477D1*
X59119Y64526D1*
X59216Y64623D1*
X59265Y64720D1*
Y64915D1*
X59216Y65011D1*
X59119Y65109D1*
X59022Y65157D1*
X59265Y65665D2*
X58246Y66152D1*
Y65471D1*
X51595Y5368D2*
X51498Y5320D1*
X51400Y5222D1*
X51352Y5125D1*
Y4931D1*
X51400Y4833D1*
X51498Y4737D1*
X51595Y4687D1*
X51741Y4639D1*
X51984D1*
X52129Y4687D1*
X52227Y4737D1*
X52324Y4833D1*
X52373Y4931D1*
Y5125D1*
X52324Y5222D1*
X52227Y5320D1*
X52129Y5368D1*
X51353Y5924D2*
X51402Y5779D1*
X51498Y5730D1*
X51596D1*
X51692Y5779D1*
X51742Y5876D1*
X51790Y6070D1*
X51838Y6216D1*
X51936Y6313D1*
X52033Y6361D1*
X52179D1*
X52275Y6313D1*
X52325Y6264D1*
X52373Y6118D1*
Y5924D1*
X52325Y5779D1*
X52275Y5730D1*
X52179Y5682D1*
X52033D1*
X51936Y5730D1*
X51838Y5828D1*
X51790Y5972D1*
X51742Y6167D1*
X51692Y6264D1*
X51596Y6313D1*
X51498D1*
X51402Y6264D1*
X51353Y6118D1*
Y5924D1*
X84346Y94525D2*
X84298Y94621D1*
X84200Y94719D1*
X84104Y94767D1*
X83910D1*
X83812Y94719D1*
X83715Y94621D1*
X83666Y94525D1*
X83618Y94379D1*
Y94135D1*
X83666Y93990D1*
X83715Y93893D1*
X83812Y93796D1*
X83910Y93747D1*
X84104D1*
X84200Y93796D1*
X84298Y93893D1*
X84346Y93990D1*
X85292Y94427D2*
X85243Y94281D1*
X85146Y94183D1*
X85000Y94135D1*
X84952D1*
X84806Y94183D1*
X84710Y94281D1*
X84660Y94427D1*
Y94475D1*
X84710Y94621D1*
X84806Y94718D1*
X84952Y94766D1*
X85000D1*
X85146Y94718D1*
X85243Y94621D1*
X85292Y94427D1*
Y94183D1*
X85243Y93941D1*
X85146Y93795D1*
X85000Y93747D1*
X84904D1*
X84758Y93795D1*
X84710Y93893D1*
X84679Y29699D2*
X84630Y29796D1*
X84533Y29894D1*
X84436Y29942D1*
X84242D1*
X84144Y29894D1*
X84047Y29796D1*
X83998Y29699D1*
X83950Y29553D1*
Y29310D1*
X83998Y29165D1*
X84047Y29067D1*
X84144Y28970D1*
X84242Y28921D1*
X84436D1*
X84533Y28970D1*
X84630Y29067D1*
X84679Y29165D1*
X84992Y29746D2*
X85090Y29796D1*
X85236Y29941D1*
Y28921D1*
X85842Y29941D2*
X85696Y29892D1*
X85598Y29746D1*
X85550Y29504D1*
Y29358D1*
X85598Y29115D1*
X85696Y28969D1*
X85842Y28921D1*
X85938D1*
X86084Y28969D1*
X86181Y29115D1*
X86230Y29358D1*
Y29504D1*
X86181Y29746D1*
X86084Y29892D1*
X85938Y29941D1*
X85842D1*
X86181Y29746D2*
X85598Y29115D1*
X84580Y51448D2*
X84531Y51545D1*
X84434Y51642D1*
X84337Y51691D1*
X84143D1*
X84045Y51642D1*
X83948Y51545D1*
X83899Y51448D1*
X83851Y51302D1*
Y51058D1*
X83899Y50913D1*
X83948Y50816D1*
X84045Y50719D1*
X84143Y50670D1*
X84337D1*
X84434Y50719D1*
X84531Y50816D1*
X84580Y50913D1*
X84893Y51495D2*
X84991Y51545D1*
X85137Y51690D1*
Y50670D1*
X85451Y51495D2*
X85548Y51545D1*
X85694Y51690D1*
Y50670D1*
X84361Y73038D2*
X84313Y73135D1*
X84215Y73232D1*
X84118Y73281D1*
X83924D1*
X83826Y73232D1*
X83730Y73135D1*
X83680Y73038D1*
X83632Y72892D1*
Y72648D1*
X83680Y72503D1*
X83730Y72406D1*
X83826Y72309D1*
X83924Y72260D1*
X84118D1*
X84215Y72309D1*
X84313Y72406D1*
X84361Y72503D1*
X84675Y73085D2*
X84772Y73135D1*
X84919Y73280D1*
Y72260D1*
X85282Y73037D2*
Y73085D1*
X85330Y73183D1*
X85378Y73231D1*
X85476Y73280D1*
X85670D1*
X85767Y73231D1*
X85815Y73183D1*
X85865Y73085D1*
Y72989D1*
X85815Y72891D1*
X85719Y72746D1*
X85232Y72260D1*
X85913D1*
X59898Y19208D2*
X59850Y19304D1*
X59752Y19402D1*
X59655Y19450D1*
X59461D1*
X59363Y19402D1*
X59267Y19304D1*
X59217Y19208D1*
X59169Y19062D1*
Y18818D1*
X59217Y18673D1*
X59267Y18576D1*
X59363Y18479D1*
X59461Y18430D1*
X59655D1*
X59752Y18479D1*
X59850Y18576D1*
X59898Y18673D1*
X60212Y19255D2*
X60309Y19304D1*
X60455Y19449D1*
Y18430D1*
X60867Y19449D2*
X61400D1*
X61109Y19061D1*
X61255D1*
X61352Y19012D1*
X61400Y18964D1*
X61450Y18818D1*
Y18722D1*
X61400Y18576D1*
X61304Y18478D1*
X61158Y18430D1*
X61012D1*
X60867Y18478D1*
X60819Y18527D1*
X60769Y18624D1*
X58489Y27043D2*
X58441Y27139D1*
X58343Y27237D1*
X58247Y27285D1*
X58053D1*
X57955Y27237D1*
X57858Y27139D1*
X57809Y27043D1*
X57761Y26897D1*
Y26653D1*
X57809Y26508D1*
X57858Y26411D1*
X57955Y26314D1*
X58053Y26265D1*
X58247D1*
X58343Y26314D1*
X58441Y26411D1*
X58489Y26508D1*
X58803Y27090D2*
X58901Y27139D1*
X59047Y27284D1*
Y26265D1*
X59847D2*
Y27284D1*
X59361Y26605D1*
X60089D1*
X46300Y4919D2*
X46203Y4870D1*
X46105Y4773D1*
X46057Y4676D1*
Y4482D1*
X46105Y4384D1*
X46203Y4287D1*
X46300Y4238D1*
X46446Y4190D1*
X46689D1*
X46834Y4238D1*
X46932Y4287D1*
X47029Y4384D1*
X47078Y4482D1*
Y4676D1*
X47029Y4773D1*
X46932Y4870D1*
X46834Y4919D1*
X46253Y5232D2*
X46203Y5330D1*
X46058Y5476D1*
X47078D1*
X46058Y6373D2*
Y5887D1*
X46495Y5839D1*
X46447Y5887D1*
X46397Y6033D1*
Y6178D1*
X46447Y6324D1*
X46543Y6422D1*
X46689Y6470D1*
X46786D1*
X46932Y6422D1*
X47030Y6324D1*
X47078Y6178D1*
Y6033D1*
X47030Y5887D1*
X46980Y5839D1*
X46884Y5790D1*
X29370Y5113D2*
X29273Y5065D1*
X29175Y4967D1*
X29127Y4871D1*
Y4676D1*
X29175Y4579D1*
X29273Y4482D1*
X29370Y4433D1*
X29516Y4384D1*
X29759D1*
X29904Y4433D1*
X30002Y4482D1*
X30099Y4579D1*
X30148Y4676D1*
Y4871D1*
X30099Y4967D1*
X30002Y5065D1*
X29904Y5113D1*
X29323Y5427D2*
X29273Y5525D1*
X29128Y5671D1*
X30148D1*
X29273Y6567D2*
X29177Y6519D1*
X29128Y6373D1*
Y6276D1*
X29177Y6130D1*
X29323Y6033D1*
X29565Y5984D1*
X29808D1*
X30002Y6033D1*
X30100Y6130D1*
X30148Y6276D1*
Y6325D1*
X30100Y6470D1*
X30002Y6567D1*
X29856Y6616D1*
X29808D1*
X29662Y6567D1*
X29565Y6470D1*
X29517Y6325D1*
Y6276D1*
X29565Y6130D1*
X29662Y6033D1*
X29808Y5984D1*
X37990Y19842D2*
X37942Y19939D1*
X37844Y20037D1*
X37748Y20085D1*
X37553D1*
X37456Y20037D1*
X37359Y19939D1*
X37310Y19842D1*
X37261Y19696D1*
Y19453D1*
X37310Y19308D1*
X37359Y19210D1*
X37456Y19113D1*
X37553Y19064D1*
X37748D1*
X37844Y19113D1*
X37942Y19210D1*
X37990Y19308D1*
X38304Y19889D2*
X38402Y19939D1*
X38548Y20084D1*
Y19064D1*
X39056D2*
X39542Y20084D1*
X38862D1*
X37242Y26090D2*
X37193Y26187D1*
X37096Y26285D1*
X36999Y26333D1*
X36805D1*
X36707Y26285D1*
X36610Y26187D1*
X36561Y26090D1*
X36513Y25944D1*
Y25701D1*
X36561Y25556D1*
X36610Y25458D1*
X36707Y25361D1*
X36805Y25312D1*
X36999D1*
X37096Y25361D1*
X37193Y25458D1*
X37242Y25556D1*
X37555Y26137D2*
X37653Y26187D1*
X37799Y26332D1*
Y25312D1*
X38355Y26332D2*
X38210Y26283D1*
X38161Y26187D1*
Y26089D1*
X38210Y25993D1*
X38307Y25943D1*
X38501Y25895D1*
X38647Y25847D1*
X38744Y25749D1*
X38792Y25652D1*
Y25506D1*
X38744Y25410D1*
X38696Y25360D1*
X38550Y25312D1*
X38355D1*
X38210Y25360D1*
X38161Y25410D1*
X38113Y25506D1*
Y25652D1*
X38161Y25749D1*
X38259Y25847D1*
X38404Y25895D1*
X38598Y25943D1*
X38696Y25993D1*
X38744Y26089D1*
Y26187D1*
X38696Y26283D1*
X38550Y26332D1*
X38355D1*
X24393Y5198D2*
X24296Y5149D1*
X24198Y5052D1*
X24150Y4955D1*
Y4761D1*
X24198Y4663D1*
X24296Y4567D1*
X24393Y4517D1*
X24539Y4469D1*
X24782D1*
X24927Y4517D1*
X25025Y4567D1*
X25122Y4663D1*
X25171Y4761D1*
Y4955D1*
X25122Y5052D1*
X25025Y5149D1*
X24927Y5198D1*
X24346Y5511D2*
X24296Y5609D1*
X24151Y5755D1*
X25171D1*
X24490Y6701D2*
X24636Y6652D1*
X24734Y6555D1*
X24782Y6409D1*
Y6361D1*
X24734Y6215D1*
X24636Y6118D1*
X24490Y6069D1*
X24442D1*
X24296Y6118D1*
X24200Y6215D1*
X24151Y6361D1*
Y6409D1*
X24200Y6555D1*
X24296Y6652D1*
X24490Y6701D1*
X24734D1*
X24977Y6652D1*
X25123Y6555D1*
X25171Y6409D1*
Y6313D1*
X25123Y6167D1*
X25025Y6118D1*
X4320Y35343D2*
X4272Y35439D1*
X4174Y35537D1*
X4078Y35585D1*
X3883D1*
X3786Y35537D1*
X3689Y35439D1*
X3640Y35343D1*
X3591Y35197D1*
Y34953D1*
X3640Y34808D1*
X3689Y34711D1*
X3786Y34614D1*
X3883Y34565D1*
X4078D1*
X4174Y34614D1*
X4272Y34711D1*
X4320Y34808D1*
X4683Y35342D2*
Y35390D1*
X4732Y35488D1*
X4780Y35536D1*
X4878Y35584D1*
X5072D1*
X5168Y35536D1*
X5217Y35488D1*
X5266Y35390D1*
Y35293D1*
X5217Y35196D1*
X5120Y35051D1*
X4634Y34565D1*
X5314D1*
X5920Y35584D2*
X5774Y35536D1*
X5676Y35390D1*
X5628Y35147D1*
Y35001D1*
X5676Y34759D1*
X5774Y34613D1*
X5920Y34565D1*
X6017D1*
X6163Y34613D1*
X6259Y34759D1*
X6309Y35001D1*
Y35147D1*
X6259Y35390D1*
X6163Y35536D1*
X6017Y35584D1*
X5920D1*
X6259Y35390D2*
X5676Y34759D1*
X10514Y35343D2*
X10465Y35439D1*
X10368Y35537D1*
X10271Y35585D1*
X10077D1*
X9979Y35537D1*
X9882Y35439D1*
X9833Y35343D1*
X9785Y35197D1*
Y34953D1*
X9833Y34808D1*
X9882Y34711D1*
X9979Y34614D1*
X10077Y34565D1*
X10271D1*
X10368Y34614D1*
X10465Y34711D1*
X10514Y34808D1*
X10877Y35342D2*
Y35390D1*
X10925Y35488D1*
X10973Y35536D1*
X11071Y35584D1*
X11265D1*
X11362Y35536D1*
X11410Y35488D1*
X11460Y35390D1*
Y35293D1*
X11410Y35196D1*
X11314Y35051D1*
X10827Y34565D1*
X11508D1*
X11822Y35390D2*
X11919Y35439D1*
X12065Y35584D1*
Y34565D1*
X18492Y68896D2*
X18396Y68847D1*
X18298Y68750D1*
X18250Y68653D1*
Y68459D1*
X18298Y68361D1*
X18396Y68264D1*
X18492Y68215D1*
X18638Y68167D1*
X18882D1*
X19027Y68215D1*
X19124Y68264D1*
X19221Y68361D1*
X19270Y68459D1*
Y68653D1*
X19221Y68750D1*
X19124Y68847D1*
X19027Y68896D1*
X18493Y69259D2*
X18445D1*
X18347Y69307D1*
X18299Y69355D1*
X18251Y69453D1*
Y69647D1*
X18299Y69744D1*
X18347Y69792D1*
X18445Y69842D1*
X18542D1*
X18639Y69792D1*
X18784Y69696D1*
X19270Y69209D1*
Y69890D1*
X18493Y70253D2*
X18445D1*
X18347Y70301D1*
X18299Y70350D1*
X18251Y70447D1*
Y70642D1*
X18299Y70738D1*
X18347Y70787D1*
X18445Y70836D1*
X18542D1*
X18639Y70787D1*
X18784Y70690D1*
X19270Y70204D1*
Y70884D1*
X8260Y73425D2*
X8212Y73522D1*
X8114Y73620D1*
X8018Y73668D1*
X7823D1*
X7726Y73620D1*
X7629Y73522D1*
X7580Y73425D1*
X7531Y73279D1*
Y73036D1*
X7580Y72891D1*
X7629Y72793D1*
X7726Y72696D1*
X7823Y72647D1*
X8018D1*
X8114Y72696D1*
X8212Y72793D1*
X8260Y72891D1*
X8623Y73424D2*
Y73472D1*
X8672Y73570D1*
X8720Y73618D1*
X8818Y73667D1*
X9012D1*
X9108Y73618D1*
X9157Y73570D1*
X9206Y73472D1*
Y73376D1*
X9157Y73278D1*
X9060Y73133D1*
X8574Y72647D1*
X9254D1*
X9666Y73667D2*
X10199D1*
X9908Y73278D1*
X10054D1*
X10151Y73230D1*
X10199Y73182D1*
X10249Y73036D1*
Y72939D1*
X10199Y72793D1*
X10103Y72695D1*
X9957Y72647D1*
X9811D1*
X9666Y72695D1*
X9618Y72745D1*
X9568Y72841D1*
X3661Y73900D2*
X3613Y73997D1*
X3515Y74095D1*
X3418Y74143D1*
X3224D1*
X3126Y74095D1*
X3030Y73997D1*
X2980Y73900D1*
X2932Y73754D1*
Y73511D1*
X2980Y73366D1*
X3030Y73268D1*
X3126Y73171D1*
X3224Y73122D1*
X3418D1*
X3515Y73171D1*
X3613Y73268D1*
X3661Y73366D1*
X4024Y73899D2*
Y73947D1*
X4072Y74045D1*
X4121Y74093D1*
X4218Y74142D1*
X4413D1*
X4509Y74093D1*
X4558Y74045D1*
X4607Y73947D1*
Y73851D1*
X4558Y73753D1*
X4461Y73608D1*
X3975Y73122D1*
X4655D1*
X5455D2*
Y74142D1*
X4969Y73462D1*
X5698D1*
X3685Y67093D2*
X3637Y67189D1*
X3539Y67287D1*
X3443Y67335D1*
X3248D1*
X3151Y67287D1*
X3054Y67189D1*
X3005Y67093D1*
X2956Y66947D1*
Y66703D1*
X3005Y66558D1*
X3054Y66461D1*
X3151Y66364D1*
X3248Y66315D1*
X3443D1*
X3539Y66364D1*
X3637Y66461D1*
X3685Y66558D1*
X4048Y67092D2*
Y67140D1*
X4097Y67238D1*
X4145Y67286D1*
X4243Y67334D1*
X4437D1*
X4533Y67286D1*
X4582Y67238D1*
X4631Y67140D1*
Y67043D1*
X4582Y66946D1*
X4485Y66801D1*
X3999Y66315D1*
X4679D1*
X5576Y67334D2*
X5091D1*
X5043Y66897D1*
X5091Y66946D1*
X5237Y66995D1*
X5382D1*
X5528Y66946D1*
X5625Y66849D1*
X5674Y66703D1*
Y66607D1*
X5625Y66461D1*
X5528Y66363D1*
X5382Y66315D1*
X5237D1*
X5091Y66363D1*
X5043Y66412D1*
X4993Y66509D1*
X27771Y96550D2*
X27675Y96502D1*
X27577Y96404D1*
X27529Y96307D1*
Y96113D1*
X27577Y96015D1*
X27675Y95919D1*
X27771Y95869D1*
X27917Y95821D1*
X28161D1*
X28306Y95869D1*
X28403Y95919D1*
X28500Y96015D1*
X28549Y96113D1*
Y96307D1*
X28500Y96404D1*
X28403Y96502D1*
X28306Y96550D1*
X27772Y96913D2*
X27724D1*
X27626Y96961D1*
X27578Y97010D1*
X27530Y97107D1*
Y97302D1*
X27578Y97398D1*
X27626Y97446D1*
X27724Y97496D1*
X27821D1*
X27918Y97446D1*
X28063Y97350D1*
X28549Y96864D1*
Y97544D1*
X27675Y98441D2*
X27578Y98392D1*
X27530Y98246D1*
Y98150D1*
X27578Y98004D1*
X27724Y97906D1*
X27967Y97858D1*
X28209D1*
X28403Y97906D1*
X28501Y98004D1*
X28549Y98150D1*
Y98198D1*
X28501Y98343D1*
X28403Y98441D1*
X28257Y98489D1*
X28209D1*
X28063Y98441D1*
X27967Y98343D1*
X27918Y98198D1*
Y98150D1*
X27967Y98004D1*
X28063Y97906D1*
X28209Y97858D1*
X22360Y90588D2*
X22312Y90684D1*
X22214Y90782D1*
X22118Y90830D1*
X21923D1*
X21826Y90782D1*
X21729Y90684D1*
X21680Y90588D1*
X21631Y90442D1*
Y90198D1*
X21680Y90053D1*
X21729Y89956D1*
X21826Y89859D1*
X21923Y89810D1*
X22118D1*
X22214Y89859D1*
X22312Y89956D1*
X22360Y90053D1*
X22723Y90587D2*
Y90635D1*
X22772Y90733D1*
X22820Y90781D1*
X22918Y90829D1*
X23112D1*
X23208Y90781D1*
X23257Y90733D1*
X23306Y90635D1*
Y90538D1*
X23257Y90441D1*
X23160Y90296D1*
X22674Y89810D1*
X23354D1*
X23862D2*
X24349Y90829D1*
X23668D1*
X3601Y27780D2*
X3552Y27877D1*
X3455Y27975D1*
X3358Y28023D1*
X3164D1*
X3066Y27975D1*
X2970Y27877D1*
X2920Y27780D1*
X2872Y27634D1*
Y27391D1*
X2920Y27246D1*
X2970Y27148D1*
X3066Y27051D1*
X3164Y27002D1*
X3358D1*
X3455Y27051D1*
X3552Y27148D1*
X3601Y27246D1*
X3964Y27779D2*
Y27827D1*
X4012Y27925D1*
X4060Y27973D1*
X4158Y28022D1*
X4352D1*
X4449Y27973D1*
X4497Y27925D1*
X4547Y27827D1*
Y27731D1*
X4497Y27633D1*
X4401Y27488D1*
X3914Y27002D1*
X4595D1*
X5151Y28022D2*
X5006Y27973D1*
X4957Y27877D1*
Y27779D1*
X5006Y27683D1*
X5103Y27633D1*
X5297Y27585D1*
X5443Y27537D1*
X5540Y27439D1*
X5588Y27342D1*
Y27196D1*
X5540Y27100D1*
X5492Y27050D1*
X5346Y27002D1*
X5151D1*
X5006Y27050D1*
X4957Y27100D1*
X4909Y27196D1*
Y27342D1*
X4957Y27439D1*
X5055Y27537D1*
X5200Y27585D1*
X5394Y27633D1*
X5492Y27683D1*
X5540Y27779D1*
Y27877D1*
X5492Y27973D1*
X5346Y28022D1*
X5151D1*
X29659Y75748D2*
X29611Y75844D1*
X29513Y75942D1*
X29417Y75990D1*
X29222D1*
X29125Y75942D1*
X29028Y75844D1*
X28979Y75748D1*
X28930Y75602D1*
Y75358D1*
X28979Y75213D1*
X29028Y75116D1*
X29125Y75019D1*
X29222Y74970D1*
X29417D1*
X29513Y75019D1*
X29611Y75116D1*
X29659Y75213D1*
X30022Y75747D2*
Y75795D1*
X30071Y75893D1*
X30119Y75941D1*
X30217Y75989D1*
X30411D1*
X30508Y75941D1*
X30556Y75893D1*
X30605Y75795D1*
Y75698D1*
X30556Y75601D1*
X30459Y75456D1*
X29973Y74970D1*
X30654D1*
X31600Y75650D2*
X31550Y75504D1*
X31454Y75406D1*
X31308Y75358D1*
X31259D1*
X31113Y75406D1*
X31017Y75504D1*
X30967Y75650D1*
Y75698D1*
X31017Y75844D1*
X31113Y75941D1*
X31259Y75989D1*
X31308D1*
X31454Y75941D1*
X31550Y75844D1*
X31600Y75650D1*
Y75406D1*
X31550Y75164D1*
X31454Y75018D1*
X31308Y74970D1*
X31211D1*
X31065Y75018D1*
X31017Y75116D1*
X45781Y75272D2*
X45733Y75368D1*
X45635Y75466D1*
X45539Y75514D1*
X45344D1*
X45247Y75466D1*
X45150Y75368D1*
X45101Y75272D1*
X45052Y75126D1*
Y74882D1*
X45101Y74737D1*
X45150Y74639D1*
X45247Y74543D1*
X45344Y74493D1*
X45539D1*
X45635Y74543D1*
X45733Y74639D1*
X45781Y74737D1*
X46193Y75513D2*
X46726D1*
X46435Y75124D1*
X46581D1*
X46678Y75076D1*
X46726Y75028D1*
X46776Y74882D1*
Y74785D1*
X46726Y74639D1*
X46630Y74542D1*
X46484Y74493D1*
X46338D1*
X46193Y74542D1*
X46145Y74591D1*
X46095Y74688D1*
X47381Y75513D2*
X47235Y75465D1*
X47138Y75319D1*
X47089Y75076D1*
Y74930D1*
X47138Y74688D1*
X47235Y74542D1*
X47381Y74493D1*
X47478D1*
X47624Y74542D1*
X47721Y74688D1*
X47770Y74930D1*
Y75076D1*
X47721Y75319D1*
X47624Y75465D1*
X47478Y75513D1*
X47381D1*
X47721Y75319D2*
X47138Y74688D1*
X47940Y97061D2*
X47843Y97013D1*
X47745Y96915D1*
X47697Y96818D1*
Y96624D1*
X47745Y96526D1*
X47843Y96430D1*
X47940Y96380D1*
X48086Y96332D1*
X48329D1*
X48474Y96380D1*
X48572Y96430D1*
X48669Y96526D1*
X48718Y96624D1*
Y96818D1*
X48669Y96915D1*
X48572Y97013D1*
X48474Y97061D1*
X47698Y97473D2*
Y98006D1*
X48087Y97715D1*
Y97861D1*
X48135Y97958D1*
X48183Y98006D1*
X48329Y98055D1*
X48426D1*
X48572Y98006D1*
X48670Y97909D1*
X48718Y97763D1*
Y97617D1*
X48670Y97473D1*
X48620Y97424D1*
X48524Y97375D1*
X47893Y98369D2*
X47843Y98467D1*
X47698Y98613D1*
X48718D1*
X54720Y96843D2*
X54623Y96794D1*
X54525Y96697D1*
X54477Y96600D1*
Y96406D1*
X54525Y96308D1*
X54623Y96211D1*
X54720Y96162D1*
X54866Y96114D1*
X55109D1*
X55254Y96162D1*
X55352Y96211D1*
X55449Y96308D1*
X55498Y96406D1*
Y96600D1*
X55449Y96697D1*
X55352Y96794D1*
X55254Y96843D1*
X54478Y97254D2*
Y97788D1*
X54867Y97497D1*
Y97643D1*
X54915Y97739D1*
X54963Y97788D1*
X55109Y97837D1*
X55206D1*
X55352Y97788D1*
X55450Y97691D1*
X55498Y97545D1*
Y97399D1*
X55450Y97254D1*
X55400Y97206D1*
X55304Y97156D1*
X54721Y98200D2*
X54673D1*
X54575Y98248D1*
X54527Y98297D1*
X54478Y98394D1*
Y98589D1*
X54527Y98685D1*
X54575Y98734D1*
X54673Y98783D1*
X54769D1*
X54867Y98734D1*
X55012Y98637D1*
X55498Y98151D1*
Y98831D1*
X55697Y90277D2*
X55601Y90229D1*
X55503Y90131D1*
X55455Y90035D1*
Y89840D1*
X55503Y89743D1*
X55601Y89646D1*
X55697Y89597D1*
X55843Y89548D1*
X56087D1*
X56232Y89597D1*
X56329Y89646D1*
X56426Y89743D1*
X56475Y89840D1*
Y90035D1*
X56426Y90131D1*
X56329Y90229D1*
X56232Y90277D1*
X55456Y90689D2*
Y91222D1*
X55844Y90931D1*
Y91077D1*
X55893Y91174D1*
X55941Y91222D1*
X56087Y91271D1*
X56183D1*
X56329Y91222D1*
X56427Y91125D1*
X56475Y90979D1*
Y90833D1*
X56427Y90689D1*
X56378Y90640D1*
X56281Y90591D1*
X55456Y91683D2*
Y92216D1*
X55844Y91925D1*
Y92071D1*
X55893Y92168D1*
X55941Y92216D1*
X56087Y92266D1*
X56183D1*
X56329Y92216D1*
X56427Y92120D1*
X56475Y91974D1*
Y91828D1*
X56427Y91683D1*
X56378Y91635D1*
X56281Y91585D1*
X63266Y94163D2*
X63218Y94259D1*
X63120Y94357D1*
X63023Y94405D1*
X62829D1*
X62731Y94357D1*
X62635Y94259D1*
X62585Y94163D1*
X62537Y94017D1*
Y93773D1*
X62585Y93628D1*
X62635Y93531D1*
X62731Y93434D1*
X62829Y93385D1*
X63023D1*
X63120Y93434D1*
X63218Y93531D1*
X63266Y93628D1*
X63677Y94404D2*
X64211D1*
X63920Y94016D1*
X64066D1*
X64163Y93967D1*
X64211Y93919D1*
X64260Y93773D1*
Y93677D1*
X64211Y93531D1*
X64114Y93433D1*
X63968Y93385D1*
X63822D1*
X63677Y93433D1*
X63629Y93482D1*
X63580Y93579D1*
X65060Y93385D2*
Y94404D1*
X64574Y93725D1*
X65303D1*
X70275Y94163D2*
X70227Y94259D1*
X70129Y94357D1*
X70033Y94405D1*
X69838D1*
X69741Y94357D1*
X69644Y94259D1*
X69595Y94163D1*
X69546Y94017D1*
Y93773D1*
X69595Y93628D1*
X69644Y93531D1*
X69741Y93434D1*
X69838Y93385D1*
X70033D1*
X70129Y93434D1*
X70227Y93531D1*
X70275Y93628D1*
X70687Y94404D2*
X71220D1*
X70929Y94016D1*
X71075D1*
X71172Y93967D1*
X71220Y93919D1*
X71269Y93773D1*
Y93677D1*
X71220Y93531D1*
X71123Y93433D1*
X70977Y93385D1*
X70831D1*
X70687Y93433D1*
X70638Y93482D1*
X70589Y93579D1*
X72166Y94404D2*
X71681D1*
X71633Y93967D1*
X71681Y94016D1*
X71827Y94065D1*
X71972D1*
X72118Y94016D1*
X72215Y93919D1*
X72264Y93773D1*
Y93677D1*
X72215Y93531D1*
X72118Y93433D1*
X71972Y93385D1*
X71827D1*
X71681Y93433D1*
X71633Y93482D1*
X71583Y93579D1*
X53943Y48136D2*
X53846Y48088D1*
X53748Y47990D1*
X53700Y47894D1*
Y47699D1*
X53748Y47602D1*
X53846Y47505D1*
X53943Y47456D1*
X54089Y47407D1*
X54332D1*
X54477Y47456D1*
X54575Y47505D1*
X54671Y47602D1*
X54721Y47699D1*
Y47894D1*
X54671Y47990D1*
X54575Y48088D1*
X54477Y48136D1*
X53701Y48548D2*
Y49081D1*
X54090Y48790D1*
Y48936D1*
X54138Y49033D1*
X54186Y49081D1*
X54332Y49131D1*
X54429D1*
X54575Y49081D1*
X54673Y48985D1*
X54721Y48839D1*
Y48693D1*
X54673Y48548D1*
X54623Y48499D1*
X54527Y48450D1*
X53846Y50027D2*
X53749Y49979D1*
X53701Y49833D1*
Y49736D1*
X53749Y49590D1*
X53895Y49493D1*
X54138Y49444D1*
X54381D1*
X54575Y49493D1*
X54673Y49590D1*
X54721Y49736D1*
Y49785D1*
X54673Y49929D1*
X54575Y50027D1*
X54429Y50075D1*
X54381D1*
X54235Y50027D1*
X54138Y49929D1*
X54090Y49785D1*
Y49736D1*
X54138Y49590D1*
X54235Y49493D1*
X54381Y49444D1*
X24922Y79281D2*
Y78649D1*
X25943D1*
X25408D2*
Y79037D1*
X24922Y79595D2*
Y80275D1*
X25943Y79595D1*
Y80275D1*
X25433Y80589D2*
Y81150D1*
X24922Y81464D2*
X25943D1*
X24922Y82145D2*
X25943D1*
X25408Y81464D2*
Y82145D1*
X25262Y82701D2*
X25311Y82604D1*
X25408Y82507D1*
X25554Y82458D1*
X25651D1*
X25797Y82507D1*
X25894Y82604D1*
X25943Y82701D1*
Y82847D1*
X25894Y82945D1*
X25797Y83041D1*
X25651Y83091D1*
X25554D1*
X25408Y83041D1*
X25311Y82945D1*
X25262Y82847D1*
Y82701D1*
Y83405D2*
X25943D1*
X25457D2*
X25311Y83551D1*
X25262Y83648D1*
Y83793D1*
X25311Y83891D1*
X25457Y83939D1*
X25943D1*
X25457D2*
X25311Y84085D1*
X25262Y84183D1*
Y84328D1*
X25311Y84425D1*
X25457Y84475D1*
X25943D1*
X25554Y84789D2*
Y85371D1*
X25457D1*
X25359Y85323D1*
X25311Y85275D1*
X25262Y85177D1*
Y85031D1*
X25311Y84935D1*
X25408Y84837D1*
X25554Y84789D1*
X25651D1*
X25797Y84837D1*
X25894Y84935D1*
X25943Y85031D1*
Y85177D1*
X25894Y85275D1*
X25797Y85371D1*
X47782Y79735D2*
Y79103D1*
X48803D1*
X48268D2*
Y79491D1*
X47782Y80049D2*
X48803Y80729D1*
X47782D2*
X48803Y80049D1*
Y82809D2*
X47782Y82419D1*
X48803Y82031D1*
X48463Y82177D2*
Y82663D1*
X48122Y83123D2*
X48803Y83657D1*
X48122D2*
X48803Y83123D1*
X47782Y83971D2*
X47830Y84019D1*
X47782Y84069D1*
X47733Y84019D1*
X47782Y83971D1*
X48122Y84019D2*
X48803D1*
X48268Y84917D2*
X48171Y84869D1*
X48122Y84723D1*
Y84577D1*
X48171Y84431D1*
X48268Y84383D1*
X48365Y84431D1*
X48414Y84529D1*
X48463Y84771D1*
X48511Y84869D1*
X48609Y84917D1*
X48657D1*
X48754Y84869D1*
X48803Y84723D1*
Y84577D1*
X48754Y84431D1*
X48657Y84383D1*
X32542Y79368D2*
Y78735D1*
X33563D1*
X33028D2*
Y79124D1*
X32542Y79681D2*
Y80362D1*
X33563Y79681D1*
Y80362D1*
X33053Y80676D2*
Y81237D1*
X33028Y81551D2*
Y81988D1*
X32979Y82134D1*
X32931Y82183D1*
X32834Y82232D1*
X32736D1*
X32640Y82183D1*
X32590Y82134D1*
X32542Y81988D1*
Y81551D1*
X33563D1*
X33028Y81891D2*
X33563Y82232D1*
X33174Y82545D2*
Y83128D1*
X33077D1*
X32979Y83080D1*
X32931Y83032D1*
X32882Y82934D1*
Y82788D1*
X32931Y82691D1*
X33028Y82594D1*
X33174Y82545D1*
X33271D1*
X33417Y82594D1*
X33514Y82691D1*
X33563Y82788D1*
Y82934D1*
X33514Y83032D1*
X33417Y83128D1*
X32542Y83442D2*
X33563D1*
X32882Y84339D2*
X33563D1*
X33028D2*
X32931Y84242D1*
X32882Y84144D1*
Y83999D1*
X32931Y83902D1*
X33028Y83805D1*
X33174Y83756D1*
X33271D1*
X33417Y83805D1*
X33514Y83902D1*
X33563Y83999D1*
Y84144D1*
X33514Y84242D1*
X33417Y84339D1*
X32882Y84702D2*
X33563Y84993D1*
X33757Y84896D1*
X33855Y84798D1*
X33903Y84702D1*
Y84652D1*
X32882Y85285D2*
X33563Y84993D1*
X39992Y79091D2*
Y78459D1*
X41013D1*
X40478D2*
Y78847D1*
X39992Y79405D2*
X41013Y80085D1*
X39992D2*
X41013Y79405D1*
X40503Y80399D2*
Y80960D1*
X39992Y81274D2*
X41013D1*
X39992Y81955D2*
X41013D1*
X40478Y81274D2*
Y81955D1*
X40332Y82511D2*
X40381Y82414D1*
X40478Y82317D1*
X40624Y82268D1*
X40721D1*
X40867Y82317D1*
X40964Y82414D1*
X41013Y82511D1*
Y82657D1*
X40964Y82755D1*
X40867Y82851D1*
X40721Y82901D1*
X40624D1*
X40478Y82851D1*
X40381Y82755D1*
X40332Y82657D1*
Y82511D1*
Y83215D2*
X41013D1*
X40527D2*
X40381Y83361D1*
X40332Y83458D1*
Y83603D1*
X40381Y83701D1*
X40527Y83749D1*
X41013D1*
X40527D2*
X40381Y83895D1*
X40332Y83993D1*
Y84138D1*
X40381Y84235D1*
X40527Y84285D1*
X41013D1*
X40624Y84599D2*
Y85181D1*
X40527D1*
X40429Y85133D1*
X40381Y85085D1*
X40332Y84987D1*
Y84841D1*
X40381Y84745D1*
X40478Y84647D1*
X40624Y84599D1*
X40721D1*
X40867Y84647D1*
X40964Y84745D1*
X41013Y84841D1*
Y84987D1*
X40964Y85085D1*
X40867Y85181D1*
X24922Y29617D2*
X25943Y30005D1*
X24922Y30394D1*
X25943Y31486D2*
X24922Y31096D1*
X25943Y30707D1*
X25603Y30853D2*
Y31340D1*
X25165Y32528D2*
X25068Y32480D1*
X24970Y32382D1*
X24922Y32286D1*
Y32092D1*
X24970Y31994D1*
X25068Y31897D1*
X25165Y31848D1*
X25311Y31800D1*
X25554D1*
X25699Y31848D1*
X25797Y31897D1*
X25894Y31994D1*
X25943Y32092D1*
Y32286D1*
X25894Y32382D1*
X25797Y32480D1*
X25699Y32528D1*
X25118Y33830D2*
X25068Y33927D1*
X24923Y34073D1*
X25943D1*
X33177Y29398D2*
X34198Y29787D1*
X33177Y30175D1*
X34198Y31267D2*
X33177Y30878D1*
X34198Y30489D1*
X33858Y30635D2*
Y31121D1*
X33420Y32310D2*
X33323Y32262D1*
X33225Y32164D1*
X33177Y32067D1*
Y31873D1*
X33225Y31775D1*
X33323Y31679D1*
X33420Y31629D1*
X33566Y31581D1*
X33809D1*
X33954Y31629D1*
X34052Y31679D1*
X34149Y31775D1*
X34198Y31873D1*
Y32067D1*
X34149Y32164D1*
X34052Y32262D1*
X33954Y32310D1*
X33421Y33661D2*
X33373D1*
X33275Y33709D1*
X33227Y33757D1*
X33178Y33855D1*
Y34049D1*
X33227Y34146D1*
X33275Y34194D1*
X33373Y34244D1*
X33469D1*
X33567Y34194D1*
X33712Y34098D1*
X34198Y33611D1*
Y34292D1*
X51258Y27798D2*
Y26777D1*
X51599D1*
X51745Y26827D1*
X51842Y26923D1*
X51891Y27021D1*
X51939Y27166D1*
Y27409D1*
X51891Y27555D1*
X51842Y27652D1*
X51745Y27750D1*
X51599Y27798D1*
X51258D1*
X52253Y27603D2*
X52351Y27652D1*
X52497Y27797D1*
Y26777D1*
X31285Y25783D2*
Y24762D1*
X31625D1*
X31771Y24811D1*
X31869Y24908D1*
X31917Y25006D1*
X31966Y25151D1*
Y25394D1*
X31917Y25540D1*
X31869Y25637D1*
X31771Y25735D1*
X31625Y25783D1*
X31285D1*
X32329Y25539D2*
Y25588D1*
X32377Y25685D1*
X32425Y25734D1*
X32523Y25782D1*
X32717D1*
X32814Y25734D1*
X32862Y25685D1*
X32912Y25588D1*
Y25491D1*
X32862Y25393D1*
X32766Y25248D1*
X32279Y24762D1*
X32960D1*
X16283Y6465D2*
X17303D1*
Y6805D1*
X17254Y6951D1*
X17157Y7049D1*
X17060Y7097D1*
X16915Y7145D1*
X16671D1*
X16525Y7097D1*
X16429Y7049D1*
X16331Y6951D1*
X16283Y6805D1*
Y6465D1*
X16284Y7557D2*
Y8090D1*
X16672Y7799D1*
Y7945D1*
X16721Y8042D1*
X16769Y8090D1*
X16915Y8139D1*
X17011D1*
X17157Y8090D1*
X17255Y7993D1*
X17303Y7847D1*
Y7701D1*
X17255Y7557D1*
X17206Y7508D1*
X17109Y7459D1*
X35134Y106636D2*
Y105615D1*
X35475D1*
X35621Y105665D1*
X35718Y105761D1*
X35767Y105859D1*
X35815Y106004D1*
Y106248D1*
X35767Y106394D1*
X35718Y106490D1*
X35621Y106588D1*
X35475Y106636D1*
X35134D1*
X36615Y105615D2*
Y106635D1*
X36129Y105956D1*
X36858D1*
X25156Y106636D2*
Y105615D1*
X25497D1*
X25643Y105665D1*
X25740Y105761D1*
X25789Y105859D1*
X25837Y106004D1*
Y106248D1*
X25789Y106394D1*
X25740Y106490D1*
X25643Y106588D1*
X25497Y106636D1*
X25156D1*
X26733Y106635D2*
X26248D1*
X26200Y106198D1*
X26248Y106247D1*
X26394Y106296D1*
X26539D1*
X26685Y106247D1*
X26783Y106150D1*
X26831Y106004D1*
Y105907D1*
X26783Y105761D1*
X26685Y105664D1*
X26539Y105615D1*
X26394D1*
X26248Y105664D1*
X26200Y105713D1*
X26151Y105810D1*
X15184Y106636D2*
Y105615D1*
X15524D1*
X15670Y105665D1*
X15768Y105761D1*
X15816Y105859D1*
X15864Y106004D1*
Y106248D1*
X15816Y106394D1*
X15768Y106490D1*
X15670Y106588D1*
X15524Y106636D1*
X15184D1*
X16761Y106490D2*
X16712Y106587D1*
X16566Y106635D1*
X16470D1*
X16324Y106587D1*
X16226Y106441D1*
X16178Y106198D1*
Y105956D1*
X16226Y105761D1*
X16324Y105664D1*
X16470Y105615D1*
X16518D1*
X16663Y105664D1*
X16761Y105761D1*
X16809Y105907D1*
Y105956D1*
X16761Y106102D1*
X16663Y106198D1*
X16518Y106247D1*
X16470D1*
X16324Y106198D1*
X16226Y106102D1*
X16178Y105956D1*
X32687Y74525D2*
X33708D1*
Y74865D1*
X33659Y75011D1*
X33562Y75109D1*
X33464Y75157D1*
X33319Y75205D1*
X33076D1*
X32930Y75157D1*
X32833Y75109D1*
X32735Y75011D1*
X32687Y74865D1*
Y74525D1*
X33708Y75713D2*
X32688Y76200D1*
Y75519D1*
X19035Y33973D2*
X20056D1*
Y34313D1*
X20007Y34459D1*
X19910Y34557D1*
X19812Y34605D1*
X19667Y34654D1*
X19424D1*
X19278Y34605D1*
X19181Y34557D1*
X19083Y34459D1*
X19035Y34313D1*
Y33973D1*
X19036Y35210D2*
X19085Y35065D1*
X19181Y35016D1*
X19279D1*
X19375Y35065D1*
X19425Y35162D1*
X19473Y35356D1*
X19521Y35502D1*
X19619Y35599D1*
X19716Y35647D1*
X19862D1*
X19958Y35599D1*
X20008Y35550D1*
X20056Y35404D1*
Y35210D1*
X20008Y35065D1*
X19958Y35016D1*
X19862Y34967D1*
X19716D1*
X19619Y35016D1*
X19521Y35113D1*
X19473Y35258D1*
X19425Y35453D1*
X19375Y35550D1*
X19279Y35599D1*
X19181D1*
X19085Y35550D1*
X19036Y35404D1*
Y35210D1*
X44275Y28194D2*
X45295D1*
Y28534D1*
X45246Y28680D1*
X45149Y28778D1*
X45052Y28826D1*
X44907Y28874D1*
X44663D1*
X44517Y28826D1*
X44421Y28778D1*
X44323Y28680D1*
X44275Y28534D1*
Y28194D1*
X44615Y29820D2*
X44761Y29771D1*
X44859Y29674D1*
X44907Y29528D1*
Y29480D1*
X44859Y29334D1*
X44761Y29237D1*
X44615Y29188D1*
X44567D1*
X44421Y29237D1*
X44324Y29334D1*
X44276Y29480D1*
Y29528D1*
X44324Y29674D1*
X44421Y29771D1*
X44615Y29820D1*
X44859D1*
X45101Y29771D1*
X45247Y29674D1*
X45295Y29528D1*
Y29432D1*
X45247Y29286D1*
X45149Y29237D1*
X44275Y33694D2*
X45295D1*
Y34034D1*
X45246Y34180D1*
X45149Y34278D1*
X45052Y34326D1*
X44907Y34374D1*
X44663D1*
X44517Y34326D1*
X44421Y34278D1*
X44323Y34180D1*
X44275Y34034D1*
Y33694D1*
X44470Y34688D2*
X44421Y34786D1*
X44276Y34932D1*
X45295D1*
X44276Y35538D2*
X44324Y35392D1*
X44470Y35294D1*
X44713Y35246D1*
X44859D1*
X45101Y35294D1*
X45247Y35392D1*
X45295Y35538D1*
Y35634D1*
X45247Y35780D1*
X45101Y35877D1*
X44859Y35926D1*
X44713D1*
X44470Y35877D1*
X44324Y35780D1*
X44276Y35634D1*
Y35538D1*
X44470Y35877D2*
X45101Y35294D1*
X19035Y27792D2*
X20055D1*
Y28132D1*
X20006Y28278D1*
X19909Y28376D1*
X19812Y28424D1*
X19667Y28473D1*
X19423D1*
X19277Y28424D1*
X19181Y28376D1*
X19083Y28278D1*
X19035Y28132D1*
Y27792D1*
X19230Y28786D2*
X19181Y28884D1*
X19036Y29030D1*
X20055D1*
X19230Y29344D2*
X19181Y29442D1*
X19036Y29588D1*
X20055D1*
X32687Y87669D2*
X33708D1*
Y88009D1*
X33659Y88155D1*
X33562Y88253D1*
X33464Y88301D1*
X33319Y88349D1*
X33076D1*
X32930Y88301D1*
X32833Y88253D1*
X32735Y88155D1*
X32687Y88009D1*
Y87669D1*
X32883Y88663D2*
X32833Y88761D1*
X32688Y88907D1*
X33708D1*
X32931Y89270D2*
X32883D1*
X32785Y89318D1*
X32737Y89367D1*
X32688Y89464D1*
Y89659D1*
X32737Y89755D1*
X32785Y89804D1*
X32883Y89853D1*
X32979D1*
X33077Y89804D1*
X33222Y89707D1*
X33708Y89221D1*
Y89901D1*
X46830Y90131D2*
Y89500D1*
X47850D1*
Y90131D1*
X47316Y89500D2*
Y89889D1*
X46976Y91125D2*
X46878Y91029D1*
X46830Y90883D1*
Y90689D1*
X46878Y90543D1*
X46976Y90445D1*
X47072D1*
X47170Y90494D1*
X47218Y90543D1*
X47266Y90639D1*
X47364Y90931D1*
X47412Y91029D1*
X47462Y91077D1*
X47558Y91125D1*
X47704D1*
X47801Y91029D1*
X47850Y90883D1*
Y90689D1*
X47801Y90543D1*
X47704Y90445D1*
X46830Y91780D2*
X47850D1*
X46830Y91439D2*
Y92120D1*
Y92726D2*
X46878Y92628D1*
X46976Y92531D1*
X47072Y92482D1*
X47218Y92434D1*
X47462D1*
X47607Y92482D1*
X47704Y92531D1*
X47801Y92628D1*
X47850Y92726D1*
Y92920D1*
X47801Y93016D1*
X47704Y93114D1*
X47607Y93162D1*
X47462Y93211D1*
X47218D1*
X47072Y93162D1*
X46976Y93114D1*
X46878Y93016D1*
X46830Y92920D1*
Y92726D1*
X47364Y93524D2*
Y93962D1*
X47316Y94107D1*
X47266Y94157D1*
X47170Y94205D1*
X47024D1*
X46927Y94157D1*
X46878Y94107D1*
X46830Y93962D1*
Y93524D1*
X47850D1*
X44325Y22873D2*
Y21852D1*
X44908D1*
X45221Y22677D2*
X45319Y22727D1*
X45465Y22872D1*
Y21852D1*
X22199Y22873D2*
Y21852D1*
X22782D1*
X23145Y22629D2*
Y22677D1*
X23193Y22775D1*
X23242Y22823D1*
X23339Y22872D1*
X23534D1*
X23630Y22823D1*
X23678Y22775D1*
X23728Y22677D1*
Y22581D1*
X23678Y22483D1*
X23582Y22338D1*
X23096Y21852D1*
X23776D1*
X46830Y100077D2*
X47850Y100757D1*
X46830D2*
X47850Y100077D1*
X47341Y101071D2*
Y101632D1*
X46830Y101946D2*
X47850D1*
X46830Y102627D2*
X47850D1*
X47316Y101946D2*
Y102627D1*
X47170Y103183D2*
X47218Y103086D1*
X47316Y102989D1*
X47462Y102940D1*
X47558D1*
X47704Y102989D1*
X47801Y103086D1*
X47850Y103183D1*
Y103329D1*
X47801Y103427D1*
X47704Y103523D1*
X47558Y103573D1*
X47462D1*
X47316Y103523D1*
X47218Y103427D1*
X47170Y103329D1*
Y103183D1*
Y103887D2*
X47850D1*
X47364D2*
X47218Y104033D1*
X47170Y104130D1*
Y104275D1*
X47218Y104373D1*
X47364Y104421D1*
X47850D1*
X47364D2*
X47218Y104567D1*
X47170Y104665D1*
Y104810D1*
X47218Y104907D1*
X47364Y104957D1*
X47850D1*
X47462Y105271D2*
Y105853D1*
X47364D1*
X47266Y105805D1*
X47218Y105757D1*
X47170Y105659D1*
Y105513D1*
X47218Y105417D1*
X47316Y105319D1*
X47462Y105271D1*
X47558D1*
X47704Y105319D1*
X47801Y105417D1*
X47850Y105513D1*
Y105659D1*
X47801Y105757D1*
X47704Y105853D1*
X53497Y100028D2*
X53983Y100417D1*
X54518D1*
X53497Y100805D2*
X53983Y100417D1*
X54008Y101119D2*
Y101681D1*
X53497Y101994D2*
X54518D1*
X53497Y102675D2*
X54518D1*
X53983Y101994D2*
Y102675D1*
X53837Y103231D2*
X53886Y103135D1*
X53983Y103037D1*
X54129Y102989D1*
X54226D1*
X54372Y103037D1*
X54469Y103135D1*
X54518Y103231D1*
Y103377D1*
X54469Y103475D1*
X54372Y103572D1*
X54226Y103621D1*
X54129D1*
X53983Y103572D1*
X53886Y103475D1*
X53837Y103377D1*
Y103231D1*
Y103935D2*
X54518D1*
X54032D2*
X53886Y104081D1*
X53837Y104179D1*
Y104323D1*
X53886Y104421D1*
X54032Y104469D1*
X54518D1*
X54032D2*
X53886Y104615D1*
X53837Y104713D1*
Y104858D1*
X53886Y104956D1*
X54032Y105005D1*
X54518D1*
X54129Y105319D2*
Y105902D1*
X54032D1*
X53934Y105853D1*
X53886Y105805D1*
X53837Y105707D1*
Y105561D1*
X53886Y105465D1*
X53983Y105367D1*
X54129Y105319D1*
X54226D1*
X54372Y105367D1*
X54469Y105465D1*
X54518Y105561D1*
Y105707D1*
X54469Y105805D1*
X54372Y105902D1*
X60165Y100077D2*
Y100757D1*
X61185Y100077D1*
Y100757D1*
X60676Y101071D2*
Y101632D1*
X60165Y101946D2*
X61185D1*
X60165Y102627D2*
X61185D1*
X60651Y101946D2*
Y102627D1*
X60505Y103183D2*
X60553Y103086D1*
X60651Y102989D1*
X60797Y102940D1*
X60893D1*
X61039Y102989D1*
X61136Y103086D1*
X61185Y103183D1*
Y103329D1*
X61136Y103427D1*
X61039Y103523D1*
X60893Y103573D1*
X60797D1*
X60651Y103523D1*
X60553Y103427D1*
X60505Y103329D1*
Y103183D1*
Y103887D2*
X61185D1*
X60699D2*
X60553Y104033D1*
X60505Y104130D1*
Y104275D1*
X60553Y104373D1*
X60699Y104421D1*
X61185D1*
X60699D2*
X60553Y104567D1*
X60505Y104665D1*
Y104810D1*
X60553Y104907D1*
X60699Y104957D1*
X61185D1*
X60797Y105271D2*
Y105853D1*
X60699D1*
X60601Y105805D1*
X60553Y105757D1*
X60505Y105659D1*
Y105513D1*
X60553Y105417D1*
X60651Y105319D1*
X60797Y105271D1*
X60893D1*
X61039Y105319D1*
X61136Y105417D1*
X61185Y105513D1*
Y105659D1*
X61136Y105757D1*
X61039Y105853D1*
X67075Y100781D2*
X66978Y100733D1*
X66880Y100635D1*
X66832Y100539D1*
Y100344D1*
X66880Y100247D1*
X66978Y100150D1*
X67075Y100101D1*
X67221Y100052D1*
X67464D1*
X67609Y100101D1*
X67707Y100150D1*
X67804Y100247D1*
X67853Y100344D1*
Y100539D1*
X67804Y100635D1*
X67707Y100733D1*
X67609Y100781D1*
X67343Y101095D2*
Y101657D1*
X66832Y101970D2*
X67853D1*
X66832Y102651D2*
X67853D1*
X67318Y101970D2*
Y102651D1*
X67172Y103207D2*
X67221Y103111D1*
X67318Y103013D1*
X67464Y102965D1*
X67561D1*
X67707Y103013D1*
X67804Y103111D1*
X67853Y103207D1*
Y103353D1*
X67804Y103451D1*
X67707Y103548D1*
X67561Y103597D1*
X67464D1*
X67318Y103548D1*
X67221Y103451D1*
X67172Y103353D1*
Y103207D1*
Y103911D2*
X67853D1*
X67367D2*
X67221Y104057D1*
X67172Y104154D1*
Y104299D1*
X67221Y104397D1*
X67367Y104445D1*
X67853D1*
X67367D2*
X67221Y104591D1*
X67172Y104689D1*
Y104834D1*
X67221Y104932D1*
X67367Y104981D1*
X67853D1*
X67464Y105295D2*
Y105878D1*
X67367D1*
X67269Y105829D1*
X67221Y105781D1*
X67172Y105683D1*
Y105537D1*
X67221Y105441D1*
X67318Y105343D1*
X67464Y105295D1*
X67561D1*
X67707Y105343D1*
X67804Y105441D1*
X67853Y105537D1*
Y105683D1*
X67804Y105781D1*
X67707Y105878D1*
X7459Y9375D2*
X7363Y9328D1*
X7265Y9231D1*
X7217Y9133D1*
X7167Y8987D1*
Y8744D1*
X7217Y8598D1*
X7265Y8502D1*
X7363Y8404D1*
X7459Y8356D1*
X7654D1*
X7751Y8404D1*
X7848Y8502D1*
X7896Y8598D1*
X7946Y8744D1*
Y8987D1*
X7896Y9133D1*
X7848Y9231D1*
X7751Y9328D1*
X7654Y9375D1*
X7459D1*
X7605Y8550D2*
X7896Y8258D1*
X8259Y9180D2*
X8357Y9229D1*
X8503Y9374D1*
Y8355D1*
X22378Y54470D2*
Y54907D1*
X22329Y55053D1*
X22281Y55102D1*
X22184Y55150D1*
X22086D1*
X21990Y55102D1*
X21940Y55053D1*
X21892Y54907D1*
Y54470D1*
X22913D1*
X22378Y54810D2*
X22913Y55150D1*
X22088Y55464D2*
X22038Y55562D1*
X21893Y55708D1*
X22913D1*
X45359Y55463D2*
X45795D1*
X45941Y55512D1*
X45991Y55560D1*
X46039Y55657D1*
Y55755D1*
X45991Y55851D1*
X45941Y55901D1*
X45795Y55949D1*
X45359D1*
Y54928D1*
X45699Y55463D2*
X46039Y54928D1*
X46402Y55705D2*
Y55753D1*
X46451Y55851D1*
X46499Y55899D1*
X46597Y55948D1*
X46791D1*
X46887Y55899D1*
X46936Y55851D1*
X46985Y55753D1*
Y55657D1*
X46936Y55559D1*
X46839Y55414D1*
X46353Y54928D1*
X47033D1*
X42381Y52024D2*
Y52461D1*
X42331Y52607D1*
X42283Y52656D1*
X42187Y52704D1*
X42089D1*
X41992Y52656D1*
X41943Y52607D1*
X41895Y52461D1*
Y52024D1*
X42915D1*
X42381Y52364D2*
X42915Y52704D1*
X41896Y53116D2*
Y53649D1*
X42284Y53358D1*
Y53504D1*
X42333Y53601D1*
X42381Y53649D1*
X42527Y53699D1*
X42623D1*
X42769Y53649D1*
X42867Y53553D1*
X42915Y53407D1*
Y53261D1*
X42867Y53116D1*
X42818Y53068D1*
X42721Y53018D1*
X46443Y47155D2*
X46880D1*
X47026Y47205D1*
X47076Y47253D1*
X47124Y47350D1*
Y47447D1*
X47076Y47544D1*
X47026Y47593D1*
X46880Y47642D1*
X46443D1*
Y46621D1*
X46784Y47155D2*
X47124Y46621D1*
X47924D2*
Y47641D1*
X47438Y46961D1*
X48167D1*
X60125Y6832D2*
X60562D1*
X60708Y6881D1*
X60757Y6929D1*
X60806Y7026D1*
Y7124D1*
X60757Y7220D1*
X60708Y7270D1*
X60562Y7318D1*
X60125D1*
Y6297D1*
X60465Y6832D2*
X60806Y6297D1*
X61702Y7317D2*
X61217D1*
X61169Y6880D1*
X61217Y6928D1*
X61363Y6978D1*
X61508D1*
X61654Y6928D1*
X61752Y6832D1*
X61800Y6686D1*
Y6589D1*
X61752Y6443D1*
X61654Y6345D1*
X61508Y6297D1*
X61363D1*
X61217Y6345D1*
X61169Y6395D1*
X61119Y6491D1*
X56576Y4687D2*
Y5124D1*
X56526Y5270D1*
X56478Y5320D1*
X56382Y5368D1*
X56284D1*
X56187Y5320D1*
X56138Y5270D1*
X56090Y5124D1*
Y4687D1*
X57110D1*
X56576Y5028D2*
X57110Y5368D1*
X56236Y6264D2*
X56139Y6216D1*
X56091Y6070D1*
Y5974D1*
X56139Y5828D1*
X56285Y5730D1*
X56528Y5682D1*
X56770D1*
X56964Y5730D1*
X57062Y5828D1*
X57110Y5974D1*
Y6022D1*
X57062Y6167D1*
X56964Y6264D1*
X56818Y6313D1*
X56770D1*
X56624Y6264D1*
X56528Y6167D1*
X56479Y6022D1*
Y5974D1*
X56528Y5828D1*
X56624Y5730D1*
X56770Y5682D1*
X36948Y6197D2*
X37384D1*
X37530Y6246D1*
X37580Y6294D1*
X37628Y6391D1*
Y6489D1*
X37580Y6585D1*
X37530Y6635D1*
X37384Y6683D1*
X36948D1*
Y5662D1*
X37288Y6197D2*
X37628Y5662D1*
X38136D2*
X38622Y6682D1*
X37942D1*
X34351Y4663D2*
Y5100D1*
X34301Y5246D1*
X34253Y5295D1*
X34157Y5344D1*
X34059D1*
X33962Y5295D1*
X33913Y5246D1*
X33865Y5100D1*
Y4663D1*
X34885D1*
X34351Y5003D2*
X34885Y5344D1*
X33866Y5900D2*
X33914Y5755D1*
X34011Y5706D1*
X34108D1*
X34205Y5755D1*
X34254Y5852D1*
X34303Y6046D1*
X34351Y6192D1*
X34449Y6289D1*
X34545Y6337D1*
X34691D1*
X34788Y6289D1*
X34837Y6240D1*
X34885Y6094D1*
Y5900D1*
X34837Y5755D1*
X34788Y5706D1*
X34691Y5657D1*
X34545D1*
X34449Y5706D1*
X34351Y5803D1*
X34303Y5948D1*
X34254Y6143D1*
X34205Y6240D1*
X34108Y6289D1*
X34011D1*
X33914Y6240D1*
X33866Y6094D1*
Y5900D1*
X68198Y96659D2*
Y97096D1*
X68149Y97242D1*
X68101Y97291D1*
X68004Y97340D1*
X67906D1*
X67810Y97291D1*
X67760Y97242D1*
X67712Y97096D1*
Y96659D1*
X68733D1*
X68198Y96999D2*
X68733Y97340D1*
X68052Y98286D2*
X68198Y98236D1*
X68296Y98140D1*
X68344Y97994D1*
Y97946D1*
X68296Y97800D1*
X68198Y97703D1*
X68052Y97654D1*
X68004D1*
X67858Y97703D1*
X67762Y97800D1*
X67713Y97946D1*
Y97994D1*
X67762Y98140D1*
X67858Y98236D1*
X68052Y98286D1*
X68296D1*
X68539Y98236D1*
X68685Y98140D1*
X68733Y97994D1*
Y97897D1*
X68685Y97751D1*
X68587Y97703D1*
X61218Y96356D2*
Y96793D1*
X61169Y96939D1*
X61121Y96989D1*
X61024Y97037D1*
X60926D1*
X60830Y96989D1*
X60780Y96939D1*
X60732Y96793D1*
Y96356D1*
X61753D1*
X61218Y96697D2*
X61753Y97037D1*
X60928Y97351D2*
X60878Y97448D1*
X60733Y97594D1*
X61753D1*
X60733Y98200D2*
X60782Y98054D1*
X60928Y97956D1*
X61170Y97908D1*
X61316D1*
X61559Y97956D1*
X61705Y98054D1*
X61753Y98200D1*
Y98297D1*
X61705Y98443D1*
X61559Y98539D1*
X61316Y98589D1*
X61170D1*
X60928Y98539D1*
X60782Y98443D1*
X60733Y98297D1*
Y98200D1*
X60928Y98539D2*
X61559Y97956D1*
X18727Y51487D2*
Y51924D1*
X18678Y52070D1*
X18629Y52120D1*
X18533Y52168D1*
X18435D1*
X18339Y52120D1*
X18289Y52070D1*
X18241Y51924D1*
Y51487D1*
X19262D1*
X18727Y51828D2*
X19262Y52168D1*
X18436Y52482D2*
X18387Y52579D1*
X18242Y52725D1*
X19262D1*
X18436Y53039D2*
X18387Y53137D1*
X18242Y53283D1*
X19262D1*
X21266Y87464D2*
Y87901D1*
X21216Y88047D1*
X21168Y88096D1*
X21072Y88144D1*
X20974D1*
X20877Y88096D1*
X20828Y88047D1*
X20780Y87901D1*
Y87464D1*
X21800D1*
X21266Y87804D2*
X21800Y88144D1*
X20975Y88458D2*
X20926Y88556D1*
X20781Y88702D1*
X21800D1*
X21023Y89065D2*
X20975D1*
X20877Y89113D1*
X20829Y89162D1*
X20781Y89259D1*
Y89454D1*
X20829Y89550D1*
X20877Y89598D1*
X20975Y89648D1*
X21072D1*
X21169Y89598D1*
X21314Y89502D1*
X21800Y89016D1*
Y89696D1*
X2693Y12856D2*
Y13293D1*
X2644Y13439D1*
X2596Y13489D1*
X2499Y13537D1*
X2401D1*
X2305Y13489D1*
X2255Y13439D1*
X2207Y13293D1*
Y12856D1*
X3228D1*
X2693Y13197D2*
X3228Y13537D1*
X2403Y13851D2*
X2353Y13948D1*
X2208Y14094D1*
X3228D1*
X2208Y14506D2*
Y15039D1*
X2597Y14748D1*
Y14894D1*
X2645Y14991D1*
X2693Y15039D1*
X2839Y15089D1*
X2936D1*
X3082Y15039D1*
X3180Y14943D1*
X3228Y14797D1*
Y14651D1*
X3180Y14506D1*
X3130Y14457D1*
X3034Y14408D1*
X30611Y106150D2*
X31048D1*
X31194Y106199D1*
X31243Y106248D1*
X31291Y106344D1*
Y106442D1*
X31243Y106539D1*
X31194Y106588D1*
X31048Y106636D1*
X30611D1*
Y105615D1*
X30951Y106150D2*
X31291Y105615D1*
X31605Y106441D2*
X31703Y106490D1*
X31849Y106635D1*
Y105615D1*
X32649D2*
Y106635D1*
X32162Y105956D1*
X32891D1*
X20633Y106150D2*
X21070D1*
X21216Y106200D1*
X21265Y106248D1*
X21313Y106345D1*
Y106442D1*
X21265Y106539D1*
X21216Y106588D1*
X21070Y106637D1*
X20633D1*
Y105616D1*
X20973Y106150D2*
X21313Y105616D1*
X21627Y106441D2*
X21725Y106491D1*
X21871Y106636D1*
Y105616D1*
X22767Y106636D2*
X22282D1*
X22234Y106199D1*
X22282Y106247D1*
X22428Y106296D1*
X22573D1*
X22719Y106247D1*
X22817Y106150D1*
X22865Y106004D1*
Y105908D1*
X22817Y105762D1*
X22719Y105664D1*
X22573Y105616D1*
X22428D1*
X22282Y105664D1*
X22234Y105714D1*
X22184Y105810D1*
X10660Y106150D2*
X11097D1*
X11243Y106199D1*
X11292Y106248D1*
X11340Y106344D1*
Y106442D1*
X11292Y106539D1*
X11243Y106588D1*
X11097Y106636D1*
X10660D1*
Y105615D1*
X11000Y106150D2*
X11340Y105615D1*
X11654Y106441D2*
X11752Y106490D1*
X11898Y106635D1*
Y105615D1*
X12794Y106490D2*
X12746Y106587D1*
X12600Y106635D1*
X12504D1*
X12358Y106587D1*
X12260Y106441D1*
X12212Y106198D1*
Y105956D1*
X12260Y105761D1*
X12358Y105664D1*
X12504Y105615D1*
X12552D1*
X12697Y105664D1*
X12794Y105761D1*
X12843Y105907D1*
Y105956D1*
X12794Y106102D1*
X12697Y106198D1*
X12552Y106247D1*
X12504D1*
X12358Y106198D1*
X12260Y106102D1*
X12212Y105956D1*
X38728Y74446D2*
Y74883D1*
X38679Y75029D1*
X38631Y75079D1*
X38534Y75127D1*
X38436D1*
X38340Y75079D1*
X38290Y75029D1*
X38242Y74883D1*
Y74446D1*
X39263D1*
X38728Y74787D2*
X39263Y75127D1*
X38438Y75441D2*
X38388Y75538D1*
X38243Y75684D1*
X39263D1*
Y76192D2*
X38243Y76679D1*
Y75998D1*
X22379Y37212D2*
X22816D1*
X22962Y37261D1*
X23012Y37309D1*
X23060Y37406D1*
Y37504D1*
X23012Y37600D1*
X22962Y37650D1*
X22816Y37698D1*
X22379D1*
Y36677D1*
X22720Y37212D2*
X23060Y36677D1*
X23374Y37502D2*
X23471Y37552D1*
X23617Y37697D1*
Y36677D1*
X24174Y37697D2*
X24029Y37648D1*
X23979Y37552D1*
Y37454D1*
X24029Y37358D1*
X24125Y37308D1*
X24320Y37260D1*
X24466Y37212D1*
X24562Y37114D1*
X24611Y37017D1*
Y36871D1*
X24562Y36775D1*
X24514Y36725D1*
X24368Y36677D1*
X24174D1*
X24029Y36725D1*
X23979Y36775D1*
X23931Y36871D1*
Y37017D1*
X23979Y37114D1*
X24077Y37212D1*
X24222Y37260D1*
X24416Y37308D1*
X24514Y37358D1*
X24562Y37454D1*
Y37552D1*
X24514Y37648D1*
X24368Y37697D1*
X24174D1*
X39865Y26777D2*
X40302D1*
X40448Y26826D1*
X40498Y26874D1*
X40546Y26971D1*
Y27069D1*
X40498Y27165D1*
X40448Y27215D1*
X40302Y27263D1*
X39865D1*
Y26242D1*
X40206Y26777D2*
X40546Y26242D1*
X40860Y27067D2*
X40958Y27117D1*
X41103Y27262D1*
Y26242D1*
X42050Y26923D2*
X42000Y26777D1*
X41904Y26679D1*
X41758Y26631D1*
X41709D1*
X41563Y26679D1*
X41467Y26777D1*
X41417Y26923D1*
Y26971D1*
X41467Y27117D1*
X41563Y27213D1*
X41709Y27262D1*
X41758D1*
X41904Y27213D1*
X42000Y27117D1*
X42050Y26923D1*
Y26679D1*
X42000Y26436D1*
X41904Y26290D1*
X41758Y26242D1*
X41661D1*
X41515Y26290D1*
X41467Y26388D1*
X39623Y32174D2*
X40060D1*
X40206Y32224D1*
X40255Y32272D1*
X40303Y32368D1*
Y32466D1*
X40255Y32563D1*
X40206Y32612D1*
X40060Y32660D1*
X39623D1*
Y31640D1*
X39963Y32174D2*
X40303Y31640D1*
X40667Y32417D2*
Y32465D1*
X40715Y32563D1*
X40763Y32611D1*
X40861Y32659D1*
X41055D1*
X41152Y32611D1*
X41200Y32563D1*
X41249Y32465D1*
Y32368D1*
X41200Y32271D1*
X41103Y32126D1*
X40617Y31640D1*
X41298D1*
X41904Y32659D2*
X41758Y32611D1*
X41660Y32465D1*
X41612Y32222D1*
Y32076D1*
X41660Y31834D1*
X41758Y31688D1*
X41904Y31640D1*
X42000D1*
X42146Y31688D1*
X42243Y31834D1*
X42292Y32076D1*
Y32222D1*
X42243Y32465D1*
X42146Y32611D1*
X42000Y32659D1*
X41904D1*
X42243Y32465D2*
X41660Y31834D1*
X22379Y26459D2*
X22816D1*
X22962Y26509D1*
X23011Y26557D1*
X23059Y26653D1*
Y26751D1*
X23011Y26848D1*
X22962Y26897D1*
X22816Y26945D1*
X22379D1*
Y25925D1*
X22719Y26459D2*
X23059Y25925D1*
X23423Y26702D2*
Y26750D1*
X23471Y26848D1*
X23519Y26896D1*
X23617Y26944D1*
X23811D1*
X23908Y26896D1*
X23956Y26848D1*
X24005Y26750D1*
Y26653D1*
X23956Y26556D1*
X23859Y26411D1*
X23373Y25925D1*
X24054D1*
X24367Y26750D2*
X24465Y26799D1*
X24611Y26944D1*
Y25925D1*
X38728Y87250D2*
Y87687D1*
X38678Y87833D1*
X38630Y87883D1*
X38534Y87931D1*
X38436D1*
X38339Y87883D1*
X38290Y87833D1*
X38242Y87687D1*
Y87250D1*
X39262D1*
X38728Y87591D2*
X39262Y87931D1*
X38485Y88294D2*
X38437D1*
X38339Y88342D1*
X38291Y88391D1*
X38243Y88488D1*
Y88683D1*
X38291Y88779D1*
X38339Y88828D1*
X38437Y88877D1*
X38534D1*
X38631Y88828D1*
X38776Y88731D1*
X39262Y88245D1*
Y88925D1*
X38485Y89288D2*
X38437D1*
X38339Y89337D1*
X38291Y89385D1*
X38243Y89483D1*
Y89677D1*
X38291Y89774D1*
X38339Y89822D1*
X38437Y89871D1*
X38534D1*
X38631Y89822D1*
X38776Y89725D1*
X39262Y89239D1*
Y89920D1*
X87135Y76766D2*
Y77446D1*
X88155Y76766D1*
Y77446D1*
Y79526D2*
X87135Y79136D1*
X88155Y78748D1*
X87815Y78894D2*
Y79380D1*
X87475Y79840D2*
X88155Y80374D1*
X87475D2*
X88155Y79840D1*
X87135Y80688D2*
X87183Y80736D1*
X87135Y80786D1*
X87085Y80736D1*
X87135Y80688D1*
X87475Y80736D2*
X88155D1*
X87621Y81634D2*
X87523Y81586D1*
X87475Y81440D1*
Y81294D1*
X87523Y81148D1*
X87621Y81100D1*
X87717Y81148D1*
X87767Y81246D1*
X87815Y81488D1*
X87863Y81586D1*
X87961Y81634D1*
X88009D1*
X88106Y81586D1*
X88155Y81440D1*
Y81294D1*
X88106Y81148D1*
X88009Y81100D1*
X33898Y56681D2*
Y55952D1*
X33946Y55806D1*
X34044Y55709D1*
X34190Y55660D1*
X34286D1*
X34432Y55709D1*
X34530Y55806D1*
X34578Y55952D1*
Y56681D1*
X34941Y56437D2*
Y56485D1*
X34990Y56583D1*
X35038Y56631D1*
X35136Y56680D1*
X35330D1*
X35426Y56631D1*
X35475Y56583D1*
X35524Y56485D1*
Y56389D1*
X35475Y56291D1*
X35378Y56146D1*
X34892Y55660D1*
X35572D1*
X23082Y61278D2*
X23520D1*
X23665Y61327D1*
X23714Y61376D1*
X23763Y61473D1*
Y61619D1*
X23714Y61715D1*
X23665Y61765D1*
X23520Y61813D1*
X23082D1*
Y60792D1*
X24077Y61813D2*
Y60792D1*
X25119Y61570D2*
X25071Y61667D1*
X24973Y61765D1*
X24877Y61813D1*
X24682D1*
X24585Y61765D1*
X24488Y61667D1*
X24439Y61570D1*
X24390Y61424D1*
Y61181D1*
X24439Y61036D1*
X24488Y60938D1*
X24585Y60841D1*
X24682Y60792D1*
X24877D1*
X24973Y60841D1*
X25071Y60938D1*
X25119Y61036D1*
X25433Y61617D2*
X25531Y61667D1*
X25677Y61812D1*
Y60792D1*
X26233Y61812D2*
X26088Y61763D1*
X26039Y61667D1*
Y61569D1*
X26088Y61473D1*
X26185Y61423D1*
X26379Y61375D1*
X26525Y61327D1*
X26621Y61229D1*
X26670Y61132D1*
Y60986D1*
X26621Y60890D1*
X26573Y60840D1*
X26427Y60792D1*
X26233D1*
X26088Y60840D1*
X26039Y60890D1*
X25990Y60986D1*
Y61132D1*
X26039Y61229D1*
X26136Y61327D1*
X26281Y61375D1*
X26475Y61423D1*
X26573Y61473D1*
X26621Y61569D1*
Y61667D1*
X26573Y61763D1*
X26427Y61812D1*
X26233D1*
X27616Y61813D2*
X26983D1*
Y60792D1*
Y61327D2*
X27372D1*
X28416Y60792D2*
Y61812D1*
X27929Y61132D1*
X28658D1*
X29555Y61812D2*
X29070D1*
X29021Y61375D1*
X29070Y61423D1*
X29216Y61473D1*
X29361D1*
X29507Y61423D1*
X29604Y61327D1*
X29653Y61181D1*
Y61084D1*
X29604Y60938D1*
X29507Y60840D1*
X29361Y60792D1*
X29216D1*
X29070Y60840D1*
X29021Y60890D1*
X28972Y60986D1*
X30549Y61812D2*
X30064D1*
X30016Y61375D1*
X30064Y61423D1*
X30210Y61473D1*
X30355D1*
X30501Y61423D1*
X30599Y61327D1*
X30647Y61181D1*
Y61084D1*
X30599Y60938D1*
X30501Y60840D1*
X30355Y60792D1*
X30210D1*
X30064Y60840D1*
X30016Y60890D1*
X29966Y60986D1*
X31253Y61812D2*
X31107Y61763D1*
X31009Y61617D1*
X30961Y61375D1*
Y61229D1*
X31009Y60986D1*
X31107Y60840D1*
X31253Y60792D1*
X31349D1*
X31495Y60840D1*
X31592Y60986D1*
X31641Y61229D1*
Y61375D1*
X31592Y61617D1*
X31495Y61763D1*
X31349Y61812D1*
X31253D1*
X31592Y61617D2*
X31009Y60986D1*
X32943Y61813D2*
Y60792D1*
X33985Y61570D2*
X33937Y61667D1*
X33839Y61765D1*
X33743Y61813D1*
X33548D1*
X33451Y61765D1*
X33354Y61667D1*
X33305Y61570D1*
X33256Y61424D1*
Y61181D1*
X33305Y61036D1*
X33354Y60938D1*
X33451Y60841D1*
X33548Y60792D1*
X33743D1*
X33839Y60841D1*
X33937Y60938D1*
X33985Y61036D1*
X34979Y61667D2*
X34883Y61765D1*
X34737Y61813D1*
X34543D1*
X34397Y61765D1*
X34299Y61667D1*
Y61570D1*
X34348Y61473D1*
X34397Y61424D1*
X34493Y61376D1*
X34785Y61278D1*
X34883Y61230D1*
X34931Y61181D1*
X34979Y61084D1*
Y60938D1*
X34883Y60841D1*
X34737Y60792D1*
X34543D1*
X34397Y60841D1*
X34299Y60938D1*
X35293Y61278D2*
X35731D1*
X35876Y61327D1*
X35926Y61376D1*
X35974Y61473D1*
Y61619D1*
X35926Y61715D1*
X35876Y61765D1*
X35731Y61813D1*
X35293D1*
Y60792D1*
X43540Y69028D2*
Y68299D1*
X43588Y68153D1*
X43686Y68056D1*
X43832Y68007D1*
X43928D1*
X44074Y68056D1*
X44172Y68153D1*
X44220Y68299D1*
Y69028D1*
X45117Y69027D2*
X44632D1*
X44583Y68590D1*
X44632Y68638D1*
X44778Y68688D1*
X44922D1*
X45068Y68638D1*
X45166Y68542D1*
X45214Y68396D1*
Y68299D1*
X45166Y68153D1*
X45068Y68055D1*
X44922Y68007D1*
X44778D1*
X44632Y68055D1*
X44583Y68105D1*
X44534Y68201D1*
X26280Y68094D2*
X25890Y69115D1*
X25501Y68094D1*
X25647Y68434D2*
X26134D1*
X26934Y69115D2*
Y68094D1*
X26593Y69115D2*
X27274D1*
X28365Y68094D2*
Y69115D1*
X27976Y68094D1*
X27588Y69115D1*
Y68094D1*
X29310Y69115D2*
X28678D1*
Y68094D1*
X29310D1*
X28678Y68629D2*
X29067D1*
X30352Y68872D2*
X30304Y68969D1*
X30206Y69067D1*
X30110Y69115D1*
X29915D1*
X29818Y69067D1*
X29721Y68969D1*
X29672Y68872D1*
X29623Y68726D1*
Y68483D1*
X29672Y68338D1*
X29721Y68240D1*
X29818Y68143D1*
X29915Y68094D1*
X30110D1*
X30206Y68143D1*
X30304Y68240D1*
X30352Y68338D1*
Y68483D1*
X30110D1*
X31444Y68094D2*
X31055Y69115D1*
X30666Y68094D1*
X30812Y68434D2*
X31298D1*
X32746Y69115D2*
Y68094D1*
X33788Y68872D2*
X33740Y68969D1*
X33642Y69067D1*
X33546Y69115D1*
X33351D1*
X33254Y69067D1*
X33157Y68969D1*
X33108Y68872D1*
X33059Y68726D1*
Y68483D1*
X33108Y68338D1*
X33157Y68240D1*
X33254Y68143D1*
X33351Y68094D1*
X33546D1*
X33642Y68143D1*
X33740Y68240D1*
X33788Y68338D1*
X34782Y68969D2*
X34686Y69067D1*
X34540Y69115D1*
X34346D1*
X34200Y69067D1*
X34102Y68969D1*
Y68872D1*
X34151Y68775D1*
X34200Y68726D1*
X34296Y68678D1*
X34588Y68580D1*
X34686Y68532D1*
X34734Y68483D1*
X34782Y68386D1*
Y68240D1*
X34686Y68143D1*
X34540Y68094D1*
X34346D1*
X34200Y68143D1*
X34102Y68240D1*
X35096Y68580D2*
X35534D1*
X35679Y68629D1*
X35728Y68678D1*
X35777Y68775D1*
Y68921D1*
X35728Y69017D1*
X35679Y69067D1*
X35534Y69115D1*
X35096D1*
Y68094D1*
X61900Y11448D2*
X62629D1*
X62775Y11496D1*
X62871Y11594D1*
X62921Y11740D1*
Y11836D1*
X62871Y11982D1*
X62775Y12080D1*
X62629Y12128D1*
X61900D1*
X62921Y12636D2*
X61901Y13122D1*
Y12442D1*
X39992Y11727D2*
X40721D1*
X40867Y11775D1*
X40963Y11873D1*
X41013Y12019D1*
Y12115D1*
X40963Y12261D1*
X40867Y12359D1*
X40721Y12407D1*
X39992D1*
X40332Y13353D2*
X40478Y13304D1*
X40576Y13207D1*
X40624Y13061D1*
Y13013D1*
X40576Y12867D1*
X40478Y12770D1*
X40332Y12721D1*
X40284D1*
X40138Y12770D1*
X40041Y12867D1*
X39993Y13013D1*
Y13061D1*
X40041Y13207D1*
X40138Y13304D1*
X40332Y13353D1*
X40576D1*
X40818Y13304D1*
X40964Y13207D1*
X41013Y13061D1*
Y12965D1*
X40964Y12819D1*
X40867Y12770D1*
X83067Y102229D2*
X83796D1*
X83942Y102277D1*
X84038Y102375D1*
X84088Y102521D1*
Y102617D1*
X84038Y102763D1*
X83942Y102861D1*
X83796Y102909D1*
X83067D1*
X83262Y103223D2*
X83213Y103321D1*
X83068Y103467D1*
X84088D1*
X83068Y103878D2*
Y104412D1*
X83456Y104121D1*
Y104267D1*
X83505Y104363D1*
X83553Y104412D1*
X83699Y104461D1*
X83796D1*
X83942Y104412D1*
X84039Y104315D1*
X84088Y104169D1*
Y104023D1*
X84039Y103878D1*
X83990Y103830D1*
X83893Y103781D1*
X30580Y41208D2*
Y40479D1*
X30628Y40333D1*
X30726Y40236D1*
X30872Y40187D1*
X30968D1*
X31114Y40236D1*
X31212Y40333D1*
X31260Y40479D1*
Y41208D1*
X31574Y41012D2*
X31672Y41062D1*
X31818Y41207D1*
Y40187D1*
X32618D2*
Y41207D1*
X32131Y40527D1*
X32860D1*
X36954Y41208D2*
Y40479D1*
X37002Y40333D1*
X37100Y40236D1*
X37246Y40187D1*
X37342D1*
X37488Y40236D1*
X37586Y40333D1*
X37634Y40479D1*
Y41208D1*
X37948Y41012D2*
X38046Y41062D1*
X38192Y41207D1*
Y40187D1*
X39088Y41207D2*
X38603D1*
X38555Y40770D1*
X38603Y40818D1*
X38749Y40868D1*
X38894D1*
X39040Y40818D1*
X39138Y40722D1*
X39186Y40576D1*
Y40479D1*
X39138Y40333D1*
X39040Y40235D1*
X38894Y40187D1*
X38749D1*
X38603Y40235D1*
X38555Y40285D1*
X38506Y40381D1*
X6689Y25578D2*
Y24849D1*
X6737Y24703D1*
X6835Y24606D1*
X6981Y24557D1*
X7077D1*
X7223Y24606D1*
X7321Y24703D1*
X7369Y24849D1*
Y25578D1*
X7683Y25383D2*
X7781Y25432D1*
X7927Y25577D1*
Y24557D1*
X8823Y25432D2*
X8775Y25529D1*
X8629Y25577D1*
X8532D1*
X8386Y25529D1*
X8289Y25383D1*
X8240Y25140D1*
Y24897D1*
X8289Y24703D1*
X8386Y24605D1*
X8532Y24557D1*
X8581D1*
X8725Y24605D1*
X8823Y24703D1*
X8871Y24849D1*
Y24897D1*
X8823Y25043D1*
X8725Y25140D1*
X8581Y25188D1*
X8532D1*
X8386Y25140D1*
X8289Y25043D1*
X8240Y24897D1*
X15240Y9990D2*
Y10428D1*
X15191Y10573D1*
X15142Y10622D1*
X15045Y10670D1*
X14899D1*
X14803Y10622D1*
X14753Y10573D1*
X14705Y10428D1*
Y9990D1*
X15726D1*
X14705Y10984D2*
X15726D1*
X14948Y12027D2*
X14851Y11978D1*
X14753Y11881D1*
X14705Y11784D1*
Y11590D1*
X14753Y11492D1*
X14851Y11396D1*
X14948Y11346D1*
X15094Y11298D1*
X15337D1*
X15482Y11346D1*
X15580Y11396D1*
X15677Y11492D1*
X15726Y11590D1*
Y11784D1*
X15677Y11881D1*
X15580Y11978D1*
X15482Y12027D1*
X14901Y12340D2*
X14851Y12438D1*
X14706Y12584D1*
X15726D1*
X14949Y12947D2*
X14901D1*
X14803Y12996D1*
X14755Y13044D1*
X14706Y13142D1*
Y13336D1*
X14755Y13432D1*
X14803Y13481D1*
X14901Y13530D1*
X14997D1*
X15095Y13481D1*
X15240Y13384D1*
X15726Y12898D1*
Y13578D1*
X14705Y14524D2*
Y13892D1*
X15726D1*
X15191D2*
Y14281D1*
X14901Y14838D2*
X14851Y14936D1*
X14706Y15082D1*
X15726D1*
X14706Y15638D2*
X14755Y15493D1*
X14851Y15444D1*
X14949D1*
X15045Y15493D1*
X15095Y15590D1*
X15143Y15784D1*
X15191Y15930D1*
X15289Y16027D1*
X15386Y16075D1*
X15532D1*
X15628Y16027D1*
X15678Y15978D1*
X15726Y15832D1*
Y15638D1*
X15678Y15493D1*
X15628Y15444D1*
X15532Y15396D1*
X15386D1*
X15289Y15444D1*
X15191Y15542D1*
X15143Y15686D1*
X15095Y15881D1*
X15045Y15978D1*
X14949Y16027D1*
X14851D1*
X14755Y15978D1*
X14706Y15832D1*
Y15638D1*
X14949Y16438D2*
X14901D1*
X14803Y16487D1*
X14755Y16535D1*
X14706Y16633D1*
Y16827D1*
X14755Y16923D1*
X14803Y16972D1*
X14901Y17021D1*
X14997D1*
X15095Y16972D1*
X15240Y16875D1*
X15726Y16389D1*
Y17069D1*
X14949Y17433D2*
X14901D1*
X14803Y17481D1*
X14755Y17529D1*
X14706Y17627D1*
Y17821D1*
X14755Y17918D1*
X14803Y17966D1*
X14901Y18015D1*
X14997D1*
X15095Y17966D1*
X15240Y17869D1*
X15726Y17383D1*
Y18064D1*
X14705Y19365D2*
X15726D1*
X14948Y20408D2*
X14851Y20359D1*
X14753Y20262D1*
X14705Y20165D1*
Y19971D1*
X14753Y19873D1*
X14851Y19776D1*
X14948Y19727D1*
X15094Y19679D1*
X15337D1*
X15482Y19727D1*
X15580Y19776D1*
X15677Y19873D1*
X15726Y19971D1*
Y20165D1*
X15677Y20262D1*
X15580Y20359D1*
X15482Y20408D1*
X14851Y21402D2*
X14753Y21305D1*
X14705Y21159D1*
Y20965D1*
X14753Y20819D1*
X14851Y20721D1*
X14948D1*
X15045Y20771D1*
X15094Y20819D1*
X15142Y20916D1*
X15240Y21208D1*
X15288Y21305D1*
X15337Y21354D1*
X15434Y21402D1*
X15580D1*
X15677Y21305D1*
X15726Y21159D1*
Y20965D1*
X15677Y20819D1*
X15580Y20721D1*
X15240Y21716D2*
Y22154D1*
X15191Y22299D1*
X15142Y22348D1*
X15045Y22396D1*
X14899D1*
X14803Y22348D1*
X14753Y22299D1*
X14705Y22154D1*
Y21716D1*
X15726D1*
X48847Y70621D2*
X49576D1*
X49722Y70669D1*
X49819Y70767D1*
X49868Y70913D1*
Y71009D1*
X49819Y71155D1*
X49722Y71253D1*
X49576Y71301D1*
X48847D1*
X49043Y71615D2*
X48993Y71713D1*
X48848Y71859D1*
X49868D1*
X48848Y72415D2*
X48897Y72270D1*
X48993Y72221D1*
X49091D1*
X49187Y72270D1*
X49237Y72367D1*
X49285Y72561D1*
X49333Y72707D1*
X49431Y72804D1*
X49528Y72852D1*
X49674D1*
X49770Y72804D1*
X49820Y72755D1*
X49868Y72609D1*
Y72415D1*
X49820Y72270D1*
X49770Y72221D1*
X49674Y72172D1*
X49528D1*
X49431Y72221D1*
X49333Y72318D1*
X49285Y72463D1*
X49237Y72658D1*
X49187Y72755D1*
X49091Y72804D1*
X48993D1*
X48897Y72755D1*
X48848Y72609D1*
Y72415D1*
X88155Y12725D2*
X87135Y12336D1*
X88155Y11947D1*
X87815Y12093D2*
Y12579D1*
X88155Y14805D2*
X87135Y14415D1*
X88155Y14027D1*
X87815Y14173D2*
Y14659D1*
X87475Y15119D2*
X88155Y15653D1*
X87475D2*
X88155Y15119D1*
X87135Y15967D2*
X87183Y16015D1*
X87135Y16065D1*
X87085Y16015D1*
X87135Y15967D1*
X87475Y16015D2*
X88155D1*
X87621Y16913D2*
X87523Y16865D1*
X87475Y16719D1*
Y16573D1*
X87523Y16427D1*
X87621Y16378D1*
X87717Y16427D1*
X87767Y16524D1*
X87815Y16767D1*
X87863Y16865D1*
X87961Y16913D1*
X88009D1*
X88106Y16865D1*
X88155Y16719D1*
Y16573D1*
X88106Y16427D1*
X88009Y16378D1*
X87135Y33586D2*
X88155D1*
Y34024D1*
X88106Y34170D1*
X88058Y34218D1*
X87961Y34266D1*
X87815D1*
X87717Y34218D1*
X87669Y34170D1*
X87621Y34024D1*
X87571Y34170D1*
X87523Y34218D1*
X87427Y34266D1*
X87329D1*
X87232Y34218D1*
X87183Y34170D1*
X87135Y34024D1*
Y33586D1*
X87621D2*
Y34024D1*
X88155Y36346D2*
X87135Y35956D1*
X88155Y35568D1*
X87815Y35714D2*
Y36200D1*
X87475Y36660D2*
X88155Y37194D1*
X87475D2*
X88155Y36660D1*
X87135Y37508D2*
X87183Y37556D1*
X87135Y37606D1*
X87085Y37556D1*
X87135Y37508D1*
X87475Y37556D2*
X88155D1*
X87621Y38454D2*
X87523Y38406D1*
X87475Y38260D1*
Y38114D1*
X87523Y37968D1*
X87621Y37920D1*
X87717Y37968D1*
X87767Y38066D1*
X87815Y38308D1*
X87863Y38406D1*
X87961Y38454D1*
X88009D1*
X88106Y38406D1*
X88155Y38260D1*
Y38114D1*
X88106Y37968D1*
X88009Y37920D1*
X87377Y55881D2*
X87281Y55832D1*
X87183Y55735D1*
X87135Y55638D1*
Y55444D1*
X87183Y55346D1*
X87281Y55249D1*
X87377Y55200D1*
X87523Y55152D1*
X87767D1*
X87912Y55200D1*
X88009Y55249D1*
X88106Y55346D1*
X88155Y55444D1*
Y55638D1*
X88106Y55735D1*
X88009Y55832D1*
X87912Y55881D1*
X88155Y57960D2*
X87135Y57570D1*
X88155Y57182D1*
X87815Y57328D2*
Y57814D1*
X87475Y58274D2*
X88155Y58809D1*
X87475D2*
X88155Y58274D1*
X87135Y59122D2*
X87183Y59171D1*
X87135Y59220D1*
X87085Y59171D1*
X87135Y59122D1*
X87475Y59171D2*
X88155D1*
X87621Y60068D2*
X87523Y60020D1*
X87475Y59874D1*
Y59728D1*
X87523Y59582D1*
X87621Y59534D1*
X87717Y59582D1*
X87767Y59680D1*
X87815Y59922D1*
X87863Y60020D1*
X87961Y60068D1*
X88009D1*
X88106Y60020D1*
X88155Y59874D1*
Y59728D1*
X88106Y59582D1*
X88009Y59534D1*
X40162Y89912D2*
X41183Y90593D1*
X40162D2*
X41183Y89912D1*
Y91685D2*
X40162Y91295D1*
X41183Y90906D1*
X40843Y91052D2*
Y91539D1*
X40502Y91999D2*
X41183Y92533D1*
X40502D2*
X41183Y91999D1*
X40162Y92847D2*
X40210Y92895D1*
X40162Y92945D1*
X40113Y92895D1*
X40162Y92847D1*
X40502Y92895D2*
X41183D1*
X40648Y93793D2*
X40551Y93745D1*
X40502Y93599D1*
Y93453D1*
X40551Y93307D1*
X40648Y93258D1*
X40745Y93307D1*
X40794Y93404D1*
X40843Y93647D1*
X40891Y93745D1*
X40989Y93793D1*
X41037D1*
X41134Y93745D1*
X41183Y93599D1*
Y93453D1*
X41134Y93307D1*
X41037Y93258D1*
X26098Y38581D2*
X26486Y38095D1*
Y37561D1*
X26875Y38581D2*
X26486Y38095D1*
X27189Y38386D2*
X27286Y38435D1*
X27432Y38580D1*
Y37561D1*
X52454Y69687D2*
X52843Y69201D1*
Y68666D1*
X53231Y69687D2*
X52843Y69201D1*
X53595Y69443D2*
Y69491D1*
X53643Y69589D1*
X53691Y69637D1*
X53789Y69686D1*
X53983D1*
X54080Y69637D1*
X54128Y69589D1*
X54177Y69491D1*
Y69395D1*
X54128Y69297D1*
X54031Y69152D1*
X53545Y68666D1*
X54226D1*
X40162Y100976D2*
X40648Y101365D1*
X41183D1*
X40162Y101754D2*
X40648Y101365D1*
X41183Y102846D2*
X40162Y102456D1*
X41183Y102067D1*
X40843Y102213D2*
Y102700D1*
X40502Y103159D2*
X41183Y103694D1*
X40502D2*
X41183Y103159D1*
X40162Y104008D2*
X40210Y104056D1*
X40162Y104105D1*
X40113Y104056D1*
X40162Y104008D1*
X40502Y104056D2*
X41183D1*
X40648Y104954D2*
X40551Y104905D1*
X40502Y104759D1*
Y104613D1*
X40551Y104467D1*
X40648Y104419D1*
X40745Y104467D1*
X40794Y104565D1*
X40843Y104808D1*
X40891Y104905D1*
X40989Y104954D1*
X41037D1*
X41134Y104905D1*
X41183Y104759D1*
Y104613D1*
X41134Y104467D1*
X41037Y104419D1*
X51107Y50712D2*
X52128D1*
X51107Y50372D2*
Y51052D1*
Y51366D2*
X52128Y52047D1*
X51107D2*
X52128Y51366D1*
X49212Y50372D2*
Y50809D1*
X49162Y50955D1*
X49114Y51004D1*
X49018Y51052D1*
X48920D1*
X48823Y51004D1*
X48774Y50955D1*
X48726Y50809D1*
Y50372D1*
X49746D1*
X49212Y50712D2*
X49746Y51052D1*
X48726Y51366D2*
X49746Y52047D1*
X48726D2*
X49746Y51366D1*
X9191Y2290D2*
X9579Y1270D1*
X9968Y2290D1*
X10282D2*
Y1270D1*
X10595Y2290D2*
Y1270D1*
X11033D1*
X11179Y1319D1*
X11228Y1367D1*
X11276Y1464D1*
Y1610D1*
X11228Y1708D1*
X11179Y1756D1*
X11033Y1804D1*
X11179Y1854D1*
X11228Y1902D1*
X11276Y1998D1*
Y2096D1*
X11228Y2193D1*
X11179Y2242D1*
X11033Y2290D1*
X10595D1*
Y1804D2*
X11033D1*
X11590D2*
X12027D1*
X12173Y1854D1*
X12222Y1902D1*
X12270Y1998D1*
Y2096D1*
X12222Y2193D1*
X12173Y2242D1*
X12027Y2290D1*
X11590D1*
Y1270D1*
X11930Y1804D2*
X12270Y1270D1*
X13362D2*
X12973Y2290D1*
X12584Y1270D1*
X12730Y1610D2*
X13216D1*
X14016Y2290D2*
Y1270D1*
X13676Y2290D2*
X14357D1*
X15302D2*
X14670D1*
Y1270D1*
X15302D1*
X14670Y1804D2*
X15059D1*
X17128Y2291D2*
Y1270D1*
X17566D1*
X17712Y1319D1*
X17761Y1367D1*
X17809Y1464D1*
Y1610D1*
X17761Y1708D1*
X17712Y1756D1*
X17566Y1804D1*
X17712Y1854D1*
X17761Y1902D1*
X17809Y1999D1*
Y2096D1*
X17761Y2193D1*
X17712Y2242D1*
X17566Y2291D1*
X17128D1*
Y1804D2*
X17566D1*
X18901Y1270D2*
X18511Y2291D1*
X18123Y1270D1*
X18269Y1610D2*
X18755D1*
X19895Y2145D2*
X19799Y2242D1*
X19653Y2291D1*
X19458D1*
X19312Y2242D1*
X19215Y2145D1*
Y2048D1*
X19264Y1950D1*
X19312Y1902D1*
X19409Y1854D1*
X19701Y1756D1*
X19799Y1708D1*
X19847Y1658D1*
X19895Y1562D1*
Y1416D1*
X19799Y1319D1*
X19653Y1270D1*
X19458D1*
X19312Y1319D1*
X19215Y1416D1*
X20840Y2291D2*
X20209D1*
Y1270D1*
X20840D1*
X20209Y1804D2*
X20598D1*
X22141Y2291D2*
Y1270D1*
X22724D1*
X23669Y2291D2*
X23038D1*
Y1270D1*
X23669D1*
X23038Y1804D2*
X23427D1*
X23983Y2291D2*
Y1270D1*
X24323D1*
X24469Y1319D1*
X24567Y1416D1*
X24615Y1513D1*
X24664Y1658D1*
Y1902D1*
X24615Y2048D1*
X24567Y2145D1*
X24469Y2242D1*
X24323Y2291D1*
X23983D1*
X39195D2*
Y1270D1*
X39875Y2291D2*
Y1270D1*
X39195Y1804D2*
X39875D1*
X40820Y2291D2*
X40189D1*
Y1270D1*
X40820D1*
X40189Y1804D2*
X40577D1*
X41912Y1270D2*
X41522Y2291D1*
X41134Y1270D1*
X41280Y1610D2*
X41766D1*
X42226Y2291D2*
Y1270D1*
X42566D1*
X42712Y1319D1*
X42810Y1416D1*
X42858Y1513D1*
X42906Y1658D1*
Y1902D1*
X42858Y2048D1*
X42810Y2145D1*
X42712Y2242D1*
X42566Y2291D1*
X42226D1*
X44208D2*
Y1270D1*
X44791D1*
X45735Y2291D2*
X45104D1*
Y1270D1*
X45735D1*
X45104Y1804D2*
X45493D1*
X46049Y2291D2*
Y1270D1*
X46389D1*
X46535Y1319D1*
X46633Y1416D1*
X46681Y1513D1*
X46730Y1658D1*
Y1902D1*
X46681Y2048D1*
X46633Y2145D1*
X46535Y2242D1*
X46389Y2291D1*
X46049D1*
X11935Y28976D2*
X11839Y29074D1*
X11693Y29122D1*
X11499D1*
X11353Y29074D1*
X11255Y28976D1*
Y28879D1*
X11304Y28782D1*
X11353Y28733D1*
X11449Y28685D1*
X11741Y28587D1*
X11839Y28539D1*
X11887Y28490D1*
X11935Y28393D1*
Y28247D1*
X11839Y28151D1*
X11693Y28101D1*
X11499D1*
X11353Y28151D1*
X11255Y28247D1*
X12978Y28879D2*
X12930Y28976D1*
X12832Y29074D1*
X12735Y29122D1*
X12541D1*
X12443Y29074D1*
X12347Y28976D1*
X12297Y28879D1*
X12249Y28733D1*
Y28490D1*
X12297Y28345D1*
X12347Y28247D1*
X12443Y28151D1*
X12541Y28101D1*
X12735D1*
X12832Y28151D1*
X12930Y28247D1*
X12978Y28345D1*
X13292Y29122D2*
Y28101D1*
X13875D1*
X5585Y30881D2*
X5488Y30979D1*
X5342Y31027D1*
X5148D1*
X5002Y30979D1*
X4904Y30881D1*
Y30785D1*
X4954Y30687D1*
X5002Y30639D1*
X5098Y30590D1*
X5390Y30493D1*
X5488Y30444D1*
X5536Y30395D1*
X5585Y30298D1*
Y30152D1*
X5488Y30056D1*
X5342Y30006D1*
X5148D1*
X5002Y30056D1*
X4904Y30152D1*
X5898Y31027D2*
Y30006D1*
X6239D1*
X6385Y30056D1*
X6482Y30152D1*
X6531Y30250D1*
X6579Y30395D1*
Y30639D1*
X6531Y30785D1*
X6482Y30881D1*
X6385Y30979D1*
X6239Y31027D1*
X5898D1*
X7671Y30006D2*
X7281Y31027D1*
X6893Y30006D1*
X7039Y30347D2*
X7525D1*
X38653Y114573D2*
D69*
Y114513D1*
X38592Y114391D1*
X38532Y114330D1*
X38410Y114270D1*
X38167D1*
X38046Y114330D1*
X37986Y114391D1*
X37924Y114513D1*
Y114634D1*
X37986Y114756D1*
X38107Y114937D1*
X38714Y115545D1*
X37864D1*
X36864D2*
Y114270D1*
X37472Y115119D1*
X36560D1*
X36168Y114269D2*
X35683Y115545D1*
X35197Y114269D1*
X28553Y114513D2*
X28431Y114451D1*
X28248Y114270D1*
Y115545D1*
X27794Y114573D2*
Y114513D1*
X27734Y114391D1*
X27673Y114330D1*
X27551Y114270D1*
X27308D1*
X27188Y114330D1*
X27127Y114391D1*
X27066Y114513D1*
Y114634D1*
X27127Y114756D1*
X27248Y114937D1*
X27856Y115545D1*
X27005D1*
X26613Y114269D2*
X26127Y115545D1*
X25642Y114269D1*
X17346Y114270D2*
X17953D1*
X18013Y114816D1*
X17953Y114756D1*
X17770Y114694D1*
X17589D1*
X17406Y114756D1*
X17284Y114876D1*
X17224Y115059D1*
Y115180D1*
X17284Y115362D1*
X17406Y115484D1*
X17589Y115545D1*
X17770D1*
X17953Y115484D1*
X18013Y115423D1*
X18075Y115302D1*
X16832Y114269D2*
X16346Y115545D1*
X15860Y114269D1*
X32722Y114572D2*
X32783Y114451D1*
X32905Y114329D1*
X33026Y114269D1*
X33269D1*
X33391Y114329D1*
X33511Y114451D1*
X33573Y114572D1*
X33634Y114754D1*
Y115059D1*
X33573Y115240D1*
X33511Y115362D1*
X33391Y115483D1*
X33269Y115545D1*
X33026D1*
X32905Y115483D1*
X32783Y115362D1*
X32722Y115240D1*
Y115059D1*
X33026D1*
X31480Y114269D2*
Y115545D1*
X32330Y114269D1*
Y115545D1*
X31087Y114269D2*
Y115545D1*
X30662D1*
X30480Y115483D1*
X30357Y115362D1*
X30297Y115240D1*
X30237Y115059D1*
Y114754D1*
X30297Y114572D1*
X30357Y114451D1*
X30480Y114329D1*
X30662Y114269D1*
X31087D1*
X22564Y114572D2*
X22624Y114451D1*
X22746Y114329D1*
X22867Y114269D1*
X23110D1*
X23232Y114329D1*
X23353Y114451D1*
X23414Y114572D1*
X23475Y114754D1*
Y115059D1*
X23414Y115240D1*
X23353Y115362D1*
X23232Y115483D1*
X23110Y115545D1*
X22867D1*
X22746Y115483D1*
X22624Y115362D1*
X22564Y115240D1*
Y115059D1*
X22867D1*
X21321Y114269D2*
Y115545D1*
X22172Y114269D1*
Y115545D1*
X20929Y114269D2*
Y115545D1*
X20503D1*
X20321Y115483D1*
X20199Y115362D1*
X20138Y115240D1*
X20078Y115059D1*
Y114754D1*
X20138Y114572D1*
X20199Y114451D1*
X20321Y114329D1*
X20503Y114269D1*
X20929D1*
X12721Y114572D2*
X12782Y114451D1*
X12904Y114329D1*
X13024Y114269D1*
X13267D1*
X13389Y114329D1*
X13510Y114451D1*
X13572Y114572D1*
X13632Y114754D1*
Y115059D1*
X13572Y115240D1*
X13510Y115362D1*
X13389Y115483D1*
X13267Y115545D1*
X13024D1*
X12904Y115483D1*
X12782Y115362D1*
X12721Y115240D1*
Y115059D1*
X13024D1*
X11478Y114269D2*
Y115545D1*
X12329Y114269D1*
Y115545D1*
X11086Y114269D2*
Y115545D1*
X10661D1*
X10478Y115483D1*
X10356Y115362D1*
X10296Y115240D1*
X10235Y115059D1*
Y114754D1*
X10296Y114572D1*
X10356Y114451D1*
X10478Y114329D1*
X10661Y114269D1*
X11086D1*
X58075Y42360D2*
D67*
Y42845D1*
X57638Y42894D1*
X57686Y42845D1*
X57735Y42699D1*
Y42554D1*
X57686Y42408D1*
X57589Y42311D1*
X57443Y42262D1*
X57347D1*
X57201Y42311D1*
X57103Y42408D1*
X57055Y42554D1*
Y42699D1*
X57103Y42845D1*
X57153Y42894D1*
X57249Y42943D1*
X58076Y41949D2*
X57055Y41560D1*
X58076Y41172D1*
X57833Y33323D2*
X57930Y33372D1*
X58027Y33469D1*
X58076Y33566D1*
Y33760D1*
X58027Y33858D1*
X57930Y33954D1*
X57833Y34004D1*
X57687Y34052D1*
X57443D1*
X57299Y34004D1*
X57201Y33954D1*
X57104Y33858D1*
X57055Y33760D1*
Y33566D1*
X57104Y33469D1*
X57201Y33372D1*
X57299Y33323D1*
X57443D1*
Y33566D1*
X58076Y32329D2*
X57055D1*
X58076Y33010D1*
X57055D1*
X58076Y32015D2*
X57055D1*
Y31675D1*
X57104Y31529D1*
X57201Y31431D1*
X57299Y31383D1*
X57443Y31335D1*
X57687D1*
X57833Y31383D1*
X57930Y31431D1*
X58027Y31529D1*
X58076Y31675D1*
Y32015D1*
X55208Y34052D2*
Y33615D1*
X55257Y33469D1*
X55306Y33420D1*
X55402Y33372D1*
X55500D1*
X55597Y33420D1*
X55646Y33469D1*
X55694Y33615D1*
Y34052D1*
X54673D1*
X55208Y33712D2*
X54673Y33372D1*
X55694Y33058D2*
X54673D1*
Y32718D1*
X54723Y32572D1*
X54819Y32474D1*
X54917Y32426D1*
X55062Y32377D1*
X55306D1*
X55452Y32426D1*
X55548Y32474D1*
X55646Y32572D1*
X55694Y32718D1*
Y33058D1*
X55548Y31481D2*
X55645Y31529D1*
X55693Y31675D1*
Y31772D1*
X55645Y31918D1*
X55499Y32015D1*
X55256Y32064D1*
X55014D1*
X54819Y32015D1*
X54722Y31918D1*
X54673Y31772D1*
Y31723D1*
X54722Y31578D1*
X54819Y31481D1*
X54965Y31432D1*
X55014D1*
X55160Y31481D1*
X55256Y31578D1*
X55305Y31723D1*
Y31772D1*
X55256Y31918D1*
X55160Y32015D1*
X55014Y32064D1*
X52668Y34052D2*
Y33615D1*
X52717Y33469D1*
X52766Y33420D1*
X52862Y33372D1*
X52960D1*
X53057Y33420D1*
X53106Y33469D1*
X53154Y33615D1*
Y34052D1*
X52133D1*
X52668Y33712D2*
X52133Y33372D1*
X53154Y33058D2*
X52133D1*
Y32718D1*
X52183Y32572D1*
X52279Y32474D1*
X52377Y32426D1*
X52522Y32377D1*
X52766D1*
X52912Y32426D1*
X53008Y32474D1*
X53106Y32572D1*
X53154Y32718D1*
Y33058D1*
X52133Y31577D2*
X53153D1*
X52474Y32064D1*
Y31335D1*
X50128Y34052D2*
Y33615D1*
X50177Y33469D1*
X50226Y33420D1*
X50322Y33372D1*
X50420D1*
X50516Y33420D1*
X50566Y33469D1*
X50614Y33615D1*
Y34052D1*
X49593D1*
X50128Y33712D2*
X49593Y33372D1*
X50372Y32329D2*
X50468Y32377D1*
X50566Y32475D1*
X50614Y32572D1*
Y32766D1*
X50566Y32864D1*
X50468Y32960D1*
X50372Y33010D1*
X50226Y33058D1*
X49982D1*
X49837Y33010D1*
X49739Y32960D1*
X49643Y32864D1*
X49593Y32766D1*
Y32572D1*
X49643Y32475D1*
X49739Y32377D1*
X49837Y32329D1*
X50468Y31432D2*
X50565Y31481D1*
X50613Y31627D1*
Y31723D1*
X50565Y31869D1*
X50419Y31967D1*
X50176Y32015D1*
X49934D1*
X49739Y31967D1*
X49642Y31869D1*
X49593Y31723D1*
Y31675D1*
X49642Y31530D1*
X49739Y31432D1*
X49885Y31384D1*
X49934D1*
X50080Y31432D1*
X50176Y31530D1*
X50224Y31675D1*
Y31723D1*
X50176Y31869D1*
X50080Y31967D1*
X49934Y32015D1*
X49593Y31070D2*
X50613Y30390D1*
X50614Y29736D2*
X49593D1*
X50614Y30076D2*
Y29395D1*
Y29082D2*
X49593Y28401D1*
X50614D2*
X49593Y29082D1*
X49969Y46912D2*
Y46475D1*
X50019Y46329D1*
X50067Y46279D1*
X50164Y46231D1*
X50261D1*
X50358Y46279D1*
X50407Y46329D1*
X50456Y46475D1*
Y46912D1*
X49435D1*
X49969Y46571D2*
X49435Y46231D1*
X50213Y45188D2*
X50310Y45237D1*
X50407Y45334D1*
X50456Y45431D1*
Y45625D1*
X50407Y45723D1*
X50310Y45820D1*
X50213Y45869D1*
X50067Y45917D1*
X49823D1*
X49678Y45869D1*
X49581Y45820D1*
X49484Y45723D1*
X49435Y45625D1*
Y45431D1*
X49484Y45334D1*
X49581Y45237D1*
X49678Y45188D1*
X49435Y44680D2*
X50454Y44194D1*
Y44875D1*
X49435Y43880D2*
X50454Y43200D1*
X49969Y42886D2*
Y42449D1*
X50019Y42303D1*
X50067Y42254D1*
X50164Y42205D1*
X50261D1*
X50358Y42254D1*
X50407Y42303D1*
X50456Y42449D1*
Y42886D1*
X49435D1*
X49969Y42546D2*
X49435Y42205D1*
X50456Y41892D2*
X49435Y41211D1*
X50456D2*
X49435Y41892D1*
X52509Y43895D2*
Y43458D1*
X52559Y43312D1*
X52607Y43263D1*
X52704Y43214D1*
X52801D1*
X52898Y43263D1*
X52947Y43312D1*
X52996Y43458D1*
Y43895D1*
X51975D1*
X52509Y43555D2*
X51975Y43214D1*
X52996Y42901D2*
X51975D1*
Y42560D1*
X52024Y42414D1*
X52121Y42317D1*
X52218Y42268D1*
X52363Y42220D1*
X52607D1*
X52753Y42268D1*
X52850Y42317D1*
X52947Y42414D1*
X52996Y42560D1*
Y42901D1*
X52994Y41324D2*
Y41809D1*
X52558Y41857D1*
X52606Y41809D1*
X52655Y41663D1*
Y41518D1*
X52606Y41372D1*
X52509Y41274D1*
X52363Y41226D1*
X52267D1*
X52121Y41274D1*
X52023Y41372D1*
X51975Y41518D1*
Y41663D1*
X52023Y41809D1*
X52072Y41857D1*
X52169Y41906D1*
X55208Y43895D2*
Y43458D1*
X55257Y43312D1*
X55306Y43263D1*
X55402Y43214D1*
X55500D1*
X55597Y43263D1*
X55646Y43312D1*
X55694Y43458D1*
Y43895D1*
X54673D1*
X55208Y43555D2*
X54673Y43214D1*
X55694Y42901D2*
X54673D1*
Y42560D1*
X54723Y42414D1*
X54819Y42317D1*
X54917Y42268D1*
X55062Y42220D1*
X55306D1*
X55452Y42268D1*
X55548Y42317D1*
X55646Y42414D1*
X55694Y42560D1*
Y42901D1*
X54673Y41712D2*
X55693Y41226D1*
Y41906D1*
M02*
