G04 DipTrace 2.3.1.0*
%INLED_Matrix.GTS*%
%MOMM*%
%ADD18R,2.2X2.0*%
%FSLAX53Y53*%
G04*
G71*
G90*
G75*
G01*
%LNTopMask*%
%LPD*%
D18*
X7220Y24225D3*
Y21225D3*
X11665Y20925D3*
Y23925D3*
X16110Y24225D3*
Y21225D3*
X20555Y20925D3*
Y23925D3*
X25000Y24225D3*
Y21225D3*
X29445Y20925D3*
Y23925D3*
X33890Y24225D3*
Y21225D3*
X38335Y20925D3*
Y23925D3*
X13888Y17462D3*
Y14462D3*
X18332Y14288D3*
Y17288D3*
X22778Y17462D3*
Y14462D3*
X27222Y14288D3*
Y17288D3*
X31668Y17462D3*
Y14462D3*
X36113Y14288D3*
Y17288D3*
X40557Y17462D3*
Y14462D3*
X42780Y21225D3*
Y24225D3*
X9443Y14288D3*
Y17288D3*
X11665Y7620D3*
Y10620D3*
X16110Y10477D3*
Y7477D3*
X20555Y7620D3*
Y10620D3*
X25000Y10477D3*
Y7477D3*
X29445Y7620D3*
Y10620D3*
X33890Y10477D3*
Y7477D3*
X38335Y7620D3*
Y10620D3*
G36*
X11346Y0D2*
X10076Y3175D1*
X13886D1*
Y0D1*
X11346D1*
G37*
G36*
X1505Y23812D2*
X3251D1*
Y27305D1*
X76D1*
D1*
X1505Y23812D1*
G37*
G36*
X48495D2*
X46749D1*
Y27305D1*
X49924D1*
D1*
X48495Y23812D1*
G37*
G36*
X38654Y0D2*
X39924Y3175D1*
X36114D1*
Y0D1*
X38654D1*
G37*
M02*
