G04 DipTrace 2.3.1.0*
%INLED_Matrix.GBO*%
%MOMM*%
%ADD24C,0.314*%
%ADD25C,0.235*%
%FSLAX53Y53*%
G04*
G71*
G90*
G75*
G01*
%LNBotSilk*%
%LPD*%
X12659Y20634D2*
D24*
Y18885D1*
X13533Y19758D2*
X11783D1*
X37427Y20793D2*
Y19043D1*
X38301Y19917D2*
X36551D1*
X33070Y8011D2*
X31947D1*
X18304D2*
X17181D1*
X30497Y4760D2*
D25*
Y3228D1*
X29623D1*
X28206Y4760D2*
X29152D1*
Y3228D1*
X28206D1*
X29152Y4030D2*
X28570D1*
X27735Y4760D2*
Y3228D1*
X27225D1*
X27006Y3303D1*
X26859Y3447D1*
X26787Y3594D1*
X26714Y3811D1*
Y4177D1*
X26787Y4396D1*
X26859Y4541D1*
X27006Y4687D1*
X27225Y4760D1*
X27735D1*
X23597Y3228D2*
Y4760D1*
X24179Y3228D1*
X24762Y4760D1*
Y3228D1*
X22252Y4249D2*
Y3228D1*
Y4030D2*
X22396Y4177D1*
X22543Y4249D1*
X22760D1*
X22907Y4177D1*
X23052Y4030D1*
X23126Y3811D1*
Y3666D1*
X23052Y3447D1*
X22907Y3303D1*
X22760Y3228D1*
X22543D1*
X22396Y3303D1*
X22252Y3447D1*
X21562Y4760D2*
Y3520D1*
X21490Y3303D1*
X21343Y3228D1*
X21198D1*
X21781Y4249D2*
X21271D1*
X20728D2*
Y3228D1*
Y3811D2*
X20653Y4030D1*
X20509Y4177D1*
X20362Y4249D1*
X20143D1*
X19672Y4760D2*
X19600Y4687D1*
X19526Y4760D1*
X19600Y4834D1*
X19672Y4760D1*
X19600Y4249D2*
Y3228D1*
X19055Y4249D2*
X18253Y3228D1*
Y4249D2*
X19055Y3228D1*
M02*
