G04 DipTrace 2.3.1.0*
%INLED_Matrix.GTO*%
%MOMM*%
%ADD10C,0.25*%
%ADD17O,0.5X0.5*%
%FSLAX53Y53*%
G04*
G71*
G90*
G75*
G01*
%LNTopSilk*%
%LPD*%
X8720Y24525D2*
D10*
Y20925D1*
X5720Y24525D2*
Y20925D1*
D17*
X7220Y25775D3*
X10165Y20625D2*
D10*
Y24225D1*
X13165Y20625D2*
Y24225D1*
D17*
X11665Y19375D3*
X17610Y24525D2*
D10*
Y20925D1*
X14610Y24525D2*
Y20925D1*
D17*
X16110Y25775D3*
X19055Y20625D2*
D10*
Y24225D1*
X22055Y20625D2*
Y24225D1*
D17*
X20555Y19375D3*
X26500Y24525D2*
D10*
Y20925D1*
X23500Y24525D2*
Y20925D1*
D17*
X25000Y25775D3*
X27945Y20625D2*
D10*
Y24225D1*
X30945Y20625D2*
Y24225D1*
D17*
X29445Y19375D3*
X35390Y24525D2*
D10*
Y20925D1*
X32390Y24525D2*
Y20925D1*
D17*
X33890Y25775D3*
X36835Y20625D2*
D10*
Y24225D1*
X39835Y20625D2*
Y24225D1*
D17*
X38335Y19375D3*
X15388Y17763D2*
D10*
Y14163D1*
X12388Y17763D2*
Y14163D1*
D17*
X13888Y19013D3*
X16832Y13987D2*
D10*
Y17587D1*
X19832Y13987D2*
Y17587D1*
D17*
X18332Y12737D3*
X24278Y17763D2*
D10*
Y14163D1*
X21277Y17763D2*
Y14163D1*
D17*
X22778Y19013D3*
X25722Y13987D2*
D10*
Y17587D1*
X28722Y13987D2*
Y17587D1*
D17*
X27222Y12737D3*
X33167Y17763D2*
D10*
Y14163D1*
X30168Y17763D2*
Y14163D1*
D17*
X31668Y19013D3*
X34613Y13987D2*
D10*
Y17587D1*
X37613Y13987D2*
Y17587D1*
D17*
X36113Y12737D3*
X42057Y17763D2*
D10*
Y14163D1*
X39057Y17763D2*
Y14163D1*
D17*
X40557Y19013D3*
X41280Y20925D2*
D10*
Y24525D1*
X44280Y20925D2*
Y24525D1*
D17*
X42780Y19675D3*
X7942Y13987D2*
D10*
Y17587D1*
X10943Y13987D2*
Y17587D1*
D17*
X9443Y12737D3*
X10165Y7320D2*
D10*
Y10920D1*
X13165Y7320D2*
Y10920D1*
D17*
X11665Y6070D3*
X17610Y10778D2*
D10*
Y7178D1*
X14610Y10778D2*
Y7178D1*
D17*
X16110Y12028D3*
X19055Y7320D2*
D10*
Y10920D1*
X22055Y7320D2*
Y10920D1*
D17*
X20555Y6070D3*
X26500Y10778D2*
D10*
Y7178D1*
X23500Y10778D2*
Y7178D1*
D17*
X25000Y12028D3*
X27945Y7320D2*
D10*
Y10920D1*
X30945Y7320D2*
Y10920D1*
D17*
X29445Y6070D3*
X35390Y10778D2*
D10*
Y7178D1*
X32390Y10778D2*
Y7178D1*
D17*
X33890Y12028D3*
X36835Y7320D2*
D10*
Y10920D1*
X39835Y7320D2*
Y10920D1*
D17*
X38335Y6070D3*
M02*
