G04 DipTrace 2.3.1.0*
%INLED_Matrix.GTL*%
%MOMM*%
%ADD13C,0.8*%
%ADD15C,1.0*%
%ADD16C,0.4*%
%ADD18R,2.2X2.0*%
%ADD20C,0.914*%
%FSLAX53Y53*%
G04*
G71*
G90*
G75*
G01*
%LNTop*%
%LPD*%
X7220Y24225D2*
D13*
X11365D1*
X11665Y23925D1*
Y20925D2*
X15810D1*
X16110Y21225D1*
Y24225D2*
X20255D1*
X20555Y23925D1*
Y20925D2*
X24700D1*
X25000Y21225D1*
Y24225D2*
X29145D1*
X29445Y23925D1*
Y20925D2*
X33590D1*
X33890Y21225D1*
Y24225D2*
X38035D1*
X38335Y23925D1*
X18332Y17287D2*
X14062D1*
X13888Y17463D1*
X22778Y14463D2*
X18508D1*
X18332Y14287D1*
X27222Y17287D2*
X22953D1*
X22778Y17463D1*
X31668Y14463D2*
X27397D1*
X27222Y14287D1*
X36113Y17287D2*
X31843D1*
X31668Y17463D1*
X40557Y14463D2*
X36288D1*
X36113Y14287D1*
X42780Y24225D2*
X45320D1*
Y20320D1*
X44050Y17463D1*
X40557D1*
X38335Y20925D2*
X42480D1*
X42780Y21225D1*
X38335Y20925D2*
X37510D1*
X36431Y19846D1*
X38335Y7620D2*
D3*
X9443Y14287D2*
Y12843D1*
X11665Y10620D1*
Y7620D2*
X15968D1*
X16110Y7477D1*
Y10477D2*
X20412D1*
X20555Y10620D1*
Y7620D2*
X24857D1*
X25000Y7477D1*
Y10477D2*
X29302D1*
X29445Y10620D1*
X7220Y21225D2*
D15*
Y19687D1*
Y18098D1*
X7855Y17463D1*
X9268D1*
X9443Y17287D1*
D13*
X10252D1*
X12935Y14605D1*
X13745D1*
X13888Y14463D1*
X7218Y19687D2*
D15*
X7220D1*
X29445Y7620D2*
D13*
X33748D1*
X33890Y7477D1*
Y10477D2*
X38193D1*
X38335Y10620D1*
D20*
X36431Y19846D3*
X38335Y7620D3*
X7220Y18098D3*
X7218Y19687D3*
X955Y26408D2*
D16*
X49044D1*
X1118Y26012D2*
X48881D1*
X1286Y25615D2*
X5463D1*
X8974D2*
X14356D1*
X17868D2*
X23244D1*
X26755D2*
X32131D1*
X35643D2*
X41025D1*
X44536D2*
X48719D1*
X1449Y25218D2*
X5463D1*
X13418D2*
X14356D1*
X22311D2*
X23244D1*
X31199D2*
X32131D1*
X40093D2*
X41025D1*
X45574D2*
X48550D1*
X1611Y24822D2*
X5463D1*
X13418D2*
X14356D1*
X22311D2*
X23244D1*
X31199D2*
X32131D1*
X40093D2*
X41025D1*
X46180D2*
X48388D1*
X1780Y24425D2*
X5463D1*
X13418D2*
X14356D1*
X22311D2*
X23244D1*
X31199D2*
X32131D1*
X40093D2*
X41025D1*
X46355D2*
X48219D1*
X1943Y24028D2*
X5463D1*
X13418D2*
X14356D1*
X22311D2*
X23244D1*
X31199D2*
X32131D1*
X40093D2*
X41025D1*
X46374D2*
X48056D1*
X2105Y23632D2*
X5463D1*
X13418D2*
X14356D1*
X22311D2*
X23244D1*
X31199D2*
X32131D1*
X40093D2*
X41025D1*
X46374D2*
X47894D1*
X2274Y23235D2*
X5463D1*
X13418D2*
X14356D1*
X22311D2*
X23244D1*
X31199D2*
X32131D1*
X40093D2*
X41025D1*
X46374D2*
X47725D1*
X2436Y22838D2*
X5463D1*
X13418D2*
X14356D1*
X22311D2*
X23244D1*
X31199D2*
X32131D1*
X40093D2*
X41025D1*
X46374D2*
X47563D1*
X2605Y22442D2*
X5463D1*
X13418D2*
X14356D1*
X22311D2*
X23244D1*
X31199D2*
X32131D1*
X40093D2*
X41025D1*
X46374D2*
X47400D1*
X2768Y22045D2*
X5463D1*
X13418D2*
X14356D1*
X22311D2*
X23244D1*
X31199D2*
X32131D1*
X40093D2*
X41025D1*
X46374D2*
X47231D1*
X2930Y21648D2*
X5463D1*
X46374D2*
X47069D1*
X3099Y21252D2*
X5463D1*
X46374D2*
X46900D1*
X3261Y20855D2*
X5463D1*
X46374D2*
X46738D1*
X3424Y20458D2*
X5463D1*
X46374D2*
X46575D1*
X3593Y20062D2*
X5463D1*
X3755Y19665D2*
X5463D1*
X3924Y19268D2*
X6063D1*
X4086Y18872D2*
X6063D1*
X4249Y18475D2*
X6063D1*
X4418Y18078D2*
X6063D1*
X4580Y17682D2*
X6144D1*
X45299D2*
X45420D1*
X4743Y17285D2*
X6413D1*
X45124D2*
X45255D1*
X4911Y16888D2*
X6813D1*
X44930D2*
X45092D1*
X5074Y16492D2*
X7263D1*
X44386D2*
X44925D1*
X5243Y16095D2*
X7688D1*
X15643D2*
X16575D1*
X24530D2*
X25469D1*
X33424D2*
X34356D1*
X42311D2*
X44763D1*
X5405Y15698D2*
X7688D1*
X15643D2*
X16575D1*
X24530D2*
X25469D1*
X33424D2*
X34356D1*
X42311D2*
X44594D1*
X5568Y15302D2*
X7688D1*
X15643D2*
X16575D1*
X24530D2*
X25469D1*
X33424D2*
X34356D1*
X42311D2*
X44431D1*
X5736Y14905D2*
X7688D1*
X15643D2*
X16575D1*
X24530D2*
X25469D1*
X33424D2*
X34356D1*
X42311D2*
X44263D1*
X5899Y14508D2*
X7688D1*
X11199D2*
X11556D1*
X15643D2*
X16575D1*
X24530D2*
X25469D1*
X33424D2*
X34356D1*
X42311D2*
X44100D1*
X6061Y14112D2*
X7688D1*
X11199D2*
X11950D1*
X15643D2*
X16575D1*
X24530D2*
X25469D1*
X33424D2*
X34356D1*
X42311D2*
X43938D1*
X6230Y13715D2*
X7688D1*
X11199D2*
X12131D1*
X15643D2*
X16575D1*
X24530D2*
X25469D1*
X33424D2*
X34356D1*
X42311D2*
X43769D1*
X6393Y13318D2*
X7688D1*
X11199D2*
X12131D1*
X15643D2*
X16575D1*
X20086D2*
X21019D1*
X24530D2*
X25469D1*
X28980D2*
X29913D1*
X33424D2*
X34356D1*
X37868D2*
X38800D1*
X42311D2*
X43606D1*
X6561Y12922D2*
X7688D1*
X11199D2*
X12131D1*
X15643D2*
X16575D1*
X20086D2*
X21019D1*
X24530D2*
X25469D1*
X28980D2*
X29913D1*
X33424D2*
X34356D1*
X37868D2*
X38800D1*
X42311D2*
X43444D1*
X6724Y12525D2*
X8438D1*
X11236D2*
X43275D1*
X6886Y12128D2*
X8681D1*
X13418D2*
X18800D1*
X22311D2*
X27688D1*
X31199D2*
X36581D1*
X40093D2*
X43113D1*
X7055Y11732D2*
X9075D1*
X13418D2*
X14356D1*
X17868D2*
X18800D1*
X22311D2*
X23244D1*
X26755D2*
X27688D1*
X31199D2*
X32131D1*
X35643D2*
X36581D1*
X40093D2*
X42944D1*
X7218Y11335D2*
X9475D1*
X13418D2*
X14356D1*
X22311D2*
X23244D1*
X31199D2*
X32131D1*
X40093D2*
X42781D1*
X7380Y10938D2*
X9869D1*
X13418D2*
X14356D1*
X22311D2*
X23244D1*
X31199D2*
X32131D1*
X40093D2*
X42619D1*
X7549Y10542D2*
X9906D1*
X13418D2*
X14356D1*
X22311D2*
X23244D1*
X31199D2*
X32131D1*
X40093D2*
X42450D1*
X7711Y10145D2*
X9906D1*
X13418D2*
X14356D1*
X22311D2*
X23244D1*
X31199D2*
X32131D1*
X40093D2*
X42288D1*
X7880Y9748D2*
X9906D1*
X13418D2*
X14356D1*
X22311D2*
X23244D1*
X31199D2*
X32131D1*
X40093D2*
X42125D1*
X8043Y9352D2*
X9906D1*
X13418D2*
X14356D1*
X17868D2*
X18800D1*
X22311D2*
X23244D1*
X26755D2*
X27688D1*
X31199D2*
X32131D1*
X35643D2*
X36581D1*
X40093D2*
X41956D1*
X8205Y8955D2*
X9906D1*
X13418D2*
X14356D1*
X17868D2*
X18800D1*
X22311D2*
X23244D1*
X26755D2*
X27688D1*
X31199D2*
X32131D1*
X35643D2*
X36581D1*
X40093D2*
X41794D1*
X8374Y8558D2*
X9906D1*
X17868D2*
X18800D1*
X26755D2*
X27688D1*
X35643D2*
X36581D1*
X40093D2*
X41625D1*
X8536Y8162D2*
X9906D1*
X17868D2*
X18800D1*
X26755D2*
X27688D1*
X35643D2*
X36581D1*
X40093D2*
X41463D1*
X8699Y7765D2*
X9906D1*
X17868D2*
X18800D1*
X26755D2*
X27688D1*
X35643D2*
X36581D1*
X40093D2*
X41300D1*
X8868Y7368D2*
X9906D1*
X17868D2*
X18800D1*
X26755D2*
X27688D1*
X35643D2*
X36581D1*
X40093D2*
X41131D1*
X9030Y6972D2*
X9906D1*
X17868D2*
X18800D1*
X26755D2*
X27688D1*
X35643D2*
X36581D1*
X40093D2*
X40969D1*
X9199Y6575D2*
X9906D1*
X13418D2*
X14356D1*
X17868D2*
X18800D1*
X22311D2*
X23244D1*
X26755D2*
X27688D1*
X31199D2*
X32131D1*
X35643D2*
X36581D1*
X40093D2*
X40806D1*
X9361Y6178D2*
X9906D1*
X13418D2*
X14356D1*
X17868D2*
X18800D1*
X22311D2*
X23244D1*
X26755D2*
X27688D1*
X31199D2*
X32131D1*
X35643D2*
X36581D1*
X40093D2*
X40638D1*
X9524Y5782D2*
X40475D1*
X9693Y5385D2*
X40306D1*
X9855Y4988D2*
X40144D1*
X10018Y4592D2*
X39981D1*
X10186Y4195D2*
X39813D1*
X10349Y3798D2*
X39650D1*
X10518Y3402D2*
X39488D1*
X10680Y3005D2*
X39319D1*
X10843Y2608D2*
X39156D1*
X11011Y2212D2*
X38988D1*
X11174Y1815D2*
X38825D1*
X11336Y1418D2*
X38663D1*
X11505Y1022D2*
X38494D1*
X11668Y625D2*
X38331D1*
X5704Y25841D2*
X8936D1*
Y25235D1*
X9620Y25241D1*
X9951D1*
X9949Y25541D1*
X13381D1*
X13375Y22309D1*
X13381Y22141D1*
Y21935D1*
X14065Y21941D1*
X14396D1*
X14394Y22841D1*
Y25841D1*
X17826D1*
Y25235D1*
X18510Y25241D1*
X18841D1*
X18839Y25541D1*
X22271D1*
X22265Y22309D1*
X22271Y22141D1*
Y21935D1*
X22955Y21941D1*
X23286D1*
X23284Y22841D1*
Y25841D1*
X26716D1*
Y25235D1*
X27400Y25241D1*
X27731D1*
X27729Y25541D1*
X31161D1*
X31155Y22309D1*
X31161Y22141D1*
Y21935D1*
X31845Y21941D1*
X32176D1*
X32174Y22841D1*
Y25841D1*
X35606D1*
Y25235D1*
X36290Y25241D1*
X36621D1*
X36619Y25541D1*
X40051D1*
X40045Y22309D1*
X40051Y22141D1*
Y21935D1*
X40735Y21941D1*
X41066D1*
X41064Y22841D1*
Y25841D1*
X44496D1*
Y25235D1*
X45320Y25241D1*
X45519Y25221D1*
X45710Y25163D1*
X45886Y25069D1*
X46040Y24942D1*
X46166Y24787D1*
X46260Y24611D1*
X46317Y24420D1*
X46336Y24225D1*
Y20320D1*
X46316Y20121D1*
X46248Y19907D1*
X44978Y17050D1*
X44880Y16876D1*
X44749Y16725D1*
X44591Y16603D1*
X44413Y16514D1*
X44241Y16465D1*
X43850Y16447D1*
X42269D1*
X42274Y15846D1*
Y12846D1*
X38842D1*
Y13453D1*
X38157Y13447D1*
X37826D1*
X37828Y12671D1*
X34397D1*
X34403Y15904D1*
X34397Y16072D1*
Y16278D1*
X33712Y16271D1*
X33381D1*
X33383Y12846D1*
X29951D1*
Y13453D1*
X29268Y13447D1*
X28936D1*
X28939Y12671D1*
X25506D1*
X25513Y15904D1*
X25506Y16072D1*
Y16278D1*
X24823Y16271D1*
X24491D1*
X24494Y12846D1*
X21061D1*
Y13453D1*
X20378Y13447D1*
X20046D1*
X20049Y12671D1*
X16616D1*
X16623Y15904D1*
X16616Y16072D1*
Y16278D1*
X15932Y16271D1*
X15601D1*
X15603Y12846D1*
X12171D1*
Y13928D1*
X11160Y14943D1*
X11158Y12671D1*
X11052D1*
X11482Y12239D1*
X13381Y12236D1*
X13375Y9004D1*
X13381Y8836D1*
Y8630D1*
X14065Y8636D1*
X14396D1*
X14400Y9094D1*
X14394Y9261D1*
Y12094D1*
X17826D1*
Y11487D1*
X18510Y11493D1*
X18841D1*
X18839Y12236D1*
X22271D1*
X22265Y9004D1*
X22271Y8836D1*
Y8630D1*
X22955Y8636D1*
X23286D1*
X23290Y9094D1*
X23284Y9261D1*
Y12094D1*
X26716D1*
Y11487D1*
X27400Y11493D1*
X27731D1*
X27729Y12236D1*
X31161D1*
X31155Y9004D1*
X31161Y8836D1*
Y8630D1*
X31845Y8636D1*
X32176D1*
X32180Y9094D1*
X32174Y9261D1*
Y12094D1*
X35606D1*
Y11487D1*
X36290Y11493D1*
X36621D1*
X36619Y12236D1*
X40051D1*
X40045Y9004D1*
X40051Y8836D1*
Y6004D1*
X36619D1*
X36625Y9236D1*
X36619Y9460D1*
X35611Y9462D1*
X35606Y8861D1*
Y5861D1*
X32174D1*
Y6605D1*
X31166Y6604D1*
X31161Y6004D1*
X27729D1*
X27735Y9236D1*
X27729Y9460D1*
X26721Y9462D1*
X26716Y8861D1*
Y5861D1*
X23284D1*
Y6605D1*
X22276Y6604D1*
X22271Y6004D1*
X18839D1*
X18845Y9236D1*
X18839Y9460D1*
X17831Y9462D1*
X17826Y8861D1*
Y5861D1*
X14394D1*
Y6605D1*
X13386Y6604D1*
X13381Y6004D1*
X9949D1*
X9955Y9236D1*
X9949Y9404D1*
Y10898D1*
X8724Y12124D1*
X8597Y12278D1*
X8503Y12455D1*
X8444Y12658D1*
X8158Y12671D1*
X7726D1*
X7733Y15904D1*
X7726Y16072D1*
Y16353D1*
X7491Y16407D1*
X7309Y16489D1*
X7066Y16673D1*
X6431Y17308D1*
X6303Y17462D1*
X6204Y17635D1*
X6138Y17824D1*
X6109Y17992D1*
X6104Y18977D1*
Y19608D1*
X5504Y19609D1*
X5510Y22841D1*
X5504Y23009D1*
Y25841D1*
X5704D1*
X49257Y26805D2*
X744D1*
X1325Y25420D1*
X11679Y504D1*
X13348Y500D1*
X38316D1*
X44561Y15521D1*
X49250Y26804D1*
D18*
X7220Y24225D3*
Y21225D3*
X11665Y20925D3*
Y23925D3*
X16110Y24225D3*
Y21225D3*
X20555Y20925D3*
Y23925D3*
X25000Y24225D3*
Y21225D3*
X29445Y20925D3*
Y23925D3*
X33890Y24225D3*
Y21225D3*
X38335Y20925D3*
Y23925D3*
X13888Y17462D3*
Y14462D3*
X18332Y14288D3*
Y17288D3*
X22778Y17462D3*
Y14462D3*
X27222Y14288D3*
Y17288D3*
X31668Y17462D3*
Y14462D3*
X36113Y14288D3*
Y17288D3*
X40557Y17462D3*
Y14462D3*
X42780Y21225D3*
Y24225D3*
X9443Y14288D3*
Y17288D3*
X11665Y7620D3*
Y10620D3*
X16110Y10477D3*
Y7477D3*
X20555Y7620D3*
Y10620D3*
X25000Y10477D3*
Y7477D3*
X29445Y7620D3*
Y10620D3*
X33890Y10477D3*
Y7477D3*
X38335Y7620D3*
Y10620D3*
M02*
